# Made in Blockbench 4.12.5
mtllib overhead_truss_concrete.mtl

o side
v 0.343446875 0.625 0.999046875
v 0.343446875 0.625 -0.0009531249999999991
v 0.343446875 0.375 0.999046875
v 0.343446875 0.375 -0.0009531249999999991
v 0.24969687500000004 0.625 0.999046875
v 0.24969687500000004 0.625 -0.0009531249999999991
v 0.24969687500000004 0.375 0.999046875
v 0.24969687500000004 0.375 -0.0009531249999999991
v 0.6246968749999999 0.34375 0.999046875
v 0.6246968749999999 0.34375 -0.0009531249999999991
v 0.6246968749999999 0.25 0.999046875
v 0.6246968749999999 0.25 -0.0009531249999999991
v 0.374696875 0.34375 0.999046875
v 0.374696875 0.34375 -0.0009531249999999991
v 0.374696875 0.25 0.999046875
v 0.374696875 0.25 -0.0009531249999999991
v 0.6246968749999999 0.75 0.999046875
v 0.6246968749999999 0.75 -0.0009531249999999991
v 0.6246968749999999 0.65625 0.999046875
v 0.6246968749999999 0.65625 -0.0009531249999999991
v 0.374696875 0.75 0.999046875
v 0.374696875 0.75 -0.0009531249999999991
v 0.374696875 0.65625 0.999046875
v 0.374696875 0.65625 -0.0009531249999999991
v 0.7496968749999999 0.625 0.999046875
v 0.7496968749999999 0.625 -0.0009531249999999991
v 0.7496968749999999 0.375 0.999046875
v 0.7496968749999999 0.375 -0.0009531249999999991
v 0.6559468749999999 0.625 0.999046875
v 0.6559468749999999 0.625 -0.0009531249999999991
v 0.6559468749999999 0.375 0.999046875
v 0.6559468749999999 0.375 -0.0009531249999999991
v 0.4409880987219423 0.6837087129857036 0.999046875
v 0.4409880987219423 0.6837087129857036 -0.0009531249999999991
v 0.3172444120142965 0.5599650262780577 0.999046875
v 0.3172444120142965 0.5599650262780577 -0.0009531249999999991
v 0.6821493379857035 0.44003497372194234 0.999046875
v 0.6821493379857035 0.44003497372194234 -0.0009531249999999991
v 0.5584056512780577 0.3162912870142965 0.999046875
v 0.5584056512780577 0.3162912870142965 -0.0009531249999999991
v 0.31598816201429647 0.4412912237219424 0.999046875
v 0.31598816201429647 0.4412912237219424 -0.0009531249999999991
v 0.4397318487219423 0.31754753701429655 0.999046875
v 0.4397318487219423 0.31754753701429655 -0.0009531249999999991
v 0.6821493379857035 0.5599650262780577 0.999046875
v 0.6821493379857035 0.5599650262780577 -0.0009531249999999991
v 0.5584056512780577 0.6837087129857036 0.999046875
v 0.5584056512780577 0.6837087129857036 -0.0009531249999999991
v 0.6559468749999999 0.65625 0.983421875
v 0.6559468749999999 0.34375 0.983421875
v 0.343446875 0.65625 0.983421875
v 0.343446875 0.34375 0.983421875
v 0.6559468749999999 0.65625 0.014671875000000001
v 0.6559468749999999 0.34375 0.014671875000000001
v 0.343446875 0.65625 0.014671875000000001
v 0.343446875 0.34375 0.014671875000000001
vt 0.125 1
vt 0 1
vt 0 0.5
vt 0.125 0.5
vt 0.53125 0.5
vt 0.65625 0.5
vt 0.65625 1
vt 0.53125 1
vt 0.25 0.34375
vt 0.25 0.84375
vt 0.21875 0.84375
vt 0.21875 0.34375
vt 0.21875 0.84375
vt 0.21875 0.34375
vt 0.25 0.34375
vt 0.25 0.84375
vt 0.25 0.6875
vt 0.25 0.8125
vt 0.28125 0.8125
vt 0.28125 0.6875
vt 0.28125 0.6875
vt 0.28125 0.8125
vt 0.25 0.8125
vt 0.25 0.6875
vt 0.25 0.84375
vt 0.21875 0.84375
vt 0.21875 0.34375
vt 0.25 0.34375
vt 0.21875 0.34375
vt 0.25 0.34375
vt 0.25 0.84375
vt 0.21875 0.84375
vt 0.125 0.5
vt 0.125 1
vt 0 1
vt 0 0.5
vt 0.3125 1
vt 0.3125 0.5
vt 0.4375 0.5
vt 0.4375 1
vt 0.25 0.796875
vt 0.25 0.8125
vt 0.375 0.8125
vt 0.375 0.796875
vt 0.375 0.796875
vt 0.375 0.8125
vt 0.25 0.8125
vt 0.25 0.796875
vt 0.25 0.84375
vt 0.21875 0.84375
vt 0.21875 0.34375
vt 0.25 0.34375
vt 0.21875 0.34375
vt 0.25 0.34375
vt 0.25 0.84375
vt 0.21875 0.84375
vt 0.96875 0.5
vt 0.96875 1
vt 0.84375 1
vt 0.84375 0.5
vt 0 1
vt 0 0.5
vt 0.125 0.5
vt 0.125 1
vt 0.25 0.796875
vt 0.25 0.8125
vt 0.375 0.8125
vt 0.375 0.796875
vt 0.375 0.640625
vt 0.375 0.65625
vt 0.25 0.65625
vt 0.25 0.640625
vt 0.625 1
vt 0.5 1
vt 0.5 0.5
vt 0.625 0.5
vt 0 0.5
vt 0.125 0.5
vt 0.125 1
vt 0 1
vt 0.25 0.34375
vt 0.25 0.84375
vt 0.21875 0.84375
vt 0.21875 0.34375
vt 0.21875 0.84375
vt 0.21875 0.34375
vt 0.25 0.34375
vt 0.25 0.84375
vt 0.25 0.6875
vt 0.25 0.8125
vt 0.28125 0.8125
vt 0.28125 0.6875
vt 0.28125 0.6875
vt 0.28125 0.8125
vt 0.25 0.8125
vt 0.25 0.6875
vt 0.21875 1
vt 0.125 1
vt 0.125 0.5
vt 0.21875 0.5
vt 0.25 0.34375
vt 0.25 0.84375
vt 0.21875 0.84375
vt 0.21875 0.34375
vt 0.21875 0.84375
vt 0.21875 0.34375
vt 0.25 0.34375
vt 0.25 0.84375
vt 0.3125 0.78125
vt 0.40625 0.78125
vt 0.40625 0.75
vt 0.3125 0.75
vt 0.4375 0.5625
vt 0.53125 0.5625
vt 0.53125 0.59375
vt 0.4375 0.59375
vt 0.6875 1
vt 0.59375 1
vt 0.59375 0.5
vt 0.6875 0.5
vt 0.125 0.5
vt 0.21875 0.5
vt 0.21875 1
vt 0.125 1
vt 0.25 0.34375
vt 0.25 0.84375
vt 0.21875 0.84375
vt 0.21875 0.34375
vt 0.21875 0.84375
vt 0.21875 0.34375
vt 0.25 0.34375
vt 0.25 0.84375
vt 0.40625 0.78125
vt 0.40625 0.75
vt 0.3125 0.75
vt 0.3125 0.78125
vt 0.4375 0.65625
vt 0.4375 0.625
vt 0.53125 0.625
vt 0.53125 0.65625
vt 0.21875 1
vt 0.125 1
vt 0.125 0.5
vt 0.21875 0.5
vt 0.78125 0.5
vt 0.875 0.5
vt 0.875 1
vt 0.78125 1
vt 0.25 0.34375
vt 0.25 0.84375
vt 0.21875 0.84375
vt 0.21875 0.34375
vt 0.21875 0.84375
vt 0.21875 0.34375
vt 0.25 0.34375
vt 0.25 0.84375
vt 0.5 0.75
vt 0.40625 0.75
vt 0.40625 0.78125
vt 0.5 0.78125
vt 0.5 0.78125
vt 0.40625 0.78125
vt 0.40625 0.75
vt 0.5 0.75
vt 0.25 0.84375
vt 0.21875 0.84375
vt 0.21875 0.34375
vt 0.25 0.34375
vt 0.21875 0.34375
vt 0.25 0.34375
vt 0.25 0.84375
vt 0.21875 0.84375
vt 0.125 1
vt 0.125 0.5
vt 0.21875 0.5
vt 0.21875 1
vt 0.71875 0.9375
vt 0.71875 0.90625
vt 0.625 0.90625
vt 0.625 0.9375
vt 0.3125 0.625
vt 0.3125 0.59375
vt 0.40625 0.59375
vt 0.40625 0.625
vt 0.21875 1
vt 0.375 1
vt 0.375 0.84375
vt 0.21875 0.84375
vt 0.4375 0.34375
vt 0.4375 0.5
vt 0.28125 0.5
vt 0.28125 0.34375
vt 0.6120546875 0.5
vt 0.6120546875 1
vt 0.7004453125 1
vt 0.7004453125 0.5
vt 0.7683046875 0.5
vt 0.8566953125000001 0.5
vt 0.8566953125000001 1
vt 0.7683046875 1
vn 1 0 0
vn -1 0 0
vn 0 1 0
vn 0 -1 0
vn 0 0 1
vn 0 0 -1
vn 1 0 0
vn -1 0 0
vn 0 1 0
vn 0 -1 0
vn 0 0 1
vn 0 0 -1
vn 1 0 0
vn -1 0 0
vn 0 1 0
vn 0 -1 0
vn 0 0 1
vn 0 0 -1
vn 1 0 0
vn -1 0 0
vn 0 1 0
vn 0 -1 0
vn 0 0 1
vn 0 0 -1
vn 0.7071067811865479 -0.7071067811865472 0
vn 0.7071071187457164 0.7071064436272176 0
vn -0.6935819078603066 -0.7203777738720548 0
vn 0 0 1
vn 0 0 -1
vn 0.7071067811865476 -0.7071067811865476 0
vn -0.7071067811865477 0.7071067811865474 0
vn 0.6935819078603063 0.720377773872055 0
vn -0.7071071187457166 -0.7071064436272173 0
vn 0 0 1
vn 0 0 -1
vn 0.7071067811865476 0.7071067811865476 0
vn -0.7071067811865477 -0.7071067811865474 0
vn -0.7071064436272182 0.7071071187457157 0
vn 0.7203777738720554 -0.6935819078603059 0
vn 0 0 1
vn 0 0 -1
vn 0.6935819078603063 -0.720377773872055 0
vn -0.7071071187457164 0.7071064436272176 0
vn -0.7071067811865479 -0.7071067811865472 0
vn 0 0 1
vn 0 0 -1
vn 0 0 1
vn 0 0 -1
vn 0.7071067811865476 0.7071067811865476 0
vn -0.7071067811865477 0.7071067811865474 0
usemtl m_c1b5e12a-c053-b91d-b2ef-7eb4e3df9241
f 4/1/1 2/2/1 1/3/1
f 4/1/1 1/3/1 3/4/1
f 7/5/2 5/6/2 6/7/2
f 7/5/2 6/7/2 8/8/2
f 1/9/3 2/10/3 6/11/3
f 1/9/3 6/11/3 5/12/3
f 4/13/4 3/14/4 7/15/4
f 4/13/4 7/15/4 8/16/4
f 3/17/5 1/18/5 5/19/5
f 3/17/5 5/19/5 7/20/5
f 8/21/6 6/22/6 2/23/6
f 8/21/6 2/23/6 4/24/6
f 12/25/7 10/26/7 9/27/7
f 12/25/7 9/27/7 11/28/7
f 15/29/8 13/30/8 14/31/8
f 15/29/8 14/31/8 16/32/8
f 9/33/9 10/34/9 14/35/9
f 9/33/9 14/35/9 13/36/9
f 12/37/10 11/38/10 15/39/10
f 12/37/10 15/39/10 16/40/10
f 11/41/11 9/42/11 13/43/11
f 11/41/11 13/43/11 15/44/11
f 16/45/12 14/46/12 10/47/12
f 16/45/12 10/47/12 12/48/12
f 20/49/13 18/50/13 17/51/13
f 20/49/13 17/51/13 19/52/13
f 23/53/14 21/54/14 22/55/14
f 23/53/14 22/55/14 24/56/14
f 17/57/15 18/58/15 22/59/15
f 17/57/15 22/59/15 21/60/15
f 20/61/16 19/62/16 23/63/16
f 20/61/16 23/63/16 24/64/16
f 19/65/17 17/66/17 21/67/17
f 19/65/17 21/67/17 23/68/17
f 24/69/18 22/70/18 18/71/18
f 24/69/18 18/71/18 20/72/18
f 28/73/19 26/74/19 25/75/19
f 28/73/19 25/75/19 27/76/19
f 31/77/20 29/78/20 30/79/20
f 31/77/20 30/79/20 32/80/20
f 25/81/21 26/82/21 30/83/21
f 25/81/21 30/83/21 29/84/21
f 28/85/22 27/86/22 31/87/22
f 28/85/22 31/87/22 32/88/22
f 27/89/23 25/90/23 29/91/23
f 27/89/23 29/91/23 31/92/23
f 32/93/24 30/94/24 26/95/24
f 32/93/24 26/95/24 28/96/24
f 36/97/25 34/98/25 33/99/25
f 36/97/25 33/99/25 35/100/25
f 33/101/26 34/102/26 22/103/26
f 33/101/26 22/103/26 21/104/26
f 36/105/27 35/106/27 5/107/27
f 36/105/27 5/107/27 6/108/27
f 35/109/28 33/110/28 21/111/28
f 35/109/28 21/111/28 5/112/28
f 6/113/29 22/114/29 34/115/29
f 6/113/29 34/115/29 36/116/29
f 12/117/30 28/118/30 27/119/30
f 12/117/30 27/119/30 11/120/30
f 39/121/31 37/122/31 38/123/31
f 39/121/31 38/123/31 40/124/31
f 27/125/32 28/126/32 38/127/32
f 27/125/32 38/127/32 37/128/32
f 12/129/33 11/130/33 39/131/33
f 12/129/33 39/131/33 40/132/33
f 11/133/34 27/134/34 37/135/34
f 11/133/34 37/135/34 39/136/34
f 40/137/35 38/138/35 28/139/35
f 40/137/35 28/139/35 12/140/35
f 44/141/36 42/142/36 41/143/36
f 44/141/36 41/143/36 43/144/36
f 15/145/37 7/146/37 8/147/37
f 15/145/37 8/147/37 16/148/37
f 41/149/38 42/150/38 8/151/38
f 41/149/38 8/151/38 7/152/38
f 44/153/39 43/154/39 15/155/39
f 44/153/39 15/155/39 16/156/39
f 43/157/40 41/158/40 7/159/40
f 43/157/40 7/159/40 15/160/40
f 16/161/41 8/162/41 42/163/41
f 16/161/41 42/163/41 44/164/41
f 46/165/42 26/166/42 25/167/42
f 46/165/42 25/167/42 45/168/42
f 47/169/43 17/170/43 18/171/43
f 47/169/43 18/171/43 48/172/43
f 46/173/44 45/174/44 47/175/44
f 46/173/44 47/175/44 48/176/44
f 45/177/45 25/178/45 17/179/45
f 45/177/45 17/179/45 47/180/45
f 48/181/46 18/182/46 26/183/46
f 48/181/46 26/183/46 46/184/46
f 49/185/47 51/186/47 52/187/47
f 49/185/47 52/187/47 50/188/47
f 56/189/48 55/190/48 53/191/48
f 56/189/48 53/191/48 54/192/48
f 25/193/49 26/194/49 18/195/49
f 25/193/49 18/195/49 17/196/49
f 5/197/50 21/198/50 22/199/50
f 5/197/50 22/199/50 6/200/50