# Made in Blockbench 4.12.3
mtllib auxiliary_reservoir_longitudinal.mtl

o å‰¯é£ç¼¸2
v 1.006305625 0.49375 2.359195625
v 0.9438056249999999 0.49375 2.359195625
v 1.006305625 0.30625 2.359195625
v 0.9438056249999999 0.30625 2.359195625
v 1.006305625 0.49375 2.359195625
v 0.9438056249999999 0.49375 2.359195625
v 1.006305625 0.30625 2.359195625
v 0.9438056249999999 0.30625 2.359195625
v 1.006305625 0.49375 1.421695625
v 0.9438056249999999 0.49375 1.421695625
v 1.006305625 0.30625 1.421695625
v 0.9438056249999999 0.30625 1.421695625
v 1.006305625 0.49375 1.421695625
v 0.9438056249999999 0.49375 1.421695625
v 1.006305625 0.30625 1.421695625
v 0.9438056249999999 0.30625 1.421695625
v 1.141694375 0.408470625 1.2018143749999999
v 1.310888125 0.23927625000000002 1.2018143749999999
v 1.141694375 0.408470625 2.579633125
v 1.310888125 0.23927625000000002 2.579633125
v 0.9024174999999999 0.408470625 2.576888125
v 1.141694375 0.408470625 2.576888125
v 0.7332231249999999 0.23927625000000002 1.2018143749999999
v 0.9024174999999999 0.408470625 1.2018143749999999
v 0.7332231249999999 0.23927625000000002 2.579633125
v 0.9024174999999999 0.408470625 2.579633125
v 0.7332231249999999 0 1.2018143749999999
v 0.9024174999999999 -0.169194375 1.205064375
v 0.7332231249999999 0 2.579633125
v 0.9024174999999999 -0.169194375 2.579388125
v 1.141694375 -0.169194375 2.579388125
v 1.141694375 -0.169194375 1.205064375
v 1.310888125 0 1.2018143749999999
v 1.310888125 0 2.579633125
vt 0.015625 1
vt 0.015625 1
vt 0 1
vt 0 1
vt 0.015625 1
vt 0.015625 1
vt 0 1
vt 0 1
vt 0.7194546875 1
vt 0.375 1
vt 0.375 0.94018125
vt 0.7194546875 0.94018125
vt 0.0625 0.5
vt 0.0625 0.84375
vt 0 0.84375
vt 0 0.5
vt 0.5 0.6875
vt 0.15625 0.6875
vt 0.15625 0.625
vt 0.5 0.625
vt 0.421875 0.84375
vt 0.078125 0.84375
vt 0.078125 0.78125
vt 0.421875 0.78125
vt 0.3600796875 1
vt 0.015625 1
vt 0.0164375 0.94018125
vt 0.36001875 0.94018125
vt 0.140625 0.34375
vt 0.140625 0.6875
vt 0.078125 0.6875
vt 0.078125 0.34375
vt 0.0000609375 0.86205625
vt 0.3436421875 0.86205625
vt 0.3444546875 0.921875
vt 0 0.921875
vt 0.300665625 0.5827015625
vt 0.2583671875 0.625
vt 0.1985484375 0.625
vt 0.15625 0.5827015625
vt 0.2583671875 0.47331875
vt 0.300665625 0.515625
vt 0.15625 0.515625
vt 0.1985484375 0.47331875
vt 0.4784578125 0.5072578125
vt 0.4784578125 0.5670765625
vt 0.3340421875 0.5670765625
vt 0.3340421875 0.5072578125
vt 0.4784578125 0.5670765625
vt 0.436159375 0.609375
vt 0.376340625 0.609375
vt 0.3340421875 0.5670765625
vt 0.436159375 0.46495937499999995
vt 0.4784578125 0.5072578125
vt 0.3340421875 0.5072578125
vt 0.376340625 0.46495937499999995
vt 0.390625 0.875
vt 0.390625 0.921875
vt 0.375 0.921875
vt 0.375 0.875
vt 0.421875 0.875
vt 0.421875 0.921875
vt 0.40625 0.921875
vt 0.40625 0.875
vt 0 1
vt 0 1
vt 0 1
vt 0 1
vt 0 1
vt 0 1
vt 0 1
vt 0 1
vt 0.453125 0.875
vt 0.453125 0.921875
vt 0.4375 0.921875
vt 0.4375 0.875
vt 0.453125 0.8125
vt 0.453125 0.859375
vt 0.4375 0.859375
vt 0.4375 0.8125
vt 0 1
vt 0 1
vt 0 1
vt 0 1
vt 0 1
vt 0 1
vt 0 1
vt 0 1
vt 0.4225796875 0.765625
vt 0.078125 0.765625
vt 0.078125 0.70580625
vt 0.4225796875 0.70580625
vt 0.300665625 0.51830625
vt 0.300665625 0.578125
vt 0.15625 0.578125
vt 0.15625 0.51830625
vn 0 0 0
vn 0 0 0
vn 0.7071080872055755 0.7071054751651074 0
vn 0 1 0
vn -0.7071067811865476 0.7071067811865476 0
vn -1 0 0
vn -0.7071067811865476 -0.7071067811865475 0
vn 0 -1 0
vn 0.7071080872055756 -0.7071054751651074 0
vn 0 0 -1
vn 0 -0.01920513364785824 -0.9998155644125412
vn 0 0 1
vn 0 0 1
vn 0 -0.0014480371651864382 0.9999989515936346
vn 0 0 -1
vn 0 0 1
vn 0 0 0
vn 0 0 0
vn 0 0 -1
vn 0 0 1
vn 0 0 0
vn 0 0 0
vn 1 0 0
vn 0 0 -1
usemtl m_bd3cf6a6-e0c1-6910-e311-d1a7f944f1a5
f 3/1/1 7/2/1 4/3/1 8/4/1
f 11/5/2 15/6/2 12/7/2 16/8/2
f 17/9/3 19/10/3 20/11/3 18/12/3
f 22/13/4 17/14/4 24/15/4 21/16/4
f 26/17/5 24/18/5 23/19/5 25/20/5
f 25/21/6 23/22/6 27/23/6 29/24/6
f 29/25/7 27/26/7 28/27/7 30/28/7
f 30/29/8 28/30/8 32/31/8 31/32/8
f 31/33/9 32/34/9 33/35/9 34/36/9
f 23/37/10 24/38/10 17/39/10 18/40/10
f 28/41/11 27/42/11 33/43/11 32/44/11
f 34/45/12 20/46/12 25/47/12 29/48/12
f 20/49/13 19/50/13 26/51/13 25/52/13
f 31/53/14 34/54/14 29/55/14 30/56/14
f 4/57/15 2/58/15 1/59/15 3/60/15
f 7/61/16 5/62/16 6/63/16 8/64/16
f 1/65/17 5/66/17 3/67/17 7/68/17
f 6/69/18 2/70/18 8/71/18 4/72/18
f 12/73/19 10/74/19 9/75/19 11/76/19
f 15/77/20 13/78/20 14/79/20 16/80/20
f 9/81/21 13/82/21 11/83/21 15/84/21
f 14/85/22 10/86/22 16/87/22 12/88/22
f 18/89/23 20/90/23 34/91/23 33/92/23
f 27/93/24 23/94/24 18/95/24 33/96/24