# Made in Blockbench 4.12.4
mtllib vacuum_toilet_2.mtl

o cube
v 1.0625 0.25 2.9375
v 1.0625 0.25 1.3125
v 1.0625 -0.3125 2.9375
v 1.0625 -0.3125 1.3125
v 0.375 0.25 2.9375
v 0.375 0.25 1.3125
v 0.375 -0.3125 2.9375
v 0.375 -0.3125 1.3125
v 0.7133882936031691 0.100000277709486 1.3125
v 0.7133882936031691 0.100000277709486 1.1875
v 0.6249999459548508 0.011611930061167564 1.3125
v 0.6249999459548508 0.011611930061167564 1.1875
v 0.6249999459548508 0.18838862535780446 1.3125
v 0.6249999459548508 0.18838862535780446 1.1875
v 0.5366115983065323 0.100000277709486 1.3125
v 0.5366115983065323 0.100000277709486 1.1875
v 1.03504100370495 0.14062488811386795 1.3125
v 1.03504100370495 0.14062488811386795 1.1875
v 0.9687497429687112 0.07433362737762911 1.3125
v 0.9687497429687112 0.07433362737762911 1.1875
v 0.9687497429687113 0.20691614885010678 1.3125
v 0.9687497429687113 0.20691614885010678 1.1875
v 0.9024584822324724 0.14062488811386797 1.3125
v 0.9024584822324724 0.14062488811386797 1.1875
v 0.53504137931056 0.14062488811386792 1.3125
v 0.53504137931056 0.14062488811386792 1.1875
v 0.46875011857432114 0.07433362737762905 1.3125
v 0.46875011857432114 0.07433362737762905 1.1875
v 0.4687501185743211 0.20691614885010676 1.3125
v 0.4687501185743211 0.20691614885010676 1.1875
v 0.4024588578380823 0.14062488811386792 1.3125
v 0.4024588578380823 0.14062488811386792 1.1875
v 0.421875 0.15625 1.21875
v 0.421875 0.15625 1.21875
v 0.421875 0.03125 1.21875
v 0.421875 0.03125 1.21875
v 0.375 0.15625 1.21875
v 0.375 0.15625 1.21875
v 0.375 0.03125 1.21875
v 0.375 0.03125 1.21875
v 0.5625 0.13125 1.21875
v 0.5625 0.13125 1.21875
v 0.5625 -0.05625000000000002 1.21875
v 0.5625 -0.05625000000000002 1.21875
v 0.515625 0.13125 1.21875
v 0.515625 0.13125 1.21875
v 0.515625 -0.05625000000000002 1.21875
v 0.515625 -0.05625000000000002 1.21875
v 1.03125 0.5 1.625
v 1.03125 0.5 1.5
v 1.03125 0.25 1.625
v 1.03125 0.25 1.5
v 0.46875 0.5 1.625
v 0.46875 0.5 1.5
v 0.46875 0.25 1.625
v 0.46875 0.25 1.5
v 1.125 0.1875 2.75
v 1.125 0.1875 1.75
v 1.125 -0.1875 2.75
v 1.125 -0.1875 1.75
v 1.0625 0.1875 2.75
v 1.0625 0.1875 1.75
v 1.0625 -0.1875 2.75
v 1.0625 -0.1875 1.75
v 1.09375 0.3125 2.96875
v 1.09375 0.3125 1.28125
v 1.09375 0.25 2.96875
v 1.09375 0.25 1.28125
v 0.34375 0.3125 2.96875
v 0.34375 0.3125 1.28125
v 0.34375 0.25 2.96875
v 0.34375 0.25 1.28125
v 0.66919411977901 0.10000027770948605 1.1875
v 0.66919411977901 0.10000027770948605 1.125
v 0.6249999459548508 0.05580610388532681 1.1875
v 0.6249999459548508 0.05580610388532681 1.125
v 0.6249999459548508 0.14419445153364524 1.1875
v 0.6249999459548508 0.14419445153364524 1.125
v 0.5808057721306915 0.100000277709486 1.1875
v 0.5808057721306915 0.100000277709486 1.125
v 1.0129443587346088 0.14062533005560618 1.24375
v 1.0129443587346088 0.14062533005560618 1.18125
v 0.9687501849104494 0.09643115623144699 1.24375
v 0.9687501849104494 0.09643115623144699 1.18125
v 0.9687501849104494 0.1848195038797654 1.24375
v 0.9687501849104494 0.1848195038797654 1.18125
v 0.9245560110862903 0.14062533005560618 1.24375
v 0.9245560110862903 0.14062533005560618 1.18125
v 0.5129442923984803 0.14062488811386795 1.24375
v 0.5129442923984803 0.14062488811386795 1.18125
v 0.4687501185743211 0.09643071428970873 1.24375
v 0.4687501185743211 0.09643071428970873 1.18125
v 0.4687501185743211 0.18481906193802716 1.24375
v 0.4687501185743211 0.18481906193802716 1.18125
v 0.4245559447501619 0.14062488811386795 1.24375
v 0.4245559447501619 0.14062488811386795 1.18125
v 1.03125 0.5 2.75
v 1.03125 0.5 2.625
v 1.03125 0.25 2.75
v 1.03125 0.25 2.625
v 0.46875 0.5 2.75
v 0.46875 0.5 2.625
v 0.46875 0.25 2.75
v 0.46875 0.25 2.625
v 0.8970949951578362 0.5325368345884816 1.421875
v 0.8970949951578362 0.5325368345884816 1.328125
v 1.0286424250333357 0.21495324528772672 1.421875
v 1.0286424250333357 0.21495324528772672 1.328125
v 0.810481288984903 0.49666026280425435 1.421875
v 0.810481288984903 0.49666026280425435 1.328125
v 0.9420287188604026 0.17907667350349957 1.421875
v 0.9420287188604026 0.17907667350349957 1.328125
vt 0.828125 0.859375
vt 0.828125 1
vt 0.421875 1
vt 0.421875 0.859375
vt 0.828125 0.71875
vt 0.828125 0.859375
vt 0.421875 0.859375
vt 0.421875 0.71875
vt 0 0.453125
vt 0.40625 0.453125
vt 0.40625 0.625
vt 0 0.625
vt 0.8125 0.453125
vt 0.40625 0.453125
vt 0.40625 0.625
vt 0.8125 0.625
vt 0.171875 0.3125
vt 0.171875 0.453125
vt 0 0.453125
vt 0 0.3125
vt 0.34375 0.3125
vt 0.34375 0.453125
vt 0.171875 0.453125
vt 0.171875 0.3125
vt 0.703125 0.625
vt 0.703125 0.65625
vt 0.671875 0.65625
vt 0.671875 0.625
vt 0.6875 0.296875
vt 0.6875 0.328125
vt 0.65625 0.328125
vt 0.65625 0.296875
vt 0.03125 0.28125
vt 0.0625 0.28125
vt 0.0625 0.3125
vt 0.03125 0.3125
vt 0.09375 0.28125
vt 0.0625 0.28125
vt 0.0625 0.3125
vt 0.09375 0.3125
vt 0.65625 0.296875
vt 0.65625 0.328125
vt 0.625 0.328125
vt 0.625 0.296875
vt 0.03125 0.28125
vt 0.03125 0.3125
vt 0 0.3125
vt 0 0.28125
vt 0.125 0.28125
vt 0.125 0.3125
vt 0.09375 0.3125
vt 0.09375 0.28125
vt 0.1875 0.28125
vt 0.1875 0.3125
vt 0.15625 0.3125
vt 0.15625 0.28125
vt 0.21875 0.28125
vt 0.25 0.28125
vt 0.25 0.3125
vt 0.21875 0.3125
vt 0.28125 0.28125
vt 0.25 0.28125
vt 0.25 0.3125
vt 0.28125 0.3125
vt 0.15625 0.28125
vt 0.15625 0.3125
vt 0.125 0.3125
vt 0.125 0.28125
vt 0.21875 0.28125
vt 0.21875 0.3125
vt 0.1875 0.3125
vt 0.1875 0.28125
vt 0.3125 0.28125
vt 0.3125 0.3125
vt 0.28125 0.3125
vt 0.28125 0.28125
vt 0.71875 0.296875
vt 0.71875 0.328125
vt 0.6875 0.328125
vt 0.6875 0.296875
vt 0.625 0.265625
vt 0.65625 0.265625
vt 0.65625 0.296875
vt 0.625 0.296875
vt 0.6875 0.265625
vt 0.65625 0.265625
vt 0.65625 0.296875
vt 0.6875 0.296875
vt 0.34375 0.28125
vt 0.34375 0.3125
vt 0.3125 0.3125
vt 0.3125 0.28125
vt 0.734375 0.625
vt 0.734375 0.65625
vt 0.703125 0.65625
vt 0.703125 0.625
vt 0 1
vt 0 1
vt 0 0.96875
vt 0 0.96875
vt 0 1
vt 0 1
vt 0 0.96875
vt 0 0.96875
vt 0 0.984375
vt 0 1
vt 0 0.984375
vt 0 1
vt 0 0.984375
vt 0 1
vt 0 0.984375
vt 0 1
vt 0.078125 0.25
vt 0.078125 0.28125
vt 0.0625 0.28125
vt 0.0625 0.25
vt 0.09375 0.25
vt 0.09375 0.28125
vt 0.078125 0.28125
vt 0.078125 0.25
vt 0 1
vt 0 1
vt 0 0.953125
vt 0 0.953125
vt 0 1
vt 0 1
vt 0 0.953125
vt 0 0.953125
vt 0 0.984375
vt 0 1
vt 0 0.984375
vt 0 1
vt 0 0.984375
vt 0 1
vt 0 0.984375
vt 0 1
vt 0.046875 0.234375
vt 0.046875 0.28125
vt 0.03125 0.28125
vt 0.03125 0.234375
vt 0.0625 0.234375
vt 0.0625 0.28125
vt 0.046875 0.28125
vt 0.046875 0.234375
vt 0.5625 0.265625
vt 0.5625 0.328125
vt 0.53125 0.328125
vt 0.53125 0.265625
vt 0.59375 0.265625
vt 0.59375 0.328125
vt 0.5625 0.328125
vt 0.5625 0.265625
vt 0.34375 0.21875
vt 0.375 0.21875
vt 0.375 0.359375
vt 0.34375 0.359375
vt 0.40625 0.21875
vt 0.375 0.21875
vt 0.375 0.359375
vt 0.40625 0.359375
vt 0.734375 0.390625
vt 0.734375 0.453125
vt 0.59375 0.453125
vt 0.59375 0.390625
vt 0.734375 0.328125
vt 0.734375 0.390625
vt 0.59375 0.390625
vt 0.59375 0.328125
vt 0.671875 0.625
vt 0.671875 0.71875
vt 0.421875 0.71875
vt 0.421875 0.625
vt 0.59375 0.359375
vt 0.59375 0.453125
vt 0.34375 0.453125
vt 0.34375 0.359375
vt 0.671875 0.671875
vt 0.921875 0.671875
vt 0.921875 0.6875
vt 0.671875 0.6875
vt 0.921875 0.65625
vt 0.671875 0.65625
vt 0.671875 0.671875
vt 0.921875 0.671875
vt 0.609375 0.234375
vt 0.609375 0.328125
vt 0.59375 0.328125
vt 0.59375 0.234375
vt 0.625 0.234375
vt 0.625 0.328125
vt 0.609375 0.328125
vt 0.609375 0.234375
vt 1.09375 0.703125
vt 1.09375 0.71875
vt 0.671875 0.71875
vt 0.671875 0.703125
vt 1.09375 0.6875
vt 1.09375 0.703125
vt 0.671875 0.703125
vt 0.671875 0.6875
vt 0 0.8125
vt 0.421875 0.8125
vt 0.421875 1
vt 0 1
vt 0.421875 0.625
vt 0 0.625
vt 0 0.8125
vt 0.421875 0.8125
vt 0.59375 0.34375
vt 0.59375 0.359375
vt 0.40625 0.359375
vt 0.40625 0.34375
vt 0.59375 0.328125
vt 0.59375 0.34375
vt 0.40625 0.34375
vt 0.40625 0.328125
vt 0.109375 0.265625
vt 0.109375 0.28125
vt 0.09375 0.28125
vt 0.09375 0.265625
vt 0.140625 0.265625
vt 0.140625 0.28125
vt 0.125 0.28125
vt 0.125 0.265625
vt 0.15625 0.265625
vt 0.171875 0.265625
vt 0.171875 0.28125
vt 0.15625 0.28125
vt 0.1875 0.265625
vt 0.171875 0.265625
vt 0.171875 0.28125
vt 0.1875 0.28125
vt 0.125 0.265625
vt 0.125 0.28125
vt 0.109375 0.28125
vt 0.109375 0.265625
vt 0.15625 0.265625
vt 0.15625 0.28125
vt 0.140625 0.28125
vt 0.140625 0.265625
vt 0.109375 0.265625
vt 0.109375 0.28125
vt 0.09375 0.28125
vt 0.09375 0.265625
vt 0.140625 0.265625
vt 0.140625 0.28125
vt 0.125 0.28125
vt 0.125 0.265625
vt 0.15625 0.265625
vt 0.171875 0.265625
vt 0.171875 0.28125
vt 0.15625 0.28125
vt 0.1875 0.265625
vt 0.171875 0.265625
vt 0.171875 0.28125
vt 0.1875 0.28125
vt 0.125 0.265625
vt 0.125 0.28125
vt 0.109375 0.28125
vt 0.109375 0.265625
vt 0.15625 0.265625
vt 0.15625 0.28125
vt 0.140625 0.28125
vt 0.140625 0.265625
vt 0.109375 0.265625
vt 0.109375 0.28125
vt 0.09375 0.28125
vt 0.09375 0.265625
vt 0.140625 0.265625
vt 0.140625 0.28125
vt 0.125 0.28125
vt 0.125 0.265625
vt 0.15625 0.265625
vt 0.171875 0.265625
vt 0.171875 0.28125
vt 0.15625 0.28125
vt 0.1875 0.265625
vt 0.171875 0.265625
vt 0.171875 0.28125
vt 0.1875 0.28125
vt 0.125 0.265625
vt 0.125 0.28125
vt 0.109375 0.28125
vt 0.109375 0.265625
vt 0.15625 0.265625
vt 0.15625 0.28125
vt 0.140625 0.28125
vt 0.140625 0.265625
vt 0.5625 0.265625
vt 0.5625 0.328125
vt 0.53125 0.328125
vt 0.53125 0.265625
vt 0.59375 0.265625
vt 0.59375 0.328125
vt 0.5625 0.328125
vt 0.5625 0.265625
vt 0.34375 0.21875
vt 0.375 0.21875
vt 0.375 0.359375
vt 0.34375 0.359375
vt 0.40625 0.21875
vt 0.375 0.21875
vt 0.375 0.359375
vt 0.40625 0.359375
vt 0.734375 0.390625
vt 0.734375 0.453125
vt 0.59375 0.453125
vt 0.59375 0.390625
vt 0.734375 0.328125
vt 0.734375 0.390625
vt 0.59375 0.390625
vt 0.59375 0.328125
vt 0.4375 0.234375
vt 0.4375 0.328125
vt 0.40625 0.328125
vt 0.40625 0.234375
vt 0.5 0.234375
vt 0.5 0.328125
vt 0.46875 0.328125
vt 0.46875 0.234375
vt 0.6875 0.265625
vt 0.71875 0.265625
vt 0.71875 0.296875
vt 0.6875 0.296875
vt 0.03125 0.25
vt 0 0.25
vt 0 0.28125
vt 0.03125 0.28125
vt 0.46875 0.234375
vt 0.46875 0.328125
vt 0.4375 0.328125
vt 0.4375 0.234375
vt 0.53125 0.234375
vt 0.53125 0.328125
vt 0.5 0.328125
vt 0.5 0.234375
vn 1 0 0
vn -1 0 0
vn 0 1 0
vn 0 -1 0
vn 0 0 1
vn 0 0 -1
vn 0.7071067811865478 -0.7071067811865474 0
vn -0.7071067811865475 0.7071067811865477 0
vn 0.7071067811865479 0.7071067811865472 0
vn -0.7071067811865474 -0.7071067811865478 0
vn 0 0 1
vn 0 0 -1
vn 0.7071067811865477 -0.7071067811865475 0
vn -0.7071067811865469 0.7071067811865481 0
vn 0.7071067811865482 0.7071067811865468 0
vn -0.7071067811865478 -0.7071067811865472 0
vn 0 0 1
vn 0 0 -1
vn 0.7071067811865478 -0.7071067811865472 0
vn -0.7071067811865477 0.7071067811865475 0
vn 0.7071067811865474 0.7071067811865477 0
vn -0.7071067811865476 -0.7071067811865476 0
vn 0 0 1
vn 0 0 -1
vn 0 0 0
vn 0 0 0
vn 0 0 0
vn 0 0 0
vn 0 0 1
vn 0 0 -1
vn 0 0 0
vn 0 0 0
vn 0 0 0
vn 0 0 0
vn 0 0 1
vn 0 0 -1
vn 1 0 0
vn -1 0 0
vn 0 1 0
vn 0 -1 0
vn 0 0 1
vn 0 0 -1
vn 1 0 0
vn -1 0 0
vn 0 1 0
vn 0 -1 0
vn 0 0 1
vn 0 0 -1
vn 1 0 0
vn -1 0 0
vn 0 1 0
vn 0 -1 0
vn 0 0 1
vn 0 0 -1
vn 0.7071067811865476 -0.7071067811865476 0
vn -0.7071067811865476 0.7071067811865476 0
vn 0.7071067811865471 0.707106781186548 0
vn -0.7071067811865471 -0.707106781186548 0
vn 0 0 1
vn 0 0 -1
vn 0.7071067811865462 -0.7071067811865489 0
vn -0.7071067811865482 0.7071067811865469 0
vn 0.7071067811865465 0.7071067811865487 0
vn -0.707106781186548 -0.7071067811865471 0
vn 0 0 1
vn 0 0 -1
vn 0.7071067811865478 -0.7071067811865474 0
vn -0.7071067811865478 0.7071067811865474 0
vn 0.7071067811865478 0.7071067811865474 0
vn -0.7071067811865478 -0.7071067811865474 0
vn 0 0 1
vn 0 0 -1
vn 1 0 0
vn -1 0 0
vn 0 1 0
vn 0 -1 0
vn 0 0 1
vn 0 0 -1
vn 0.923879532511287 0.38268343236508956 0
vn -0.9238795325112867 -0.3826834323650898 0
vn -0.38268343236509 0.9238795325112867 0
vn 0.38268343236508995 -0.9238795325112868 0
vn 0 0 1
vn 0 0 -1
usemtl m_f3d09449-8ccc-a103-a785-c7d7fcb7801e
f 4/1/1 2/2/1 1/3/1 3/4/1
f 7/5/2 5/6/2 6/7/2 8/8/2
f 1/9/3 2/10/3 6/11/3 5/12/3
f 4/13/4 3/14/4 7/15/4 8/16/4
f 3/17/5 1/18/5 5/19/5 7/20/5
f 8/21/6 6/22/6 2/23/6 4/24/6
f 12/25/7 10/26/7 9/27/7 11/28/7
f 15/29/8 13/30/8 14/31/8 16/32/8
f 9/33/9 10/34/9 14/35/9 13/36/9
f 12/37/10 11/38/10 15/39/10 16/40/10
f 11/41/11 9/42/11 13/43/11 15/44/11
f 16/45/12 14/46/12 10/47/12 12/48/12
f 20/49/13 18/50/13 17/51/13 19/52/13
f 23/53/14 21/54/14 22/55/14 24/56/14
f 17/57/15 18/58/15 22/59/15 21/60/15
f 20/61/16 19/62/16 23/63/16 24/64/16
f 19/65/17 17/66/17 21/67/17 23/68/17
f 24/69/18 22/70/18 18/71/18 20/72/18
f 28/73/19 26/74/19 25/75/19 27/76/19
f 31/77/20 29/78/20 30/79/20 32/80/20
f 25/81/21 26/82/21 30/83/21 29/84/21
f 28/85/22 27/86/22 31/87/22 32/88/22
f 27/89/23 25/90/23 29/91/23 31/92/23
f 32/93/24 30/94/24 26/95/24 28/96/24
f 34/97/25 33/98/25 36/99/25 35/100/25
f 37/101/26 38/102/26 39/103/26 40/104/26
f 34/105/27 38/106/27 33/107/27 37/108/27
f 35/109/28 39/110/28 36/111/28 40/112/28
f 35/113/29 33/114/29 37/115/29 39/116/29
f 40/117/30 38/118/30 34/119/30 36/120/30
f 42/121/31 41/122/31 44/123/31 43/124/31
f 45/125/32 46/126/32 47/127/32 48/128/32
f 42/129/33 46/130/33 41/131/33 45/132/33
f 43/133/34 47/134/34 44/135/34 48/136/34
f 43/137/35 41/138/35 45/139/35 47/140/35
f 48/141/36 46/142/36 42/143/36 44/144/36
f 52/145/37 50/146/37 49/147/37 51/148/37
f 55/149/38 53/150/38 54/151/38 56/152/38
f 49/153/39 50/154/39 54/155/39 53/156/39
f 52/157/40 51/158/40 55/159/40 56/160/40
f 51/161/41 49/162/41 53/163/41 55/164/41
f 56/165/42 54/166/42 50/167/42 52/168/42
f 60/169/43 58/170/43 57/171/43 59/172/43
f 63/173/44 61/174/44 62/175/44 64/176/44
f 57/177/45 58/178/45 62/179/45 61/180/45
f 60/181/46 59/182/46 63/183/46 64/184/46
f 59/185/47 57/186/47 61/187/47 63/188/47
f 64/189/48 62/190/48 58/191/48 60/192/48
f 68/193/49 66/194/49 65/195/49 67/196/49
f 71/197/50 69/198/50 70/199/50 72/200/50
f 65/201/51 66/202/51 70/203/51 69/204/51
f 68/205/52 67/206/52 71/207/52 72/208/52
f 67/209/53 65/210/53 69/211/53 71/212/53
f 72/213/54 70/214/54 66/215/54 68/216/54
f 76/217/55 74/218/55 73/219/55 75/220/55
f 79/221/56 77/222/56 78/223/56 80/224/56
f 73/225/57 74/226/57 78/227/57 77/228/57
f 76/229/58 75/230/58 79/231/58 80/232/58
f 75/233/59 73/234/59 77/235/59 79/236/59
f 80/237/60 78/238/60 74/239/60 76/240/60
f 84/241/61 82/242/61 81/243/61 83/244/61
f 87/245/62 85/246/62 86/247/62 88/248/62
f 81/249/63 82/250/63 86/251/63 85/252/63
f 84/253/64 83/254/64 87/255/64 88/256/64
f 83/257/65 81/258/65 85/259/65 87/260/65
f 88/261/66 86/262/66 82/263/66 84/264/66
f 92/265/67 90/266/67 89/267/67 91/268/67
f 95/269/68 93/270/68 94/271/68 96/272/68
f 89/273/69 90/274/69 94/275/69 93/276/69
f 92/277/70 91/278/70 95/279/70 96/280/70
f 91/281/71 89/282/71 93/283/71 95/284/71
f 96/285/72 94/286/72 90/287/72 92/288/72
f 100/289/73 98/290/73 97/291/73 99/292/73
f 103/293/74 101/294/74 102/295/74 104/296/74
f 97/297/75 98/298/75 102/299/75 101/300/75
f 100/301/76 99/302/76 103/303/76 104/304/76
f 99/305/77 97/306/77 101/307/77 103/308/77
f 104/309/78 102/310/78 98/311/78 100/312/78
f 108/313/79 106/314/79 105/315/79 107/316/79
f 111/317/80 109/318/80 110/319/80 112/320/80
f 105/321/81 106/322/81 110/323/81 109/324/81
f 108/325/82 107/326/82 111/327/82 112/328/82
f 107/329/83 105/330/83 109/331/83 111/332/83
f 112/333/84 110/334/84 106/335/84 108/336/84