# Made in Blockbench 4.12.4
mtllib vacuum_toilet_1.mtl

o cube
v 1.125 0.0625 1.8125
v 1.125 0.0625 1.5
v 1.125 -0.1875 1.8125
v 1.125 -0.1875 1.5
v 1.0625 0.0625 1.8125
v 1.0625 0.0625 1.5
v 1.0625 -0.1875 1.8125
v 1.0625 -0.1875 1.5
v 1.0625 0.25 3.0625
v 1.0625 0.25 1.4375
v 1.0625 -0.25 3.0625
v 1.0625 -0.25 1.4375
v 0.5625 0.25 3.0625
v 0.5625 0.25 1.4375
v 0.5625 -0.25 3.0625
v 0.5625 -0.25 1.4375
v 1.09375 0.3125 3.09375
v 1.09375 0.3125 1.40625
v 1.09375 0.25 3.09375
v 1.09375 0.25 1.40625
v 0.53125 0.3125 3.09375
v 0.53125 0.3125 1.40625
v 0.53125 0.25 3.09375
v 0.53125 0.25 1.40625
v 0.963388125 0.1 1.4375
v 0.963388125 0.1 1.3125
v 0.875 0.011611874999999994 1.4375
v 0.875 0.011611874999999994 1.3125
v 0.875 0.188388125 1.4375
v 0.875 0.188388125 1.3125
v 0.78661125 0.1 1.4375
v 0.78661125 0.1 1.3125
v 0.91919375 0.1 1.3125
v 0.91919375 0.1 1.25
v 0.875 0.055805625000000025 1.3125
v 0.875 0.055805625000000025 1.25
v 0.875 0.144194375 1.3125
v 0.875 0.144194375 1.25
v 0.830805625 0.1 1.3125
v 0.830805625 0.1 1.25
v 0.731694375 0.203125 1.36875
v 0.731694375 0.203125 1.30625
v 0.6875 0.158930625 1.36875
v 0.6875 0.158930625 1.30625
v 0.6875 0.24731875 1.36875
v 0.6875 0.24731875 1.30625
v 0.64330625 0.203125 1.36875
v 0.64330625 0.203125 1.30625
v 0.731694375 -0.046875624999999976 1.36875
v 0.731694375 -0.046875624999999976 1.30625
v 0.6875 -0.09106937500000001 1.36875
v 0.6875 -0.09106937500000001 1.30625
v 0.6875 -0.002681250000000024 1.36875
v 0.6875 -0.002681250000000024 1.30625
v 0.64330625 -0.046875624999999976 1.36875
v 0.64330625 -0.046875624999999976 1.30625
v 0.75379125 0.203125 1.4375
v 0.75379125 0.203125 1.3125
v 0.6875 0.13683375 1.4375
v 0.6875 0.13683375 1.3125
v 0.6875 0.26941625 1.4375
v 0.6875 0.26941625 1.3125
v 0.62120875 0.203125 1.4375
v 0.62120875 0.203125 1.3125
v 0.897095 0.532536875 1.546875
v 0.897095 0.532536875 1.453125
v 1.0286425 0.214953125 1.546875
v 1.0286425 0.214953125 1.453125
v 0.81048125 0.49666 1.546875
v 0.81048125 0.49666 1.453125
v 0.94202875 0.179076875 1.546875
v 0.94202875 0.179076875 1.453125
v 0.75379125 -0.046875 1.4375
v 0.75379125 -0.046875 1.3125
v 0.6875 -0.11316625000000002 1.4375
v 0.6875 -0.11316625000000002 1.3125
v 0.6875 0.019416250000000024 1.4375
v 0.6875 0.019416250000000024 1.3125
v 0.62120875 -0.046875 1.4375
v 0.62120875 -0.046875 1.3125
v 0.640625 -0.03125 1.34375
v 0.640625 -0.03125 1.34375
v 0.640625 -0.15625 1.34375
v 0.640625 -0.15625 1.34375
v 0.59375 -0.03125 1.34375
v 0.59375 -0.03125 1.34375
v 0.59375 -0.15625 1.34375
v 0.59375 -0.15625 1.34375
v 0.8125 0.13125 1.34375
v 0.8125 0.13125 1.34375
v 0.8125 -0.05625000000000002 1.34375
v 0.8125 -0.05625000000000002 1.34375
v 0.765625 0.13125 1.34375
v 0.765625 0.13125 1.34375
v 0.765625 -0.05625000000000002 1.34375
v 0.765625 -0.05625000000000002 1.34375
v 0.640625 0.21875 1.34375
v 0.640625 0.21875 1.34375
v 0.640625 0.09375 1.34375
v 0.640625 0.09375 1.34375
v 0.59375 0.21875 1.34375
v 0.59375 0.21875 1.34375
v 0.59375 0.09375 1.34375
v 0.59375 0.09375 1.34375
v 1.03125 0.5 1.75
v 1.03125 0.5 1.625
v 1.03125 0.25 1.75
v 1.03125 0.25 1.625
v 0.59375 0.5 1.75
v 0.59375 0.5 1.625
v 0.59375 0.25 1.75
v 0.59375 0.25 1.625
v 1.03125 0.5 2.875
v 1.03125 0.5 2.75
v 1.03125 0.25 2.875
v 1.03125 0.25 2.75
v 0.59375 0.5 2.875
v 0.59375 0.5 2.75
v 0.59375 0.25 2.875
v 0.59375 0.25 2.75
v 1.125 0.25 2.875
v 1.125 0.25 1.875
v 1.125 -0.125 2.875
v 1.125 -0.125 1.875
v 1.0625 0.25 2.875
v 1.0625 0.25 1.875
v 1.0625 -0.125 2.875
v 1.0625 -0.125 1.875
vt 0.546875 0.40625
vt 0.546875 0.46875
vt 0.46875 0.46875
vt 0.46875 0.40625
vt 0.625 0.40625
vt 0.625 0.46875
vt 0.546875 0.46875
vt 0.546875 0.40625
vt 0.53125 0.359375
vt 0.609375 0.359375
vt 0.609375 0.375
vt 0.53125 0.375
vt 0.703125 0.453125
vt 0.625 0.453125
vt 0.625 0.46875
vt 0.703125 0.46875
vt 0.671875 0.28125
vt 0.671875 0.34375
vt 0.65625 0.34375
vt 0.65625 0.28125
vt 0.6875 0.9375
vt 0.6875 1
vt 0.671875 1
vt 0.671875 0.9375
vt 0.40625 0.59375
vt 0.40625 0.71875
vt 0 0.71875
vt 0 0.59375
vt 0.40625 0.46875
vt 0.40625 0.59375
vt 0 0.59375
vt 0 0.46875
vt 0.40625 0.59375
vt 0.8125 0.59375
vt 0.8125 0.71875
vt 0.40625 0.71875
vt 0.8125 0.46875
vt 0.40625 0.46875
vt 0.40625 0.59375
vt 0.8125 0.59375
vt 0.125 0.34375
vt 0.125 0.46875
vt 0 0.46875
vt 0 0.34375
vt 0.25 0.34375
vt 0.25 0.46875
vt 0.125 0.46875
vt 0.125 0.34375
vt 0.84375 0.734375
vt 0.84375 0.75
vt 0.421875 0.75
vt 0.421875 0.734375
vt 0.84375 0.71875
vt 0.84375 0.734375
vt 0.421875 0.734375
vt 0.421875 0.71875
vt 0 0.859375
vt 0.421875 0.859375
vt 0.421875 1
vt 0 1
vt 0.421875 0.71875
vt 0 0.71875
vt 0 0.859375
vt 0.421875 0.859375
vt 0.515625 0.375
vt 0.515625 0.390625
vt 0.375 0.390625
vt 0.375 0.375
vt 0.65625 0.375
vt 0.65625 0.390625
vt 0.515625 0.390625
vt 0.515625 0.375
vt 0.65625 0.421875
vt 0.65625 0.453125
vt 0.625 0.453125
vt 0.625 0.421875
vt 0.671875 0.78125
vt 0.671875 0.8125
vt 0.640625 0.8125
vt 0.640625 0.78125
vt 0.53125 0.328125
vt 0.5625 0.328125
vt 0.5625 0.359375
vt 0.53125 0.359375
vt 0.59375 0.328125
vt 0.5625 0.328125
vt 0.5625 0.359375
vt 0.59375 0.359375
vt 0.640625 0.34375
vt 0.640625 0.375
vt 0.609375 0.375
vt 0.609375 0.34375
vt 0.671875 0.75
vt 0.671875 0.78125
vt 0.640625 0.78125
vt 0.640625 0.75
vt 0.84375 0.3125
vt 0.84375 0.328125
vt 0.828125 0.328125
vt 0.828125 0.3125
vt 0.859375 0.671875
vt 0.859375 0.6875
vt 0.84375 0.6875
vt 0.84375 0.671875
vt 0.734375 0.21875
vt 0.75 0.21875
vt 0.75 0.234375
vt 0.734375 0.234375
vt 0.78125 0.21875
vt 0.765625 0.21875
vt 0.765625 0.234375
vt 0.78125 0.234375
vt 0.828125 0.234375
vt 0.828125 0.25
vt 0.8125 0.25
vt 0.8125 0.234375
vt 0.859375 0.640625
vt 0.859375 0.65625
vt 0.84375 0.65625
vt 0.84375 0.640625
vt 0.84375 0.3125
vt 0.84375 0.328125
vt 0.828125 0.328125
vt 0.828125 0.3125
vt 0.859375 0.671875
vt 0.859375 0.6875
vt 0.84375 0.6875
vt 0.84375 0.671875
vt 0.734375 0.21875
vt 0.75 0.21875
vt 0.75 0.234375
vt 0.734375 0.234375
vt 0.78125 0.21875
vt 0.765625 0.21875
vt 0.765625 0.234375
vt 0.78125 0.234375
vt 0.828125 0.234375
vt 0.828125 0.25
vt 0.8125 0.25
vt 0.8125 0.234375
vt 0.859375 0.640625
vt 0.859375 0.65625
vt 0.84375 0.65625
vt 0.84375 0.640625
vt 0.84375 0.3125
vt 0.84375 0.328125
vt 0.828125 0.328125
vt 0.828125 0.3125
vt 0.859375 0.671875
vt 0.859375 0.6875
vt 0.84375 0.6875
vt 0.84375 0.671875
vt 0.734375 0.21875
vt 0.75 0.21875
vt 0.75 0.234375
vt 0.734375 0.234375
vt 0.78125 0.21875
vt 0.765625 0.21875
vt 0.765625 0.234375
vt 0.78125 0.234375
vt 0.828125 0.234375
vt 0.828125 0.25
vt 0.8125 0.25
vt 0.8125 0.234375
vt 0.859375 0.640625
vt 0.859375 0.65625
vt 0.84375 0.65625
vt 0.84375 0.640625
vt 0.671875 0.34375
vt 0.671875 0.375
vt 0.640625 0.375
vt 0.640625 0.34375
vt 0.0625 0.3125
vt 0.0625 0.34375
vt 0.03125 0.34375
vt 0.03125 0.3125
vt 0.09375 0.3125
vt 0.125 0.3125
vt 0.125 0.34375
vt 0.09375 0.34375
vt 0.15625 0.3125
vt 0.125 0.3125
vt 0.125 0.34375
vt 0.15625 0.34375
vt 0.03125 0.3125
vt 0.03125 0.34375
vt 0 0.34375
vt 0 0.3125
vt 0.09375 0.3125
vt 0.09375 0.34375
vt 0.0625 0.34375
vt 0.0625 0.3125
vt 0.125 0.1953125
vt 0.1875 0.1953125
vt 0.1875 0.21875
vt 0.125 0.21875
vt 0.09375 0.21875
vt 0.15625 0.21875
vt 0.15625 0.1953125
vt 0.09375 0.1953125
vt 0.2578125 0.1484375
vt 0.234375 0.1484375
vt 0.234375 0.171875
vt 0.2578125 0.171875
vt 0.0234375 0.1953125
vt 0 0.1953125
vt 0 0.21875
vt 0.0234375 0.21875
vt 0.09375 0.1953125
vt 0.03125 0.1953125
vt 0.03125 0.21875
vt 0.09375 0.21875
vt 0.640625 0.25
vt 0.703125 0.25
vt 0.703125 0.2265625
vt 0.640625 0.2265625
vt 0.1875 0.3125
vt 0.1875 0.34375
vt 0.15625 0.34375
vt 0.15625 0.3125
vt 0.25 0.3125
vt 0.25 0.34375
vt 0.21875 0.34375
vt 0.21875 0.3125
vt 0.59375 0.3125
vt 0.625 0.3125
vt 0.625 0.34375
vt 0.59375 0.34375
vt 0.65625 0.3125
vt 0.625 0.3125
vt 0.625 0.34375
vt 0.65625 0.34375
vt 0.21875 0.3125
vt 0.21875 0.34375
vt 0.1875 0.34375
vt 0.1875 0.3125
vt 0.6875 0.421875
vt 0.6875 0.453125
vt 0.65625 0.453125
vt 0.65625 0.421875
vt 0 1
vt 0 1
vt 0 0.96875
vt 0 0.96875
vt 0 1
vt 0 1
vt 0 0.96875
vt 0 0.96875
vt 0 0.984375
vt 0 1
vt 0 0.984375
vt 0 1
vt 0 0.984375
vt 0 1
vt 0 0.984375
vt 0 1
vt 0.6875 0.8125
vt 0.6875 0.84375
vt 0.671875 0.84375
vt 0.671875 0.8125
vt 0.6875 0.78125
vt 0.6875 0.8125
vt 0.671875 0.8125
vt 0.671875 0.78125
vt 0 1
vt 0 1
vt 0 0.953125
vt 0 0.953125
vt 0 1
vt 0 1
vt 0 0.953125
vt 0 0.953125
vt 0 0.984375
vt 0 1
vt 0 0.984375
vt 0 1
vt 0 0.984375
vt 0 1
vt 0 0.984375
vt 0 1
vt 0.6875 0.890625
vt 0.6875 0.9375
vt 0.671875 0.9375
vt 0.671875 0.890625
vt 0.6875 0.84375
vt 0.6875 0.890625
vt 0.671875 0.890625
vt 0.671875 0.84375
vt 0 1
vt 0 1
vt 0 0.96875
vt 0 0.96875
vt 0 1
vt 0 1
vt 0 0.96875
vt 0 0.96875
vt 0 0.984375
vt 0 1
vt 0 0.984375
vt 0 1
vt 0 0.984375
vt 0 1
vt 0 0.984375
vt 0 1
vt 0.6875 0.75
vt 0.6875 0.78125
vt 0.671875 0.78125
vt 0.671875 0.75
vt 0.546875 0.296875
vt 0.546875 0.328125
vt 0.53125 0.328125
vt 0.53125 0.296875
vt 0.40625 0.3125
vt 0.40625 0.375
vt 0.375 0.375
vt 0.375 0.3125
vt 0.4375 0.3125
vt 0.4375 0.375
vt 0.40625 0.375
vt 0.40625 0.3125
vt 0.25 0.28125
vt 0.28125 0.28125
vt 0.28125 0.390625
vt 0.25 0.390625
vt 0.3125 0.28125
vt 0.28125 0.28125
vt 0.28125 0.390625
vt 0.3125 0.390625
vt 0.53125 0.75
vt 0.53125 0.8125
vt 0.421875 0.8125
vt 0.421875 0.75
vt 0.640625 0.75
vt 0.640625 0.8125
vt 0.53125 0.8125
vt 0.53125 0.75
vt 0.40625 0.3125
vt 0.40625 0.375
vt 0.375 0.375
vt 0.375 0.3125
vt 0.4375 0.3125
vt 0.4375 0.375
vt 0.40625 0.375
vt 0.40625 0.3125
vt 0.25 0.28125
vt 0.28125 0.28125
vt 0.28125 0.390625
vt 0.25 0.390625
vt 0.3125 0.28125
vt 0.28125 0.28125
vt 0.28125 0.390625
vt 0.3125 0.390625
vt 0.53125 0.75
vt 0.53125 0.8125
vt 0.421875 0.8125
vt 0.421875 0.75
vt 0.640625 0.75
vt 0.640625 0.8125
vt 0.53125 0.8125
vt 0.53125 0.75
vt 0.671875 0.90625
vt 0.671875 1
vt 0.421875 1
vt 0.421875 0.90625
vt 0.671875 0.8125
vt 0.671875 0.90625
vt 0.421875 0.90625
vt 0.421875 0.8125
vt 0.25 0.390625
vt 0.5 0.390625
vt 0.5 0.40625
vt 0.25 0.40625
vt 0.75 0.390625
vt 0.5 0.390625
vt 0.5 0.40625
vt 0.75 0.40625
vt 0.515625 0.28125
vt 0.515625 0.375
vt 0.5 0.375
vt 0.5 0.28125
vt 0.53125 0.28125
vt 0.53125 0.375
vt 0.515625 0.375
vt 0.515625 0.28125
vn 1 0 0
vn -1 0 0
vn 0 1 0
vn 0 -1 0
vn 0 0 1
vn 0 0 -1
vn 1 0 0
vn -1 0 0
vn 0 1 0
vn 0 -1 0
vn 0 0 1
vn 0 0 -1
vn 1 0 0
vn -1 0 0
vn 0 1 0
vn 0 -1 0
vn 0 0 1
vn 0 0 -1
vn 0.7071067811865476 -0.7071067811865476 0
vn -0.7071042811846695 0.7071092811795868 0
vn 0.7071067811865475 0.7071067811865477 0
vn -0.7071042811846696 -0.7071092811795867 0
vn 0 0 1
vn 0 0 -1
vn 0.7071117811814644 -0.7071017811562752 0
vn -0.7071067811865476 0.7071067811865475 0
vn 0.7071117811814647 0.707101781156275 0
vn -0.7071067811865474 -0.7071067811865477 0
vn 0 0 1
vn 0 0 -1
vn 0.7071067811865477 -0.7071067811865475 0
vn -0.7071067811865476 0.7071067811865476 0
vn 0.7071017811562751 0.7071117811814644 0
vn -0.7071117811814647 -0.707101781156275 0
vn 0 0 1
vn 0 0 -1
vn 0.7071017811562753 -0.7071117811814642 0
vn -0.7071117811814641 0.7071017811562754 0
vn 0.7071067811865472 0.7071067811865479 0
vn -0.7071067811865478 -0.7071067811865474 0
vn 0 0 1
vn 0 0 -1
vn 0.7071067811865476 -0.7071067811865476 0
vn -0.7071067811865476 0.7071067811865476 0
vn 0.7071067811865476 0.7071067811865476 0
vn -0.7071067811865476 -0.7071067811865476 0
vn 0 0 1
vn 0 0 -1
vn 0.9238795288490478 0.3826834412065167 0
vn -0.9238792625819378 -0.3826840840315349 0
vn -0.382686027726104 0.9238784574732845 0
vn 0.38268033737113416 -0.9238808144936851 0
vn 0 0 1
vn 0 0 -1
vn 0.7071067811865477 -0.7071067811865474 0
vn -0.7071067811865477 0.7071067811865474 0
vn 0.7071067811865477 0.7071067811865474 0
vn -0.7071067811865477 -0.7071067811865474 0
vn 0 0 1
vn 0 0 -1
vn 0 0 0
vn 0 0 0
vn 0 0 0
vn 0 0 0
vn 0 0 1
vn 0 0 -1
vn 0 0 0
vn 0 0 0
vn 0 0 0
vn 0 0 0
vn 0 0 1
vn 0 0 -1
vn 0 0 0
vn 0 0 0
vn 0 0 0
vn 0 0 0
vn 0 0 1
vn 0 0 -1
vn 1 0 0
vn -1 0 0
vn 0 1 0
vn 0 -1 0
vn 0 0 1
vn 0 0 -1
vn 1 0 0
vn -1 0 0
vn 0 1 0
vn 0 -1 0
vn 0 0 1
vn 0 0 -1
vn 1 0 0
vn -1 0 0
vn 0 1 0
vn 0 -1 0
vn 0 0 1
vn 0 0 -1
usemtl m_ec84b2db-6911-d3cd-b7b3-a9bd088a3f44
f 4/1/1 2/2/1 1/3/1 3/4/1
f 7/5/2 5/6/2 6/7/2 8/8/2
f 1/9/3 2/10/3 6/11/3 5/12/3
f 4/13/4 3/14/4 7/15/4 8/16/4
f 3/17/5 1/18/5 5/19/5 7/20/5
f 8/21/6 6/22/6 2/23/6 4/24/6
f 12/25/7 10/26/7 9/27/7 11/28/7
f 15/29/8 13/30/8 14/31/8 16/32/8
f 9/33/9 10/34/9 14/35/9 13/36/9
f 12/37/10 11/38/10 15/39/10 16/40/10
f 11/41/11 9/42/11 13/43/11 15/44/11
f 16/45/12 14/46/12 10/47/12 12/48/12
f 20/49/13 18/50/13 17/51/13 19/52/13
f 23/53/14 21/54/14 22/55/14 24/56/14
f 17/57/15 18/58/15 22/59/15 21/60/15
f 20/61/16 19/62/16 23/63/16 24/64/16
f 19/65/17 17/66/17 21/67/17 23/68/17
f 24/69/18 22/70/18 18/71/18 20/72/18
f 28/73/19 26/74/19 25/75/19 27/76/19
f 31/77/20 29/78/20 30/79/20 32/80/20
f 25/81/21 26/82/21 30/83/21 29/84/21
f 28/85/22 27/86/22 31/87/22 32/88/22
f 27/89/23 25/90/23 29/91/23 31/92/23
f 32/93/24 30/94/24 26/95/24 28/96/24
f 36/97/25 34/98/25 33/99/25 35/100/25
f 39/101/26 37/102/26 38/103/26 40/104/26
f 33/105/27 34/106/27 38/107/27 37/108/27
f 36/109/28 35/110/28 39/111/28 40/112/28
f 35/113/29 33/114/29 37/115/29 39/116/29
f 40/117/30 38/118/30 34/119/30 36/120/30
f 44/121/31 42/122/31 41/123/31 43/124/31
f 47/125/32 45/126/32 46/127/32 48/128/32
f 41/129/33 42/130/33 46/131/33 45/132/33
f 44/133/34 43/134/34 47/135/34 48/136/34
f 43/137/35 41/138/35 45/139/35 47/140/35
f 48/141/36 46/142/36 42/143/36 44/144/36
f 52/145/37 50/146/37 49/147/37 51/148/37
f 55/149/38 53/150/38 54/151/38 56/152/38
f 49/153/39 50/154/39 54/155/39 53/156/39
f 52/157/40 51/158/40 55/159/40 56/160/40
f 51/161/41 49/162/41 53/163/41 55/164/41
f 56/165/42 54/166/42 50/167/42 52/168/42
f 60/169/43 58/170/43 57/171/43 59/172/43
f 63/173/44 61/174/44 62/175/44 64/176/44
f 57/177/45 58/178/45 62/179/45 61/180/45
f 60/181/46 59/182/46 63/183/46 64/184/46
f 59/185/47 57/186/47 61/187/47 63/188/47
f 64/189/48 62/190/48 58/191/48 60/192/48
f 68/193/49 66/194/49 65/195/49 67/196/49
f 71/197/50 69/198/50 70/199/50 72/200/50
f 65/201/51 66/202/51 70/203/51 69/204/51
f 68/205/52 67/206/52 71/207/52 72/208/52
f 67/209/53 65/210/53 69/211/53 71/212/53
f 72/213/54 70/214/54 66/215/54 68/216/54
f 76/217/55 74/218/55 73/219/55 75/220/55
f 79/221/56 77/222/56 78/223/56 80/224/56
f 73/225/57 74/226/57 78/227/57 77/228/57
f 76/229/58 75/230/58 79/231/58 80/232/58
f 75/233/59 73/234/59 77/235/59 79/236/59
f 80/237/60 78/238/60 74/239/60 76/240/60
f 82/241/61 81/242/61 84/243/61 83/244/61
f 85/245/62 86/246/62 87/247/62 88/248/62
f 82/249/63 86/250/63 81/251/63 85/252/63
f 83/253/64 87/254/64 84/255/64 88/256/64
f 83/257/65 81/258/65 85/259/65 87/260/65
f 88/261/66 86/262/66 82/263/66 84/264/66
f 90/265/67 89/266/67 92/267/67 91/268/67
f 93/269/68 94/270/68 95/271/68 96/272/68
f 90/273/69 94/274/69 89/275/69 93/276/69
f 91/277/70 95/278/70 92/279/70 96/280/70
f 91/281/71 89/282/71 93/283/71 95/284/71
f 96/285/72 94/286/72 90/287/72 92/288/72
f 98/289/73 97/290/73 100/291/73 99/292/73
f 101/293/74 102/294/74 103/295/74 104/296/74
f 98/297/75 102/298/75 97/299/75 101/300/75
f 99/301/76 103/302/76 100/303/76 104/304/76
f 99/305/77 97/306/77 101/307/77 103/308/77
f 104/309/78 102/310/78 98/311/78 100/312/78
f 108/313/79 106/314/79 105/315/79 107/316/79
f 111/317/80 109/318/80 110/319/80 112/320/80
f 105/321/81 106/322/81 110/323/81 109/324/81
f 108/325/82 107/326/82 111/327/82 112/328/82
f 107/329/83 105/330/83 109/331/83 111/332/83
f 112/333/84 110/334/84 106/335/84 108/336/84
f 116/337/85 114/338/85 113/339/85 115/340/85
f 119/341/86 117/342/86 118/343/86 120/344/86
f 113/345/87 114/346/87 118/347/87 117/348/87
f 116/349/88 115/350/88 119/351/88 120/352/88
f 115/353/89 113/354/89 117/355/89 119/356/89
f 120/357/90 118/358/90 114/359/90 116/360/90
f 124/361/91 122/362/91 121/363/91 123/364/91
f 127/365/92 125/366/92 126/367/92 128/368/92
f 121/369/93 122/370/93 126/371/93 125/372/93
f 124/373/94 123/374/94 127/375/94 128/376/94
f 123/377/95 121/378/95 125/379/95 127/380/95
f 128/381/96 126/382/96 122/383/96 124/384/96