# Made in Blockbench 4.12.3
mtllib hxd3d_top_lh_a.mtl

o å®šä½
v -2.5312500000000004 0.1875 0.2067057291666664
v -2.5312500000000004 0.1875 0.793294270833333
v -2.6250000000000004 -0.140625 0.6552734374999998
v -2.6250000000000004 -0.140625 0.3447265624999998
v -2.8437500000000004 -0.140625 0.6552734374999998
v -2.9375000000000004 0.1875 0.793294270833333
v -2.9375000000000004 0.1875 0.2067057291666664
v -2.8437500000000004 -0.140625 0.3447265624999998
v -2.625 -0.3125 0.6035156249999996
v -2.625 -0.3125 0.39648437499999956
v -2.625 -0.140625 0.39648437499999956
v -2.625 -0.140625 0.6035156249999996
v -2.84375 -0.3125 0.39648437499999956
v -2.84375 -0.3125 0.6035156249999996
v -2.84375 -0.140625 0.6035156249999996
v -2.84375 -0.140625 0.39648437499999956
v -0.32961827478862227 0.4007643911943699 1.8918626581827525
v -0.20332530117869552 0.6194951223883596 1.8918626581827525
v -0.20332530117869552 0.6194951223883596 2.1161465123494194
v -0.32961827478862227 0.4007643911943699 2.1161465123494194
v -0.5253136347272831 0.400764391194369 2.116146512349419
v -0.6539983797894913 0.6252693694665545 2.116146512349419
v -0.6539983797894913 0.6252693694665545 1.8918626581827522
v -0.5253136347272831 0.400764391194369 1.8918626581827522
v -0.20332530117869552 0.6194951223883596 -1.1161465123494192
v -0.20332530117869552 0.6194951223883596 -0.8918626581827525
v -0.32961827478862227 0.4007643911943699 -0.8918626581827525
v -0.32961827478862227 0.4007643911943699 -1.1161465123494192
v -0.6539983797894913 0.6252693694665545 -0.8918626581827522
v -0.6539983797894913 0.6252693694665545 -1.116146512349419
v -0.5253136347272831 0.400764391194369 -1.116146512349419
v -0.5253136347272831 0.400764391194369 -0.8918626581827522
v 0 1 1
v 0 1 5.551115123125783e-17
v 0 0.5 5.551115123125783e-17
v 0 0.5 1
v 1 1 5.551115123125783e-17
v 1 1 1
v 1 0.5 1
v 1 0.5 5.551115123125783e-17
v 0 0.6875 0.01041666666666663
v 0 0.6875 -1.15625
v 0 0.5 -1.15625
v 0 0.5 0.01041666666666663
v 1 0.6875 -1.15625
v 1 0.6875 0.01041666666666663
v 1 0.5 0.01041666666666663
v 1 0.5 -1.15625
v 0 0.6875 2.15625
v 0 0.6875 0.9895833333333335
v 0 0.5 0.9895833333333335
v 0 0.5 2.15625
v 1 0.6875 0.9895833333333335
v 1 0.6875 2.15625
v 1 0.5 2.15625
v 1 0.5 0.9895833333333335
vt 0.400390625 0.6640625
vt 0.466796875 0.6640625
vt 0.451171875 0.625
vt 0.416015625 0.625
vt 0.416015625 0.578125
vt 0.400390625 0.6171875
vt 0.466796875 0.6171875
vt 0.451171875 0.578125
vt 0.1796875 0.4921875
vt 0.1796875 0.53125
vt 0.2109375 0.53125
vt 0.2109375 0.4921875
vt 0.271484375 0.5390625
vt 0.259765625 0.5859375
vt 0.310546875 0.5859375
vt 0.298828125 0.5390625
vt 0.322265625 0.5859375
vt 0.373046875 0.5859375
vt 0.361328125 0.5390625
vt 0.333984375 0.5390625
vt 0.5 0.640625
vt 0.4765625 0.640625
vt 0.4765625 0.6640625
vt 0.5 0.6640625
vt 0.5 0.609375
vt 0.4765625 0.609375
vt 0.4765625 0.6328125
vt 0.5 0.6328125
vt 0.3125 0.5078125
vt 0.28125 0.5078125
vt 0.28125 0.53125
vt 0.3125 0.53125
vt 0.3515625 0.5078125
vt 0.3203125 0.5078125
vt 0.3203125 0.53125
vt 0.3515625 0.53125
vt 0.390625 0.5078125
vt 0.359375 0.5078125
vt 0.359375 0.53125
vt 0.390625 0.53125
vt 0.4296875 0.5078125
vt 0.3984375 0.5078125
vt 0.3984375 0.53125
vt 0.4296875 0.53125
vt 0.46875 0.5
vt 0.46875 0.53125
vt 0.4921875 0.53125
vt 0.4921875 0.5
vt 0.4375 0.5
vt 0.4375 0.53125
vt 0.4609375 0.53125
vt 0.4609375 0.5
vt 0.45620550004811833 0.5669173774415708
vt 0.5125444999518817 0.5669173774415708
vt 0.4961010876290521 0.5390625
vt 0.4716405957709876 0.5393759394862824
vt 0.0703125 0.5641514999037633
vt 0.0703125 0.5078125
vt 0.03937593948628241 0.5232475957228693
vt 0.0390625 0.5477080875809338
vt 0.4765625 0.578125
vt 0.4765625 0.6015625
vt 0.5 0.6015625
vt 0.5 0.578125
vt 0.109375 0.5546875
vt 0.1328125 0.5546875
vt 0.1328125 0.5
vt 0.109375 0.5
vt 0.4921875 0.53125
vt 0.46875 0.53125
vt 0.46875 0.5
vt 0.4921875 0.5
vt 0.4609375 0.53125
vt 0.4375 0.53125
vt 0.4375 0.5
vt 0.4609375 0.5
vt 0.4961010876290521 0.5390625
vt 0.5125444999518817 0.5669173774415708
vt 0.45620550004811833 0.5669173774415708
vt 0.4716405957709876 0.5393759394862824
vt 0.03937593948628241 0.5232475957228693
vt 0.0703125 0.5078125
vt 0.0703125 0.5641514999037633
vt 0.0390625 0.5477080875809338
vt 0.5 0.6015625
vt 0.4765625 0.6015625
vt 0.4765625 0.578125
vt 0.5 0.578125
vt 0.1328125 0.5
vt 0.1328125 0.5546875
vt 0.109375 0.5546875
vt 0.109375 0.5
vt 0.265625 0.8671875
vt 0.390625 0.8671875
vt 0.390625 0.8046875
vt 0.265625 0.8046875
vt 0.265625 0.7265625
vt 0.390625 0.7265625
vt 0.390625 0.6640625
vt 0.265625 0.6640625
vt 0.125 0.875
vt 0 0.875
vt 0 1
vt 0.125 1
vt 0.125 0.8671875
vt 0 0.8671875
vt 0 0.7421875
vt 0.125 0.7421875
vt 0.265625 0.796875
vt 0.390625 0.796875
vt 0.390625 0.734375
vt 0.265625 0.734375
vt 0.1328125 0.734375
vt 0.2578125 0.734375
vt 0.2578125 0.671875
vt 0.1328125 0.671875
vt 0.5234375 0.8515625
vt 0.3984375 0.8515625
vt 0.3984375 0.828125
vt 0.5234375 0.828125
vt 0.5234375 0.7890625
vt 0.3984375 0.7890625
vt 0.3984375 0.765625
vt 0.5234375 0.765625
vt 0.125 0.734375
vt 0 0.734375
vt 0 0.609375
vt 0.125 0.609375
vt 0.390625 0.875
vt 0.265625 0.875
vt 0.265625 1
vt 0.390625 1
vt 0.5234375 0.8828125
vt 0.3984375 0.8828125
vt 0.3984375 0.859375
vt 0.5234375 0.859375
vt 0.5234375 0.8203125
vt 0.3984375 0.8203125
vt 0.3984375 0.796875
vt 0.5234375 0.796875
vt 0.3984375 0.8515625
vt 0.5234375 0.8515625
vt 0.5234375 0.828125
vt 0.3984375 0.828125
vt 0.3984375 0.7890625
vt 0.5234375 0.7890625
vt 0.5234375 0.765625
vt 0.3984375 0.765625
vt 0.125 0.609375
vt 0 0.609375
vt 0 0.734375
vt 0.125 0.734375
vt 0.390625 1
vt 0.265625 1
vt 0.265625 0.875
vt 0.390625 0.875
vt 0.3984375 0.8203125
vt 0.5234375 0.8203125
vt 0.5234375 0.796875
vt 0.3984375 0.796875
vt 0.3984375 0.8828125
vt 0.5234375 0.8828125
vt 0.5234375 0.859375
vt 0.3984375 0.859375
vn 0.9615239476408232 -0.27472112789737807 0
vn -0.9615239476408232 -0.27472112789737807 0
vn 0 -1 0
vn 0 -0.3877299226378463 0.9217730236295972
vn 0 -0.3877299226378465 -0.921773023629597
vn 1 0 0
vn -1 0 0
vn 0 -1 0
vn 0 1 0
vn 0 0 1
vn 0 0 -1
vn 0.8660104416372069 -0.5000259143037789 0
vn -0.8675828536869702 -0.497292662311011 0
vn -9.926813196464057e-16 -5.689982624431651e-16 1
vn 4.890774143618063e-16 -2.823884903965615e-16 -1
vn 4.538576795987997e-15 -1 0
vn 0.01281144461517887 0.9999179300756998 0
vn 0.8660104416372069 -0.5000259143037789 0
vn -0.8675828536869702 -0.497292662311011 0
vn -4.963406598232029e-16 -2.8449913122158256e-16 -1
vn 4.890774143618063e-16 -2.823884903965615e-16 1
vn 4.538576795987998e-15 -1 0
vn 0.01281144461517887 0.9999179300756998 0
vn -1 0 0
vn 1 0 0
vn 0 1 0
vn 0 -1 0
vn 0 0 1
vn 0 0 -1
vn -1 0 0
vn 1 0 0
vn 0 1 0
vn 0 -1 0
vn 0 0 1
vn 0 0 -1
vn -1 0 0
vn 1 0 0
vn 0 1 0
vn 0 -1 0
vn 0 0 1
vn 0 0 -1
usemtl m_1c32ae4c-9f27-77bd-7fe0-5b5fb29c30d9
f 1/1/1 2/2/1 3/3/1 4/4/1
f 5/5/2 6/6/2 7/7/2 8/8/2
f 4/9/3 3/10/3 5/11/3 8/12/3
f 3/13/4 2/14/4 6/15/4 5/16/4
f 7/17/5 1/18/5 4/19/5 8/20/5
f 9/21/6 10/22/6 11/23/6 12/24/6
f 13/25/7 14/26/7 15/27/7 16/28/7
f 13/29/8 10/30/8 9/31/8 14/32/8
f 15/33/9 12/34/9 11/35/9 16/36/9
f 14/37/10 9/38/10 12/39/10 15/40/10
f 10/41/11 13/42/11 16/43/11 11/44/11
f 17/45/12 18/46/12 19/47/12 20/48/12
f 21/49/13 22/50/13 23/51/13 24/52/13
f 19/53/14 22/54/14 21/55/14 20/56/14
f 23/57/15 18/58/15 17/59/15 24/60/15
f 24/61/16 17/62/16 20/63/16 21/64/16
f 23/65/17 22/66/17 19/67/17 18/68/17
f 25/69/18 26/70/18 27/71/18 28/72/18
f 29/73/19 30/74/19 31/75/19 32/76/19
f 31/77/20 30/78/20 25/79/20 28/80/20
f 27/81/21 26/82/21 29/83/21 32/84/21
f 28/85/22 27/86/22 32/87/22 31/88/22
f 25/89/23 30/90/23 29/91/23 26/92/23
f 33/93/24 34/94/24 35/95/24 36/96/24
f 37/97/25 38/98/25 39/99/25 40/100/25
f 37/101/26 34/102/26 33/103/26 38/104/26
f 39/105/27 36/106/27 35/107/27 40/108/27
f 38/109/28 33/110/28 36/111/28 39/112/28
f 34/113/29 37/114/29 40/115/29 35/116/29
f 41/117/30 42/118/30 43/119/30 44/120/30
f 45/121/31 46/122/31 47/123/31 48/124/31
f 45/125/32 42/126/32 41/127/32 46/128/32
f 47/129/33 44/130/33 43/131/33 48/132/33
f 46/133/34 41/134/34 44/135/34 47/136/34
f 42/137/35 45/138/35 48/139/35 43/140/35
f 49/141/36 50/142/36 51/143/36 52/144/36
f 53/145/37 54/146/37 55/147/37 56/148/37
f 53/149/38 50/150/38 49/151/38 54/152/38
f 55/153/39 52/154/39 51/155/39 56/156/39
f 54/157/40 49/158/40 52/159/40 55/160/40
f 50/161/41 53/162/41 56/163/41 51/164/41