# Made in Blockbench 4.12.4
mtllib df11_carport_louver_fan.mtl

o cube_selection_selection_selection_selection_selection_selection
v -0.000009999999999621423 0.14708624999999997 2.1029212500000005
v 0.00005000000000032756 0.301634375 2.08334375
v 1.9936993750000005 0.301634375 2.08334375
v 1.9937593750000004 0.14708624999999997 2.1029212499999996
v -0.000010000000000287557 0.14708624999999997 -1.1029212499999999
v 0.000049999999999661426 0.301634375 -1.0833431249999999
v 1.9936993749999996 0.301634375 -1.0833431250000003
v 1.9937593749999996 0.14708624999999997 -1.1029212500000003
v 1.9984418750000004 0.9550625 1.3933468749999998
v 1.9953168750000003 0.809831875 1.7180281249999998
v 1.9937593750000002 0.4958375 1.9830118749999999
v 1.9937593750000004 0.14708624999999997 2.1029212499999996
v 1.9936993750000005 0.301634375 2.08334375
v 2.0000875000000002 0 2.10304625
v 2.0001200000000003 0.000343749999999976 1.9714962499999997
v 0.0015575000000002115 0.9550625 1.3933468750000002
v -0.0015624999999996891 0.809831875 1.7180281250000002
v -0.000009999999999621423 0.4958375 1.9830118750000003
v -0.000009999999999621423 0.14708624999999997 2.1029212500000005
v 0.00005000000000032756 0.301634375 2.08334375
v -0.00008749999999968505 0 2.0874212500000002
v 1.9936818750000005 0 2.08742125
v 1.9937593750000002 0.4958375 1.9830118749999999
v 1.9953168750000003 0.809831875 1.7180281249999998
v 1.9936993750000005 0.301634375 2.08334375
v 1.9937593750000004 0.14708624999999997 2.1029212499999996
v 1.9984375000000003 0.9550625 1.3933468749999998
v 1.9971493750000002 0.000343749999999976 1.9714962499999997
v -0.00012062499999965226 0.000343749999999976 1.9714962500000002
v 2.000248125 0.5005075 1.7214962499999997
v 0.0007493750000002741 0.5005075 1.7214962500000002
v 0.0007481250000002104 0.8064131250000001 1.2560531250000002
v 0.0015575000000002115 0.9550625 1.3933468750000002
v -0.0015624999999996891 0.809831875 1.7180281250000002
v -0.000009999999999621423 0.4958375 1.9830118750000003
v -0.00012062499999965226 0.000343749999999976 1.9714962500000002
v -0.00013624999999972687 0.5005075 1.7214962500000002
v -0.00013749999999979057 0.8064131250000001 1.2560531250000002
v 2.000131875 0.8064131250000001 1.2560531249999998
v 1.998441875 0.9550625 -0.39334625000000023
v 1.9953168749999999 0.809831875 -0.7180275000000003
v 1.9937593749999998 0.4958375 -0.9830118750000003
v 1.9937593749999996 0.14708624999999997 -1.1029212500000003
v 1.9936993749999996 0.301634375 -1.0833431250000003
v 2.0000874999999994 0 -1.1030456250000003
v 2.00012 0.000343749999999976 -0.9714956250000002
v 0.0015574999999997674 0.9550625 -0.3933462499999998
v -0.0015625000000001332 0.809831875 -0.7180274999999998
v -0.000010000000000287557 0.4958375 -0.9830118749999999
v -0.000010000000000287557 0.14708624999999997 -1.1029212499999999
v 0.000049999999999661426 0.301634375 -1.0833431249999999
v -0.00008750000000035119 0 -1.0874206249999998
v 1.9936818749999996 0 -1.0874206250000003
v 1.9937593749999998 0.4958375 -0.9830118750000003
v 1.9953168749999999 0.809831875 -0.7180275000000003
v 1.9936993749999996 0.301634375 -1.0833431250000003
v 1.9937593749999996 0.14708624999999997 -1.1029212500000003
v 1.9984374999999999 0.9550625 -0.39334625000000023
v 1.9971493749999998 0.000343749999999976 -0.9714956250000002
v -0.0001206250000003184 0.000343749999999976 -0.9714956249999998
v 2.0002481249999997 0.5005075 -0.7214962500000002
v 0.00074937499999983 0.5005075 -0.7214962499999997
v 0.0007481249999997663 0.8064131250000001 -0.2560524999999998
v 0.0015574999999997674 0.9550625 -0.3933462499999998
v -0.0015625000000001332 0.809831875 -0.7180274999999998
v -0.000010000000000287557 0.4958375 -0.9830118749999999
v -0.0001206250000003184 0.000343749999999976 -0.9714956249999998
v -0.00013625000000017096 0.5005075 -0.7214962499999997
v -0.00013750000000023466 0.8064131250000001 -0.2560524999999998
v 2.000131875 0.8064131250000001 -0.25605250000000024
v 2.0032468750000003 0.937615 -0.0006981250000002159
v -0.003253125000000079 0.937615 -0.0006981249999997718
v -1.1102230246251565e-16 1.1875 2.220446049250313e-16
v 2 1.1875 -2.220446049250313e-16
v 2.0032468750000003 0.937615 1.0006981249999998
v -0.003253124999999857 0.937615 1.0006981250000002
v 1.1102230246251565e-16 1.1875 1.0000000000000002
v 2 1.1875 0.9999999999999998
v -1.1102230246251565e-16 1.0625 2.220446049250313e-16
v 0.9999999999999999 1.0625 0
v 1.1102230246251565e-16 0.5 1.0000000000000002
v -1.1102230246251565e-16 0.5 2.220446049250313e-16
v 1.0000000000000002 0.5 1
v 0.9999999999999999 0.5 0
v 1.1102230246251565e-16 1.0625 1.0000000000000002
v 1.0000000000000002 1.0625 1
v 2 1.1398537499999999 1.1484006249999998
v 1.9984418750000004 0.9550625 1.3933468749999998
v 2 1.183603125 0.9999999999999998
v 2 1.033605 1.3921506249999998
v 2 1.033605 1.3921506249999998
v 0.0015575000000002115 0.9550625 1.3933468750000002
v 1.9984375000000003 0.9550625 1.3933468749999998
v 2 1.033605 1.3921506249999998
v 2.220446049250313e-16 1.033605 1.3921506250000002
v 2.000131875 0.8064131250000001 1.2560531249999998
v -0.00013749999999979057 0.8064131250000001 1.2560531250000002
v 2.0032468750000003 0.937615 1.0006981249999998
v -0.003253124999999857 0.937615 1.0006981250000002
v 1.1102230246251565e-16 1.1398537499999999 1.1484006250000003
v 0.0015575000000002115 0.9550625 1.3933468750000002
v 1.1102230246251565e-16 1.183603125 1.0000000000000002
v 2.220446049250313e-16 1.033605 1.3921506250000002
v 2.220446049250313e-16 1.033605 1.3921506250000002
v -0.00013749999999979057 0.8064131250000001 1.2560531250000002
v -0.003253124999999857 0.937615 1.0006981250000002
v 1.1102230246251565e-16 1.1875 1.0000000000000002
v -1.1102230246251565e-16 1.1875 2.220446049250313e-16
v 2 1.1875 0.9999999999999998
v 2 1.1875 -2.220446049250313e-16
v 1.1102230246251565e-16 1.1875 1.0000000000000002
v 2 1.1875 0.9999999999999998
v -1.1102230246251565e-16 1.1875 2.220446049250313e-16
v 2 1.1875 -2.220446049250313e-16
v -1.1102230246251565e-16 1.1398537499999999 -0.14839999999999975
v 1.9999999999999998 1.1398537499999999 -0.1484000000000002
v -1.1102230246251565e-16 1.183603125 2.220446049250313e-16
v 2 1.183603125 -2.220446049250313e-16
v -2.220446049250313e-16 1.033605 -0.3921499999999998
v 1.9999999999999998 1.033605 -0.3921500000000002
v -0.9999999999999998 1.0625 1.0000000000000004
v -1 1.0625 4.440892098500626e-16
v 3 1.0625 0.9999999999999996
v 3 1.0625 -4.440892098500626e-16
v 1.1102230246251565e-16 1.1398537499999999 1.1484006250000003
v 0.0031050000000002465 0.9550625 1.3933468750000002
v 2 1.1398537499999999 1.1484006249999998
v 1.1102230246251565e-16 1.183603125 1.0000000000000002
v 2 1.183603125 0.9999999999999998
v 2.220446049250313e-16 1.033605 1.3921506250000002
v 2 1.033605 1.3921506249999998
v 1.9999999999999998 1.1398537499999999 -0.1484000000000002
v 1.998441875 0.9550625 -0.39334625000000023
v 2 1.183603125 -2.220446049250313e-16
v 1.9999999999999998 1.033605 -0.3921500000000002
v 1.9999999999999998 1.033605 -0.3921500000000002
v 2.0001375 0.8064131250000001 -0.25605250000000024
v 2.0032525000000003 0.937615 -0.0006981250000002159
v 0.0015574999999997674 0.9550625 -0.3933462499999998
v 1.9984374999999999 0.9550625 -0.39334625000000023
v 1.9999999999999998 1.033605 -0.3921500000000002
v -2.220446049250313e-16 1.033605 -0.3921499999999998
v 1.9936318749999997 0.8064131250000001 -0.25605250000000024
v -0.00013750000000023466 0.8064131250000001 -0.2560524999999998
v 1.9967468750000001 0.937615 -0.0006981250000002159
v -0.003253125000000079 0.937615 -0.0006981249999997718
v -1.1102230246251565e-16 1.1398537499999999 -0.14839999999999975
v 0.0015574999999997674 0.9550625 -0.3933462499999998
v -1.1102230246251565e-16 1.183603125 2.220446049250313e-16
v -2.220446049250313e-16 1.033605 -0.3921499999999998
v -2.220446049250313e-16 1.033605 -0.3921499999999998
v -0.00013750000000023466 0.8064131250000001 -0.2560524999999998
v -0.003253125000000079 0.937615 -0.0006981249999997718
vt 0.62109375 0.44732343750000003
vt 0.37109375 0.44732343750000003
vt 0.37110078125 0.466796875
vt 0.6210859375 0.466796875
vt 0.37110078125 0.466796875
vt 0.37109375 0.44732343750000003
vt 0.62109375 0.44732343750000003
vt 0.6210859375 0.466796875
vt 0.373830546875 0.655975234375
vt 0.356665703125 0.6745544531250001
vt 0.3160828125 0.656390546875
vt 0.315658046875 0.617731875
vt 0.3160828125 0.656390546875
vt 0.282968984375 0.6171338281250001
vt 0.31565796875 0.61772484375
vt 0.31565796875 0.61772484375
vt 0.282968984375 0.6171338281250001
vt 0.270433125 0.592855234375
vt 0.284422109375 0.5551975
vt 0.284422421875 0.555196484375
vt 0.270433125 0.592855234375
vt 0.266037265625 0.5735355468750001
vt 0.267978671875 0.55515
vt 0.2619128125 0.7209734375
vt 0.51152390625 0.7209734375
vt 0.51171875 0.77109375
vt 0.26171875 0.77109375
vt 0.3632890625 0.5914265624999999
vt 0.61327421875 0.5914265624999999
vt 0.61328125 0.61875
vt 0.36328125 0.61875
vt 0.26953125 0.7734375
vt 0.519140625 0.7734375
vt 0.51953125 0.8125
vt 0.26992109375 0.8125
vt 0.363290625 0.578125
vt 0.36328125 0.5596375
vt 0.613271875 0.5596375
vt 0.61328125 0.578125
vt 0.7734375 1
vt 0.5234375 1
vt 0.5234375 0.984375
vt 0.7734375 0.984375
vt 0.38319921875 0.8902078125
vt 0.1332015625 0.8902078125
vt 0.13319921875 0.8203125
vt 0.38319765625 0.8203125
vt 0.3832015625 0.9598289062500001
vt 0.1332015625 0.9598289062500001
vt 0.1332015625 0.8902078125
vt 0.3832015625 0.8902078125
vt 0.3160828125 0.656390546875
vt 0.356665703125 0.6745544531250001
vt 0.373830546875 0.655975234375
vt 0.315658046875 0.617731875
vt 0.282968984375 0.6171338281250001
vt 0.3160828125 0.656390546875
vt 0.31565796875 0.61772484375
vt 0.270433125 0.592855234375
vt 0.282968984375 0.6171338281250001
vt 0.31565796875 0.61772484375
vt 0.284422109375 0.5551975
vt 0.266037265625 0.5735355468750001
vt 0.270433125 0.592855234375
vt 0.284422421875 0.555196484375
vt 0.267978671875 0.55515
vt 0.3160828125 0.656390546875
vt 0.356665703125 0.6745544531250001
vt 0.373830546875 0.655975234375
vt 0.315658046875 0.617731875
vt 0.282968984375 0.6171338281250001
vt 0.3160828125 0.656390546875
vt 0.31565796875 0.61772484375
vt 0.270433125 0.592855234375
vt 0.282968984375 0.6171338281250001
vt 0.31565796875 0.61772484375
vt 0.284422109375 0.5551975
vt 0.266037265625 0.5735355468750001
vt 0.270433125 0.592855234375
vt 0.284422421875 0.555196484375
vt 0.267978671875 0.55515
vt 0.51171875 0.77109375
vt 0.51152390625 0.7209734375
vt 0.2619128125 0.7209734375
vt 0.26171875 0.77109375
vt 0.61328125 0.61875
vt 0.61327421875 0.5914265624999999
vt 0.3632890625 0.5914265624999999
vt 0.36328125 0.61875
vt 0.51953125 0.8125
vt 0.519140625 0.7734375
vt 0.26953125 0.7734375
vt 0.26992109375 0.8125
vt 0.613271875 0.5596375
vt 0.36328125 0.5596375
vt 0.363290625 0.578125
vt 0.61328125 0.578125
vt 0.5234375 0.984375
vt 0.5234375 1
vt 0.7734375 1
vt 0.7734375 0.984375
vt 0.13319921875 0.8203125
vt 0.1332015625 0.8902078125
vt 0.38319921875 0.8902078125
vt 0.38319765625 0.8203125
vt 0.1332015625 0.8902078125
vt 0.1332015625 0.9598289062500001
vt 0.3832015625 0.9598289062500001
vt 0.3832015625 0.8902078125
vt 0.373830546875 0.655975234375
vt 0.356665703125 0.6745544531250001
vt 0.3160828125 0.656390546875
vt 0.315658046875 0.617731875
vt 0.3160828125 0.656390546875
vt 0.282968984375 0.6171338281250001
vt 0.31565796875 0.61772484375
vt 0.31565796875 0.61772484375
vt 0.282968984375 0.6171338281250001
vt 0.270433125 0.592855234375
vt 0.284422109375 0.5551975
vt 0.284422421875 0.555196484375
vt 0.270433125 0.592855234375
vt 0.266037265625 0.5735355468750001
vt 0.267978671875 0.55515
vt 0.26603046875 0.34375
vt 0.2664375 0.3125140625
vt 0.015625 0.3125140625
vt 0.01603046875 0.34375
vt 0.015625 0.3125140625
vt 0.2664375 0.3125140625
vt 0.26603046875 0.34375
vt 0.01603046875 0.34375
vt 0.421875 0.5546875
vt 0.296875 0.5546875
vt 0.296875 0.484375
vt 0.421875 0.484375
vt 0.421875 0.5546875
vt 0.296875 0.5546875
vt 0.296875 0.484375
vt 0.421875 0.484375
vt 0.405751953125 0.6723734375
vt 0.405837734375 0.703125
vt 0.387287734375 0.697655390625
vt 0.37383171875 0.65597796875
vt 0.387287734375 0.697655390625
vt 0.356818984375 0.684374140625
vt 0.373830703125 0.655974921875
vt 0.373830546875 0.655975234375
vt 0.356818984375 0.684374140625
vt 0.356665703125 0.67455453125
vt 0.356818984375 0.684374140625
vt 0.52363203125 0.96875
vt 0.7732421875 0.96875
vt 0.7734375 0.9765625
vt 0.5234375 0.9765625
vt 0.383625 0.9921875
vt 0.1328125 0.9921875
vt 0.1332015625 0.9563015625
vt 0.38323515625 0.9563015625
vt 0.67313140625 0.28125
vt 0.6924709375 0.28125
vt 0.683692265625 0.25177796875
vt 0.6484375 0.24507984375000003
vt 0.356818984375 0.684374140625
vt 0.387287734375 0.697655390625
vt 0.373830703125 0.655974921875
vt 0.751825625 0.5
vt 0.734375 0.471868828125
vt 0.751825625 0.49017921875000003
vt 0.751825625 0.5
vt 0.2578125 0.4296875
vt 0.2578125 0.5546875
vt 0.1328125 0.5546875
vt 0.1328125 0.4296875
vt 0.1328125 0.5546875
vt 0.2578125 0.5546875
vt 0.2578125 0.4296875
vt 0.1328125 0.4296875
vt 0.2578125 0.5625
vt 0.2578125 0.8125
vt 0.1328125 0.8125
vt 0.1328125 0.5625
vt 0.4140625 0.6837859374999999
vt 0.6640625 0.6837859374999999
vt 0.6640625 0.703125
vt 0.4140625 0.703125
vt 0.4140625 0.6505484375
vt 0.6640625 0.6505484375
vt 0.6640625 0.6837859374999999
vt 0.4140625 0.6837859374999999
vt 0 1
vt 0 0.5
vt 0.125 0.5
vt 0.125 1
vt 0.6640625 0.703125
vt 0.6640625 0.6837859374999999
vt 0.4140625 0.6837859374999999
vt 0.4140625 0.703125
vt 0.6640625 0.6837859374999999
vt 0.6640625 0.6505484375
vt 0.4140625 0.6505484375
vt 0.4140625 0.6837859374999999
vt 0.273408515625 0.67009859375
vt 0.265653984375 0.7024186718750001
vt 0.265653984375 0.6640625
vt 0.67313140625 0.28125
vt 0.6924709375 0.28125
vt 0.683692265625 0.25177796875
vt 0.6484375 0.24507984375000003
vt 0.356818984375 0.684374140625
vt 0.387287734375 0.697655390625
vt 0.373830703125 0.655974921875
vt 0.751827890625 0.4921875
vt 0.734375 0.46405695312499995
vt 0.751827890625 0.48236671875000003
vt 0.751827890625 0.4921875
vt 0.7734375 0.9765625
vt 0.7732421875 0.96875
vt 0.52363203125 0.96875
vt 0.5234375 0.9765625
vt 0.1332015625 0.9598289062500001
vt 0.1328125 0.99571484375
vt 0.3828125 0.99571484375
vt 0.38242265625 0.9598289062500001
vt 0.405751953125 0.6723734375
vt 0.405837734375 0.703125
vt 0.387287734375 0.697655390625
vt 0.37383171875 0.65597796875
vt 0.387287734375 0.697655390625
vt 0.356818984375 0.684374140625
vt 0.373830703125 0.655974921875
vt 0.356665703125 0.67455453125
vt 0.373830546875 0.655975234375
vt 0.356818984375 0.684374140625
vt 0.356818984375 0.684374140625
vt 0.765625 0.8671875
vt 0.515625 0.8671875
vt 0.390625 0.8515625
vt 0.890625 0.8515625
vt 0.765625 0.84375
vt 0.515625 0.84375
vt 0.390625 0.828125
vt 0.890625 0.828125
vt 0.390625 1
vt 0.390625 0.875
vt 0.515625 0.875
vt 0.515625 1
vt 0.5546875 0.5546875
vt 0.4296875 0.5546875
vt 0.4296875 0.484375
vt 0.5546875 0.484375
vt 0 0.421875
vt 0.125 0.421875
vt 0.125 0.4921875
vt 0 0.4921875
vn 2.2028421648664497e-16 0.1256714561984449 0.9920719152848559
vn -2.2028410541938343e-16 0.12567540481911177 -0.9920714150823783
vn 0.9999442848751764 0.0017544948645978465 0.01040907744435422
vn 0.9995536487446867 0.01621620106818749 0.025090597922324497
vn 0.9996070801729807 0.012621334010639878 0.02502772853936352
vn 0.9991020396592265 0.005706081963145011 0.04198279382560964
vn 1.6969321625001108e-16 0.6449434395355381 0.7642303054708509
vn 1.9727283322420821e-16 0.45899691950928356 0.8884378581988661
vn 9.066428979714977e-17 0.9128407968384842 0.4083156617462544
vn 2.208218747770904e-16 -0.10480004997680704 0.9944933129613587
vn -6.584213704930273e-19 -0.9999956035884024 -0.002965266238805169
vn -1.9861573562808646e-16 -0.44709645239412443 -0.8944857529645671
vn -1.2195395908339958e-16 -0.8356700453666907 -0.5492318046843551
vn -0.9998919700952363 0.01434814612075913 -0.003190429746059534
vn -0.9999893106697081 -0.004606315840197132 0.00040050056473062536
vn -0.9999998821817366 -0.000060097813124251 0.0004816894911659922
vn -0.9999998420591949 0.00043353660045777795 0.00035766968183513736
vn 0.9999442848751762 0.0017544948645978448 -0.010409077444354665
vn 0.9995536479000761 0.01621625176101145 -0.02509059880661253
vn 0.999607081234961 0.012621252727800073 -0.025027727114210353
vn 0.9991020532402716 0.005706208624880272 -0.04198245340857274
vn -1.6969304976758787e-16 0.6449443279799845 -0.7642295557006717
vn -1.9727309212144472e-16 0.45899466264300415 -0.888439024168364
vn -9.066428979714977e-17 0.9128407968384842 -0.4083156617462544
vn -2.2082177698091775e-16 -0.1048042293702296 -0.9944928725265519
vn 6.584213704930273e-19 -0.9999956035884024 0.002965266238805169
vn 1.9861583488388603e-16 -0.4470955580834523 0.8944861999729491
vn 1.2195384472221317e-16 -0.8356703838669285 0.5492312896473586
vn -0.9998919700952363 0.01434814612075913 0.0031904297460599775
vn -0.9999893106734306 -0.004606315030827728 -0.0004005005791852452
vn -0.9999998821816561 -0.000060099377770776366 -0.0004816894632249253
vn -0.9999998420597664 0.00043353767888362467 -0.0003576667768122313
vn 2.22043738374897e-16 -0.0027937742381533744 0.9999960974051381
vn -2.22043738374897e-16 -0.002793774238153374 -0.9999960974051381
vn -1 0 2.220446049250313e-16
vn 1 0 -2.220446049250313e-16
vn 0.99990517302581 0.013209116068630086 0.003894124922351176
vn 0.9999998739491841 0.000460271358010191 0.00020062874440751244
vn 0.9992615114252625 -0.01931744372552675 0.03321548060786348
vn 2.2201885540489148e-16 0.015228841407334588 0.9998840344706933
vn -1.0147607886940245e-16 -0.889462773376755 -0.4570076309832599
vn -0.9999048076564588 0.013234537827609534 0.003901619406062531
vn -0.9999998629667036 0.0004799037803321354 0.00020918636627945882
vn -0.9992607653896933 -0.019309061437252025 0.03324278717581593
vn -0.12403473458920847 0.9922778767136677 2.754124363884191e-17
vn 0.12403473458920844 0.9922778767136677 -2.7541243638841903e-17
vn 0 1 0
vn -6.278864910813895e-17 0.9591862880375833 -0.2827749367265114
vn -8.872490966378375e-17 0.9166976866734667 -0.39958147010029743
vn 0 -1 0
vn 6.278840581404325e-17 0.9591866110568162 0.2827738410273127
vn 8.872490966378375e-17 0.9166976866734667 0.39958147010029743
vn -0.999058969187842 -0.03975949502828781 -0.017330858040560986
vn 0.9999048441602424 0.013231995698774451 -0.0039008864004319685
vn 0.9999998629667036 0.00047990378033252283 -0.0002091863662796277
vn 0.9992601856555159 -0.019316804667096073 -0.03325571260937266
vn -2.2201885540489148e-16 0.015228841407334588 -0.9998840344706933
vn 1.0147627536626081e-16 -0.889462318690744 0.45700851592643804
vn -0.9999048075916819 0.013234537873426001 -0.0039016358515915387
vn -0.9999998629667036 0.0004799037803321354 -0.00020918636627901473
vn -0.9992607653896936 -0.01930906143725203 -0.03324278717581549
vn -2.220446049250313e-16 0 -1
vn 2.220446049250313e-16 0 1
vn 0 -1 0
vn -2.220446049250313e-16 0 -1
vn 2.220446049250313e-16 0 1
usemtl m_3017929b-f748-8d63-5046-51b70c1aa76f
f 1/1/1 4/2/1 3/3/1 2/4/1
f 7/5/2 8/6/2 5/7/2 6/8/2
f 39/9/3 9/10/3 10/11/3 30/12/3
f 10/13/4 11/14/4 30/15/4
f 30/16/5 11/17/5 13/18/5 15/19/5
f 15/20/6 13/21/6 12/22/6 14/23/6
f 18/24/7 23/25/7 24/26/7 17/27/7
f 20/28/8 25/29/8 23/30/8 18/31/8
f 17/32/9 24/33/9 27/34/9 16/35/9
f 19/36/10 21/37/10 22/38/10 26/39/10
f 29/40/11 28/41/11 22/42/11 21/43/11
f 31/44/12 30/45/12 28/46/12 29/47/12
f 32/48/13 39/49/13 30/50/13 31/51/13
f 34/52/14 33/53/14 38/54/14 37/55/14
f 35/56/15 34/57/15 37/58/15
f 20/59/16 35/60/16 37/61/16 36/62/16
f 19/63/17 20/64/17 36/65/17 21/66/17
f 41/67/18 40/68/18 70/69/18 61/70/18
f 42/71/19 41/72/19 61/73/19
f 44/74/20 42/75/20 61/76/20 46/77/20
f 43/78/21 44/79/21 46/80/21 45/81/21
f 55/82/22 54/83/22 49/84/22 48/85/22
f 54/86/23 56/87/23 51/88/23 49/89/23
f 58/90/24 55/91/24 48/92/24 47/93/24
f 53/94/25 52/95/25 50/96/25 57/97/25
f 53/98/26 59/99/26 60/100/26 52/101/26
f 59/102/27 61/103/27 62/104/27 60/105/27
f 61/106/28 70/107/28 63/108/28 62/109/28
f 69/110/29 64/111/29 65/112/29 68/113/29
f 65/114/30 66/115/30 68/116/30
f 68/117/31 66/118/31 51/119/31 67/120/31
f 67/121/32 51/122/32 50/123/32 52/124/32
f 73/125/33 72/126/33 71/127/33 74/128/33
f 75/129/34 76/130/34 77/131/34 78/132/34
f 85/133/35 79/134/35 82/135/35 81/136/35
f 80/137/36 86/138/36 83/139/36 84/140/36
f 98/141/37 89/142/37 87/143/37 96/144/37
f 87/145/38 90/146/38 96/147/38
f 96/148/39 90/149/39 88/150/39 91/151/39
f 92/152/40 93/153/40 94/154/40 95/155/40
f 99/156/41 98/157/41 96/158/41 97/159/41
f 100/160/42 102/161/42 106/162/42 105/163/42
f 103/164/43 100/165/43 105/166/43
f 103/167/44 105/168/44 101/169/44 104/170/44
f 121/171/45 107/172/45 108/173/45 122/174/45
f 110/175/46 109/176/46 123/177/46 124/178/46
f 111/179/47 112/180/47 114/181/47 113/182/47
f 116/183/48 115/184/48 117/185/48 118/186/48
f 120/187/49 119/188/49 115/189/49 116/190/49
f 122/191/50 124/192/50 123/193/50 121/194/50
f 128/195/51 125/196/51 127/197/51 129/198/51
f 125/199/52 130/200/52 131/201/52 127/202/52
f 130/203/53 125/204/53 126/205/53
f 132/206/54 134/207/54 138/208/54 137/209/54
f 135/210/55 132/211/55 137/212/55
f 135/213/56 137/214/56 133/215/56 136/216/56
f 141/217/57 140/218/57 139/219/57 142/220/57
f 143/221/58 145/222/58 146/223/58 144/224/58
f 153/225/59 149/226/59 147/227/59 152/228/59
f 147/229/60 150/230/60 152/231/60
f 148/232/61 152/233/61 150/234/61 151/235/61
f 108/236/62 110/237/62 124/238/62 122/239/62
f 109/240/63 107/241/63 121/242/63 123/243/63
f 82/244/64 84/245/64 83/246/64 81/247/64
f 79/248/65 80/249/65 84/250/65 82/251/65
f 81/252/66 83/253/66 86/254/66 85/255/66