# Made in Blockbench 4.12.2
mtllib hxd3d_carport.mtl

o cylinder_selection_selection
v 0.03124997124868767 0.03980616265848036 1.0062467311793284
v 0.9687499712486832 0.039806162658479916 1.006246731179328
v 0.9687499712486832 0.45991692592555544 0.7450016194826248
v 0.03250929175840789 0.45991692592555544 0.7450016194826246
v 0.03124997124868767 0.023303885102049615 0.9797092607751898
v 0.9687499712486832 0.02330388510204917 0.9797092607751894
v 0.9687499712486832 0.44341464836912425 0.7184641490784862
v 0.03250929175840789 0.4434146483691247 0.718464149078486
v 1.0000000105367146 0.49972313153176573 0.6892482031479832
v 1.0536714722952922e-8 0.49972313153176573 0.689248203147983
v 1.0000000105367146 -4.2947727263431545e-8 1.000000147513974
v 1.0536714722952922e-8 -4.2947727263431545e-8 1.000000147513974
v 1.0536714722952922e-8 -4.2947727263431545e-8 -0.006499876327883514
v 1.0536714722952922e-8 0.49999995705227274 -0.00649987632788418
v 1.0000000105367146 -4.2947727263431545e-8 -0.006499876327883292
v 1.0000000105367146 0.49999995705227274 -0.006499876327883958
vt 0.234375 0.42319687500000014
vt 0 0.42319687500000014
vt 0 0.5468750000000001
vt 0.2340609375 0.5468750000000001
vt 0.25 0.546875
vt 0.25 0.421875
vt 0.234375 0.421875
vt 0.234375 0.546875
vt 0.484375 0.703125
vt 0.703125 0.703125
vt 0.703125 0.6875
vt 0.484375 0.6875
vt 0.53125 1
vt 0.65625 1
vt 0.65625 0.984375
vt 0.53125 0.984375
vt 0.515625 0.671875
vt 0.734375 0.671875
vt 0.734375 0.65625
vt 0.515625 0.65625
vt 0.265625 0.859375
vt 0.265625 1
vt 0.515625 1
vt 0.515625 0.859375
vt 0.515625 0.4375
vt 0.265625 0.4375
vt 0.265625 0.5625
vt 0.515625 0.5625
vt 0 0.5625
vt 0 0.734375
vt 0.25 0.734375
vt 0.25 0.5625
vt 0.52421875 0.578125
vt 0.27265625 0.578125
vt 0.27265625 0.703125
vt 0.44653125 0.70305625
vt 0 1
vt 0.25 1
vt 0.25 0.75
vt 0 0.75
vt 0.2726315473971782 0.718849477322806
vt 0.3503684390109819 0.84375
vt 0.5242434526028218 0.84375
vt 0.5241940277324941 0.7187500097712716
vn 6.524070455963323e-16 0.5280728818057753 0.8491990529324346
vn 1 0 0
vn 1.2524101652582352e-16 0.8491990529324241 -0.5280728818057919
vn -0.9999967600983105 0.0021616733248298204 -0.0013442326133357066
vn -1.5211591210433088e-16 -0.8491990529324307 0.5280728818057817
vn -1.8866452252038988e-16 0.5280728818057693 0.8491990529324385
vn 2.220446049250313e-16 -1.3321510703108603e-15 -1
vn -7.791628310941854e-20 0.9999999208450334 0.0003978818005555045
vn 1 0 0
vn 0 -1 -1.1655923932755173e-19
vn -1 0 0
usemtl m_b2c94064-809f-6990-1cb9-7245f5b61d9e
f 1/1/1 2/2/1 3/3/1 4/4/1
f 3/5/2 2/6/2 6/7/2 7/8/2
f 4/9/3 3/10/3 7/11/3 8/12/3
f 1/13/4 4/14/4 8/15/4 5/16/4
f 2/17/5 1/18/5 5/19/5 6/20/5
f 11/21/6 9/22/6 10/23/6 12/24/6
f 15/25/7 13/26/7 14/27/7 16/28/7
f 9/29/8 16/30/8 14/31/8 10/32/8
f 11/33/9 15/34/9 16/35/9 9/36/9
f 11/37/10 12/38/10 13/39/10 15/40/10
f 12/41/11 10/42/11 14/43/11 13/44/11