# Made in Blockbench 4.12.6
mtllib df5_cabin_door.mtl

o cube
v 0.8682805224206683 2.3121474599822847 0.5593750000000001
v 0.8682805224206683 2.3121474599822847 0.49687500000000007
v 0.9917419844868096 1.374364551730332 0.5593750000000001
v 0.9917419844868096 1.374364551730332 0.49687500000000007
v 0.8372978705027367 2.3080685164754082 0.5593750000000001
v 0.8372978705027367 2.3080685164754082 0.49687500000000007
v 0.9607593325688781 1.3702856082234554 0.5593750000000001
v 0.9607593325688781 1.3702856082234554 0.49687500000000007
v 0.8594650816143676 2.2042430518915035 0.5281250000000001
v 0.8594650816143676 2.2042430518915035 0.5281250000000001
v 0.9686502414064408 1.3748994253523112 0.5281250000000001
v 0.9686502414064408 1.3748994253523112 0.5281250000000001
v 0.7974997777785046 2.1960851648777506 0.5281250000000001
v 0.7974997777785046 2.1960851648777506 0.5281250000000001
v 0.9066849375705777 1.366741538338558 0.5281250000000001
v 0.9066849375705777 1.366741538338558 0.5281250000000001
v 1.000000263614428 1.3750004133433973 0.5593750000000001
v 1.000000263614428 1.3750004133433973 0.49687500000000007
v 0.9999997547844544 0.2500001890544722 0.5593750000000001
v 0.9999997547844544 0.2500001890544722 0.49687500000000007
v 0.5000001911234179 1.3750004329390393 0.5593750000000001
v 0.5000001911234179 1.3750004329390393 0.49687500000000007
v 0.5000003019464827 0.2500002902289845 0.5593750000000001
v 0.5000003019464827 0.2500002902289845 0.49687500000000007
v 0.5312498604088243 2.312500400463217 0.5593750000000001
v 0.5312498604088243 2.312500400463217 0.49687500000000007
v 0.5312500968263196 1.3749999853081303 0.5593750000000001
v 0.5312500968263196 1.3749999853081303 0.49687500000000007
v 0.5000000362847926 2.3125002284410874 0.5593750000000001
v 0.5000000362847926 2.3125002284410874 0.49687500000000007
v 0.5000001911234179 1.3750004329390393 0.5593750000000001
v 0.5000001911234179 1.3750004329390393 0.49687500000000007
v 0.5937497402501066 2.187500127126402 0.5281250000000001
v 0.5937497402501066 2.187500127126402 0.5281250000000001
v 0.5937497450743828 1.375000329352389 0.5281250000000001
v 0.5937497450743828 1.375000329352389 0.5281250000000001
v 0.5312500104231732 2.187500402735182 0.5281250000000001
v 0.5312500104231732 2.187500402735182 0.5281250000000001
v 0.5312500968263196 1.3749999853081303 0.5281250000000001
v 0.5312500968263196 1.3749999853081303 0.5281250000000001
v 0.9062497459661658 1.4375000835992406 0.5281250000000001
v 0.9062497459661658 1.4375000835992406 0.5281250000000001
v 0.9062500900104244 1.3750004353511776 0.5281250000000001
v 0.9062500900104244 1.3750004353511776 0.5281250000000001
v 0.5937500206831626 1.4375000591793223 0.5281250000000001
v 0.5937500206831626 1.4375000591793223 0.5281250000000001
v 0.5937497450743828 1.375000329352389 0.5281250000000001
v 0.5937497450743828 1.375000329352389 0.5281250000000001
v 0.8437498172850467 2.187499807502062 0.5281250000000001
v 0.8437498172850467 2.187499807502062 0.5281250000000001
v 0.8437501613293052 2.1250001592539984 0.5281250000000001
v 0.8437501613293052 2.1250001592539984 0.5281250000000001
v 0.5937497402501066 2.187500127126402 0.5281250000000001
v 0.5937497402501066 2.187500127126402 0.5281250000000001
v 0.5937501658732354 2.1249998592253005 0.5281250000000001
v 0.5937501658732354 2.1249998592253005 0.5281250000000001
v 0.8677499710442167 2.3124999749457196 0.5593750000000001
v 0.8677499710442167 2.3124999749457196 0.49687500000000007
v 0.8677501210585659 2.1874999772176844 0.5593750000000001
v 0.8677501210585659 2.1874999772176844 0.49687500000000007
v 0.5312498604088243 2.312500400463217 0.5593750000000001
v 0.5312498604088243 2.312500400463217 0.49687500000000007
v 0.5312500104231732 2.187500402735182 0.5593750000000001
v 0.5312500104231732 2.187500402735182 0.49687500000000007
vt 0.296875 0.765625
vt 0.296875 1
vt 0.28125 1
vt 0.28125 0.765625
vt 0.046875 0.484375
vt 0.046875 0.71875
vt 0.03125 0.71875
vt 0.03125 0.484375
vt 0.296875 0.84375
vt 0.296875 0.828125
vt 0.3125 0.828125
vt 0.3125 0.84375
vt 0.296875 0.8125
vt 0.296875 0.828125
vt 0.3125 0.828125
vt 0.3125 0.8125
vt 0.03125 0.484375
vt 0.03125 0.71875
vt 0.015625 0.71875
vt 0.015625 0.484375
vt 0.015625 0.484375
vt 0.015625 0.71875
vt 0 0.71875
vt 0 0.484375
vt 0 1
vt 0 1
vt 0 0.796875
vt 0 0.796875
vt 0 1
vt 0 1
vt 0 0.796875
vt 0 0.796875
vt 0 1
vt 0.015625 1
vt 0 1
vt 0.015625 1
vt 0 1
vt 0.015625 1
vt 0 1
vt 0.015625 1
vt 0.140625 0.515625
vt 0.140625 0.71875
vt 0.125 0.71875
vt 0.125 0.515625
vt 0.125 0.515625
vt 0.125 0.71875
vt 0.109375 0.71875
vt 0.109375 0.515625
vt 0.265625 0.71875
vt 0.265625 1
vt 0.25 1
vt 0.25 0.71875
vt 0.28125 0.71875
vt 0.28125 1
vt 0.265625 1
vt 0.265625 0.71875
vt 0.25 0.71875
vt 0.25 0.703125
vt 0.375 0.703125
vt 0.375 0.71875
vt 0.28125 0.71875
vt 0.28125 0.734375
vt 0.40625 0.734375
vt 0.40625 0.71875
vt 0.25 0.71875
vt 0.25 1
vt 0.125 1
vt 0.125 0.71875
vt 0.125 0.71875
vt 0.125 1
vt 0 1
vt 0 0.71875
vt 0.078125 0.484375
vt 0.078125 0.71875
vt 0.0625 0.71875
vt 0.0625 0.484375
vt 0.109375 0.484375
vt 0.109375 0.71875
vt 0.09375 0.71875
vt 0.09375 0.484375
vt 0.296875 0.8125
vt 0.296875 0.796875
vt 0.3125 0.796875
vt 0.3125 0.8125
vt 0.296875 0.78125
vt 0.296875 0.796875
vt 0.3125 0.796875
vt 0.3125 0.78125
vt 0.09375 0.484375
vt 0.09375 0.71875
vt 0.078125 0.71875
vt 0.078125 0.484375
vt 0.0625 0.484375
vt 0.0625 0.71875
vt 0.046875 0.71875
vt 0.046875 0.484375
vt 0 1
vt 0 1
vt 0 0.796875
vt 0 0.796875
vt 0 1
vt 0 1
vt 0 0.796875
vt 0 0.796875
vt 0 1
vt 0.015625 1
vt 0 1
vt 0.015625 1
vt 0 1
vt 0.015625 1
vt 0 1
vt 0.015625 1
vt 0.171875 0.515625
vt 0.171875 0.71875
vt 0.15625 0.71875
vt 0.15625 0.515625
vt 0.15625 0.515625
vt 0.15625 0.71875
vt 0.140625 0.71875
vt 0.140625 0.515625
vt 0 1
vt 0 1
vt 0 0.984375
vt 0 0.984375
vt 0 1
vt 0 1
vt 0 0.984375
vt 0 0.984375
vt 0 1
vt 0.078125 1
vt 0 1
vt 0.078125 1
vt 0 1
vt 0.078125 1
vt 0 1
vt 0.078125 1
vt 0.375 0.96875
vt 0.375 0.984375
vt 0.296875 0.984375
vt 0.296875 0.96875
vt 0.375 0.984375
vt 0.375 1
vt 0.296875 1
vt 0.296875 0.984375
vt 0 1
vt 0 1
vt 0 0.984375
vt 0 0.984375
vt 0 1
vt 0 1
vt 0 0.984375
vt 0 0.984375
vt 0 1
vt 0.0625 1
vt 0 1
vt 0.0625 1
vt 0 1
vt 0.0625 1
vt 0 1
vt 0.0625 1
vt 0.359375 0.90625
vt 0.359375 0.921875
vt 0.296875 0.921875
vt 0.296875 0.90625
vt 0.359375 0.921875
vt 0.359375 0.9375
vt 0.296875 0.9375
vt 0.296875 0.921875
vt 0.3125 0.875
vt 0.3125 0.90625
vt 0.296875 0.90625
vt 0.296875 0.875
vt 0.3125 0.84375
vt 0.3125 0.875
vt 0.296875 0.875
vt 0.296875 0.84375
vt 0.296875 0.96875
vt 0.296875 0.953125
vt 0.375 0.953125
vt 0.375 0.96875
vt 0.296875 0.9375
vt 0.296875 0.953125
vt 0.375 0.953125
vt 0.375 0.9375
vt 0.359375 0.734375
vt 0.359375 0.765625
vt 0.28125 0.765625
vt 0.28125 0.734375
vt 0.25 0.6875
vt 0.25 0.71875
vt 0.171875 0.71875
vt 0.171875 0.6875
vn 0.9914448613738104 0.13052619222005157 0
vn -0.9914448613738104 -0.13052619222005157 0
vn -0.13052619222005157 0.9914448613738104 0
vn 0.13052619222005157 -0.9914448613738104 0
vn 0 0 1
vn 0 0 -1
vn 0 0 0
vn 0 0 0
vn 0 0 0
vn 0 0 0
vn 0 0 1
vn 0 0 -1
vn 0.9999999999998977 -4.522932197381647e-7 0
vn -0.9999999999999952 -9.850937840449883e-8 0
vn 3.91912785835391e-8 0.9999999999999992 0
vn -2.023492459424237e-7 -0.9999999999999797 0
vn 0 0 1
vn 0 0 -1
vn 0.9999999999999684 2.521785501252705e-7 0
vn -0.9999999999999863 -1.6516123632626112e-7 0
vn -0.000005504739121836577 0.9999999999848489 0
vn -0.00001432423231115254 -0.9999999998974082 0
vn 0 0 1
vn 0 0 -1
vn 0 0 0
vn 0 0 0
vn 0 0 0
vn 0 0 0
vn 0 0 1
vn 0 0 -1
vn 0 0 0
vn 0 0 0
vn 0 0 0
vn 0 0 0
vn 0 0 1
vn 0 0 -1
vn 0 0 0
vn 0 0 0
vn 0 0 0
vn 0 0 0
vn 0 0 1
vn 0 0 -1
vn 0.99999999999928 0.0000012001148136375763 0
vn -0.9999999999992799 -0.0000012001148142759546 0
vn 0.0000012645389524112984 0.9999999999992006 0
vn -0.0000012645389517729202 -0.9999999999992005 0
vn 0 0 1
vn 0 0 -1
usemtl m_781e8bf0-243e-37f8-5f92-966d1fb3d40e
f 4/1/1 2/2/1 1/3/1 3/4/1
f 7/5/2 5/6/2 6/7/2 8/8/2
f 1/9/3 2/10/3 6/11/3 5/12/3
f 4/13/4 3/14/4 7/15/4 8/16/4
f 3/17/5 1/18/5 5/19/5 7/20/5
f 8/21/6 6/22/6 2/23/6 4/24/6
f 10/25/7 9/26/7 12/27/7 11/28/7
f 13/29/8 14/30/8 15/31/8 16/32/8
f 10/33/9 14/34/9 9/35/9 13/36/9
f 11/37/10 15/38/10 12/39/10 16/40/10
f 11/41/11 9/42/11 13/43/11 15/44/11
f 16/45/12 14/46/12 10/47/12 12/48/12
f 20/49/13 18/50/13 17/51/13 19/52/13
f 23/53/14 21/54/14 22/55/14 24/56/14
f 17/57/15 18/58/15 22/59/15 21/60/15
f 20/61/16 19/62/16 23/63/16 24/64/16
f 19/65/17 17/66/17 21/67/17 23/68/17
f 24/69/18 22/70/18 18/71/18 20/72/18
f 28/73/19 26/74/19 25/75/19 27/76/19
f 31/77/20 29/78/20 30/79/20 32/80/20
f 25/81/21 26/82/21 30/83/21 29/84/21
f 28/85/22 27/86/22 31/87/22 32/88/22
f 27/89/23 25/90/23 29/91/23 31/92/23
f 32/93/24 30/94/24 26/95/24 28/96/24
f 34/97/25 33/98/25 36/99/25 35/100/25
f 37/101/26 38/102/26 39/103/26 40/104/26
f 34/105/27 38/106/27 33/107/27 37/108/27
f 35/109/28 39/110/28 36/111/28 40/112/28
f 35/113/29 33/114/29 37/115/29 39/116/29
f 40/117/30 38/118/30 34/119/30 36/120/30
f 42/121/31 41/122/31 44/123/31 43/124/31
f 45/125/32 46/126/32 47/127/32 48/128/32
f 42/129/33 46/130/33 41/131/33 45/132/33
f 43/133/34 47/134/34 44/135/34 48/136/34
f 43/137/35 41/138/35 45/139/35 47/140/35
f 48/141/36 46/142/36 42/143/36 44/144/36
f 50/145/37 49/146/37 52/147/37 51/148/37
f 53/149/38 54/150/38 55/151/38 56/152/38
f 50/153/39 54/154/39 49/155/39 53/156/39
f 51/157/40 55/158/40 52/159/40 56/160/40
f 51/161/41 49/162/41 53/163/41 55/164/41
f 56/165/42 54/166/42 50/167/42 52/168/42
f 60/169/43 58/170/43 57/171/43 59/172/43
f 63/173/44 61/174/44 62/175/44 64/176/44
f 57/177/45 58/178/45 62/179/45 61/180/45
f 60/181/46 59/182/46 63/183/46 64/184/46
f 59/185/47 57/186/47 61/187/47 63/188/47
f 64/189/48 62/190/48 58/191/48 60/192/48