# Made in Blockbench 4.12.3
mtllib hxd3d_panto_large_arm.mtl

o second_selection_selection
v 0.55273375 0.0555289423570936 -0.009230539736525493
v 0.55273375 0.05083368382710041 1.578262047357533
v 0.55273375 -0.05865710376187361 1.590736947373637
v 0.55273375 -0.05396142649629258 0.0032456936158105007
v 0.44726625 0.05083368382710041 1.578262047357533
v 0.44726625 0.0555289423570936 -0.009230539736525493
v 0.44726625 -0.05396142649629258 0.0032456936158105007
v 0.44726625 -0.05865710376187361 1.590736947373637
v 0.78125 0.05213090403309129 -0.01078251730618833
v 0.78125 0.008033474934499407 0.04061985640044034
v 0.78125 -0.0505625198493272 0.004798570360223766
v 0.78125 -0.006465959073698388 -0.04660470252115534
v 0.21875 0.008033474934499407 0.04061985640044034
v 0.21875 0.05213090403309129 -0.01078251730618833
v 0.21875 -0.006465959073698388 -0.04660470252115534
v 0.21875 -0.0505625198493272 0.004798570360223766
vt 0.015625 0.795275
vt 0.015625 0.993713125
vt 0 0.995313125
vt 0 0.796875
vt 0.22088 1
vt 0.022441875 1
vt 0.024041875 0.984375
vt 0.22248 0.984375
vt 0.039061875 0.976561875
vt 0.023438125 0.976561875
vt 0.023438125 0.78125
vt 0.039061875 0.78125
vt 0.046875 0.7828118749999999
vt 0.0625 0.7828118749999999
vt 0.0625 0.978125
vt 0.046875 0.978125
vt 0.414061875 0.984375
vt 0.398438125 0.984375
vt 0.398438125 0.96875
vt 0.414061875 0.96875
vt 0.289061875 0.601561875
vt 0.273438125 0.601561875
vt 0.273438125 0.585938125
vt 0.289061875 0.585938125
vt 0.46590625 0.945311875
vt 0.46455375 0.953125
vt 0.45596875 0.953125
vt 0.45732125 0.945311875
vt 0.148438125 0.54552375
vt 0.140625 0.546875
vt 0.140625 0.5382899999999999
vt 0.148438125 0.53693875
vt 0.414061875 0.757811875
vt 0.34375 0.757811875
vt 0.34375 0.75
vt 0.414061875 0.75
vt 0.320311875 0.648438125
vt 0.390625 0.648438125
vt 0.390625 0.65625
vt 0.320311875 0.65625
vt 0.421875 0.882811875
vt 0.351561875 0.882811875
vt 0.351561875 0.875
vt 0.421875 0.875
vt 0.429688125 1
vt 0.359375 1
vt 0.359375 0.992188125
vt 0.429688125 0.992188125
vn 1 0 0
vn -1 0 0
vn 0 0.9999956261612919 0.0029576440431035023
vn 0 -0.9999956253737728 -0.002957910295652234
vn 0 -0.11321559018979677 -0.9935704454833467
vn 0 0.11320321850435228 0.9935718551369377
vn 1 0 0
vn -1 0 0
vn 0 0.7589774542485581 0.6511169049735831
vn 0 -0.7589894187902186 -0.651102958190551
vn 0 0.5215877255167937 -0.8531976585705201
vn 0 -0.521583821315094 0.8532000453248607
usemtl m_522501b2-59ce-0856-395a-e48381b69e7c
f 1/1/1 2/2/1 3/3/1 4/4/1
f 5/5/2 6/6/2 7/7/2 8/8/2
f 5/9/3 2/10/3 1/11/3 6/12/3
f 7/13/4 4/14/4 3/15/4 8/16/4
f 6/17/5 1/18/5 4/19/5 7/20/5
f 2/21/6 5/22/6 8/23/6 3/24/6
f 9/25/7 10/26/7 11/27/7 12/28/7
f 13/29/8 14/30/8 15/31/8 16/32/8
f 13/33/9 10/34/9 9/35/9 14/36/9
f 15/37/10 12/38/10 11/39/10 16/40/10
f 14/41/11 9/42/11 12/43/11 15/44/11
f 10/45/12 13/46/12 16/47/12 11/48/12