# Made in Blockbench 4.12.3
mtllib hxd3d_panto_large_arm.mtl

o second_selection_selection
v 0.5527340000000001 0.03193400000000002 -0.04635600000000001
v 0.5527340000000001 1.170619 1.059786
v 0.5527340000000001 1.103534 1.147213
v 0.5527340000000001 -0.03514999999999999 0.041071000000000024
v 0.447266 1.170619 1.059786
v 0.447266 0.03193400000000002 -0.04635600000000001
v 0.447266 -0.03514999999999999 0.041071000000000024
v 0.447266 1.103534 1.147213
v 0.78125 0.02845700000000001 -0.044989999999999974
v 0.78125 0.0348 0.022438000000000013
v 0.78125 -0.031672000000000006 0.03970499999999999
v 0.78125 -0.038015999999999994 -0.027722999999999998
v 0.21875 0.0348 0.022438000000000013
v 0.21875 0.02845700000000001 -0.044989999999999974
v 0.21875 -0.038015999999999994 -0.027722999999999998
v 0.21875 -0.031672000000000006 0.03970499999999999
vt 0.015625 0.795275
vt 0.015625 0.993713
vt 0 0.995313
vt 0 0.796875
vt 0.22088 1
vt 0.022442 1
vt 0.024042 0.984375
vt 0.22248 0.984375
vt 0.039062 0.976562
vt 0.023438 0.976562
vt 0.023438 0.78125
vt 0.039062 0.78125
vt 0.046875 0.782812
vt 0.0625 0.782812
vt 0.0625 0.978125
vt 0.046875 0.978125
vt 0.414062 0.984375
vt 0.398438 0.984375
vt 0.398438 0.96875
vt 0.414062 0.96875
vt 0.289062 0.601562
vt 0.273438 0.601562
vt 0.273438 0.585938
vt 0.289062 0.585938
vt 0.465906 0.945312
vt 0.464554 0.953125
vt 0.455969 0.953125
vt 0.457321 0.945312
vt 0.148438 0.545524
vt 0.140625 0.546875
vt 0.140625 0.53829
vt 0.148438 0.536939
vt 0.414062 0.757812
vt 0.34375 0.757812
vt 0.34375 0.75
vt 0.414062 0.75
vt 0.320312 0.648438
vt 0.390625 0.648438
vt 0.390625 0.65625
vt 0.320312 0.65625
vt 0.421875 0.882812
vt 0.351562 0.882812
vt 0.351562 0.875
vt 0.421875 0.875
vt 0.429688 1
vt 0.359375 1
vt 0.359375 0.992188
vt 0.429688 0.992188
vn 1 0 0
vn -1 0 0
vn 0 0.6967827211654326 -0.7172822592852099
vn 0 -0.6967830359939436 0.7172819534541929
vn 0 -0.7933581461920198 -0.6087551657856891
vn 0 0.7933537635571222 0.6087608773974802
vn 1 0 0
vn -1 0 0
vn 0 0.995604501917119 -0.09365722482737548
vn 0 -0.9956031249992305 0.09367186072544206
vn 0 -0.25141590181309825 -0.9678791475775819
vn 0 0.2514194450129095 0.9678782271904873
usemtl m_522501b2-59ce-0856-395a-e48381b69e7c
f 1/1/1 2/2/1 3/3/1 4/4/1
f 5/5/2 6/6/2 7/7/2 8/8/2
f 5/9/3 2/10/3 1/11/3 6/12/3
f 7/13/4 4/14/4 3/15/4 8/16/4
f 6/17/5 1/18/5 4/19/5 7/20/5
f 2/21/6 5/22/6 8/23/6 3/24/6
f 9/25/7 10/26/7 11/27/7 12/28/7
f 13/29/8 14/30/8 15/31/8 16/32/8
f 13/33/9 10/34/9 9/35/9 14/36/9
f 15/37/10 12/38/10 11/39/10 16/40/10
f 14/41/11 9/42/11 12/43/11 15/44/11
f 10/45/12 13/46/12 16/47/12 11/48/12