# Made in Blockbench 4.12.3
mtllib hxd3d_panto_small_arm.mtl

o second
v -0.099968 0.14851999999999999 -0.14204300000000003
v -0.099968 0.23096699999999992 -0.10619500000000004
v -0.448919 1.258438 -1.2589219999999997
v -0.448919 1.1759909999999998 -1.2947699999999998
v -0.383335 1.1837499999999999 -1.3058519999999998
v -0.383335 1.266197 -1.270003
v -0.034384 0.238726 -0.11727600000000005
v -0.034384 0.15627900000000006 -0.15312400000000004
v -0.268705 0.666844 -0.703285
v -0.268705 0.723692 -0.685361
v -0.268705 0.759541 -0.736558
v -0.268705 0.7026920000000001 -0.754482
v -0.129153 0.2984359999999999 -0.301662
v -0.049362 0.6812419999999999 -0.716694
v -0.016061 0.6789019999999999 -0.713353
v -0.095852 0.29609700000000005 -0.29832100000000006
v -0.046566 0.7008650000000001 -0.744719
v -0.411663 1.2253159999999998 -1.256249
v -0.018238 0.710496 -0.7584730000000001
v 0.105469 0.215576 -0.13458900000000007
v 0.105469 0.21901400000000004 -0.06647199999999998
v 0.105469 0.15232800000000002 -0.05216200000000004
v 0.105469 0.14888999999999997 -0.12027900000000002
v -0.105469 0.21901400000000004 -0.06647199999999998
v -0.105469 0.215576 -0.13458900000000007
v -0.105469 0.14888999999999997 -0.12027900000000002
v -0.105469 0.15232800000000002 -0.05216200000000004
v 0 0.21901400000000004 -0.06647199999999998
v 0 0.215576 -0.13458900000000007
v 0 0.14888999999999997 -0.12027900000000002
v 0 0.15232800000000002 -0.05216200000000004
v 0.035156 0.18486000000000002 -0.132409
v 0.035156 0.20819100000000001 -0.07174800000000003
v 0.035156 -0.026083999999999996 0.07177
v 0.035156 -0.04941499999999999 0.011108999999999924
v -0.035156 0.20819100000000001 -0.07174800000000003
v -0.035156 0.18486000000000002 -0.132409
v -0.035156 -0.04941499999999999 0.011108999999999924
v -0.035156 -0.026083999999999996 0.07177
v 0 0.723692 -0.685361
v 0 0.759541 -0.736558
v 0 0.7026920000000001 -0.754482
v 0 0.666844 -0.703285
v 0.448919 1.258438 -1.2589219999999997
v 0.099968 0.23096699999999992 -0.10619500000000004
v 0.099968 0.14851999999999999 -0.14204300000000003
v 0.448919 1.1759909999999998 -1.2947699999999998
v 0.034384 0.238726 -0.11727600000000005
v 0.383335 1.266197 -1.270003
v 0.383335 1.1837499999999999 -1.3058519999999998
v 0.034384 0.15627900000000006 -0.15312400000000004
v 0.268705 0.759541 -0.736558
v 0.268705 0.723692 -0.685361
v 0.268705 0.666844 -0.703285
v 0.268705 0.7026920000000001 -0.754482
v 0.016061 0.6789019999999999 -0.713353
v 0.049362 0.6812419999999999 -0.716694
v 0.129153 0.2984359999999999 -0.301662
v 0.095852 0.29609700000000005 -0.29832100000000006
v 0.411663 1.2253159999999998 -1.256249
v 0.046566 0.7008650000000001 -0.744719
v 0.018238 0.710496 -0.7584730000000001
v 0 0.759541 -0.736558
v 0 0.723692 -0.685361
v 0 0.7026920000000001 -0.754482
v 0 0.666844 -0.703285
vt 0.085938 0.712891
vt 0.09375 0.716316
vt 0.09375 0.914206
vt 0.085938 0.910779
vt 0.301404 0.90625
vt 0.30483 0.914062
vt 0.106941 0.914062
vt 0.103516 0.90625
vt 0.117188 0.867188
vt 0.117188 0.669299
vt 0.125 0.66913
vt 0.125 0.867018
vt 0.11989 0.875
vt 0.317779 0.875
vt 0.31761 0.882812
vt 0.119721 0.882812
vt 0.449362 0.710938
vt 0.460601 0.710938
vt 0.460938 0.71875
vt 0.4497 0.71875
vt 0.34375 0.539399
vt 0.34375 0.550637
vt 0.335938 0.5503
vt 0.335938 0.539062
vt 0.421875 0.539062
vt 0.429688 0.541303
vt 0.429688 0.549115
vt 0.421875 0.546875
vt 0.21875 0.601562
vt 0.21875 0.672841
vt 0.210938 0.672923
vt 0.210938 0.601645
vt 0.179688 0.703125
vt 0.282005 0.703125
vt 0.284775 0.710938
vt 0.179954 0.708701
vt 0.164062 0.536983
vt 0.164062 0.545509
vt 0.15625 0.546875
vt 0.15625 0.538349
vt 0.464517 0.882812
vt 0.455992 0.882812
vt 0.457358 0.875
vt 0.465883 0.875
vt 0.132812 0.585938
vt 0.121094 0.585938
vt 0.121094 0.578125
vt 0.132812 0.578125
vt 0.078125 0.578125
vt 0.089844 0.578125
vt 0.089844 0.585938
vt 0.078125 0.585938
vt 0.4375 0.726562
vt 0.425781 0.726562
vt 0.425781 0.71875
vt 0.4375 0.71875
vt 0.414062 0.734375
vt 0.425781 0.734375
vt 0.425781 0.742188
vt 0.414062 0.742188
vt 0.420788 0.632812
vt 0.419628 0.640625
vt 0.399524 0.640625
vt 0.400685 0.632812
vt 0.023438 0.59433
vt 0.015625 0.595703
vt 0.015625 0.571907
vt 0.023438 0.570533
vt 0.484375 0.75
vt 0.476562 0.75
vt 0.476562 0.742188
vt 0.484375 0.742188
vt 0.265625 0.515625
vt 0.273438 0.515625
vt 0.273438 0.523438
vt 0.265625 0.523438
vt 0.21875 0.59375
vt 0.210938 0.59375
vt 0.210938 0.570312
vt 0.21875 0.570312
vt 0.0625 0.734375
vt 0.054688 0.734375
vt 0.054688 0.710938
vt 0.0625 0.710938
vt 0.109375 0.632812
vt 0.144531 0.632812
vt 0.144531 0.640625
vt 0.109375 0.640625
vt 0.429688 0.898438
vt 0.394531 0.898438
vt 0.394531 0.890625
vt 0.429688 0.890625
vt 0.390625 0.640625
vt 0.355469 0.640625
vt 0.355469 0.632812
vt 0.390625 0.632812
vt 0.359375 0.90625
vt 0.394531 0.90625
vt 0.394531 0.914062
vt 0.359375 0.914062
vt 0.4375 0.742188
vt 0.425781 0.742188
vt 0.425781 0.734375
vt 0.4375 0.734375
vt 0.101562 0.585938
vt 0.089844 0.585938
vt 0.089844 0.578125
vt 0.101562 0.578125
vt 0.414062 0.71875
vt 0.425781 0.71875
vt 0.425781 0.726562
vt 0.414062 0.726562
vt 0.109375 0.578125
vt 0.121094 0.578125
vt 0.121094 0.585938
vt 0.109375 0.585938
vt 0.09375 0.914206
vt 0.09375 0.716316
vt 0.085938 0.712891
vt 0.085938 0.910779
vt 0.106941 0.914062
vt 0.30483 0.914062
vt 0.301404 0.90625
vt 0.103516 0.90625
vt 0.125 0.66913
vt 0.117188 0.669299
vt 0.117188 0.867188
vt 0.125 0.867018
vt 0.31761 0.882812
vt 0.317779 0.875
vt 0.11989 0.875
vt 0.119721 0.882812
vt 0.460938 0.71875
vt 0.460601 0.710938
vt 0.449362 0.710938
vt 0.4497 0.71875
vt 0.335938 0.5503
vt 0.34375 0.550637
vt 0.34375 0.539399
vt 0.335938 0.539062
vt 0.429688 0.549115
vt 0.429688 0.541303
vt 0.421875 0.539062
vt 0.421875 0.546875
vt 0.210938 0.672923
vt 0.21875 0.672841
vt 0.21875 0.601562
vt 0.210938 0.601645
vt 0.284775 0.710938
vt 0.282005 0.703125
vt 0.179688 0.703125
vt 0.179954 0.708701
vt 0.144531 0.640625
vt 0.144531 0.632812
vt 0.109375 0.632812
vt 0.109375 0.640625
vt 0.394531 0.890625
vt 0.394531 0.898438
vt 0.429688 0.898438
vt 0.429688 0.890625
vt 0.355469 0.632812
vt 0.355469 0.640625
vt 0.390625 0.640625
vt 0.390625 0.632812
vt 0.394531 0.914062
vt 0.394531 0.90625
vt 0.359375 0.90625
vt 0.359375 0.914062
vn -0.9728497494897326 -0.09228341666635434 0.2122431057211257
vn 0.9728499243757011 0.09228528851791554 -0.21224149020716448
vn 0.023034055122474188 0.7497555656430651 0.6613138620139928
vn -0.02304368706106316 -0.7497568397672705 -0.6613120819316908
vn -0.19811338009456717 0.39083655975733916 -0.8988870185871825
vn 0.19811338009456278 -0.3908365597573394 0.8988870185871832
vn -1 0 0
vn 0.016091075717368543 -0.7365132812321414 -0.6762316643362114
vn 0.35907954423609423 -0.5114712963503445 -0.7806785471119959
vn 1 0 0
vn -1 0 0
vn 0 0.9987287178680501 -0.05040781790199809
vn 0 -0.9987287178680502 0.05040781790199817
vn 0 -0.20981144627068052 -0.9777418662478381
vn 0 0.20981144627067896 0.9777418662478385
vn 1 0 0
vn -1 0 0
vn 0 0.9333463993073764 -0.3589770172308469
vn 0 -0.9333463993073765 0.3589770172308463
vn 0 -0.5223770902836127 -0.8527145920803902
vn 0 0.5223770902836131 0.8527145920803902
vn 0 0.8191484759653049 0.5735815324116688
vn 0 0.3006993776072323 -0.953718975540816
vn 0 -0.819155993506607 -0.5735707962424549
vn 0 -0.3007041888486588 0.9537174585844963
vn 0 0.20981144627067896 0.9777418662478385
vn 0 -0.9987287178680502 0.05040781790199817
vn 0 -0.20981144627068052 -0.9777418662478381
vn 0 0.9987287178680501 -0.05040781790199809
vn 0.9728497494897327 -0.09228341666635423 0.21224310572112534
vn -0.9728499243757011 0.09228528851791555 -0.2122414902071648
vn -0.02303405512247583 0.7497555656430656 0.6613138620139923
vn 0.023043687061062433 -0.7497568397672704 -0.661312081931691
vn 0.19811338009456714 0.39083655975733916 -0.8988870185871823
vn -0.1981133800945628 -0.3908365597573394 0.8988870185871832
vn 1 0 0
vn -0.01609107571736858 -0.7365132812321414 -0.6762316643362115
vn -0.3590795442360939 -0.5114712963503443 -0.7806785471119964
vn 0 0.8191484759653049 0.5735815324116688
vn 0 0.3006993776072323 -0.953718975540816
vn 0 -0.819155993506607 -0.5735707962424549
vn 0 -0.3007041888486588 0.9537174585844963
usemtl m_522501b2-59ce-0856-395a-e48381b69e7c
f 1/1/1 2/2/1 3/3/1 4/4/1
f 5/5/2 6/6/2 7/7/2 8/8/2
f 3/9/3 2/10/3 7/11/3 6/12/3
f 1/13/4 4/14/4 5/15/4 8/16/4
f 4/17/5 3/18/5 6/19/5 5/20/5
f 8/21/6 7/22/6 2/23/6 1/24/6
f 9/25/7 10/26/7 11/27/7 12/28/7
f 13/29/8 14/30/8 15/31/8 16/32/8
f 17/33/9 18/34/9 6/35/9 19/36/9
f 20/37/10 21/38/10 22/39/10 23/40/10
f 24/41/11 25/42/11 26/43/11 27/44/11
f 24/45/12 28/46/12 29/47/12 25/48/12
f 26/49/13 30/50/13 31/51/13 27/52/13
f 25/53/14 29/54/14 30/55/14 26/56/14
f 27/57/15 31/58/15 28/59/15 24/60/15
f 32/61/16 33/62/16 34/63/16 35/64/16
f 36/65/17 37/66/17 38/67/17 39/68/17
f 36/69/18 33/70/18 32/71/18 37/72/18
f 38/73/19 35/74/19 34/75/19 39/76/19
f 37/77/20 32/78/20 35/79/20 38/80/20
f 33/81/21 36/82/21 39/83/21 34/84/21
f 10/85/22 40/86/22 41/87/22 11/88/22
f 11/89/23 41/90/23 42/91/23 12/92/23
f 12/93/24 42/94/24 43/95/24 9/96/24
f 9/97/25 43/98/25 40/99/25 10/100/25
f 21/101/26 28/102/26 31/103/26 22/104/26
f 22/105/27 31/106/27 30/107/27 23/108/27
f 23/109/28 30/110/28 29/111/28 20/112/28
f 20/113/29 29/114/29 28/115/29 21/116/29
f 44/117/30 45/118/30 46/119/30 47/120/30
f 48/121/31 49/122/31 50/123/31 51/124/31
f 48/125/32 45/126/32 44/127/32 49/128/32
f 50/129/33 47/130/33 46/131/33 51/132/33
f 49/133/34 44/134/34 47/135/34 50/136/34
f 45/137/35 48/138/35 51/139/35 46/140/35
f 52/141/36 53/142/36 54/143/36 55/144/36
f 56/145/37 57/146/37 58/147/37 59/148/37
f 49/149/38 60/150/38 61/151/38 62/152/38
f 63/153/39 64/154/39 53/155/39 52/156/39
f 65/157/40 63/158/40 52/159/40 55/160/40
f 66/161/41 65/162/41 55/163/41 54/164/41
f 64/165/42 66/166/42 54/167/42 53/168/42