# Made in Blockbench 4.12.5
mtllib 22_coupler.mtl

o cube
v 1 1 1
v 1 1 0
v 1 0.5 1
v 1 0.5 0
v 0 1 1
v 0 1 0
v 0 0.5 1
v 0 0.5 0
v 1.359375 0.771875 0
v 1.359375 0.771875 -0.0625
v 1.359375 0.50625 0
v 1.359375 0.50625 -0.0625
v -0.359375 0.771875 0
v -0.359375 0.771875 -0.0625
v -0.359375 0.50625 0
v -0.359375 0.50625 -0.0625
v 0.653125 0.38125 -0.125
v 0.653125 0.38125 -0.3125
v 0.653125 0.13124999999999998 -0.125
v 0.653125 0.13124999999999998 -0.3125
v 0.37187499999999996 0.38125 -0.125
v 0.37187499999999996 0.38125 -0.3125
v 0.37187499999999996 0.13124999999999998 -0.125
v 0.37187499999999996 0.13124999999999998 -0.3125
v 0.6937500000000001 0.475 -0.25
v 0.6937500000000001 0.475 -0.5
v 0.6937500000000001 0.03749999999999998 -0.25
v 0.6937500000000001 0.03749999999999998 -0.5
v 0.3187500000000001 0.475 -0.25
v 0.3187500000000001 0.475 -0.5
v 0.3187500000000001 0.03749999999999998 -0.25
v 0.3187500000000001 0.03749999999999998 -0.5
v -0.23354680335699562 0.7303991563062611 -0.0004999999999988347
v -0.23354680335699562 0.7303991563062611 -0.062000000000001165
v -0.32921766144826803 0.49942927317843944 -0.0004999999999988347
v -0.32921766144826803 0.49942927317843944 -0.062000000000001165
v -0.8737953193873174 0.9955987749352683 -0.0004999999999988347
v -0.8737953193873174 0.9955987749352683 -0.062000000000001165
v -0.9694661774785898 0.7646288918074466 -0.0004999999999988347
v -0.9694661774785898 0.7646288918074466 -0.062000000000001165
v 1.8737953193873174 0.9955987749352683 -0.0004999999999988347
v 1.8737953193873174 0.9955987749352683 -0.062000000000001165
v 1.9694661774785898 0.7646288918074466 -0.0004999999999988347
v 1.9694661774785898 0.7646288918074466 -0.062000000000001165
v 1.2335468033569956 0.7303991563062611 -0.0004999999999988347
v 1.2335468033569956 0.7303991563062611 -0.062000000000001165
v 1.329217661448268 0.49942927317843944 -0.0004999999999988347
v 1.329217661448268 0.49942927317843944 -0.062000000000001165
v 2 1.00625 0
v 2 1.00625 -0.0625
v 2 0.7718750000000001 0
v 2 0.7718750000000001 -0.0625
v -1 1.00625 0
v -1 1.00625 -0.0625
v -1 0.7718750000000001 0
v -1 0.7718750000000001 -0.0625
v 1.0625 1.00625 -0.046875
v 1.0625 1.00625 -0.484375
v 1.0625 0.6312500000000001 -0.046875
v 1.0625 0.6312500000000001 -0.484375
v -0.0625 1.00625 -0.046875
v -0.0625 1.00625 -0.484375
v -0.0625 0.6312500000000001 -0.046875
v -0.0625 0.6312500000000001 -0.484375
v 0.8125 0.50625 1.125
v 0.8125 0.50625 -0.125
v 0.8125 0.06874999999999998 1.125
v 0.8125 0.06874999999999998 -0.125
v 0.1875 0.50625 1.125
v 0.1875 0.50625 -0.125
v 0.1875 0.06874999999999998 1.125
v 0.1875 0.06874999999999998 -0.125
vt 0.328125 0.8125
vt 0.328125 0.875
vt 0.203125 0.875
vt 0.203125 0.8125
vt 0.125 0.6875
vt 0.125 0.75
vt 0 0.75
vt 0 0.6875
vt 0 1
vt 0 0.875
vt 0.125 0.875
vt 0.125 1
vt 0 0.75
vt 0 0.875
vt 0.125 0.875
vt 0.125 0.75
vt 0.328125 0.75
vt 0.328125 0.8125
vt 0.203125 0.8125
vt 0.203125 0.75
vt 0.328125 0.875
vt 0.328125 0.9375
vt 0.203125 0.9375
vt 0.203125 0.875
vt 0.3359375 0.75
vt 0.3359375 0.78125
vt 0.328125 0.78125
vt 0.328125 0.75
vt 0.34375 0.75
vt 0.34375 0.78125
vt 0.3359375 0.78125
vt 0.3359375 0.75
vt 0.109375 0.59375
vt 0.109375 0.5859375
vt 0.328125 0.5859375
vt 0.328125 0.59375
vt 0.109375 0.578125
vt 0.109375 0.5859375
vt 0.328125 0.5859375
vt 0.328125 0.578125
vt 0.546875 0.828125
vt 0.546875 0.859375
vt 0.328125 0.859375
vt 0.328125 0.828125
vt 0.546875 0.859375
vt 0.546875 0.890625
vt 0.328125 0.890625
vt 0.328125 0.859375
vt 0.2734375 0.546875
vt 0.2734375 0.578125
vt 0.25 0.578125
vt 0.25 0.546875
vt 0.4453125 0.703125
vt 0.4453125 0.734375
vt 0.421875 0.734375
vt 0.421875 0.703125
vt 0.2734375 0.578125
vt 0.2734375 0.5546875
vt 0.3046875 0.5546875
vt 0.3046875 0.578125
vt 0.421875 0.6796875
vt 0.421875 0.703125
vt 0.453125 0.703125
vt 0.453125 0.6796875
vt 0.25 0.546875
vt 0.25 0.578125
vt 0.21875 0.578125
vt 0.21875 0.546875
vt 0.21875 0.546875
vt 0.21875 0.578125
vt 0.1875 0.578125
vt 0.1875 0.546875
vt 0.421875 0.53125
vt 0.421875 0.5859375
vt 0.390625 0.5859375
vt 0.390625 0.53125
vt 0.140625 0.5234375
vt 0.140625 0.578125
vt 0.109375 0.578125
vt 0.109375 0.5234375
vt 0.15625 0.6875
vt 0.15625 0.65625
vt 0.203125 0.65625
vt 0.203125 0.6875
vt 0.140625 0.546875
vt 0.140625 0.578125
vt 0.1875 0.578125
vt 0.1875 0.546875
vt 0.4375 0.5859375
vt 0.4375 0.640625
vt 0.390625 0.640625
vt 0.390625 0.5859375
vt 0.390625 0.5703125
vt 0.390625 0.625
vt 0.34375 0.625
vt 0.34375 0.5703125
vt 0.3125 0.546875
vt 0.3125 0.578125
vt 0.3046875 0.578125
vt 0.3046875 0.546875
vt 0.3203125 0.546875
vt 0.3203125 0.578125
vt 0.3125 0.578125
vt 0.3125 0.546875
vt 0.421875 0.6640625
vt 0.421875 0.65625
vt 0.5078125 0.65625
vt 0.5078125 0.6640625
vt 0.421875 0.6484375
vt 0.421875 0.65625
vt 0.5078125 0.65625
vt 0.5078125 0.6484375
vt 0.34375 0.59375
vt 0.34375 0.625
vt 0.2578125 0.625
vt 0.2578125 0.59375
vt 0.2578125 0.59375
vt 0.2578125 0.625
vt 0.171875 0.625
vt 0.171875 0.59375
vt 0.3125 0.546875
vt 0.3125 0.578125
vt 0.3203125 0.578125
vt 0.3203125 0.546875
vt 0.3046875 0.546875
vt 0.3046875 0.578125
vt 0.3125 0.578125
vt 0.3125 0.546875
vt 0.5078125 0.6640625
vt 0.5078125 0.65625
vt 0.421875 0.65625
vt 0.421875 0.6640625
vt 0.5078125 0.6484375
vt 0.5078125 0.65625
vt 0.421875 0.65625
vt 0.421875 0.6484375
vt 0.2578125 0.59375
vt 0.2578125 0.625
vt 0.34375 0.625
vt 0.34375 0.59375
vt 0.171875 0.59375
vt 0.171875 0.625
vt 0.2578125 0.625
vt 0.2578125 0.59375
vt 0.328125 0.546875
vt 0.328125 0.578125
vt 0.3203125 0.578125
vt 0.3203125 0.546875
vt 0.4296875 0.5546875
vt 0.4296875 0.5859375
vt 0.421875 0.5859375
vt 0.421875 0.5546875
vt 0 0.640625
vt 0 0.6328125
vt 0.375 0.6328125
vt 0.375 0.640625
vt 0 0.625
vt 0 0.6328125
vt 0.375 0.6328125
vt 0.375 0.625
vt 0.578125 0.9375
vt 0.578125 0.96875
vt 0.203125 0.96875
vt 0.203125 0.9375
vt 0.578125 0.96875
vt 0.578125 1
vt 0.203125 1
vt 0.203125 0.96875
vt 0.0546875 0.546875
vt 0.0546875 0.59375
vt 0 0.59375
vt 0 0.546875
vt 0.109375 0.546875
vt 0.109375 0.59375
vt 0.0546875 0.59375
vt 0.0546875 0.546875
vt 0.203125 0.75
vt 0.203125 0.6953125
vt 0.34375 0.6953125
vt 0.34375 0.75
vt 0.203125 0.640625
vt 0.203125 0.6953125
vt 0.34375 0.6953125
vt 0.34375 0.640625
vt 0.484375 0.734375
vt 0.484375 0.78125
vt 0.34375 0.78125
vt 0.34375 0.734375
vt 0.46875 0.78125
vt 0.46875 0.828125
vt 0.328125 0.828125
vt 0.328125 0.78125
vt 0.15625 0.640625
vt 0.15625 0.6875
vt 0 0.6875
vt 0 0.640625
vt 0.484375 0.890625
vt 0.484375 0.9375
vt 0.328125 0.9375
vt 0.328125 0.890625
vt 0.125 1
vt 0.125 0.84375
vt 0.203125 0.84375
vt 0.203125 1
vt 0.125 0.6875
vt 0.125 0.84375
vt 0.203125 0.84375
vt 0.203125 0.6875
vt 0.421875 0.640625
vt 0.421875 0.6875
vt 0.34375 0.6875
vt 0.34375 0.640625
vt 0.421875 0.6875
vt 0.421875 0.734375
vt 0.34375 0.734375
vt 0.34375 0.6875
vn 1 0 0
vn -1 0 0
vn 0 1 0
vn 0 -1 0
vn 0 0 1
vn 0 0 -1
vn 1 0 0
vn -1 0 0
vn 0 1 0
vn 0 -1 0
vn 0 0 1
vn 0 0 -1
vn 1 0 0
vn -1 0 0
vn 0 1 0
vn 0 -1 0
vn 0 0 1
vn 0 0 -1
vn 1 0 0
vn -1 0 0
vn 0 1 0
vn 0 -1 0
vn 0 0 1
vn 0 0 -1
vn 0.9238795325112867 -0.3826834323650897 0
vn -0.9238795325112867 0.3826834323650897 0
vn 0.3826834323650898 0.9238795325112868 0
vn -0.3826834323650898 -0.9238795325112868 0
vn 0 0 1
vn 0 0 -1
vn 0.9238795325112867 0.3826834323650897 0
vn -0.9238795325112867 -0.3826834323650897 0
vn -0.3826834323650898 0.9238795325112868 0
vn 0.3826834323650898 -0.9238795325112868 0
vn 0 0 1
vn 0 0 -1
vn 1 0 0
vn -1 0 0
vn 0 1 0
vn 0 -1 0
vn 0 0 1
vn 0 0 -1
vn 1 0 0
vn -1 0 0
vn 0 1 0
vn 0 -1 0
vn 0 0 1
vn 0 0 -1
vn 1 0 0
vn -1 0 0
vn 0 1 0
vn 0 -1 0
vn 0 0 1
vn 0 0 -1
usemtl m_5381a2e8-05ab-0e16-7f66-b418e6b2ea24
f 4/1/1 2/2/1 1/3/1 3/4/1
f 7/5/2 5/6/2 6/7/2 8/8/2
f 1/9/3 2/10/3 6/11/3 5/12/3
f 4/13/4 3/14/4 7/15/4 8/16/4
f 3/17/5 1/18/5 5/19/5 7/20/5
f 8/21/6 6/22/6 2/23/6 4/24/6
f 12/25/7 10/26/7 9/27/7 11/28/7
f 15/29/8 13/30/8 14/31/8 16/32/8
f 9/33/9 10/34/9 14/35/9 13/36/9
f 12/37/10 11/38/10 15/39/10 16/40/10
f 11/41/11 9/42/11 13/43/11 15/44/11
f 16/45/12 14/46/12 10/47/12 12/48/12
f 20/49/13 18/50/13 17/51/13 19/52/13
f 23/53/14 21/54/14 22/55/14 24/56/14
f 17/57/15 18/58/15 22/59/15 21/60/15
f 20/61/16 19/62/16 23/63/16 24/64/16
f 19/65/17 17/66/17 21/67/17 23/68/17
f 24/69/18 22/70/18 18/71/18 20/72/18
f 28/73/19 26/74/19 25/75/19 27/76/19
f 31/77/20 29/78/20 30/79/20 32/80/20
f 25/81/21 26/82/21 30/83/21 29/84/21
f 28/85/22 27/86/22 31/87/22 32/88/22
f 27/89/23 25/90/23 29/91/23 31/92/23
f 32/93/24 30/94/24 26/95/24 28/96/24
f 36/97/25 34/98/25 33/99/25 35/100/25
f 39/101/26 37/102/26 38/103/26 40/104/26
f 33/105/27 34/106/27 38/107/27 37/108/27
f 36/109/28 35/110/28 39/111/28 40/112/28
f 35/113/29 33/114/29 37/115/29 39/116/29
f 40/117/30 38/118/30 34/119/30 36/120/30
f 44/121/31 42/122/31 41/123/31 43/124/31
f 47/125/32 45/126/32 46/127/32 48/128/32
f 41/129/33 42/130/33 46/131/33 45/132/33
f 44/133/34 43/134/34 47/135/34 48/136/34
f 43/137/35 41/138/35 45/139/35 47/140/35
f 48/141/36 46/142/36 42/143/36 44/144/36
f 52/145/37 50/146/37 49/147/37 51/148/37
f 55/149/38 53/150/38 54/151/38 56/152/38
f 49/153/39 50/154/39 54/155/39 53/156/39
f 52/157/40 51/158/40 55/159/40 56/160/40
f 51/161/41 49/162/41 53/163/41 55/164/41
f 56/165/42 54/166/42 50/167/42 52/168/42
f 60/169/43 58/170/43 57/171/43 59/172/43
f 63/173/44 61/174/44 62/175/44 64/176/44
f 57/177/45 58/178/45 62/179/45 61/180/45
f 60/181/46 59/182/46 63/183/46 64/184/46
f 59/185/47 57/186/47 61/187/47 63/188/47
f 64/189/48 62/190/48 58/191/48 60/192/48
f 68/193/49 66/194/49 65/195/49 67/196/49
f 71/197/50 69/198/50 70/199/50 72/200/50
f 65/201/51 66/202/51 70/203/51 69/204/51
f 68/205/52 67/206/52 71/207/52 72/208/52
f 67/209/53 65/210/53 69/211/53 71/212/53
f 72/213/54 70/214/54 66/215/54 68/216/54