# Made in Blockbench 4.12.3
mtllib ss8_top_a.mtl

o cube
v 0.20955875000000013 0.671875 -0.18750000000000006
v -0.20955874999999985 0.671875 -0.18750000000000006
v 0.20955875000000013 0.859375 -0.18750000000000006
v -0.20955874999999985 0.859375 -0.18750000000000006
v 0.20955875000000004 0.671875 0.18750000000000003
v -0.20955874999999993 0.671875 0.18749999999999992
v 0.20955875000000004 0.859375 0.18750000000000003
v -0.20955874999999993 0.859375 0.18749999999999992
v 0.2968749999999995 0.90625 2.609375
v -0.2968750000000005 0.90625 2.609375
v 0.1571693749999995 0.578125 2.703125
v -0.1571693750000005 0.578125 2.703125
v 0.29687499999999944 0.90625 3.015625
v -0.29687500000000056 0.90625 3.015625
v 0.15716937499999944 0.578125 2.921875
v -0.15716937500000056 0.578125 2.921875
v 0.10477937499999948 0.453125 2.71875
v -0.10477937500000051 0.453125 2.71875
v 0.10477937499999948 0.578125 2.71875
v -0.10477937500000051 0.578125 2.71875
v 0.10477937499999944 0.453125 2.90625
v -0.10477937500000055 0.453125 2.90625
v 0.10477937499999944 0.578125 2.90625
v -0.10477937500000055 0.578125 2.90625
v 0.052390000000000075 0.578125 0.0625
v -0.05238999999999992 0.578125 0.0625
v 0.052390000000000075 0.484375 0.0625
v -0.05238999999999992 0.484375 0.0625
v 0.05238999999999948 0.578125 2.75
v -0.05239000000000052 0.578125 2.75
v 0.05238999999999948 0.484375 2.75
v -0.05239000000000052 0.484375 2.75
v -0.13970562499999994 0.671875 0.12499999999999994
v 0.13970562500000006 0.671875 0.12500000000000006
v -0.13970562499999994 0.453125 0.12499999999999994
v 0.13970562500000006 0.453125 0.12500000000000006
v -0.1397056249999999 0.671875 -0.12500000000000006
v 0.1397056250000001 0.671875 -0.12500000000000006
v -0.1397056249999999 0.453125 -0.06250000000000006
v 0.1397056250000001 0.453125 -0.062499999999999944
v -1.3097424999999998 0.897740625 -0.8536981250000002
v -1.4843749999999998 0.897740625 -0.8536981250000002
v -1.3097424999999998 1.70035625 -1.0372162500000002
v -1.4843749999999998 1.70035625 -1.0372162500000002
v -1.3097424999999998 0.8956856249999999 -0.7785362500000002
v -1.4843749999999998 0.8956856249999999 -0.7785362500000002
v -1.3097424999999998 1.70455125 -0.6026793750000004
v -1.4843749999999998 1.70455125 -0.6026793750000004
v 1.3097425000000003 0.897740625 -0.8536981249999998
v 1.4843750000000002 0.897740625 -0.8536981249999998
v 1.3097425000000003 1.70035625 -1.0372162499999997
v 1.4843750000000002 1.70035625 -1.0372162499999997
v 1.3097425000000003 0.8956856249999999 -0.7785362499999997
v 1.4843750000000002 0.8956856249999999 -0.7785362499999997
v 1.3097425000000003 1.70455125 -0.6026793749999997
v 1.4843750000000002 1.70455125 -0.6026793749999997
v -0.4191174999999999 1.609375 0.1874999999999999
v 0.4191175000000001 1.296875 -0.18749999999999994
v -0.41911749999999987 1.296875 -0.18750000000000017
v 0.4191175000000001 1.609375 -0.18749999999999994
v -0.41911749999999987 1.609375 -0.18750000000000017
v 0.41911750000000003 1.296875 0.18750000000000006
v -0.4191174999999999 1.296875 0.1874999999999999
v 0.41911750000000003 1.609375 0.18750000000000006
v 1.4669118750000003 1.609375 -1.0624999999999998
v -1.4669118749999999 1.609375 -1.0625000000000002
v 1.4669118750000003 1.859375 -1.0624999999999998
v -1.4669118749999999 1.859375 -1.0625000000000002
v 1.4669118749999999 1.609375 1.0625000000000002
v -1.4669118750000003 1.609375 1.0624999999999996
v 1.4669118749999999 1.859375 1.0625000000000002
v -1.4669118750000003 1.859375 1.0624999999999996
v 0.4963237500000002 1.859375 -0.49999999999999994
v -0.49632374999999973 1.859375 -0.5000000000000002
v 0.4963237500000002 2 -0.49999999999999994
v -0.49632374999999973 2 -0.5000000000000002
v 0.49632374999999995 1.859375 0.5000000000000001
v -0.49632374999999995 1.859375 0.4999999999999999
v 0.49632374999999995 2 0.5000000000000001
v -0.49632374999999995 2 0.4999999999999999
vt 0.5390625 0.5390625
vt 0.5859375 0.5390625
vt 0.5859375 0.515625
vt 0.5390625 0.515625
vt 0.109375 0.4140625
vt 0.15625 0.4140625
vt 0.15625 0.390625
vt 0.109375 0.390625
vt 0.546875 0.7265625
vt 0.59375 0.7265625
vt 0.59375 0.6796875
vt 0.546875 0.6796875
vt 0.25 0.4140625
vt 0.296875 0.4140625
vt 0.296875 0.390625
vt 0.25 0.390625
vt 0.3046875 0.4140625
vt 0.3515625 0.4140625
vt 0.3515625 0.390625
vt 0.3046875 0.390625
vt 0.607421875 0.546875
vt 0.541015625 0.546875
vt 0.556640625 0.59375
vt 0.591796875 0.59375
vt 0.505859375 0.46875
vt 0.521484375 0.421875
vt 0.455078125 0.421875
vt 0.470703125 0.46875
vt 0.1875 0.4609375
vt 0.2421875 0.4609375
vt 0.2421875 0.390625
vt 0.1875 0.390625
vt 0.609375 0.78125
vt 0.609375 0.7421875
vt 0.578125 0.7421875
vt 0.578125 0.78125
vt 0.572265625 0.4609375
vt 0.583984375 0.4140625
vt 0.533203125 0.4140625
vt 0.544921875 0.4609375
vt 0.599609375 0.953125
vt 0.548828125 0.953125
vt 0.560546875 1
vt 0.587890625 1
vt 0.078125 0.53125
vt 0.1015625 0.53125
vt 0.1015625 0.515625
vt 0.078125 0.515625
vt 0.15625 0.53125
vt 0.1796875 0.53125
vt 0.1796875 0.515625
vt 0.15625 0.515625
vt 0.6015625 0.734375
vt 0.625 0.734375
vt 0.625 0.7109375
vt 0.6015625 0.7109375
vt 0.6015625 0.703125
vt 0.625 0.703125
vt 0.625 0.6796875
vt 0.6015625 0.6796875
vt 0.1875 0.53125
vt 0.2109375 0.53125
vt 0.2109375 0.515625
vt 0.1875 0.515625
vt 0.21875 0.53125
vt 0.2421875 0.53125
vt 0.2421875 0.515625
vt 0.21875 0.515625
vt 0.1640625 0.5078125
vt 0.5 0.5078125
vt 0.5 0.4921875
vt 0.1640625 0.4921875
vt 0.84375 0.5078125
vt 0.84375 0.4921875
vt 0.5078125 0.4921875
vt 0.5078125 0.5078125
vt 0.515625 0.484375
vt 0.515625 0.46875
vt 0.1796875 0.46875
vt 0.1796875 0.484375
vt 0.859375 0.46875
vt 0.5234375 0.46875
vt 0.5234375 0.484375
vt 0.859375 0.484375
vt 0.390625 0.3828125
vt 0.359375 0.3828125
vt 0.359375 0.4140625
vt 0.390625 0.4140625
vt 0.5078125 0.4140625
vt 0.5078125 0.3828125
vt 0.4765625 0.3828125
vt 0.4765625 0.4140625
vt 0.6171875 0.4453125
vt 0.6171875 0.4140625
vt 0.59375 0.4140625
vt 0.59375 0.4453125
vt 0.4296875 0.4140625
vt 0.4296875 0.3828125
vt 0.3984375 0.3828125
vt 0.40625 0.4140625
vt 0.46875 0.3828125
vt 0.4375 0.3828125
vt 0.4375 0.4140625
vt 0.4609375 0.4140625
vt 0.546875 0.8359375
vt 0.5703125 0.8359375
vt 0.5703125 0.734375
vt 0.546875 0.734375
vt 0.55078125 0.9453125
vt 0.57421875 0.9453125
vt 0.57421875 0.84375
vt 0.55078125 0.84375
vt 0.6015625 0.984375
vt 0.6015625 1
vt 0.625 1
vt 0.625 0.984375
vt 0.578125 0.7890625
vt 0.578125 0.8515625
vt 0.6015625 0.8515625
vt 0.6015625 0.7890625
vt 0.129651171875 0.53125
vt 0.144907734375 0.53125
vt 0.169534296875 0.43132375
vt 0.109375 0.429785703125
vt 0.843468203125 0.656345546875
vt 0.843858125 0.641093984375
vt 0.74294515625 0.61823125
vt 0.74294515625 0.678410234375
vt 0.5703125 0.734375
vt 0.5703125 0.8359375
vt 0.546875 0.8359375
vt 0.546875 0.734375
vt 0.57421875 0.84375
vt 0.57421875 0.9453125
vt 0.55078125 0.9453125
vt 0.55078125 0.84375
vt 0.625 1
vt 0.6015625 1
vt 0.6015625 0.984375
vt 0.625 0.984375
vt 0.6015625 0.8515625
vt 0.578125 0.8515625
vt 0.578125 0.7890625
vt 0.6015625 0.7890625
vt 0.169534296875 0.43132375
vt 0.144907734375 0.53125
vt 0.129651171875 0.53125
vt 0.109375 0.429785703125
vt 0.74294515625 0.61823125
vt 0.843858125 0.641093984375
vt 0.843468203125 0.656345546875
vt 0.74294515625 0.678410234375
vt 0.25 0.4609375
vt 0.34375 0.4609375
vt 0.34375 0.421875
vt 0.25 0.421875
vt 0.3515625 0.4609375
vt 0.4453125 0.4609375
vt 0.4453125 0.421875
vt 0.3515625 0.421875
vt 0.046875 0.3671875
vt 0 0.3671875
vt 0 0.4609375
vt 0.046875 0.4609375
vt 0.1015625 0.4609375
vt 0.0546875 0.4609375
vt 0.0546875 0.3671875
vt 0.1015625 0.3671875
vt 0.578125 0.8984375
vt 0.625 0.8984375
vt 0.625 0.859375
vt 0.578125 0.859375
vt 0.578125 0.9453125
vt 0.625 0.9453125
vt 0.625 0.90625
vt 0.578125 0.90625
vt 0.265625 0.6640625
vt 0.59375 0.6640625
vt 0.59375 0.6328125
vt 0.265625 0.6328125
vt 0.265625 0.625
vt 0.59375 0.625
vt 0.59375 0.59375
vt 0.265625 0.59375
vt 0.265625 0.671875
vt 0 0.671875
vt 0 1
vt 0.265625 1
vt 0.5390625 1
vt 0.2734375 1
vt 0.2734375 0.671875
vt 0.5390625 0.671875
vt 0.265625 0.546875
vt 0.53125 0.546875
vt 0.53125 0.515625
vt 0.265625 0.515625
vt 0.265625 0.5859375
vt 0.53125 0.5859375
vt 0.53125 0.5546875
vt 0.265625 0.5546875
vt 0.59375 0.5390625
vt 0.71875 0.5390625
vt 0.71875 0.53125
vt 0.59375 0.53125
vt 0.515625 0.40625
vt 0.640625 0.40625
vt 0.640625 0.3984375
vt 0.515625 0.3984375
vt 0.125 0.5390625
vt 0 0.5390625
vt 0 0.6640625
vt 0.125 0.6640625
vt 0.2578125 0.6640625
vt 0.1328125 0.6640625
vt 0.1328125 0.5390625
vt 0.2578125 0.5390625
vt 0.59375 0.5234375
vt 0.71875 0.5234375
vt 0.71875 0.515625
vt 0.59375 0.515625
vt 0.5859375 0.4609375
vt 0.7109375 0.4609375
vt 0.7109375 0.453125
vt 0.5859375 0.453125
vn 2.220446049250313e-16 0 -1
vn -2.220446049250313e-16 0 1
vn 0 -1 0
vn 1 0 2.220446049250313e-16
vn -1 0 -2.220446049250313e-16
vn 2.1350120507986307e-16 -0.274721127897378 -0.9615239476408232
vn -2.1350120507986307e-16 -0.274721127897378 0.9615239476408232
vn 0 1 0
vn 0 -1 0
vn 0.9200758507664047 -0.3917402568494546 2.042978787844884e-16
vn -0.9200758507664047 -0.3917402568494546 -2.042978787844884e-16
vn 2.220446049250313e-16 0 -1
vn -2.220446049250313e-16 0 1
vn 0 -1 0
vn 0 1 0
vn 1 0 2.220446049250313e-16
vn -1 0 -2.220446049250313e-16
vn 0 1 0
vn 0 -1 0
vn 1 0 2.220446049250313e-16
vn -1 0 -2.220446049250313e-16
vn -2.220446049250313e-16 0 1
vn 2.1350120507986307e-16 -0.27472112789737824 -0.9615239476408232
vn 0 -1 0
vn -1 0 -2.220446049250313e-16
vn 1 0 2.220446049250313e-16
vn 2.164583732906117e-16 -0.22289766456235058 -0.9748418492928226
vn -2.1697581964718193e-16 -0.21244870312785966 0.9771722205114565
vn 6.068651283129129e-18 -0.9996264445791578 -0.02733077565734183
vn 2.143509027596155e-18 0.9999534038209312 -0.009653506457947337
vn 1 0 2.220446049250313e-16
vn -1 0 -2.220446049250313e-16
vn 2.164583732906117e-16 -0.22289766456235058 -0.9748418492928226
vn -2.1697581964718193e-16 -0.21244870312785966 0.9771722205114565
vn 6.068651283129129e-18 -0.9996264445791578 -0.02733077565734183
vn 2.143509027596155e-18 0.9999534038209312 -0.009653506457947337
vn -1 0 -2.220446049250313e-16
vn 1 0 2.220446049250313e-16
vn 2.220446049250313e-16 0 -1
vn -2.220446049250313e-16 0 1
vn 0 -1 0
vn 0 1 0
vn 1 0 2.220446049250313e-16
vn -1 0 -2.220446049250313e-16
vn 2.220446049250313e-16 0 -1
vn -2.220446049250313e-16 0 1
vn 0 -1 0
vn 0 1 0
vn 1 0 2.220446049250313e-16
vn -1 0 -2.220446049250313e-16
vn 2.220446049250313e-16 0 -1
vn -2.220446049250313e-16 0 1
vn 0 -1 0
vn 0 1 0
vn 1 0 2.220446049250313e-16
vn -1 0 -2.220446049250313e-16
usemtl m_51c789a2-0a65-90ae-5bcb-080cff8a6380
f 1/1/1 2/2/1 4/3/1 3/4/1
f 6/5/2 5/6/2 7/7/2 8/8/2
f 6/9/3 2/10/3 1/11/3 5/12/3
f 5/13/4 1/14/4 3/15/4 7/16/4
f 2/17/5 6/18/5 8/19/5 4/20/5
f 10/21/6 9/22/6 11/23/6 12/24/6
f 15/25/7 13/26/7 14/27/7 16/28/7
f 13/29/8 9/30/8 10/31/8 14/32/8
f 12/33/9 11/34/9 15/35/9 16/36/9
f 11/37/10 9/38/10 13/39/10 15/40/10
f 14/41/11 10/42/11 12/43/11 16/44/11
f 17/45/12 18/46/12 20/47/12 19/48/12
f 22/49/13 21/50/13 23/51/13 24/52/13
f 22/53/14 18/54/14 17/55/14 21/56/14
f 23/57/15 19/58/15 20/59/15 24/60/15
f 21/61/16 17/62/16 19/63/16 23/64/16
f 18/65/17 22/66/17 24/67/17 20/68/17
f 29/69/18 25/70/18 26/71/18 30/72/18
f 28/73/19 27/74/19 31/75/19 32/76/19
f 27/77/20 25/78/20 29/79/20 31/80/20
f 30/81/21 26/82/21 28/83/21 32/84/21
f 34/85/22 33/86/22 35/87/22 36/88/22
f 39/89/23 37/90/23 38/91/23 40/92/23
f 36/93/24 35/94/24 39/95/24 40/96/24
f 35/97/25 33/98/25 37/99/25 39/100/25
f 38/101/26 34/102/26 36/103/26 40/104/26
f 41/105/27 42/106/27 44/107/27 43/108/27
f 46/109/28 45/110/28 47/111/28 48/112/28
f 46/113/29 42/114/29 41/115/29 45/116/29
f 47/117/30 43/118/30 44/119/30 48/120/30
f 45/121/31 41/122/31 43/123/31 47/124/31
f 42/125/32 46/126/32 48/127/32 44/128/32
f 52/129/33 50/130/33 49/131/33 51/132/33
f 55/133/34 53/134/34 54/135/34 56/136/34
f 49/137/35 50/138/35 54/139/35 53/140/35
f 52/141/36 51/142/36 55/143/36 56/144/36
f 51/145/37 49/146/37 53/147/37 55/148/37
f 56/149/38 54/150/38 50/151/38 52/152/38
f 58/153/39 59/154/39 61/155/39 60/156/39
f 63/157/40 62/158/40 64/159/40 57/160/40
f 63/161/41 59/162/41 58/163/41 62/164/41
f 64/165/42 60/166/42 61/167/42 57/168/42
f 62/169/43 58/170/43 60/171/43 64/172/43
f 59/173/44 63/174/44 57/175/44 61/176/44
f 65/177/45 66/178/45 68/179/45 67/180/45
f 70/181/46 69/182/46 71/183/46 72/184/46
f 70/185/47 66/186/47 65/187/47 69/188/47
f 71/189/48 67/190/48 68/191/48 72/192/48
f 69/193/49 65/194/49 67/195/49 71/196/49
f 66/197/50 70/198/50 72/199/50 68/200/50
f 73/201/51 74/202/51 76/203/51 75/204/51
f 78/205/52 77/206/52 79/207/52 80/208/52
f 78/209/53 74/210/53 73/211/53 77/212/53
f 79/213/54 75/214/54 76/215/54 80/216/54
f 77/217/55 73/218/55 75/219/55 79/220/55
f 74/221/56 78/222/56 80/223/56 76/224/56