# Made in Blockbench 4.12.4
mtllib df11_carport_center_cooling_fan.mtl

o cube_selection
v -1.0007075 1.078125 2.220446049250313e-16
v -0.8125000000000001 1.078125 1.1102230246251565e-16
v -1.0007075 0.953125 0.12500000000000017
v -0.8163325000000001 0.953125 0.12500000000000017
v -1.0007074999999999 1.078125 0.5000000000000002
v -1.0007074999999999 0.953125 0.5000000000000002
v -0.8125 1.078125 0.5000000000000001
v -1.0007075000000003 0.984375 -0.3749999999999998
v -0.8125000000000002 0.984375 -0.3749999999999999
v -0.8163325000000002 0.890625 -0.3749999999999999
v -1.0007075000000003 0.890625 -0.3749999999999998
v -1.0007074999999999 1.078125 1.0000000000000002
v -0.8124999999999999 1.078125 1
v -1.0007074999999999 0.953125 0.8750000000000002
v -0.8163324999999999 0.953125 0.8750000000000002
v -0.8125 1.078125 0.5000000000000001
v -1.0007074999999999 0.984375 1.3750000000000002
v -0.8124999999999998 0.984375 1.375
v -0.8163324999999998 0.890625 1.375
v -1.0007074999999999 0.890625 1.3750000000000002
v -0.8163324999999998 1.046875 1.375
v 1.942890293094024e-16 1.046875 1.375
v -0.003832499999999822 0.890625 1.375
v -0.8163325 1.171875 0.5000000000000001
v 0 1.171875 0.5
v -0.8163325 0.890625 0.5000000000000001
v -0.8163325000000002 1.046875 -0.3749999999999999
v -1.942890293094024e-16 1.046875 -0.375
v -0.0038325000000002107 0.890625 -0.375
v -0.8163325 1.171875 0.5000000000000001
v 0 1.171875 0.5
v -0.8163325 0.890625 0.5000000000000001
v 0.9999999999999997 0.890625 -2.220446049250313e-16
v -1.1102230246251565e-16 0.890625 0
v 0.9999999999999997 0.5 -2.220446049250313e-16
v -1.1102230246251565e-16 0.5 0
v 0.9999999999999999 0.890625 0.9999999999999998
v 1.1102230246251565e-16 0.890625 1
v 0.9999999999999999 0.5 0.9999999999999998
v 1.1102230246251565e-16 0.5 1
v 1.942890293094024e-16 1.078125 1.375
v -0.003832499999999822 0.890625 1.375
v 0 1.203125 0.5
v 0 0.890625 0.5
v 1.942890293094024e-16 1.046875 1.375
v -0.003832499999999822 0.890625 1.375
v 0 1.171875 0.5
v -0.0038325000000000164 0.890625 0.5
v 1.942890293094024e-16 1.078125 1.375
v 1 1.078125 1.3749999999999998
v -0.003832499999999822 0.890625 1.375
v 1 0.890625 1.3749999999999998
v 0 1.203125 0.5
v 0.9999999999999999 1.203125 0.4999999999999998
v 0.9999999999999999 0.890625 0.4999999999999998
v -0.003832499999999822 0.890625 1.375
v -0.8163325 0.890625 0.5000000000000001
v -1.942890293094024e-16 1.078125 -0.375
v -0.0038325000000002107 0.890625 -0.375
v 0 1.203125 0.5
v 0 0.890625 0.5
v -1.942890293094024e-16 1.046875 -0.375
v -0.0038325000000002107 0.890625 -0.375
v 0 1.171875 0.5
v -0.0038325000000000164 0.890625 0.5
v -1.942890293094024e-16 1.078125 -0.375
v 0.9999999999999997 1.078125 -0.3750000000000002
v -0.0038325000000002107 0.890625 -0.375
v 0.9999999999999997 0.890625 -0.3750000000000002
v 0 1.203125 0.5
v 0.9999999999999999 1.203125 0.4999999999999998
v 0.9999999999999999 0.890625 0.4999999999999998
v -0.0038325000000002107 0.890625 -0.375
v -0.8163325 0.890625 0.5000000000000001
v -0.8163324999999998 0.890625 1.375
v -0.8163324999999998 0.890625 1.375
vt 0.72608359375 0.65625
vt 0.93016640625 0.65625
vt 0.92920859375 0.609375
vt 0.72608359375 0.609375
vt 0.71875 0.90625
vt 0.9375 0.875
vt 0.9375 0.828125
vt 0.71875 0.828125
vt 0.921875 0.02836406250000001
vt 0.9697078125 0.02836406250000001
vt 0.9697078125 0.125
vt 0.921875 0.125
vt 0.46875 0.78905
vt 0.46875 0.828125
vt 0.453125 0.828125
vt 0.453125 0.78905
vt 0.4375 0.8125
vt 0.390625 0.8125
vt 0.390625 0.796875
vt 0.4375 0.796875
vt 0.359375 0.828125
vt 0.359375 0.7890625
vt 0.375 0.7890625
vt 0.375 0.828125
vt 0.65625 0.20216718749999996
vt 0.65625 0.25
vt 0.53125 0.25
vt 0.53125 0.20216718749999996
vt 0.92920859375 0.609375
vt 0.93016640625 0.65625
vt 0.72608359375 0.65625
vt 0.72608359375 0.609375
vt 0.9375 0.828125
vt 0.9375 0.875
vt 0.71875 0.90625
vt 0.71875 0.828125
vt 0.9697078125 0.125
vt 0.9697078125 0.02836406250000001
vt 0.921875 0.02836406250000001
vt 0.921875 0.125
vt 0.453125 0.828125
vt 0.46875 0.828125
vt 0.46875 0.78905
vt 0.453125 0.78905
vt 0.390625 0.796875
vt 0.390625 0.8125
vt 0.4375 0.8125
vt 0.4375 0.796875
vt 0.375 0.7890625
vt 0.359375 0.7890625
vt 0.359375 0.828125
vt 0.375 0.828125
vt 0.53125 0.25
vt 0.65625 0.25
vt 0.65625 0.20216718749999996
vt 0.53125 0.20216718749999996
vt 0.92920859375 0.609375
vt 0.93016640625 0.65625
vt 0.72608359375 0.65625
vt 0.72608359375 0.609375
vt 0 0.3125
vt 0.203125 0.3125
vt 0.203125 0.53125
vt 0 0.53125
vt 0.9375 0.828125
vt 0.9375 0.875
vt 0.71875 0.90625
vt 0.71875 0.828125
vt 0.72608359375 0.65625
vt 0.93016640625 0.65625
vt 0.92920859375 0.609375
vt 0.72608359375 0.609375
vt 0.203125 0.53125
vt 0.203125 0.3125
vt 0 0.3125
vt 0 0.53125
vt 0.71875 0.90625
vt 0.9375 0.875
vt 0.9375 0.828125
vt 0.71875 0.828125
vt 0.46875 0.390625
vt 0.46875 0.5
vt 0.21875 0.5
vt 0.21875 0.390625
vt 0.734375 0.390625
vt 0.734375 0.5
vt 0.484375 0.5
vt 0.484375 0.390625
vt 0.703125 0.75
vt 0.703125 1
vt 0.453125 1
vt 0.453125 0.75
vt 0.46875 0.265625
vt 0.46875 0.375
vt 0.21875 0.375
vt 0.21875 0.265625
vt 0.734375 0.265625
vt 0.734375 0.375
vt 0.484375 0.375
vt 0.484375 0.265625
vt 0.00781203125 0.078125
vt 0.05469640625 0.078125
vt 0.08593796875 0.296875
vt 0.00783015625 0.296875
vt 0.9375 0.734375
vt 0.9375 0.8125
vt 0.71875 0.78125171875
vt 0.71875 0.734375
vt 0.96875 0.671875
vt 0.96875 0.71875
vt 0.7197078125 0.71875
vt 0.71875 0.671875
vt 0.453125 0.515625
vt 0.703125 0.515625
vt 0.703125 0.734375
vt 0.453125 0.734375
vt 0.9375 0.921875
vt 0.9375 1
vt 0.71875 0.96875
vt 0.71875 0.921875
vt 0.08593796875 0.296875
vt 0.05469640625 0.078125
vt 0.00781203125 0.078125
vt 0.00783015625 0.296875
vt 0.71875 0.78125171875
vt 0.9375 0.8125
vt 0.9375 0.734375
vt 0.71875 0.734375
vt 0.7197078125 0.71875
vt 0.96875 0.71875
vt 0.96875 0.671875
vt 0.71875 0.671875
vt 0.703125 0.734375
vt 0.703125 0.515625
vt 0.453125 0.515625
vt 0.453125 0.734375
vt 0.71875 0.96875
vt 0.9375 1
vt 0.9375 0.921875
vt 0.71875 0.921875
vt 0 1
vt 0 1
vt 0 1
vt 0 1
vt 0 1
vt 0 1
vt 0 1
vt 0 1
vt 0 1
vt 0 1
vt 0 1
vt 0 1
vt 0 1
vt 0 1
vt 0 1
vt 0.4375 0.546875
vt 0.4375 1
vt 0 1
vt 0 0.546875
vt 0 1
vt 0 1
vt 0 1
vt 0 0.95390625
vt 0 1
vt 0.1875 1
vt 0.1875 0.95390625
vn -2.220446049250313e-16 0 -1
vn -1 0 2.220446049250313e-16
vn -5.385372704143809e-17 0.970142500145332 -0.242535625036333
vn 0.9991133691668842 -0.0408437545315424 0.010210938632885379
vn 2.754124363884191e-17 -0.9922778767136679 0.12403473458920847
vn -1 0 2.220446049250313e-16
vn 0 1 0
vn 2.220446049250313e-16 0 1
vn -1 0 2.220446049250313e-16
vn 5.385372704143809e-17 0.970142500145332 0.242535625036333
vn 0.9991133691668842 -0.0408437545315424 -0.010210938632885823
vn -2.754124363884191e-17 -0.9922778767136679 -0.12403473458920847
vn -1 0 2.220446049250313e-16
vn 0 1 0
vn 2.220446049250313e-16 0 1
vn 3.1401849173675495e-17 0.9899494936611666 0.14142135623730948
vn -1 0 2.220446049250313e-16
vn -2.220446049250313e-16 0 -1
vn -3.1401849173675495e-17 0.9899494936611666 -0.14142135623730948
vn -1 0 2.220446049250313e-16
vn -2.220446049250313e-16 0 -1
vn 2.220446049250313e-16 0 1
vn 0 -1 0
vn 1 0 -2.220446049250313e-16
vn -1 0 2.220446049250313e-16
vn -0.9997869081315741 0.020435644402209463 0.002919377771744431
vn 0.9999052756829668 -0.013625375889973288 -0.001946482269996406
vn 2.220446049250313e-16 0 1
vn 3.14018491736755e-17 0.9899494936611667 0.1414213562373095
vn 1 0 -2.220446049250313e-16
vn -0.9997869081315741 0.020435644402209463 -0.0029193777717439863
vn 0.9999052756829668 -0.013625375889973288 0.0019464822699959616
vn -2.220446049250313e-16 0 -1
vn -3.14018491736755e-17 0.9899494936611667 -0.1414213562373095
vn 1 0 -2.220446049250313e-16
vn 0 0 0
vn 0 0 0
vn 0 0 0
vn 0 0 0
vn 0 1 0
vn 0 0 0
vn 0 -1 0
usemtl m_50a5436c-0440-390e-e23c-0fb8974d3896
f 8/1/1 9/2/1 10/3/1 11/4/1
f 5/5/2 1/6/2 3/7/2 6/8/2
f 9/9/3 8/10/3 1/11/3 2/12/3
f 10/13/4 9/14/4 2/15/4 4/16/4
f 11/17/5 10/18/5 4/19/5 3/20/5
f 8/21/6 11/22/6 3/23/6 1/24/6
f 5/25/7 7/26/7 2/27/7 1/28/7
f 19/29/8 18/30/8 17/31/8 20/32/8
f 14/33/9 12/34/9 5/35/9 6/36/9
f 12/37/10 17/38/10 18/39/10 13/40/10
f 13/41/11 18/42/11 19/43/11 15/44/11
f 15/45/12 19/46/12 20/47/12 14/48/12
f 14/49/13 20/50/13 17/51/13 12/52/13
f 13/53/14 16/54/14 5/55/14 12/56/14
f 23/57/15 22/58/15 21/59/15 75/60/15
f 21/61/16 22/62/16 25/63/16 24/64/16
f 75/65/17 21/66/17 24/67/17 26/68/17
f 27/69/18 28/70/18 29/71/18 10/72/18
f 31/73/19 28/74/19 27/75/19 30/76/19
f 30/77/20 27/78/20 10/79/20 32/80/20
f 36/81/21 34/82/21 33/83/21 35/84/21
f 39/85/22 37/86/22 38/87/22 40/88/22
f 36/89/23 35/90/23 39/91/23 40/92/23
f 35/93/24 33/94/24 37/95/24 39/96/24
f 40/97/25 38/98/25 34/99/25 36/100/25
f 42/101/26 41/102/26 43/103/26 44/104/26
f 48/105/27 47/106/27 45/107/27 46/108/27
f 52/109/28 50/110/28 49/111/28 51/112/28
f 49/113/29 50/114/29 54/115/29 53/116/29
f 55/117/30 54/118/30 50/119/30 52/120/30
f 60/121/31 58/122/31 59/123/31 61/124/31
f 62/125/32 64/126/32 65/127/32 63/128/32
f 66/129/33 67/130/33 69/131/33 68/132/33
f 71/133/34 67/134/34 66/135/34 70/136/34
f 67/137/35 71/138/35 72/139/35 69/140/35
f 76/141/36 51/142/36 56/143/36 52/144/36
f 52/145/37 72/146/37 55/147/37 69/148/37
f 69/149/38 68/150/38 10/151/38
f 10/152/39 74/153/39 57/154/39 76/155/39
f 76/156/40 52/157/40 69/158/40 10/159/40
f 69/160/41 73/161/41 10/162/41
f 15/163/42 14/164/42 3/165/42 4/166/42