# Made in Blockbench 4.12.5
mtllib df5_carport_1.mtl

o cube
v 0.10631812499999999 0.146876875 0.613190625
v 0.10631812499999999 0.146876875 0.6077493749999999
v 0.10631812499999999 0.146876875 0.6077493749999999
v 0.10631812499999999 0.146876875 0.613190625
v 0.10631812499999999 0.146876875 0.6077493749999999
v 0.10631812499999999 0.146876875 0.6077493749999999
v 1.000843125 0.62309875 0.5191593750000001
v 1.000843125 0.560658125 0.5164331250000002
v 1.000063125 0.62579375 0.4574387500000001
v 1.000063125 0.563353125 0.45471250000000013
v 1.000061875 0.920315 0.6694287500000001
v 1 0 0.5000000000000001
v 1.00003125 0.6245475 0.49999937500000013
v 0.00006187499999998902 0.920315 0.6694287499999999
v 0.00009187500000007454 0.6245475 0.4999993749999999
v 5.551115123125783e-17 0 0.4999999999999999
v 1.0001381249999999 -0.000001250000000008189 1.0061256250000001
v 0.00013812499999987793 -0.000001250000000008189 1.006125625
v -0.00040687499999997323 0.62309875 0.5191593749999999
v 0.0003731250000000852 0.62579375 0.4574387499999999
v 0.0003731250000000852 0.563353125 0.4547124999999999
v -0.00040687499999997323 0.560658125 0.5164331249999999
v 1.000060625 1.129163125 1.1560462500000002
v 1.0000618749999999 1.129163125 1.4997962500000002
v 1.0000231249999998 0.660413125 1.4997962500000002
v 0.000061874999999878 1.129163125 1.15604625
v 0.00006187499999982249 1.129163125 1.49979625
v 0.0001006249999998543 0.660413125 1.49979625
v 0.00011937499999992163 0.65833125 1.0342112499999998
v 1.0000806249999998 0.65833125 1.0342112500000002
vt 0.015625 0.84375
vt 0.015625 0.859375
vt 0 0.859375
vt 0 0.84375
vt 0.3984453125 0.359375
vt 0.6484453125 0.359375
vt 0.648421875 0.5155125
vt 0.3984375 0.5155125
vt 0.5391015625 0.859375
vt 0.53890625 0.84375
vt 0.78921875 0.84375
vt 0.7890234375 0.859375
vt 0.515625 0.328125
vt 0.515625 0.34375
vt 0.265625 0.34375
vt 0.265625 0.328125
vt 0.75 0.640625
vt 0.75 0.6560715625
vt 0.500390625 0.65923171875
vt 0.5 0.64379
vt 0.53125 0.34375
vt 0.53125 0.328125
vt 0.78125 0.328125
vt 0.78125 0.34375
vt 0.03125 0.859375
vt 0.03125 0.84375
vt 0.046875 0.84375
vt 0.046875 0.859375
vt 0.5077953125 0.6875
vt 0.7577953125 0.6875
vt 0.7578296875 0.8125
vt 0.5078296875 0.8125
vt 0.00021328125 0.6875
vt 0.00021328125 0.4375
vt 0.08615078125 0.4375
vt 0.08615078125 0.6875
vt 0.78125 1
vt 0.53125 1
vt 0.53125 0.875
vt 0.78125 0.875
vt 0 0.3125
vt 0.25 0.3125
vt 0.25 0.421875
vt 0 0.421875
vt 0.21853671875 0.6875
vt 0.08615078125 0.6875
vt 0.08615078125 0.4375
vt 0.21853671875 0.4375
vt 0.515625 1
vt 0.265625 1
vt 0.265625 0.828125
vt 0.515625 0.828125
vt 0.00002578125 0.8828125
vt 0.11642109375 0.8822921875
vt 0.08596328125 1
vt 0.00002578125 1
vt 0.48435 0.7510403125
vt 0.3984125 0.7510403125
vt 0.367953125 0.6333325000000001
vt 0.48435 0.6338528125
vt 0.4062421875 0.6007265625
vt 0.40625 0.5155125
vt 0.656234375 0.5155125
vt 0.6562421875 0.6007265625
vt 0.367953125 0.6333328125
vt 0.2344 0.62488765625
vt 0.2344 0.46875015625000005
vt 0.36093125 0.46875
vt 0.2767571875 0.69882921875
vt 0.2344 0.62488765625
vt 0.36795328125 0.6333328125
vt 0.3984125 0.7510403125
vt 0.24997421875 0.8738453125
vt 0.11642109375 0.8822921875
vt 0.12344296875 0.7177078125
vt 0.24997421875 0.717709375
vt 0.08596328125 1
vt 0.11642109375 0.8822921875
vt 0.24997421875 0.8738453125
vt 0.20761796875 0.9477875
vn -0.9999203071370127 0.0005506820719152012 -0.012612538375673853
vn 2.2204460492492013e-16 -0.0000010007245245173921 -0.9999999999994993
vn -9.686236388104179e-18 0.9990480668751163 0.04362293058808852
vn 2.2183326248551605e-16 0.04361992133372359 -0.9990481982681515
vn 9.686236388104182e-18 -0.9990480668751163 -0.04362293058808853
vn -2.2183326248551607e-16 -0.043619921333723825 0.9990481982681516
vn 0.9999203071370127 0.0005506820719152034 -0.012612538375673412
vn 5.4839301242109795e-22 -0.9999999999969503 -0.0000024697425663922405
vn 0 1 0
vn -2.220446049250313e-16 0 1
vn -9.928680917969825e-19 -0.999990002881687 0.004471480368244946
vn 8.75731272431356e-17 0.9189413112858328 -0.3943943032198545
vn -2.2184281684971615e-16 -0.0426229930175332 0.9990912272992029
vn 0.9999999923241564 0.00001053252689054889 0.00012345344492276542
vn -0.9999999925428312 -0.00012212427115572075 -2.2204460326920721e-16
vn 1.926709126931765e-16 0.49706614848645136 -0.867712650610123
vn -0.9999999882904824 0.0001471065455923716 0.000042174631401121484
vn -0.9999999889695153 -0.00013584095518434977 0.00006006833256236759
vn 0.9999999909879248 0.00009153188064412364 -0.00009821438306222456
vn 0.9999999930470104 0.00006749921125315402 -0.00009669454864658225
usemtl m_e41ae5bd-0071-b164-96f2-589955b1c576
f 19/1/1 20/2/1 21/3/1 22/4/1
f 12/5/2 16/6/2 15/7/2 13/8/2
f 20/9/3 19/10/3 7/11/3 9/12/3
f 21/13/4 20/14/4 9/15/4 10/16/4
f 22/17/5 21/18/5 10/19/5 8/20/5
f 19/21/6 22/22/6 8/23/6 7/24/6
f 7/25/7 8/26/7 10/27/7 9/28/7
f 17/29/8 18/30/8 16/31/8 12/32/8
f 27/33/9 24/34/9 23/35/9 26/36/9
f 24/37/10 27/38/10 28/39/10 25/40/10
f 29/41/11 30/42/11 25/43/11 28/44/11
f 14/45/12 26/46/12 23/47/12 11/48/12
f 30/49/13 29/50/13 18/51/13 17/52/13
f 25/53/14 30/54/14 23/55/14 24/56/14
f 27/57/15 26/58/15 29/59/15 28/60/15
f 11/61/16 13/62/16 15/63/16 14/64/16
f 29/65/17 15/66/17 16/67/17 18/68/17
f 14/69/18 15/70/18 29/71/18 26/72/18
f 13/73/19 30/74/19 17/75/19 12/76/19
f 23/77/20 30/78/20 13/79/20 11/80/20