# Made in Blockbench 4.12.6
mtllib df5_carport_cabin.mtl

o cube_selection_selection_selection_selection_selection_selection_selection_selection_selection
v 1.51700875 0.7223975 0.3051475000000001
v 1.5159956250000002 0.16557375000000002 0.010988125000000126
v 1.51620875 0.7223975 0.24264750000000013
v 1.516995625 0.16557375000000002 0.07348812500000013
v 1.5154612500000002 0.18875312500000002 0.10744625000000013
v 1.51560125 0.3125 0.16257625000000012
v 0.5468750000000001 0.3125 0.1625762499999999
v 0.5448175000000002 0.1856 0.11310999999999988
v 0.5468781250000002 0.14616625 0.08440687499999988
v 1.51652375 0.898371875 0.6100943750000001
v 1.51752375 0.835871875 0.6100943750000001
v 1.5175087500000002 0.6598975 0.24264750000000013
v 1.51752625 0.9211175 0.6664637500000001
v 1.51752625 0.8586175 0.6664637500000001
v 1.5156031250000002 0.16212749999999998 0.09786812500000014
v 0.49992250000000005 0.898371875 0.6100943749999999
v 1.5163175000000002 0.12315937500000002 0.11038375000000011
v 1.5155256250000002 0.188295 -0.011110624999999874
v 1.5155256250000002 0.12585437500000002 -0.01383687499999986
v 0.49995562500000024 0.16557375000000002 0.010988124999999904
v 0.4987343750000002 0.188295 -0.011110625000000096
v 0.4987343750000002 0.12585437500000002 -0.013836875000000082
v 0.4979425000000002 0.12315937500000002 0.11038374999999989
v 1.5155224999999999 1.129414375 1.1562468750000001
v 1.5155237499999998 1.129414375 1.499996875
v 0.49992249999999994 1.129414375 1.156246875
v 0.4999224999999998 1.129414375 1.499996875
v 0.49993750000000003 0.7223975 0.24264749999999988
v 0.4999999999999999 0.3125 1.5
v 1.5156012499999998 0.3125 1.5
v 1.5163175000000002 0.1856 0.1131100000000001
v 0.5000031250000002 0.14616625 0.08440687499999988
v 0.5000000000000001 0.3125 0.16257624999999987
v 0.4979425000000002 0.1856 0.11310999999999988
v -0.51700875 0.7223975 0.3051474999999997
v -0.515995625 0.16557375000000002 0.010988124999999682
v -0.5162087499999999 0.7223975 0.24264749999999966
v -0.5169956249999998 0.16557375000000002 0.07348812499999968
v -0.51546125 0.18875312500000002 0.10744624999999969
v -0.51560125 0.3125 0.16257624999999964
v 0.4531250000000001 0.3125 0.16257624999999987
v 0.45518250000000016 0.1856 0.11310999999999988
v 0.45312187500000023 0.14616625 0.08440687499999988
v -0.51652375 0.898371875 0.6100943749999996
v -0.5175237499999998 0.835871875 0.6100943749999996
v -0.51750875 0.6598975 0.24264749999999966
v -0.51752625 0.9211175 0.6664637499999997
v -0.51752625 0.8586175 0.6664637499999997
v -0.5156031249999999 0.16212749999999998 0.0978681249999997
v 0.5000775000000001 0.898371875 0.6100943749999999
v -0.5163175 0.12315937500000002 0.11038374999999967
v -0.515525625 0.188295 -0.011110625000000318
v -0.515525625 0.12585437500000002 -0.013836875000000304
v 0.5000443750000002 0.16557375000000002 0.010988124999999904
v 0.5012656250000002 0.188295 -0.011110625000000096
v 0.5012656250000002 0.12585437500000002 -0.013836875000000082
v 0.5020575000000002 0.12315937500000002 0.11038374999999989
v -0.5155225000000001 1.129414375 1.1562468749999997
v -0.5155237500000001 1.129414375 1.4999968749999995
v 0.5000775 1.129414375 1.156246875
v 0.5000774999999998 1.129414375 1.499996875
v 0.5000625000000001 0.7223975 0.24264749999999988
v 0.4999999999999999 0.3125 1.5
v -0.5156012500000002 0.3125 1.4999999999999996
v -0.5163175 0.1856 0.11310999999999966
v 0.49999687500000023 0.14616625 0.08440687499999988
v 0.5000000000000001 0.3125 0.16257624999999987
v 0.5020575000000002 0.1856 0.11310999999999988
vt 0.66682265625 0.5078125
vt 0.65234375 0.4730109375
vt 0.6484375 0.4730109375
vt 0.66291640625 0.5078125
vt 0.44334921875 0.889970703125
vt 0.4433578125 0.8984375
vt 0.37890625 0.8984375
vt 0.378906640625 0.886953515625
vt 0.8203125 0.69921875
vt 0.8203125 0.6907052734375
vt 0.82110765625 0.6877596875
vt 0.0347077734375 0.4921875
vt 0.0234375 0.48996867187500004
vt 0.026488515625 0.48996867187500004
vt 0.6171875 0.60546875
vt 0.61328125 0.60546875
vt 0.613282421875 0.58000546875
vt 0.61718828125 0.58000546875
vt 0.308210546875 0.8029999999999999
vt 0.3046875 0.8046875
vt 0.3046875 0.80078125
vt 0.308210546875 0.7990937499999999
vt 0.039186484375 0.6204438671875
vt 0.04296875 0.618556796875
vt 0.04296875 0.65625
vt 0.0390625 0.630674375
vt 0.281190625 0.73046875
vt 0.24412734375 0.73046875
vt 0.24412734375 0.66796875
vt 0.281190625 0.66796875
vt 0.30763046875 0.6718755859375001
vt 0.30763046875 0.734374609375
vt 0.2821671875 0.734375
vt 0.2821671875 0.671875
vt 0.41015625 1
vt 0.34765625 1
vt 0.34765625 0.9609375
vt 0.41015625 0.9609375
vt 0.1875 0.9546484375
vt 0.1875 0.9647319921874999
vt 0.18359375 0.96484375
vt 0.18359375 0.9547596875
vt 0.348635546875 0.8828125
vt 0.3485859375 0.875
vt 0.4756328125 0.875
vt 0.475583203125 0.8828125
vt 0.4296875 0.59765625
vt 0.4296875 0.60542203125
vt 0.30088046875 0.6062330078125
vt 0.30078125 0.5984678515624999
vt 0.22361953125 0.73046875
vt 0.22361953125 0.66796875
vt 0.24510390625 0.66796875
vt 0.24510390625 0.73046875
vt 0.26171875 1
vt 0.26171875 0.9375
vt 0.34375 0.9375
vt 0.34375 1
vt 0.4765625 0.9453125
vt 0.4765625 0.94921875
vt 0.4140625 0.94921875
vt 0.4140625 0.9453125
vt 0.34883046875 0.9059740234375
vt 0.43241953125 0.9059740234375
vt 0.370315234375 0.9570310546875
vt 0.348830859375 0.9570310546875
vt 0.370315 0.95703125
vt 0.43241953125 0.9059740234375
vt 0.4044497265625 0.9425912890625
vt 0.2129426171875 0.6119585937500001
vt 0.2965316796875 0.6119585937500001
vt 0.2965312890625 0.663015625
vt 0.2750469140625 0.663015625
vt 0.212942421875 0.61195828125
vt 0.217946796875 0.6375770703125
vt 0.2034683203125 0.6027753515625001
vt 0.2080569921875 0.6015625
vt 0.240912421875 0.64857546875
vt 0.217946796875 0.6375770703125
vt 0.212942421875 0.6119583203125001
vt 0.4296875 0.95703125
vt 0.4296875 0.953125
vt 0.4943125 0.953125
vt 0.4943125 0.95703125
vt 0.43241953125 0.9059740234375
vt 0.4274150390625 0.931592421875
vt 0.404449921875 0.9425910546875
vt 0.240912421875 0.64857546875
vt 0.2129426171875 0.6119585937500001
vt 0.2750471484375 0.6630158203125001
vt 0 0.8515625
vt 0 0.8476564453125
vt 0.0126953125 0.84748609375
vt 0.0126953125 0.8513921875
vt 0.3300765625 0.9921875
vt 0.265625 0.9921875
vt 0.2656296875 0.94113046875
vt 0.33008125 0.94113046875
vt 0.671875 0.6672687500000001
vt 0.672003515625 0.67578125
vt 0.668097265625 0.67578125
vt 0.66796875 0.6672687500000001
vt 0.26966015625 0.7938265625
vt 0.26953125 0.796875
vt 0.265625 0.796875
vt 0.26575390625 0.7938265625
vt 0.6484375 0.4730109375
vt 0.65234375 0.4730109375
vt 0.66682265625 0.5078125
vt 0.66291640625 0.5078125
vt 0.37890625 0.8984375
vt 0.4433578125 0.8984375
vt 0.44334921875 0.889970703125
vt 0.378906640625 0.886953515625
vt 0.8203125 0.6907052734375
vt 0.8203125 0.69921875
vt 0.82110765625 0.6877596875
vt 0.0234375 0.48996867187500004
vt 0.0347077734375 0.4921875
vt 0.026488515625 0.48996867187500004
vt 0.613282421875 0.58000546875
vt 0.61328125 0.60546875
vt 0.6171875 0.60546875
vt 0.61718828125 0.58000546875
vt 0.3046875 0.80078125
vt 0.3046875 0.8046875
vt 0.308210546875 0.8029999999999999
vt 0.308210546875 0.7990937499999999
vt 0.04296875 0.65625
vt 0.04296875 0.618556796875
vt 0.039186484375 0.6204438671875
vt 0.0390625 0.630674375
vt 0.24412734375 0.66796875
vt 0.24412734375 0.73046875
vt 0.281190625 0.73046875
vt 0.281190625 0.66796875
vt 0.2821671875 0.734375
vt 0.30763046875 0.734374609375
vt 0.30763046875 0.6718755859375001
vt 0.2821671875 0.671875
vt 0.34765625 0.9609375
vt 0.34765625 1
vt 0.41015625 1
vt 0.41015625 0.9609375
vt 0.18359375 0.96484375
vt 0.1875 0.9647319921874999
vt 0.1875 0.9546484375
vt 0.18359375 0.9547596875
vt 0.4756328125 0.875
vt 0.3485859375 0.875
vt 0.348635546875 0.8828125
vt 0.475583203125 0.8828125
vt 0.30088046875 0.6062330078125
vt 0.4296875 0.60542203125
vt 0.4296875 0.59765625
vt 0.30078125 0.5984678515624999
vt 0.24510390625 0.66796875
vt 0.22361953125 0.66796875
vt 0.22361953125 0.73046875
vt 0.24510390625 0.73046875
vt 0.34375 0.9375
vt 0.26171875 0.9375
vt 0.26171875 1
vt 0.34375 1
vt 0.4140625 0.94921875
vt 0.4765625 0.94921875
vt 0.4765625 0.9453125
vt 0.4140625 0.9453125
vt 0.370315234375 0.9570310546875
vt 0.43241953125 0.9059740234375
vt 0.34883046875 0.9059740234375
vt 0.348830859375 0.9570310546875
vt 0.43241953125 0.9059740234375
vt 0.370315 0.95703125
vt 0.4044497265625 0.9425912890625
vt 0.2965312890625 0.663015625
vt 0.2965316796875 0.6119585937500001
vt 0.2129426171875 0.6119585937500001
vt 0.2750469140625 0.663015625
vt 0.2034683203125 0.6027753515625001
vt 0.217946796875 0.6375770703125
vt 0.212942421875 0.61195828125
vt 0.2080569921875 0.6015625
vt 0.217946796875 0.6375770703125
vt 0.240912421875 0.64857546875
vt 0.212942421875 0.6119583203125001
vt 0.4943125 0.953125
vt 0.4296875 0.953125
vt 0.4296875 0.95703125
vt 0.4943125 0.95703125
vt 0.4274150390625 0.931592421875
vt 0.43241953125 0.9059740234375
vt 0.404449921875 0.9425910546875
vt 0.2129426171875 0.6119585937500001
vt 0.240912421875 0.64857546875
vt 0.2750471484375 0.6630158203125001
vt 0.0126953125 0.84748609375
vt 0 0.8476564453125
vt 0 0.8515625
vt 0.0126953125 0.8513921875
vt 0.2656296875 0.94113046875
vt 0.265625 0.9921875
vt 0.3300765625 0.9921875
vt 0.33008125 0.94113046875
vt 0.668097265625 0.67578125
vt 0.672003515625 0.67578125
vt 0.671875 0.6672687500000001
vt 0.66796875 0.6672687500000001
vt 0.265625 0.796875
vt 0.26953125 0.796875
vt 0.26966015625 0.7938265625
vt 0.26575390625 0.7938265625
vn 0.9998500352407419 0.006632028745916527 -0.01599760056385166
vn -2.0282691994663686e-16 -0.40694819098601764 0.9134512410923792
vn 0.9758669283651367 -0.09286213367726881 0.19763694556458403
vn -0.9758669283651367 0.09286213367726881 -0.19763694556458403
vn 0.9998423661001105 0.015997477857601784 -0.0077021849840448915
vn 0.9998418936469349 0 -0.01778166776518378
vn 0.999987713667227 -0.0022255375108370776 0.004429390181488275
vn 8.651046471721102e-17 0.920980574891325 -0.38960849666408
vn 9.590832352640616e-17 0.901905843881211 -0.43193269009525176
vn 2.0501003916357206e-16 0.3841200994572464 -0.9232831359842739
vn -0.9999796817008025 0.00027806181001420075 -0.006368584394651533
vn -4.8161843388847725e-18 0.9997647406761028 0.02169016599394908
vn 4.816184338884773e-18 -0.9997647406761029 -0.021690165993949084
vn 0 1 0
vn 0 -1 0
vn 2.2183326248551605e-16 0.04361992133372359 -0.9990481982681515
vn 0.9999999953535846 0.00009639933148943682 2.2204460389331984e-16
vn 0.9999835240476768 -0.004395091487897279 0.0036925335479474574
vn -0.999999995499919 -0.00009486918338449773 -2.220446039258126e-16
vn -0.999999818908581 -0.00025862918571501115 0.0005434093756465434
vn -0.9999999866621931 -0.00015941658980488468 0.000035524141974385354
vn -2.2183326248551607e-16 -0.043619921333723596 0.9990481982681516
vn 0.9999989350884386 -0.001450292799088729 -0.00016270459686491167
vn -0.9999999774853666 -0.00019543300297976193 0.00008267531429560493
vn 0.9999796817008025 0.00027806181001420227 -0.006368584394651089
vn -2.220446049234067e-16 0.0000038253703150723415 0.9999999999926834
vn -2.0688252342772642e-16 -0.36318754394286185 0.9317160554185766
vn -1.7952342354919827e-16 -0.5884939464079856 0.8085016234004451
vn -0.9998500352407419 0.006632028745915489 -0.015997600563850328
vn -2.0282691994663686e-16 -0.4069481909860177 0.9134512410923792
vn -0.9758669283651393 -0.09286213367726402 0.19763694556457348
vn 0.9758669283651392 0.09286213367726401 -0.19763694556457342
vn -0.9998423661001103 0.015997477857600004 -0.007702184984044182
vn -0.9998418936469349 0 -0.017781667765184223
vn -0.999987713667227 -0.002225537510836979 0.004429390181487833
vn 8.651046471721102e-17 0.920980574891325 -0.38960849666408
vn 9.590832352640616e-17 0.901905843881211 -0.43193269009525176
vn 2.0501003916357206e-16 0.3841200994572464 -0.9232831359842739
vn 0.9999796817008025 0.00027806181001420227 -0.006368584394651089
vn -4.8161843388847725e-18 0.9997647406761028 0.02169016599394908
vn 4.816184338884773e-18 -0.9997647406761029 -0.021690165993949084
vn 0 1 0
vn 0 -1 0
vn 2.2183326248551605e-16 0.04361992133372359 -0.9990481982681515
vn -0.9999999953535846 0.00009639933148957273 -2.2204460389331984e-16
vn -0.9999835240476767 -0.004395091487897253 0.0036925335479471035
vn 0.999999995499919 -0.00009486918338436184 2.220446039258126e-16
vn 0.999999818908581 -0.00025862918571467706 0.0005434093756466636
vn 0.9999999866621931 -0.00015941658980458596 0.00003552414197468637
vn -2.2183326248551607e-16 -0.043619921333723596 0.9990481982681516
vn -0.9999989350884386 -0.0014502927990883974 -0.00016270459686566568
vn 0.9999999774853666 -0.00019543300297948196 0.00008267531429593058
vn -0.9999796817008025 0.00027806181001420075 -0.006368584394651533
vn -2.2204460492340667e-16 0.0000038253703150723415 0.9999999999926833
vn -2.0688252342772642e-16 -0.36318754394286185 0.9317160554185766
vn -1.7952342354919827e-16 -0.5884939464079856 0.8085016234004451
usemtl m_a0cb0d81-7f62-4938-2163-2ea739bded41
f 1/1/1 4/2/1 2/3/1 3/4/1
f 5/5/2 6/6/2 33/7/2 32/8/2
f 7/9/3 8/10/3 9/11/3
f 33/12/4 32/13/4 34/14/4
f 10/15/5 11/16/5 12/17/5 3/18/5
f 10/19/6 13/20/6 14/21/6 11/22/6
f 15/23/7 2/24/7 3/25/7 6/26/7
f 16/27/8 26/28/8 24/29/8 10/30/8
f 3/31/9 28/32/9 16/33/9 10/34/9
f 28/35/10 3/36/10 2/37/10 20/38/10
f 34/39/11 21/40/11 22/41/11 23/42/11
f 21/43/12 34/44/12 31/45/12 18/46/12
f 23/47/13 22/48/13 19/49/13 17/50/13
f 27/51/14 25/52/14 24/53/14 26/54/14
f 30/55/15 29/56/15 33/57/15 6/58/15
f 22/59/16 21/60/16 18/61/16 19/62/16
f 30/63/17 6/64/17 24/65/17 25/66/17
f 24/67/18 6/68/18 10/69/18
f 33/70/19 29/71/19 27/72/19 26/73/19
f 33/74/20 28/75/20 20/76/20 32/77/20
f 16/78/21 28/79/21 33/80/21
f 34/81/22 23/82/22 17/83/22 31/84/22
f 6/85/23 3/86/23 10/87/23
f 16/88/24 33/89/24 26/90/24
f 31/91/25 17/92/25 19/93/25 18/94/25
f 25/95/26 27/96/26 29/97/26 30/98/26
f 8/99/27 7/100/27 33/101/27 34/102/27
f 9/103/28 8/104/28 34/105/28 32/106/28
f 36/107/29 38/108/29 35/109/29 37/110/29
f 67/111/30 40/112/30 39/113/30 66/114/30
f 42/115/31 41/116/31 43/117/31
f 66/118/32 67/119/32 68/120/32
f 46/121/33 45/122/33 44/123/33 37/124/33
f 48/125/34 47/126/34 44/127/34 45/128/34
f 37/129/35 36/130/35 49/131/35 40/132/35
f 58/133/36 60/134/36 50/135/36 44/136/36
f 50/137/37 62/138/37 37/139/37 44/140/37
f 36/141/38 37/142/38 62/143/38 54/144/38
f 56/145/39 55/146/39 68/147/39 57/148/39
f 65/149/40 68/150/40 55/151/40 52/152/40
f 53/153/41 56/154/41 57/155/41 51/156/41
f 58/157/42 59/158/42 61/159/42 60/160/42
f 67/161/43 63/162/43 64/163/43 40/164/43
f 52/165/44 55/166/44 56/167/44 53/168/44
f 58/169/45 40/170/45 64/171/45 59/172/45
f 40/173/46 58/174/46 44/175/46
f 61/176/47 63/177/47 67/178/47 60/179/47
f 54/180/48 62/181/48 67/182/48 66/183/48
f 62/184/49 50/185/49 67/186/49
f 51/187/50 57/188/50 68/189/50 65/190/50
f 37/191/51 40/192/51 44/193/51
f 67/194/52 50/195/52 60/196/52
f 53/197/53 51/198/53 65/199/53 52/200/53
f 63/201/54 61/202/54 59/203/54 64/204/54
f 67/205/55 41/206/55 42/207/55 68/208/55
f 68/209/56 42/210/56 43/211/56 66/212/56