# Made in Blockbench 4.12.5
mtllib df5_air_intake_2.mtl

o cube
v 0.10631812499999999 0.146876875 0.613190625
v 0.10631812499999999 0.146876875 0.6077493749999999
v 0.10631812499999999 0.146876875 0.6077493749999999
v 0.10631812499999999 0.146876875 0.613190625
v 0.10631812499999999 0.146876875 0.6077493749999999
v 0.10631812499999999 0.146876875 0.6077493749999999
v 1.000843125 0.62309875 0.5191593750000001
v 1.000843125 0.560658125 0.5164331250000002
v 1.000063125 0.62579375 0.4574387500000001
v 1.000063125 0.563353125 0.45471250000000013
v 1.000061875 0.920315 0.6694287500000001
v 1 0 0.5000000000000001
v 1.00003125 0.6245475 0.49999937500000013
v 0.00006187499999998902 0.920315 0.6694287499999999
v 0.00009187500000007454 0.6245475 0.4999993749999999
v 5.551115123125783e-17 0 0.4999999999999999
v 1.0001381249999999 -0.000001250000000008189 1.0061256250000001
v 0.00013812499999987793 -0.000001250000000008189 1.006125625
v -0.00040687499999997323 0.62309875 0.5191593749999999
v 0.0003731250000000852 0.62579375 0.4574387499999999
v 0.0003731250000000852 0.563353125 0.4547124999999999
v -0.00040687499999997323 0.560658125 0.5164331249999999
v 1.000060625 1.129163125 1.1560462500000002
v 1.0000618749999999 1.129163125 1.4997962500000002
v 1.0000231249999998 0.660413125 1.4997962500000002
v 0.000061874999999878 1.129163125 1.15604625
v 0.00006187499999982249 1.129163125 1.49979625
v 0.0001006249999998543 0.660413125 1.49979625
v 0.00011937499999992163 0.65833125 1.0342112499999998
v 1.0000806249999998 0.65833125 1.0342112500000002
v -0.37500000000000006 0.5 0.5156249999999998
v 0.9999999999999998 0.5625 0.3906250000000001
v 0.625 0.5625 0.390625
v 0.9999999999999998 -0.75 0.3906250000000001
v 0.625 -0.75 0.390625
v 1 0.5625 0.5000000000000001
v 0.625 0.5625 0.5
v 1 -0.75 0.5000000000000001
v 0.625 -0.75 0.5
v 0.96875 -1.0234375 0.4140625000000001
v 0.65625 -1.0234375 0.41406250000000006
v 0.96875 -1.0234375 0.4140625000000001
v 0.65625 -1.0234375 0.41406250000000006
v 0.96875 -0.9765625 0.4140625000000001
v 0.65625 -0.9765625 0.41406250000000006
v 0.96875 -0.9765625 0.4140625000000001
v 0.65625 -0.9765625 0.41406250000000006
v 0.96875 0.7759425000000001 0.4590756250000001
v 0.96875 0.7759425000000001 0.4590756250000001
v 0.96875 0.7087800000000001 0.5644993750000001
v 0.96875 0.7087800000000001 0.5644993750000001
v 0.96875 0.81547625 0.4842612500000001
v 0.96875 0.81547625 0.4842612500000001
v 0.96875 0.74831375 0.5896856250000001
v 0.96875 0.74831375 0.5896856250000001
v 0.65625 0.7759425000000001 0.4590756250000001
v 0.65625 0.7759425000000001 0.4590756250000001
v 0.65625 0.7087800000000001 0.564499375
v 0.65625 0.7087800000000001 0.564499375
v 0.65625 0.81547625 0.4842612500000001
v 0.65625 0.81547625 0.4842612500000001
v 0.65625 0.74831375 0.5896856250000001
v 0.65625 0.74831375 0.5896856250000001
v 0.96875 0.7759425000000001 0.4590756250000001
v 0.65625 0.7759425000000001 0.4590756250000001
v 0.96875 0.7759425000000001 0.4590756250000001
v 0.65625 0.7759425000000001 0.4590756250000001
v 0.96875 0.81547625 0.4842612500000001
v 0.65625 0.81547625 0.4842612500000001
v 0.96875 0.81547625 0.4842612500000001
v 0.65625 0.81547625 0.4842612500000001
v 0.96875 0.6824725 0.5266943750000002
v 0.65625 0.6824725 0.526694375
v 0.96875 0.6824725 0.5266943750000002
v 0.65625 0.6824725 0.526694375
v 0.96875 0.722006875 0.5518800000000001
v 0.65625 0.722006875 0.55188
v 0.96875 0.722006875 0.5518800000000001
v 0.65625 0.722006875 0.55188
v 0.65625 -1.0234375 0.41406250000000006
v 0.65625 -1.0234375 0.41406250000000006
v 0.65625 -1.0234375 0.5390625
v 0.65625 -1.0234375 0.5390625
v 0.65625 -0.9765625 0.41406250000000006
v 0.65625 -0.9765625 0.41406250000000006
v 0.65625 -0.9765625 0.5390625
v 0.65625 -0.9765625 0.5390625
v 0.96875 -1.0234375 0.4140625000000001
v 0.96875 -1.0234375 0.4140625000000001
v 0.96875 -1.0234375 0.5390625000000001
v 0.96875 -1.0234375 0.5390625000000001
v 0.96875 -0.9765625 0.4140625000000001
v 0.96875 -0.9765625 0.4140625000000001
v 0.96875 -0.9765625 0.5390625000000001
v 0.96875 -0.9765625 0.5390625000000001
v 0.65625 -1.5234375 0.41406250000000006
v 0.65625 -1.5234375 0.41406250000000006
v 0.65625 -1.5234375 0.5390625
v 0.65625 -1.5234375 0.5390625
v 0.65625 -1.4765625 0.41406250000000006
v 0.65625 -1.4765625 0.41406250000000006
v 0.65625 -1.4765625 0.5390625
v 0.65625 -1.4765625 0.5390625
v 0.96875 -1.5234375 0.4140625000000001
v 0.65625 -1.5234375 0.41406250000000006
v 0.96875 -1.5234375 0.4140625000000001
v 0.65625 -1.5234375 0.41406250000000006
v 0.96875 -1.4765625 0.4140625000000001
v 0.65625 -1.4765625 0.41406250000000006
v 0.96875 -1.4765625 0.4140625000000001
v 0.65625 -1.4765625 0.41406250000000006
v 0.96875 -1.5234375 0.4140625000000001
v 0.96875 -1.5234375 0.4140625000000001
v 0.96875 -1.5234375 0.5390625000000001
v 0.96875 -1.5234375 0.5390625000000001
v 0.96875 -1.4765625 0.4140625000000001
v 0.96875 -1.4765625 0.4140625000000001
v 0.96875 -1.4765625 0.5390625000000001
v 0.96875 -1.4765625 0.5390625000000001
v -0.37500000000000006 0.5 0.4531249999999998
v -1.6875 0.5 0.45312499999999956
v -0.37500000000000006 -0.1875 0.4531249999999998
v -1.6875 -0.1875 0.45312499999999956
v -1.6875 0.5 0.5156249999999996
v -0.37500000000000006 -0.1875 0.5156249999999998
v -1.6875 -0.1875 0.5156249999999996
v -0.37500000000000006 -0.1875 0.4937499999999998
v -1.6875 -0.1875 0.4937499999999996
v -0.37500000000000006 -0.25 0.4937499999999998
v -1.6875 -0.25 0.4937499999999996
v -0.37500000000000006 -0.1875 0.4937499999999998
v -1.6875 -0.1875 0.4937499999999996
v -0.37500000000000006 -0.25 0.4937499999999998
v -1.6875 -0.25 0.4937499999999996
v 0.65625 -0.12499999999999999 0.4937500000000001
v -0.31250000000000006 -0.12499999999999999 0.49374999999999986
v 0.65625 -0.1875 0.4937500000000001
v -0.31250000000000006 -0.1875 0.49374999999999986
v 0.65625 -0.12499999999999999 0.4937500000000001
v -0.31250000000000006 -0.12499999999999999 0.49374999999999986
v 0.65625 -0.1875 0.4937500000000001
v -0.31250000000000006 -0.1875 0.49374999999999986
v 0.625 0.5625 0.4375
v -0.31250000000000006 0.5625 0.43749999999999983
v 0.625 -0.12499999999999999 0.4375
v -0.31250000000000006 -0.12499999999999999 0.43749999999999983
v 0.625 0.5625 0.5
v -0.31250000000000006 0.5625 0.49999999999999983
v 0.625 -0.12499999999999999 0.5
v -0.31250000000000006 -0.12499999999999999 0.49999999999999983
vt 0.015625 0.84375
vt 0.015625 0.859375
vt 0 0.859375
vt 0 0.84375
vt 0.3984453125 0.359375
vt 0.6484453125 0.359375
vt 0.648421875 0.5155125
vt 0.3984375 0.5155125
vt 0.5391015625 0.859375
vt 0.53890625 0.84375
vt 0.78921875 0.84375
vt 0.7890234375 0.859375
vt 0.515625 0.328125
vt 0.515625 0.34375
vt 0.265625 0.34375
vt 0.265625 0.328125
vt 0.75 0.640625
vt 0.75 0.6560715625
vt 0.500390625 0.65923171875
vt 0.5 0.64379
vt 0.53125 0.34375
vt 0.53125 0.328125
vt 0.78125 0.328125
vt 0.78125 0.34375
vt 0.03125 0.859375
vt 0.03125 0.84375
vt 0.046875 0.84375
vt 0.046875 0.859375
vt 0.5077953125 0.6875
vt 0.7577953125 0.6875
vt 0.7578296875 0.8125
vt 0.5078296875 0.8125
vt 0.00021328125 0.6875
vt 0.00021328125 0.4375
vt 0.08615078125 0.4375
vt 0.08615078125 0.6875
vt 0.78125 1
vt 0.53125 1
vt 0.53125 0.875
vt 0.78125 0.875
vt 0 0.3125
vt 0.25 0.3125
vt 0.25 0.421875
vt 0 0.421875
vt 0.21853671875 0.6875
vt 0.08615078125 0.6875
vt 0.08615078125 0.4375
vt 0.21853671875 0.4375
vt 0.515625 1
vt 0.265625 1
vt 0.265625 0.828125
vt 0.515625 0.828125
vt 0.00002578125 0.8828125
vt 0.11642109375 0.8822921875
vt 0.08596328125 1
vt 0.00002578125 1
vt 0.48435 0.7510403125
vt 0.3984125 0.7510403125
vt 0.367953125 0.6333325000000001
vt 0.48435 0.6338528125
vt 0.4062421875 0.6007265625
vt 0.40625 0.5155125
vt 0.656234375 0.5155125
vt 0.6562421875 0.6007265625
vt 0.367953125 0.6333328125
vt 0.2344 0.62488765625
vt 0.2344 0.46875015625000005
vt 0.36093125 0.46875
vt 0.2767571875 0.69882921875
vt 0.2344 0.62488765625
vt 0.36795328125 0.6333328125
vt 0.3984125 0.7510403125
vt 0.24997421875 0.8738453125
vt 0.11642109375 0.8822921875
vt 0.12344296875 0.7177078125
vt 0.24997421875 0.717709375
vt 0.08596328125 1
vt 0.11642109375 0.8822921875
vt 0.24997421875 0.8738453125
vt 0.20761796875 0.9477875
vt 0.09375 0.328125
vt 0.09375 0.65625
vt 0 0.65625
vt 0 0.328125
vt 0.1875 0.328125
vt 0.1875 0.65625
vt 0.09375 0.65625
vt 0.09375 0.328125
vt 0.3125 0.65625
vt 0.3125 0.5625
vt 0.34375 0.5625
vt 0.34375 0.65625
vt 0.34375 0.5625
vt 0.34375 0.65625
vt 0.375 0.65625
vt 0.375 0.5625
vt 0.25 0.328125
vt 0.25 0.65625
vt 0.21875 0.65625
vt 0.21875 0.328125
vt 0.21875 0.328125
vt 0.21875 0.65625
vt 0.1875 0.65625
vt 0.1875 0.328125
vt 0.078125 1
vt 0 1
vt 0.078125 1
vt 0 1
vt 0.078125 1
vt 0 1
vt 0.078125 1
vt 0 1
vt 0.34375 0.5625
vt 0.34375 0.484375
vt 0.359375 0.484375
vt 0.359375 0.5625
vt 0.4375 0.578125
vt 0.4375 0.65625
vt 0.453125 0.65625
vt 0.453125 0.578125
vt 0.015625 1
vt 0 1
vt 0.015625 1
vt 0 1
vt 0.015625 1
vt 0 1
vt 0.015625 1
vt 0 1
vt 0 1
vt 0 1
vt 0 0.96875
vt 0 0.96875
vt 0 1
vt 0 1
vt 0 0.96875
vt 0 0.96875
vt 0 1
vt 0.015625 1
vt 0 1
vt 0.015625 1
vt 0 1
vt 0.015625 1
vt 0 1
vt 0.015625 1
vt 0.46875 0.59375
vt 0.46875 0.625
vt 0.453125 0.625
vt 0.453125 0.59375
vt 0.46875 0.625
vt 0.46875 0.65625
vt 0.453125 0.65625
vt 0.453125 0.625
vt 0 1
vt 0 1
vt 0 0.96875
vt 0 0.96875
vt 0 1
vt 0 1
vt 0 0.96875
vt 0 0.96875
vt 0 1
vt 0.015625 1
vt 0 1
vt 0.015625 1
vt 0 1
vt 0.015625 1
vt 0 1
vt 0.015625 1
vt 0.46875 0.53125
vt 0.46875 0.5625
vt 0.453125 0.5625
vt 0.453125 0.53125
vt 0.46875 0.5625
vt 0.46875 0.59375
vt 0.453125 0.59375
vt 0.453125 0.5625
vt 0.078125 1
vt 0 1
vt 0.078125 1
vt 0 1
vt 0.078125 1
vt 0 1
vt 0.078125 1
vt 0 1
vt 0.3125 0.5625
vt 0.3125 0.484375
vt 0.328125 0.484375
vt 0.328125 0.5625
vt 0.328125 0.484375
vt 0.328125 0.5625
vt 0.34375 0.5625
vt 0.34375 0.484375
vt 0.015625 1
vt 0 1
vt 0.015625 1
vt 0 1
vt 0.015625 1
vt 0 1
vt 0.015625 1
vt 0 1
vt 0.078125 1
vt 0 1
vt 0.078125 1
vt 0 1
vt 0.078125 1
vt 0 1
vt 0.078125 1
vt 0 1
vt 0.515625 0.59375
vt 0.515625 0.515625
vt 0.53125 0.515625
vt 0.53125 0.59375
vt 0.53125 0.515625
vt 0.53125 0.59375
vt 0.546875 0.59375
vt 0.546875 0.515625
vt 0.015625 1
vt 0 1
vt 0.015625 1
vt 0 1
vt 0.015625 1
vt 0 1
vt 0.015625 1
vt 0 1
vt 0 1
vt 0 1
vt 0 0.96875
vt 0 0.96875
vt 0 1
vt 0 1
vt 0 0.96875
vt 0 0.96875
vt 0 1
vt 0.015625 1
vt 0 1
vt 0.015625 1
vt 0 1
vt 0.015625 1
vt 0 1
vt 0.015625 1
vt 0.484375 0.59375
vt 0.484375 0.625
vt 0.46875 0.625
vt 0.46875 0.59375
vt 0.484375 0.625
vt 0.484375 0.65625
vt 0.46875 0.65625
vt 0.46875 0.625
vt 0 1
vt 0 1
vt 0 0.96875
vt 0 0.96875
vt 0 1
vt 0 1
vt 0 0.96875
vt 0 0.96875
vt 0 1
vt 0.015625 1
vt 0 1
vt 0.015625 1
vt 0 1
vt 0.015625 1
vt 0 1
vt 0.015625 1
vt 0.484375 0.53125
vt 0.484375 0.5625
vt 0.46875 0.5625
vt 0.46875 0.53125
vt 0.484375 0.5625
vt 0.484375 0.59375
vt 0.46875 0.59375
vt 0.46875 0.5625
vt 0 1
vt 0 1
vt 0 0.96875
vt 0 0.96875
vt 0 1
vt 0 1
vt 0 0.96875
vt 0 0.96875
vt 0 1
vt 0.015625 1
vt 0 1
vt 0.015625 1
vt 0 1
vt 0.015625 1
vt 0 1
vt 0.015625 1
vt 0.484375 0.5
vt 0.484375 0.53125
vt 0.46875 0.53125
vt 0.46875 0.5
vt 0.46875 0.5
vt 0.46875 0.53125
vt 0.453125 0.53125
vt 0.453125 0.5
vt 0.078125 1
vt 0 1
vt 0.078125 1
vt 0 1
vt 0.078125 1
vt 0 1
vt 0.078125 1
vt 0 1
vt 0.359375 0.5625
vt 0.359375 0.484375
vt 0.375 0.484375
vt 0.375 0.5625
vt 0.4375 0.5
vt 0.4375 0.578125
vt 0.453125 0.578125
vt 0.453125 0.5
vt 0.015625 1
vt 0 1
vt 0.015625 1
vt 0 1
vt 0.015625 1
vt 0 1
vt 0.015625 1
vt 0 1
vt 0 1
vt 0 1
vt 0 0.96875
vt 0 0.96875
vt 0 1
vt 0 1
vt 0 0.96875
vt 0 0.96875
vt 0 1
vt 0.015625 1
vt 0 1
vt 0.015625 1
vt 0 1
vt 0.015625 1
vt 0 1
vt 0.015625 1
vt 0.5 0.59375
vt 0.5 0.625
vt 0.484375 0.625
vt 0.484375 0.59375
vt 0.5 0.625
vt 0.5 0.65625
vt 0.484375 0.65625
vt 0.484375 0.625
vt 0.328125 0.125
vt 0.328125 0.296875
vt 0 0.296875
vt 0 0.125
vt 0.3125 0.65625
vt 0.3125 0.828125
vt 0 0.828125
vt 0 0.65625
vt 0.25 0.65625
vt 0.25 0.328125
vt 0.265625 0.328125
vt 0.265625 0.65625
vt 0.265625 0.328125
vt 0.265625 0.65625
vt 0.28125 0.65625
vt 0.28125 0.328125
vt 0.40625 0.484375
vt 0.40625 0.65625
vt 0.390625 0.65625
vt 0.390625 0.484375
vt 0.390625 0.484375
vt 0.390625 0.65625
vt 0.375 0.65625
vt 0.375 0.484375
vt 0.453125 0.421875
vt 0.453125 0.4375
vt 0.6953125 0.4375
vt 0.6953125 0.421875
vt 0.453125 0.421875
vt 0.453125 0.4375
vt 0.6953125 0.4375
vt 0.6953125 0.421875
vt 0.34375 0.734375
vt 0.3125 0.734375
vt 0.34375 0.984375
vt 0.3125 0.984375
vt 0.359375 0.75
vt 0.34375 0.75
vt 0.359375 0.5
vt 0.34375 0.5
vt 0.265625 0.84375
vt 0.28125 0.84375
vt 0.265625 0.6875
vt 0.28125 0.6875
vt 0.265625 1
vt 0.28125 1
vt 0.265625 0.84375
vt 0.28125 0.84375
vt 0.453125 0.421875
vt 0.453125 0.4375
vt 0.6953125 0.4375
vt 0.6953125 0.421875
vt 0.453125 0.421875
vt 0.453125 0.4375
vt 0.6953125 0.4375
vt 0.6953125 0.421875
vt 0.34375 0.734375
vt 0.3125 0.734375
vt 0.34375 0.984375
vt 0.3125 0.984375
vt 0.359375 0.75
vt 0.34375 0.75
vt 0.359375 0.5
vt 0.34375 0.5
vt 0.265625 0.84375
vt 0.28125 0.84375
vt 0.265625 0.6875
vt 0.28125 0.6875
vt 0.265625 1
vt 0.28125 1
vt 0.265625 0.84375
vt 0.28125 0.84375
vt 0.546875 0.828125
vt 0.546875 1
vt 0.3125 1
vt 0.3125 0.828125
vt 0.546875 0.65625
vt 0.546875 0.828125
vt 0.3125 0.828125
vt 0.3125 0.65625
vt 0.28125 0.65625
vt 0.28125 0.421875
vt 0.296875 0.421875
vt 0.296875 0.65625
vt 0.296875 0.421875
vt 0.296875 0.65625
vt 0.3125 0.65625
vt 0.3125 0.421875
vt 0.4375 0.484375
vt 0.4375 0.65625
vt 0.421875 0.65625
vt 0.421875 0.484375
vt 0.421875 0.484375
vt 0.421875 0.65625
vt 0.40625 0.65625
vt 0.40625 0.484375
vn -0.9999203071370127 0.0005506820719152012 -0.012612538375673853
vn 2.2204460492492013e-16 -0.0000010007245245173921 -0.9999999999994993
vn -9.686236388104179e-18 0.9990480668751163 0.04362293058808852
vn 2.2183326248551605e-16 0.04361992133372359 -0.9990481982681515
vn 9.686236388104182e-18 -0.9990480668751163 -0.04362293058808853
vn -2.2183326248551607e-16 -0.043619921333723825 0.9990481982681516
vn 0.9999203071370127 0.0005506820719152034 -0.012612538375673412
vn 5.4839301242109795e-22 -0.9999999999969503 -0.0000024697425663922405
vn 0 1 0
vn -2.220446049250313e-16 0 1
vn -9.928680917969825e-19 -0.999990002881687 0.004471480368244946
vn 8.75731272431356e-17 0.9189413112858328 -0.3943943032198545
vn -2.2184281684971615e-16 -0.0426229930175332 0.9990912272992029
vn 0.9999999923241564 0.00001053252689054889 0.00012345344492276542
vn -0.9999999925428312 -0.00012212427115572075 -2.2204460326920721e-16
vn 1.926709126931765e-16 0.49706614848645136 -0.867712650610123
vn -0.9999999882904824 0.0001471065455923716 0.000042174631401121484
vn -0.9999999889695153 -0.00013584095518434977 0.00006006833256236759
vn 0.9999999909879248 0.00009153188064412364 -0.00009821438306222456
vn 0.9999999930470104 0.00006749921125315402 -0.00009669454864658225
vn 2.220446049250313e-16 0 -1
vn -2.220446049250313e-16 0 1
vn 0 1 0
vn 0 -1 0
vn 1 0 -1.8080774972466834e-15
vn -1 0 -2.220446049250313e-16
vn 0 0 0
vn 0 0 0
vn 2.220446049250313e-16 0 -1
vn -2.220446049250313e-16 0 1
vn 0 0 0
vn 0 0 0
vn 0 0 0
vn 0 0 0
vn 0 0 0
vn 0 0 0
vn 1 0 2.220446049250313e-16
vn -1 0 -2.220446049250313e-16
vn 0 0 0
vn 0 0 0
vn 0 0 0
vn 0 0 0
vn 1 0 2.220446049250313e-16
vn -1 0 -2.220446049250313e-16
vn 0 0 0
vn 0 0 0
vn 3.745416908491663e-17 0.5372973105421461 -0.8433929096715105
vn -3.745416908491663e-17 -0.5372973105421461 0.8433929096715105
vn 0 0 0
vn 0 0 0
vn 0 0 0
vn 0 0 0
vn 1.8727170010584923e-16 0.537291268515016 -0.8433967588137419
vn -1.8727170010584923e-16 -0.537291268515016 0.8433967588137419
vn 0 0 0
vn 0 0 0
vn 0 0 0
vn 0 0 0
vn 0 0 0
vn 0 0 0
vn 1 0 2.220446049250313e-16
vn -1 0 -2.220446049250313e-16
vn 0 0 0
vn 0 0 0
vn 0 0 0
vn 0 0 0
vn 1 0 2.220446049250313e-16
vn -1 0 -2.220446049250313e-16
vn 0 0 0
vn 0 0 0
vn 0 0 0
vn 0 0 0
vn 1 0 2.220446049250313e-16
vn -1 0 -2.220446049250313e-16
vn 0 0 0
vn 0 0 0
vn 2.220446049250313e-16 0 -1
vn -2.220446049250313e-16 0 1
vn 0 0 0
vn 0 0 0
vn 0 0 0
vn 0 0 0
vn 0 0 0
vn 0 0 0
vn 1 0 2.220446049250313e-16
vn -1 0 -2.220446049250313e-16
vn 1.3745618400120986e-16 0 -1
vn -2.220446049250313e-16 0 1
vn 0 1 0
vn 0 -1 0
vn 1 0 2.220446049250313e-16
vn -1 0 -2.220446049250313e-16
vn 1.3745618400120986e-16 0 -1
vn -1.3745618400120986e-16 0 1
vn 0 0 0
vn 0 0 0
vn 0 0 0
vn 0 0 0
vn 2.220446049250313e-16 0 -1
vn -2.220446049250313e-16 0 1
vn 0 0 0
vn 0 0 0
vn 0 0 0
vn 0 0 0
vn 2.220446049250313e-16 0 -1
vn -2.220446049250313e-16 0 1
vn 0 1 0
vn 0 -1 0
vn 1 0 2.220446049250313e-16
vn -1 0 -2.220446049250313e-16
usemtl m_e41ae5bd-0071-b164-96f2-589955b1c576
f 19/1/1 20/2/1 21/3/1 22/4/1
f 12/5/2 16/6/2 15/7/2 13/8/2
f 20/9/3 19/10/3 7/11/3 9/12/3
f 21/13/4 20/14/4 9/15/4 10/16/4
f 22/17/5 21/18/5 10/19/5 8/20/5
f 19/21/6 22/22/6 8/23/6 7/24/6
f 7/25/7 8/26/7 10/27/7 9/28/7
f 17/29/8 18/30/8 16/31/8 12/32/8
f 27/33/9 24/34/9 23/35/9 26/36/9
f 24/37/10 27/38/10 28/39/10 25/40/10
f 29/41/11 30/42/11 25/43/11 28/44/11
f 14/45/12 26/46/12 23/47/12 11/48/12
f 30/49/13 29/50/13 18/51/13 17/52/13
f 25/53/14 30/54/14 23/55/14 24/56/14
f 27/57/15 26/58/15 29/59/15 28/60/15
f 11/61/16 13/62/16 15/63/16 14/64/16
f 29/65/17 15/66/17 16/67/17 18/68/17
f 14/69/18 15/70/18 29/71/18 26/72/18
f 13/73/19 30/74/19 17/75/19 12/76/19
f 23/77/20 30/78/20 13/79/20 11/80/20
usemtl m_a5fc27c0-4507-3268-1191-96744ad00e52
f 35/81/21 33/82/21 32/83/21 34/84/21
f 38/85/22 36/86/22 37/87/22 39/88/22
f 32/89/23 33/90/23 37/91/23 36/92/23
f 35/93/24 34/94/24 38/95/24 39/96/24
f 34/97/25 32/98/25 36/99/25 38/100/25
f 39/101/26 37/102/26 33/103/26 35/104/26
f 41/105/27 40/106/27 43/107/27 42/108/27
f 44/109/28 45/110/28 46/111/28 47/112/28
f 40/113/29 41/114/29 45/115/29 44/116/29
f 43/117/30 42/118/30 46/119/30 47/120/30
f 40/121/31 44/122/31 42/123/31 46/124/31
f 45/125/32 41/126/32 47/127/32 43/128/32
f 49/129/33 48/130/33 51/131/33 50/132/33
f 52/133/34 53/134/34 54/135/34 55/136/34
f 49/137/35 53/138/35 48/139/35 52/140/35
f 50/141/36 54/142/36 51/143/36 55/144/36
f 50/145/37 48/146/37 52/147/37 54/148/37
f 55/149/38 53/150/38 49/151/38 51/152/38
f 57/153/39 56/154/39 59/155/39 58/156/39
f 60/157/40 61/158/40 62/159/40 63/160/40
f 57/161/41 61/162/41 56/163/41 60/164/41
f 58/165/42 62/166/42 59/167/42 63/168/42
f 58/169/43 56/170/43 60/171/43 62/172/43
f 63/173/44 61/174/44 57/175/44 59/176/44
f 65/177/45 64/178/45 67/179/45 66/180/45
f 68/181/46 69/182/46 70/183/46 71/184/46
f 64/185/47 65/186/47 69/187/47 68/188/47
f 67/189/48 66/190/48 70/191/48 71/192/48
f 64/193/49 68/194/49 66/195/49 70/196/49
f 69/197/50 65/198/50 71/199/50 67/200/50
f 73/201/51 72/202/51 75/203/51 74/204/51
f 76/205/52 77/206/52 78/207/52 79/208/52
f 72/209/53 73/210/53 77/211/53 76/212/53
f 75/213/54 74/214/54 78/215/54 79/216/54
f 72/217/55 76/218/55 74/219/55 78/220/55
f 77/221/56 73/222/56 79/223/56 75/224/56
f 81/225/57 80/226/57 83/227/57 82/228/57
f 84/229/58 85/230/58 86/231/58 87/232/58
f 81/233/59 85/234/59 80/235/59 84/236/59
f 82/237/60 86/238/60 83/239/60 87/240/60
f 82/241/61 80/242/61 84/243/61 86/244/61
f 87/245/62 85/246/62 81/247/62 83/248/62
f 89/249/63 88/250/63 91/251/63 90/252/63
f 92/253/64 93/254/64 94/255/64 95/256/64
f 89/257/65 93/258/65 88/259/65 92/260/65
f 90/261/66 94/262/66 91/263/66 95/264/66
f 90/265/67 88/266/67 92/267/67 94/268/67
f 95/269/68 93/270/68 89/271/68 91/272/68
f 97/273/69 96/274/69 99/275/69 98/276/69
f 100/277/70 101/278/70 102/279/70 103/280/70
f 97/281/71 101/282/71 96/283/71 100/284/71
f 98/285/72 102/286/72 99/287/72 103/288/72
f 98/289/73 96/290/73 100/291/73 102/292/73
f 103/293/74 101/294/74 97/295/74 99/296/74
f 105/297/75 104/298/75 107/299/75 106/300/75
f 108/301/76 109/302/76 110/303/76 111/304/76
f 104/305/77 105/306/77 109/307/77 108/308/77
f 107/309/78 106/310/78 110/311/78 111/312/78
f 104/313/79 108/314/79 106/315/79 110/316/79
f 109/317/80 105/318/80 111/319/80 107/320/80
f 113/321/81 112/322/81 115/323/81 114/324/81
f 116/325/82 117/326/82 118/327/82 119/328/82
f 113/329/83 117/330/83 112/331/83 116/332/83
f 114/333/84 118/334/84 115/335/84 119/336/84
f 114/337/85 112/338/85 116/339/85 118/340/85
f 119/341/86 117/342/86 113/343/86 115/344/86
f 123/345/87 121/346/87 120/347/87 122/348/87
f 125/349/88 31/350/88 124/351/88 126/352/88
f 120/353/89 121/354/89 124/355/89 31/356/89
f 123/357/90 122/358/90 125/359/90 126/360/90
f 122/361/91 120/362/91 31/363/91 125/364/91
f 126/365/92 124/366/92 121/367/92 123/368/92
f 130/369/93 128/370/93 127/371/93 129/372/93
f 133/373/94 131/374/94 132/375/94 134/376/94
f 128/377/95 132/378/95 127/379/95 131/380/95
f 129/381/96 133/382/96 130/383/96 134/384/96
f 127/385/97 131/386/97 129/387/97 133/388/97
f 132/389/98 128/390/98 134/391/98 130/392/98
f 138/393/99 136/394/99 135/395/99 137/396/99
f 141/397/100 139/398/100 140/399/100 142/400/100
f 136/401/101 140/402/101 135/403/101 139/404/101
f 137/405/102 141/406/102 138/407/102 142/408/102
f 135/409/103 139/410/103 137/411/103 141/412/103
f 140/413/104 136/414/104 142/415/104 138/416/104
f 146/417/105 144/418/105 143/419/105 145/420/105
f 149/421/106 147/422/106 148/423/106 150/424/106
f 143/425/107 144/426/107 148/427/107 147/428/107
f 146/429/108 145/430/108 149/431/108 150/432/108
f 145/433/109 143/434/109 147/435/109 149/436/109
f 150/437/110 148/438/110 144/439/110 146/440/110