# Made in Blockbench 4.12.5
mtllib df5_carport_4_lh.mtl

o cube_selection
v 1.0001381249999999 -0.0000012499999999526779 1.0061256249999997
v 1.000080625 0.65833125 1.0342112499999998
v 0.00013812500000004446 -0.0000012499999999526779 1.0061256250000001
v 0.00011937500000003265 0.65833125 1.03421125
v 0.10631812499999993 0.14687687500000002 0.613190625
v 0.10631812499999993 0.14687687500000002 0.607749375
v 0.10631812499999993 0.14687687500000002 0.607749375
v 0.10631812499999993 0.14687687500000002 0.613190625
v 0.10631812499999993 0.14687687500000002 0.607749375
v 0.10631812499999993 0.14687687500000002 0.607749375
v 1.0008431249999998 0.62309875 0.5191593749999999
v 1.0008431249999998 0.560658125 0.5164331249999998
v 1.000063125 0.62579375 0.45743874999999984
v 1.000063125 0.563353125 0.45471249999999985
v 1.000061875 0.920315 0.6694287499999998
v 0.9999999999999999 0 0.49999999999999983
v 1.00003125 0.6245475 0.49999937499999986
v 0.6875618749999999 0.920315 0.6694287499999999
v 1.0000606250000001 1.129163125 1.1560462499999997
v 1.000061875 1.129163125 1.4997962499999997
v 1.0000231250000002 0.660413125 1.4997962499999997
v 0.6875618750000001 1.129163125 1.15604625
v 0.6875618750000001 1.129163125 1.4997962499999997
v 0.6876006250000002 0.660413125 1.4997962499999997
v 0.10631812499999993 0.14687687500000002 0.613190625
v 0.10631812499999993 0.14687687500000002 0.607749375
v 0.10631812499999993 0.14687687500000002 0.607749375
v 0.10631812499999993 0.14687687500000002 0.613190625
v 0.10631812499999993 0.14687687500000002 0.607749375
v 0.10631812499999993 0.14687687500000002 0.607749375
v 0.6875618749999999 0.84654125 0.6427356249999999
v 0.6875312499999999 0.6245475 0.4999993749999999
v 0.00006187499999993351 0.84654125 0.642735625
v 0.00009187499999996351 0.6245475 0.4999993750000001
v -5.551115123125783e-17 0 0.5
v -0.00040687500000002874 0.62309875 0.5191593750000001
v 0.00037312499999997417 0.62579375 0.45743875000000006
v 0.00037312499999997417 0.563353125 0.4547125000000001
v -0.00040687500000002874 0.560658125 0.516433125
v 0.6875606250000001 0.8465425 1.18729625
v 0.6875618750000001 0.8465425 1.4997962499999997
v 0.00006187500000010004 0.8465425 1.1872962500000002
v 0.00006187500000015556 0.8465425 1.4997962500000002
v 0.00010062500000018737 0.660413125 1.4997962500000002
vt 0 0.515625
vt 0 0.6875
vt 0.25 0.6875
vt 0.25 0.515625
vt 0.015625 0.953125
vt 0 0.953125
vt 0 0.96875
vt 0.015625 0.96875
vt 0.5314640625 0.59375
vt 0.5314640625 0.671875
vt 0.6174015625 0.671875
vt 0.6174015625 0.59375
vt 0.265625 1
vt 0.34375 1
vt 0.34375 0.875
vt 0.265625 0.875
vt 0.7497859375 0.59375
vt 0.6174015625 0.59375
vt 0.6174015625 0.671875
vt 0.7497859375 0.671875
vt 0.24997421875 0.8828121875
vt 0.13357890625 0.882291875
vt 0.16403671875 0.9999996875
vt 0.24997421875 0.9999996875
vt 0.234375 0.703125
vt 0.15625 0.703125
vt 0.15625 0.78125
vt 0.234375 0.78125
vt 0.00002578125 0.87384328125
vt 0.13357875 0.882291875
vt 0.12656234375 0.71770875
vt 0.00003109375 0.7177057812500001
vt 0.16403671875 1
vt 0.13357890625 0.882291875
vt 0.00002578125 0.87384328125
vt 0.04238265625 0.9477859375
vt 0 1
vt 0.015625 1
vt 0.015625 0.984375
vt 0 0.984375
vt 0.4241171875 0.828125
vt 0.4241171875 1
vt 0.5022421875 1
vt 0.5022421875 0.828125
vt 0.265625 0.453125
vt 0.4375 0.453125
vt 0.4375 0.40625
vt 0.265625 0.40625
vt 0.6383828125 0.828125
vt 0.5022421875 0.828125
vt 0.5022421875 1
vt 0.6383828125 1
vt 0.15627546875 0.8593740625
vt 0.23440046875 0.859375
vt 0.27267125 0.81232234375
vt 0.1562759375 0.81284125
vt 0.703125 0.5625
vt 0.703125 0.5
vt 0.53125 0.5
vt 0.53125 0.5625
vt 0.27267140625 0.81232234375
vt 0.40622453125 0.80387703125
vt 0.40622453125 0.6477395312500001
vt 0.27969328125 0.6477395312500001
vt 0.37053953125 0.859375
vt 0.40622453125 0.80387703125
vt 0.27267125 0.81232234375
vt 0.23440046875 0.859375
vt 0.515625 0.359375
vt 0.515625 0.34375
vt 0.265625 0.34375
vt 0.265625 0.359375
vt 0.5233984375 0.390625
vt 0.52359375 0.375
vt 0.27328125 0.375
vt 0.2734765625 0.390625
vt 0.8046484375 0.390625
vt 0.80484375 0.375
vt 0.55453125 0.375
vt 0.5547265625 0.390625
vt 0 0.359375
vt 0 0.375
vt 0.25 0.375
vt 0.25 0.359375
vt 0.265625 0.46875
vt 0.2656484375 0.625
vt 0.515625 0.625
vt 0.515625 0.46875
vt 0 0.390625
vt 0 0.5
vt 0.25 0.5
vt 0.25 0.390625
vt 0.6796703125 0.8125
vt 0.6797046875 0.6875
vt 0.4297046875 0.6875
vt 0.4296703125 0.8125
vt 0.36549890625 0.97214421875
vt 0.36887609375 0.99146515625
vt 0.36887609375 0.90625
vt 0.70088203125 0.484375
vt 0.61494453125 0.484375
vt 0.49329140625 0.43216406249999995
vt 0.49329140625 0.43216406249999995
vt 0.48661796875 0.41372031249999996
vt 0.70088203125 0.41372031249999996
vt 0.70088203125 0.484375
vn 2.2184281684971615e-16 -0.0426229930175332 0.9990912272992029
vn 0.9999203071370127 0.0005506820719152006 -0.01261253837567386
vn 0 1 0
vn 2.220446049250313e-16 0 1
vn -8.757312724313559e-17 0.9189413112858327 -0.39439430321985447
vn 0.9999999923241564 0.000010532526890548888 0.00012345344492232133
vn -1.926709126931765e-16 0.4970661484864512 -0.867712650610123
vn 0.9999999909879248 0.00009153188064395453 -0.00009821438306265796
vn 0.9999999930470104 0.00006749921125315402 -0.00009669454864702635
vn -0.9999203071370127 0.0005506820719152012 -0.012612538375673414
vn 0 1 0
vn 2.220446049250313e-16 0 1
vn -5.096875231202224e-22 0.9999999999973657 -0.000002295428539199625
vn -0.9999999533325034 -0.0003055077595872036 2.2204459456276545e-16
vn -1.8676919830270975e-16 0.5408272481890117 -0.8411336918803699
vn -0.9999999882904824 0.0001471065455923716 0.00004217463140146165
vn -0.9999999826655461 -0.00017536859378414245 0.00006256807423765014
vn 2.2183326248551607e-16 -0.04361992133372358 0.9990481982681516
vn 9.686236388104184e-18 0.9990480668751163 0.04362293058808854
vn -9.686236388104184e-18 -0.9990480668751163 -0.04362293058808854
vn -2.2183326248551605e-16 0.04361992133372357 -0.9990481982681515
vn -2.2204460492492015e-16 -0.0000010007245245173923 -0.9999999999994994
vn 9.928680917969692e-19 -0.9999900028816872 0.004471480368244886
vn -5.483930123967444e-22 -0.9999999999969503 -0.000002469742566282562
vn -0.9999998638571025 -0.00017753939088702383 0.0004906786537154232
vn -1 0 2.220446049250313e-16
vn -1 0 2.220446049250313e-16
usemtl m_5455d5f0-9cf0-048c-2271-6e34ca6b6e08
f 1/1/1 2/2/1 4/3/1 3/4/1
f 11/5/2 12/6/2 14/7/2 13/8/2
f 23/9/3 20/10/3 19/11/3 22/12/3
f 20/13/4 23/14/4 24/15/4 21/16/4
f 18/17/5 22/18/5 19/19/5 15/20/5
f 21/21/6 2/22/6 19/23/6 20/24/6
f 15/25/7 17/26/7 32/27/7 18/28/7
f 17/29/8 2/30/8 1/31/8 16/32/8
f 19/33/9 2/34/9 17/35/9 15/36/9
f 36/37/10 37/38/10 38/39/10 39/40/10
f 43/41/11 41/42/11 40/43/11 42/44/11
f 41/45/12 43/46/12 44/47/12 24/48/12
f 33/49/13 42/50/13 40/51/13 31/52/13
f 43/53/14 42/54/14 4/55/14 44/56/14
f 31/57/15 32/58/15 34/59/15 33/60/15
f 4/61/16 34/62/16 35/63/16 3/64/16
f 33/65/17 34/66/17 4/67/17 42/68/17
f 36/69/18 39/70/18 12/71/18 11/72/18
f 37/73/19 36/74/19 11/75/19 13/76/19
f 14/77/20 12/78/20 39/79/20 38/80/20
f 38/81/21 37/82/21 13/83/21 14/84/21
f 35/85/22 34/86/22 17/87/22 16/88/22
f 2/89/23 21/90/23 44/91/23 4/92/23
f 16/93/24 1/94/24 3/95/24 35/96/24
f 31/97/25 18/98/25 32/99/25
f 23/100/26 22/101/26 18/102/26
f 18/103/27 31/104/27 41/105/27 23/106/27