# Made in Blockbench 4.12.5
mtllib df5_carport_5.mtl

o cube
v 0.893681875 0.14687687499999996 0.6131906250000001
v 0.893681875 0.14687687499999996 0.607749375
v 0.893681875 0.14687687499999996 0.607749375
v 0.893681875 0.14687687499999996 0.6131906250000001
v 0.893681875 0.14687687499999996 0.607749375
v 0.893681875 0.14687687499999996 0.607749375
v -0.0008431249999999446 0.62309875 0.5191593749999999
v -0.0008431249999999446 0.560658125 0.5164331249999998
v -0.0000631249999999417 0.6257937499999999 0.4574387499999999
v -0.0000631249999999417 0.563353125 0.45471249999999985
v -0.00006187499999998902 0.84654125 0.6427356249999998
v 1.1102230246251565e-16 0 0.4999999999999999
v -0.00003124999999992717 0.6245475 0.49999937499999986
v 0.999938125 0.84654125 0.642735625
v 0.999908125 0.6245475 0.4999993750000001
v 1 0 0.5000000000000001
v -0.00013812499999998895 -0.000001250000000008189 1.006125625
v 0.9998618749999999 -0.000001250000000008189 1.0061256250000001
v 1.000406875 0.62309875 0.5191593750000001
v 0.999626875 0.6257937499999999 0.4574387500000001
v 0.999626875 0.563353125 0.4547125000000001
v 1.000406875 0.560658125 0.516433125
v -0.000060625000000147367 0.8465425 1.18729625
v -0.00006187500000010004 0.8465425 1.4997962499999997
v -0.00002312500000012374 0.6604131249999999 1.4997962499999997
v 0.9999381249999999 0.8465425 1.1872962500000002
v 0.9999381249999998 0.8465425 1.4997962500000002
v 0.9998993749999998 0.6604131249999999 1.4997962500000002
v 0.9998806249999999 0.65833125 1.03421125
v -0.00008062500000016737 0.65833125 1.0342112499999998
vt 0.234375 0.6875
vt 0.25 0.6875
vt 0.25 0.671875
vt 0.234375 0.671875
vt 0.257796875 0.9217625
vt 0.2578203125 0.765625
vt 0.0078203125 0.765625
vt 0.0078125 0.9217625
vt 0.77359375 0.5
vt 0.52328125 0.5
vt 0.5234765625 0.515625
vt 0.7733984375 0.515625
vt 0.515625 0.484375
vt 0.765625 0.484375
vt 0.765625 0.46875
vt 0.515625 0.46875
vt 0.500390625 0.54985671875
vt 0.75 0.5466965625
vt 0.75 0.53125
vt 0.5 0.534415
vt 0.796875 0.984375
vt 0.546875 0.984375
vt 0.546875 1
vt 0.796875 1
vt 0.28125 0.671875
vt 0.265625 0.671875
vt 0.265625 0.6875
vt 0.28125 0.6875
vt 0.4922046875 0.515625
vt 0.4921703125 0.390625
vt 0.2421703125 0.390625
vt 0.2422046875 0.515625
vt 0.1383828125 0.75
vt 0.2165078125 0.75
vt 0.2165078125 0.5
vt 0.1383828125 0.5
vt 0.5 0.578125
vt 0.5 0.625
vt 0.75 0.625
vt 0.75 0.578125
vt 0.75 0.75
vt 0.75 0.640625
vt 0.5 0.640625
vt 0.5 0.75
vt 0.1383828125 0.75
vt 0.1383828125 0.5
vt 0.0022421875 0.5
vt 0.0022421875 0.75
vt 0.484375 0.765625
vt 0.484375 0.9375
vt 0.734375 0.9375
vt 0.734375 0.765625
vt 0.3125259375 0.74999921875
vt 0.35079625 0.7029460937500001
vt 0.2344009375 0.70346640625
vt 0.2344009375 0.74999921875
vt 0.41482796875 0.9529471875
vt 0.4531003125 1
vt 0.5312253125 0.999999375
vt 0.53122484375 0.9534665625000001
vt 0.257859375 0.92174375
vt 0.007875 0.92174375
vt 0.0078671875 0.98424375
vt 0.2578671875 0.98424375
vt 0.2812746875 0.788364375
vt 0.2812746875 0.944501875
vt 0.4148278125 0.9529471875
vt 0.4078059375 0.788364375
vt 0.41482796875 0.9529471875
vt 0.2812746875 0.944501875
vt 0.31695984375 0.99999984375
vt 0.45309890625 0.99999828125
vt 0.357813125 0.538363125
vt 0.35079625 0.7029460937500001
vt 0.4843490625 0.694498125
vt 0.484344375 0.5383606249999999
vt 0.4843490625 0.694498125
vt 0.35079625 0.7029460937500001
vt 0.3125253125 0.75
vt 0.4486659375 0.74999734375
vn 0.9999203071370127 0.0005506820719152117 -0.012612538375673414
vn 2.2204460492492013e-16 -0.0000010007245246062742 -0.9999999999994993
vn -9.686236388104184e-18 0.9990480668751163 0.04362293058808854
vn 2.2183326248551605e-16 0.04361992133372445 -0.9990481982681515
vn 9.686236388104125e-18 -0.9990480668751163 -0.04362293058808828
vn -2.2183326248551607e-16 -0.04361992133372358 0.9990481982681516
vn -0.9999203071370127 0.0005506820719152007 -0.01261253837567385
vn 5.4839301242109795e-22 -0.9999999999969503 -0.0000024697425663922405
vn 0 1 0
vn -2.220446049250313e-16 0 1
vn -9.928680917969694e-19 -0.999990002881687 0.004471480368244887
vn 5.096875231428571e-22 0.9999999999973656 -0.0000022954285393015623
vn -2.2184281684971615e-16 -0.04262299301753316 0.9990912272992029
vn -0.9999999923600148 0.0000058334056655184075 0.00012347445716511744
vn 0.9999999533325034 -0.0003055077595872036 2.2204459456276545e-16
vn 1.8676919830270975e-16 0.540827248189012 -0.8411336918803699
vn 0.9999999882904824 0.00014710654559228273 0.0000421746314015712
vn 0.9999999826655461 -0.00017536859378395144 0.00006256807423774196
vn -0.9999999909879248 0.00009153188064395453 -0.00009821438306265799
vn -0.9999999762437527 0.00019127874960646793 -0.00010452240936087312
usemtl m_db48922b-67ed-c65a-1c9e-0ceaaccf1494
f 21/1/1 20/2/1 19/3/1 22/4/1
f 15/5/2 16/6/2 12/7/2 13/8/2
f 7/9/3 19/10/3 20/11/3 9/12/3
f 9/13/4 20/14/4 21/15/4 10/16/4
f 10/17/5 21/18/5 22/19/5 8/20/5
f 8/21/6 22/22/6 19/23/6 7/24/6
f 10/25/7 8/26/7 7/27/7 9/28/7
f 16/29/8 18/30/8 17/31/8 12/32/8
f 23/33/9 24/34/9 27/35/9 26/36/9
f 28/37/10 27/38/10 24/39/10 25/40/10
f 25/41/11 30/42/11 29/43/11 28/44/11
f 23/45/12 26/46/12 14/47/12 11/48/12
f 18/49/13 29/50/13 30/51/13 17/52/13
f 23/53/14 30/54/14 25/55/14 24/56/14
f 29/57/15 26/58/15 27/59/15 28/60/15
f 15/61/16 13/62/16 11/63/16 14/64/16
f 16/65/17 15/66/17 29/67/17 18/68/17
f 29/69/18 15/70/18 14/71/18 26/72/18
f 17/73/19 30/74/19 13/75/19 12/76/19
f 13/77/20 30/78/20 23/79/20 11/80/20