# Made in Blockbench 4.12.5
mtllib df5_carport_3_lh.mtl

o cube_selection
v -0.00013812499999998895 -0.0000012499999999526779 1.0061256250000001
v -0.00008062499999994532 0.65833125 1.03421125
v 0.9998618750000001 -0.0000012499999999526779 1.006125625
v 0.9998806250000001 0.65833125 1.0342112499999998
v 0.893681875 0.14687687500000002 0.6131906249999999
v 0.893681875 0.14687687500000002 0.6077493749999999
v 0.893681875 0.14687687500000002 0.6077493749999999
v 0.893681875 0.14687687500000002 0.6131906249999999
v 0.893681875 0.14687687500000002 0.6077493749999999
v 0.893681875 0.14687687500000002 0.6077493749999999
v -0.0008431250000000556 0.62309875 0.5191593750000001
v -0.0008431250000000556 0.560658125 0.516433125
v -0.00006312500000005272 0.62579375 0.45743875000000006
v -0.00006312500000005272 0.563353125 0.4547125000000001
v -0.00006187499999998902 0.920315 0.66942875
v -1.1102230246251565e-16 0 0.5
v -0.00003125000000003819 0.6245475 0.4999993750000001
v 0.374938125 0.920315 0.66942875
v -0.0000606249999998143 1.129163125 1.1560462500000002
v -0.000061874999999878 1.129163125 1.4997962500000002
v -0.000023124999999790674 0.660413125 1.4997962500000002
v 0.3749381250000001 1.129163125 1.15604625
v 0.37493812500000023 1.129163125 1.49979625
v 0.3748993750000002 0.660413125 1.49979625
v 0.893681875 0.14687687500000002 0.6131906249999999
v 0.893681875 0.14687687500000002 0.6077493749999999
v 0.893681875 0.14687687500000002 0.6077493749999999
v 0.893681875 0.14687687500000002 0.6131906249999999
v 0.893681875 0.14687687500000002 0.6077493749999999
v 0.893681875 0.14687687500000002 0.6077493749999999
v 0.374938125 0.84654125 0.642735625
v 0.37496874999999996 0.6245475 0.499999375
v 0.999938125 0.84654125 0.6427356249999998
v 0.9999081249999999 0.6245475 0.49999937499999986
v 1 0 0.49999999999999983
v 1.000406875 0.62309875 0.5191593749999999
v 0.9996268749999999 0.62579375 0.45743874999999984
v 0.9996268749999999 0.563353125 0.45471249999999985
v 1.000406875 0.560658125 0.5164331249999998
v 0.3124393750000002 0.8465425 1.18729625
v 0.37493812500000023 0.8465425 1.49979625
v 0.9999381250000001 0.8465425 1.1872962499999997
v 0.9999381250000002 0.8465425 1.4997962499999997
v 0.9998993750000003 0.660413125 1.4997962499999997
vt 0.25 0.6875
vt 0 0.6875
vt 0 0.515625
vt 0.25 0.515625
vt 0 0.96875
vt 0 0.953125
vt 0.015625 0.953125
vt 0.015625 0.96875
vt 0.6638484375 0.578125
vt 0.7497859375 0.578125
vt 0.7497859375 0.671875
vt 0.6638484375 0.671875
vt 0.359375 0.875
vt 0.359375 1
vt 0.265625 1
vt 0.265625 0.875
vt 0.6638484375 0.578125
vt 0.6638484375 0.671875
vt 0.5314640625 0.671875
vt 0.5314640625 0.578125
vt 0.16403671875 0.9999996875
vt 0.13357890625 0.882291875
vt 0.24997421875 0.8828121875
vt 0.24997421875 0.9999996875
vt 0.15625 0.703125
vt 0.25 0.703125
vt 0.25 0.78125
vt 0.15625 0.78125
vt 0.12656234375 0.71770875
vt 0.13357875 0.882291875
vt 0.00002578125 0.87384328125
vt 0.00003109375 0.7177057812500001
vt 0.00002578125 0.87384328125
vt 0.13357890625 0.882291875
vt 0.16403671875 1
vt 0.04238265625 0.9477859375
vt 0.015625 0.984375
vt 0.015625 1
vt 0 1
vt 0 0.984375
vt 0.5602578125 0.828125
vt 0.6383828125 0.84375
vt 0.6383828125 1
vt 0.5602578125 1
vt 0.6875 0.5
vt 0.6875 0.546875
vt 0.53125 0.546875
vt 0.53125 0.5
vt 0.5602578125 0.828125
vt 0.5602578125 1
vt 0.4241171875 1
vt 0.4241171875 0.84375
vt 0.27267125 0.81232234375
vt 0.23440046875 0.859375
vt 0.15627546875 0.8593740625
vt 0.1562759375 0.81284125
vt 0.265625 0.390625
vt 0.421875 0.390625
vt 0.421875 0.453125
vt 0.265625 0.453125
vt 0.40622453125 0.6477395312500001
vt 0.40622453125 0.80387703125
vt 0.27267140625 0.81232234375
vt 0.27969328125 0.6477395312500001
vt 0.27267125 0.81232234375
vt 0.40622453125 0.80387703125
vt 0.37053953125 0.859375
vt 0.23440046875 0.859375
vt 0.546875 0.34375
vt 0.796875 0.34375
vt 0.796875 0.359375
vt 0.546875 0.359375
vt 0.44515625 0.375
vt 0.69546875 0.375
vt 0.6952734375 0.390625
vt 0.4453515625 0.390625
vt 0.00765625 0.359375
vt 0.25796875 0.359375
vt 0.2577734375 0.375
vt 0.0078515625 0.375
vt 0.53125 0.359375
vt 0.28125 0.359375
vt 0.28125 0.34375
vt 0.53125 0.34375
vt 0.515625 0.625
vt 0.2656484375 0.625
vt 0.265625 0.46875
vt 0.515625 0.46875
vt 0.25 0.5
vt 0 0.5
vt 0 0.390625
vt 0.25 0.390625
vt 0.4297046875 0.6875
vt 0.6797046875 0.6875
vt 0.6796703125 0.8125
vt 0.4296703125 0.8125
vt 0.38450078125 0.99146390625
vt 0.38112421875 0.97214421875
vt 0.38450078125 0.90625
vt 0.61494453125 0.484375
vt 0.70088203125 0.484375
vt 0.49329140625 0.43216406249999995
vt 0.70088203125 0.41372031249999996
vt 0.48661796875 0.41372031249999996
vt 0.49329140625 0.43216406249999995
vt 0.70088203125 0.484375
vn 2.2184281684971615e-16 -0.0426229930175332 0.9990912272992029
vn -0.9999203071370127 0.0005506820719152012 -0.012612538375673414
vn 0 1 0
vn 2.220446049250313e-16 0 1
vn -8.757312724313559e-17 0.9189413112858328 -0.39439430321985447
vn -0.9999999923241564 0.000010532526890548896 0.00012345344492276542
vn -1.926709126931765e-16 0.4970661484864512 -0.867712650610123
vn -0.9999999909879248 0.00009153188064412364 -0.00009821438306222459
vn -0.9999999930470104 0.00006749921125315402 -0.00009669454864658225
vn 0.9999203071370127 0.0005506820719152006 -0.01261253837567386
vn 0 1 0
vn 2.220446049250313e-16 0 1
vn -5.096875231202224e-22 0.9999999999973657 -0.000002295428539199625
vn 0.9999999533325034 -0.0003055077595874985 -2.2204459456276545e-16
vn -1.8676919830270977e-16 0.5408272481890117 -0.84113369188037
vn 0.9999999882904824 0.0001471065455923716 0.00004217463140112149
vn 0.9999999826655461 -0.00017536859378421214 0.00006256807423731436
vn 2.2183326248551607e-16 -0.04361992133372358 0.9990481982681516
vn 9.686236388104184e-18 0.9990480668751163 0.04362293058808854
vn -9.686236388104184e-18 -0.9990480668751163 -0.04362293058808854
vn -2.2183326248551605e-16 0.04361992133372357 -0.9990481982681515
vn -2.2204460492492015e-16 -0.0000010007245245173923 -0.9999999999994994
vn 9.928680917969692e-19 -0.9999900028816872 0.004471480368244886
vn -5.483930123967444e-22 -0.9999999999969503 -0.000002469742566282562
vn 0.9999998638571025 -0.0001775393908870238 0.000490678653714979
vn 1 0 -2.220446049250313e-16
vn 1 0 -2.220446049250313e-16
usemtl m_6ea649b8-3b88-b447-efd2-14719871e76a
f 4/1/1 2/2/1 1/3/1 3/4/1
f 14/5/2 12/6/2 11/7/2 13/8/2
f 19/9/3 20/10/3 23/11/3 22/12/3
f 24/13/4 23/14/4 20/15/4 21/16/4
f 19/17/5 22/18/5 18/19/5 15/20/5
f 19/21/6 2/22/6 21/23/6 20/24/6
f 32/25/7 17/26/7 15/27/7 18/28/7
f 1/29/8 2/30/8 17/31/8 16/32/8
f 17/33/9 2/34/9 19/35/9 15/36/9
f 38/37/10 37/38/10 36/39/10 39/40/10
f 40/41/11 41/42/11 43/43/11 42/44/11
f 44/45/12 43/46/12 41/47/12 24/48/12
f 40/49/13 42/50/13 33/51/13 31/52/13
f 4/53/14 42/54/14 43/55/14 44/56/14
f 34/57/15 32/58/15 31/59/15 33/60/15
f 35/61/16 34/62/16 4/63/16 3/64/16
f 4/65/17 34/66/17 33/67/17 42/68/17
f 12/69/18 39/70/18 36/71/18 11/72/18
f 11/73/19 36/74/19 37/75/19 13/76/19
f 39/77/20 12/78/20 14/79/20 38/80/20
f 13/81/21 37/82/21 38/83/21 14/84/21
f 17/85/22 34/86/22 35/87/22 16/88/22
f 44/89/23 21/90/23 2/91/23 4/92/23
f 3/93/24 1/94/24 16/95/24 35/96/24
f 18/97/25 31/98/25 32/99/25
f 22/100/26 23/101/26 18/102/26
f 41/103/27 31/104/27 18/105/27 23/106/27