# Made in Blockbench 4.12.5
mtllib df5_floor.mtl

o cube
v 0.9999999999999999 0.5625 1
v -1.1102230246251565e-16 0.5625 0.9999999999999999
v 1 1 -0.06249999999999989
v 1.6653345369377348e-16 1 -0.06250000000000011
v 1 0.5625 0.7500000000000001
v 0 0.5625 0.7499999999999999
v 1.6653345369377348e-16 0.6875 -0.06250000000000011
v 1 0.6875 -0.06249999999999989
v 0.9999999999999999 1 1
v 0.9999999999999999 0.6875 1
v -1.1102230246251565e-16 0.6875 0.9999999999999999
v -1.1102230246251565e-16 1 0.9999999999999999
vt 0.7291666666666666 0.8333333333333334
vt 0.3958333333333333 0.8333333333333334
vt 0.3958333333333333 0.6875
vt 0.7291666666666666 0.6875
vt 0.3541666666666667 0.625
vt 0 0.625
vt 0 0.29166666666666663
vt 0.3541666666666667 0.29166666666666663
vt 0.09215729166666665 0.9791666666666666
vt 0.008823958333333333 0.9791666666666666
vt 0.008823958333333333 0.6458333333333333
vt 0.09215729166666665 0.6458333333333333
vt 0.375 0.35416666666666663
vt 0.7083333333333334 0.35416666666666663
vt 0.7083333333333334 0.45833333333333337
vt 0.375 0.45833333333333337
vt 0.3661760416666667 0.6458333333333333
vt 0.3661760416666667 0.9791666666666666
vt 0.09215729166666665 0.9791666666666666
vt 0.09215729166666665 0.6458333333333333
vt 0.7291666666666666 0.625
vt 0.375 0.625
vt 0.375 0.5208333333333333
vt 0.7291666666666666 0.5208333333333333
vt 0.4583333333333333 0.47916666666666663
vt 0.7291666666666666 0.5208333333333333
vt 0.375 0.5208333333333333
vt 0.375 0.47916666666666663
vt 0.3958333333333333 0.8958333333333334
vt 0.75 0.8958333333333334
vt 0.75 1
vt 0.3958333333333333 1
vt 0.75 0.8958333333333334
vt 0.3958333333333333 0.8958333333333334
vt 0.6666666666666666 0.8541666666666666
vt 0.75 0.8541666666666666
vn -2.220446049250313e-16 0 1
vn 0 1 0
vn 0 -1 0
vn 2.220446049250313e-16 0 -1
vn 3.3763477403679044e-17 -0.9883716976506172 -0.1520571842539411
vn 1 0 2.220446049250313e-16
vn 1 0 2.220446049250313e-16
vn -1 0 -2.220446049250313e-16
vn -1 0 -2.220446049250313e-16
usemtl m_c729a224-a75f-3203-7afb-f54e7075740b
f 9/1/1 12/2/1 2/3/1 1/4/1
f 4/5/2 12/6/2 9/7/2 3/8/2
f 5/9/3 1/10/3 2/11/3 6/12/3
f 8/13/4 7/14/4 4/15/4 3/16/4
f 7/17/5 8/18/5 5/19/5 6/20/5
f 3/21/6 9/22/6 10/23/6 8/24/6
f 5/25/7 8/26/7 10/27/7 1/28/7
f 7/29/8 11/30/8 12/31/8 4/32/8
f 11/33/9 7/34/9 6/35/9 2/36/9