# Made in Blockbench 4.12.5
mtllib df5_transit_floor_lh.mtl

o cube_selection
v 0.43750000000000006 0.5625 1
v 0.06250000000000011 0.5625 1
v 0.43750000000000006 1 1
v 0.06250000000000011 1 1
v 0.43750000000000006 0.5625 1
v 1 0.5625 0.9999999999999999
v 0.43749999999999983 1 -0.0625
v 0.9999999999999999 1 -0.06250000000000011
v 0.4375 0.5625 0.75
v 1 0.5625 0.7499999999999999
v 0.9999999999999999 0.6875 -0.06250000000000011
v 0.43749999999999983 0.6875 -0.0625
v 0.43750000000000006 1 1
v 0.43750000000000006 0.6875 1
v 1 0.6875 0.9999999999999999
v 1 1 0.9999999999999999
v 0.3437500000000001 0.5625 1
v 0.1562500000000001 0.5625 1
v 0.34374999999999983 1 -0.0625
v 0.1562499999999999 1 0.06250000000000011
v 0.34375 0.5625 0.75
v 0.15625000000000006 0.5625 0.75
v 0.1562499999999999 0.6875 0.06250000000000011
v 0.34374999999999983 0.6875 -0.0625
v 0.3437500000000001 1 1
v 0.1562500000000001 1 1
v 0.06250000000000011 1 1
v 0.06250000000000011 0.6875 1
v 0.06249999999999989 0.6875 0.06250000000000011
v 0.06249999999999989 1 0.06250000000000011
v 0.06250000000000006 0.5625 0.7500000000000001
v 0.06250000000000011 0.5625 1
v 0.43750000000000006 0.6875 1
v 0.43749999999999983 0.6875 -0.0625
v 0.4375 0.5625 0.75
v 0.43750000000000006 0.5625 1
v 0.43750000000000006 1 1
v 0.43749999999999983 1 -0.0625
vt 0.609375 0.890625
vt 0.5625 0.890625
vt 0.5625 0.78125
vt 0.609375 0.78125
vt 0.421875 0.375
vt 0.421875 0.484375
vt 0.28125 0.484375
vt 0.28125 0.375
vt 0.265625 0.703125
vt 0.265625 0.84375
vt 0 0.84375
vt 0 0.703125
vt 0.27463203125 0.859375
vt 0.27463203125 1
vt 0.21213203125 1
vt 0.21213203125 0.859375
vt 0.515625 0.59375
vt 0.515625 0.515625
vt 0.65625 0.515625
vt 0.65625 0.59375
vt 0.21213203125 1
vt 0.00661796875 1
vt 0.00661796875 0.859375
vt 0.21213203125 0.859375
vt 0.546875 0.640625
vt 0.546875 0.71875
vt 0.28125 0.71875
vt 0.28125 0.640625
vt 0.546875 0.640625
vt 0.28125 0.640625
vt 0.484375 0.609375
vt 0.546875 0.609375
vt 0.296875 1
vt 0.296875 0.921875
vt 0.5625 0.921875
vt 0.5625 1
vt 0.359375 0.890625
vt 0.5625 0.921875
vt 0.296875 0.921875
vt 0.296875 0.890625
vt 0.03125 0.4140625
vt 0.265625 0.4140625
vt 0.265625 0.4609375
vt 0 0.4609375
vt 0.43088234375 0.5234375
vt 0.49338234375 0.5234375
vt 0.49338234375 0.5703125
vt 0.43088234375 0.5703125
vt 0.45620703125 0.40625
vt 0.51254296875 0.40625
vt 0.51254296875 0.484375
vt 0.45620703125 0.484375
vt 0.2562534375 0.570550625
vt 0.22536765625 0.52343578125
vt 0.43088234375 0.5234375
vt 0.43088234375 0.5700723437499999
vt 0.546875 0.84375
vt 0.28125 0.84375
vt 0.28125 0.765625
vt 0.546875 0.765625
vt 0.34375 0.734375
vt 0.546875 0.765625
vt 0.28125 0.765625
vt 0.28125 0.734375
vt 0 0.609375
vt 0.234375 0.609375
vt 0.234375 0.6875
vt 0 0.6875
vt 0.234375 0.609375
vt 0 0.609375
vt 0.171875 0.578125
vt 0.234375 0.578125
vt 0.52035546875 0.40625
vt 0.54379296875 0.40625
vt 0.54379296875 0.484375
vt 0.52035546875 0.484375
vt 0.03125 0.4140625
vt 0.03125 0.390625
vt 0.265625 0.390625
vt 0.265625 0.4140625
vt 0.43088234375 0.5703125
vt 0.43088234375 0.59375
vt 0.25619015625 0.59375
vt 0.25619015625 0.5703125
vt 0.49338234375 0.5703125
vt 0.49338234375 0.59375
vt 0.43088234375 0.59375
vt 0.43088234375 0.5703125
vt 0.22536828125 0.5234375
vt 0.22536828125 0.5
vt 0.43088234375 0.5
vt 0.43088234375 0.5234375
vt 0.43088234375 0.5234375
vt 0.43088234375 0.5
vt 0.49338234375 0.5
vt 0.49338234375 0.5234375
vt 0.265625 0.4609375
vt 0.265625 0.484375
vt 0 0.484375
vt 0 0.4609375
vt 0.45230078125 0.484375
vt 0.42886328125 0.484375
vt 0.42886328125 0.40625
vt 0.45230078125 0.40625
vn 2.220446049250313e-16 0 1
vn 2.220446049250313e-16 0 1
vn 0 1 0
vn 0 -1 0
vn -2.220446049250313e-16 0 -1
vn -3.3763477403679044e-17 -0.9883716976506172 -0.1520571842539411
vn -1 0 2.220446049250313e-16
vn -1 0 2.220446049250313e-16
vn 1 0 -2.220446049250313e-16
vn 1 0 -2.220446049250313e-16
vn 0 1 0
vn 0 -1 0
vn -0.5547001962252294 0 -0.8320502943378436
vn -0.10085458113185987 -0.9833321660356334 -0.15128187169778975
vn 1 0 -2.220446049250313e-16
vn 1 0 -2.220446049250313e-16
vn -1 0 2.220446049250313e-16
vn -1 0 2.220446049250313e-16
vn -2.220446049250313e-16 0 -1
vn 0 1 0
vn -3.972054645195637e-17 -0.9838699100999075 -0.17888543819998318
vn 0 -1 0
vn -3.376347740367905e-17 -0.9883716976506173 -0.15205718425394113
vn 0 -1 0
vn 0 1 0
vn -2.220446049250313e-16 0 -1
usemtl m_e721b672-b40c-5c84-da18-270d2671c738
f 3/1/1 4/2/1 2/3/1 1/4/1
f 6/5/2 16/6/2 13/7/2 5/8/2
f 13/9/3 16/10/3 8/11/3 7/12/3
f 6/13/4 5/14/4 9/15/4 10/16/4
f 8/17/5 11/18/5 12/19/5 7/20/5
f 9/21/6 12/22/6 11/23/6 10/24/6
f 14/25/7 13/26/7 7/27/7 12/28/7
f 14/29/8 12/30/8 9/31/8 5/32/8
f 16/33/9 15/34/9 11/35/9 8/36/9
f 10/37/10 11/38/10 15/39/10 6/40/10
f 20/41/11 26/42/11 25/43/11 19/44/11
f 21/45/12 17/46/12 18/47/12 22/48/12
f 24/49/13 23/50/13 20/51/13 19/52/13
f 23/53/14 24/54/14 21/55/14 22/56/14
f 38/57/15 37/58/15 33/59/15 34/60/15
f 35/61/16 34/62/16 33/63/16 36/64/16
f 29/65/17 28/66/17 27/67/17 30/68/17
f 28/69/18 29/70/18 31/71/18 32/72/18
f 23/73/19 29/74/19 30/75/19 20/76/19
f 20/77/20 30/78/20 27/79/20 26/80/20
f 22/81/21 31/82/21 29/83/21 23/84/21
f 18/85/22 32/86/22 31/87/22 22/88/22
f 24/89/23 34/90/23 35/91/23 21/92/23
f 21/93/24 35/94/24 36/95/24 17/96/24
f 25/97/25 37/98/25 38/99/25 19/100/25
f 19/101/26 38/102/26 34/103/26 24/104/26