# Made in Blockbench 4.12.4
mtllib df21_equip_door_frame.mtl

o cube
v 1.03125 1.875 -0.0625
v 1.03125 1.875 -0.0625
v 1.03125 0.0625 -0.0625
v 1.03125 0.0625 -0.0625
v 0.96875 1.875 -0.0625
v 0.96875 1.875 -0.0625
v 0.96875 0.0625 -0.0625
v 0.96875 0.0625 -0.0625
v 0.0625 2 0.11875
v 0.0625 2 -0.006249999999999999
v 0.0625 0 0.11875
v 0.0625 0 -0.006249999999999999
v 0 2 0.11875
v 0 2 -0.006249999999999999
v 0 0 0.11875
v 0 0 -0.006249999999999999
v 1 2 0.11875
v 1 2 -0.006249999999999999
v 1 0 0.11875
v 1 0 -0.006249999999999999
v 0.9375 2 0.11875
v 0.9375 2 -0.006249999999999999
v 0.9375 0 0.11875
v 0.9375 0 -0.006249999999999999
v 0.03125 0.0625 0
v 0.03125 0.0625 -0.0625
v 0.03125 0.0625 0
v 0.03125 0.0625 -0.0625
v -0.03125 0.0625 0
v -0.03125 0.0625 -0.0625
v -0.03125 0.0625 0
v -0.03125 0.0625 -0.0625
v -0.03125 0.0625 -0.0625
v 0.03125 1.875 -0.0625
v 0.03125 1.875 -0.0625
v 0.03125 0.0625 -0.0625
v 0.03125 0.0625 -0.0625
v -0.03125 1.875 -0.0625
v -0.03125 1.875 -0.0625
v -0.03125 0.0625 -0.0625
v 0.03125 1.875 0
v 0.03125 1.875 -0.0625
v 0.03125 1.875 0
v 0.03125 1.875 -0.0625
v -0.03125 1.875 0
v -0.03125 1.875 -0.0625
v -0.03125 1.875 0
v -0.03125 1.875 -0.0625
v 1.03125 1.875 0
v 1.03125 1.875 -0.0625
v 1.03125 1.875 0
v 1.03125 1.875 -0.0625
v 0.96875 1.875 0
v 0.96875 1.875 -0.0625
v 0.96875 1.875 0
v 0.96875 1.875 -0.0625
v 1.03125 0.0625 0
v 1.03125 0.0625 -0.0625
v 1.03125 0.0625 0
v 1.03125 0.0625 -0.0625
v 0.96875 0.0625 0
v 0.96875 0.0625 -0.0625
v 0.96875 0.0625 0
v 0.96875 0.0625 -0.0625
vt 0.765625 0.765625
vt 0.765625 0.765625
vt 0.765625 0.515625
vt 0.765625 0.515625
vt 0.765625 0.765625
vt 0.765625 0.765625
vt 0.765625 0.515625
vt 0.765625 0.515625
vt 0.015625 1
vt 0 1
vt 0.015625 1
vt 0 1
vt 0.78125 0.765625
vt 0.765625 0.765625
vt 0.78125 0.765625
vt 0.765625 0.765625
vt 0.78125 0.515625
vt 0.78125 0.765625
vt 0.765625 0.765625
vt 0.765625 0.515625
vt 0.78125 0.515625
vt 0.78125 0.765625
vt 0.765625 0.765625
vt 0.765625 0.515625
vt 0.09375 0.21875
vt 0.09375 0.71875
vt 0.125 0.71875
vt 0.125 0.21875
vt 0.0625 0.21875
vt 0.0625 0.71875
vt 0.09375 0.71875
vt 0.09375 0.21875
vt 0.515625 0.9375
vt 0.515625 0.90625
vt 0.5 0.90625
vt 0.5 0.9375
vt 0.515625 0.875
vt 0.515625 0.90625
vt 0.5 0.90625
vt 0.5 0.875
vt 0.421875 0.21875
vt 0.421875 0.71875
vt 0.4375 0.71875
vt 0.4375 0.21875
vt 0.328125 0.09375
vt 0.328125 0.59375
vt 0.34375 0.59375
vt 0.34375 0.09375
vt 0.09375 0.21875
vt 0.09375 0.71875
vt 0.0625 0.71875
vt 0.0625 0.21875
vt 0.125 0.21875
vt 0.125 0.71875
vt 0.09375 0.71875
vt 0.09375 0.21875
vt 0.5 0.9375
vt 0.5 0.90625
vt 0.515625 0.90625
vt 0.515625 0.9375
vt 0.5 0.875
vt 0.5 0.90625
vt 0.515625 0.90625
vt 0.515625 0.875
vt 0.4375 0.21875
vt 0.4375 0.71875
vt 0.421875 0.71875
vt 0.421875 0.21875
vt 0.34375 0.09375
vt 0.34375 0.59375
vt 0.328125 0.59375
vt 0.328125 0.09375
vt 0.890625 0.890625
vt 0.875 0.890625
vt 0.890625 0.890625
vt 0.875 0.890625
vt 0.890625 0.890625
vt 0.875 0.890625
vt 0.890625 0.890625
vt 0.875 0.890625
vt 0.890625 0.875
vt 0.890625 0.890625
vt 0.875 0.890625
vt 0.875 0.875
vt 0.890625 0.875
vt 0.890625 0.890625
vt 0.875 0.890625
vt 0.875 0.875
vt 0.890625 0.890625
vt 0.875 0.890625
vt 0.890625 0.890625
vt 0.875 0.890625
vt 0.890625 0.890625
vt 0.875 0.890625
vt 0.890625 0.890625
vt 0.875 0.890625
vt 0.765625 0.765625
vt 0.765625 0.765625
vt 0.765625 0.515625
vt 0.765625 0.515625
vt 0.765625 0.765625
vt 0.765625 0.765625
vt 0.765625 0.515625
vt 0.765625 0.515625
vt 0.015625 1
vt 0 1
vt 0.015625 1
vt 0 1
vt 0.78125 0.765625
vt 0.765625 0.765625
vt 0.78125 0.765625
vt 0.765625 0.765625
vt 0.78125 0.515625
vt 0.78125 0.765625
vt 0.765625 0.765625
vt 0.765625 0.515625
vt 0.78125 0.515625
vt 0.78125 0.765625
vt 0.765625 0.765625
vt 0.765625 0.515625
vt 0.890625 0.890625
vt 0.875 0.890625
vt 0.890625 0.890625
vt 0.875 0.890625
vt 0.890625 0.890625
vt 0.875 0.890625
vt 0.890625 0.890625
vt 0.875 0.890625
vt 0.890625 0.875
vt 0.890625 0.890625
vt 0.875 0.890625
vt 0.875 0.875
vt 0.890625 0.875
vt 0.890625 0.890625
vt 0.875 0.890625
vt 0.875 0.875
vt 0.890625 0.890625
vt 0.875 0.890625
vt 0.890625 0.890625
vt 0.875 0.890625
vt 0.890625 0.890625
vt 0.875 0.890625
vt 0.890625 0.890625
vt 0.875 0.890625
vt 0.890625 0.890625
vt 0.875 0.890625
vt 0.890625 0.890625
vt 0.875 0.890625
vt 0.890625 0.890625
vt 0.875 0.890625
vt 0.890625 0.890625
vt 0.875 0.890625
vt 0.890625 0.875
vt 0.890625 0.890625
vt 0.875 0.890625
vt 0.875 0.875
vt 0.890625 0.875
vt 0.890625 0.890625
vt 0.875 0.890625
vt 0.875 0.875
vt 0.890625 0.890625
vt 0.875 0.890625
vt 0.890625 0.890625
vt 0.875 0.890625
vt 0.890625 0.890625
vt 0.875 0.890625
vt 0.890625 0.890625
vt 0.875 0.890625
vt 0.890625 0.890625
vt 0.875 0.890625
vt 0.890625 0.890625
vt 0.875 0.890625
vt 0.890625 0.890625
vt 0.875 0.890625
vt 0.890625 0.890625
vt 0.875 0.890625
vt 0.890625 0.875
vt 0.890625 0.890625
vt 0.875 0.890625
vt 0.875 0.875
vt 0.890625 0.875
vt 0.890625 0.890625
vt 0.875 0.890625
vt 0.875 0.875
vt 0.890625 0.890625
vt 0.875 0.890625
vt 0.890625 0.890625
vt 0.875 0.890625
vt 0.890625 0.890625
vt 0.875 0.890625
vt 0.890625 0.890625
vt 0.875 0.890625
vn 0 0 0
vn 0 0 0
vn 0 0 0
vn 0 0 0
vn 0 0 1
vn 0 0 -1
vn 1 0 0
vn -1 0 0
vn 0 1 0
vn 0 -1 0
vn 0 0 1
vn 0 0 -1
vn 1 0 0
vn -1 0 0
vn 0 1 0
vn 0 -1 0
vn 0 0 1
vn 0 0 -1
vn 0 0 0
vn 0 0 0
vn 0 1 0
vn 0 -1 0
vn 0 0 0
vn 0 0 0
vn 0 0 0
vn 0 0 0
vn 0 0 0
vn 0 0 0
vn 0 0 1
vn 0 0 -1
vn 0 0 0
vn 0 0 0
vn 0 1 0
vn 0 -1 0
vn 0 0 0
vn 0 0 0
vn 0 0 0
vn 0 0 0
vn 0 1 0
vn 0 -1 0
vn 0 0 0
vn 0 0 0
vn 0 0 0
vn 0 0 0
vn 0 1 0
vn 0 -1 0
vn 0 0 0
vn 0 0 0
usemtl m_23495099-e8a3-a541-9ae2-2a913b043d66
f 2/1/1 1/2/1 4/3/1 3/4/1
f 5/5/2 6/6/2 7/7/2 8/8/2
f 2/9/3 6/10/3 1/11/3 5/12/3
f 3/13/4 7/14/4 4/15/4 8/16/4
f 3/17/5 1/18/5 5/19/5 7/20/5
f 8/21/6 6/22/6 2/23/6 4/24/6
f 12/25/7 10/26/7 9/27/7 11/28/7
f 15/29/8 13/30/8 14/31/8 16/32/8
f 9/33/9 10/34/9 14/35/9 13/36/9
f 12/37/10 11/38/10 15/39/10 16/40/10
f 11/41/11 9/42/11 13/43/11 15/44/11
f 16/45/12 14/46/12 10/47/12 12/48/12
f 20/49/13 18/50/13 17/51/13 19/52/13
f 23/53/14 21/54/14 22/55/14 24/56/14
f 17/57/15 18/58/15 22/59/15 21/60/15
f 20/61/16 19/62/16 23/63/16 24/64/16
f 19/65/17 17/66/17 21/67/17 23/68/17
f 24/69/18 22/70/18 18/71/18 20/72/18
f 26/73/19 25/74/19 28/75/19 27/76/19
f 29/77/20 30/78/20 31/79/20 32/80/20
f 25/81/21 26/82/21 30/83/21 29/84/21
f 28/85/22 27/86/22 31/87/22 32/88/22
f 25/89/23 29/90/23 27/91/23 31/92/23
f 30/93/24 26/94/24 32/95/24 28/96/24
f 35/97/25 34/98/25 37/99/25 36/100/25
f 38/101/26 39/102/26 40/103/26 33/104/26
f 35/105/27 39/106/27 34/107/27 38/108/27
f 36/109/28 40/110/28 37/111/28 33/112/28
f 36/113/29 34/114/29 38/115/29 40/116/29
f 33/117/30 39/118/30 35/119/30 37/120/30
f 42/121/31 41/122/31 44/123/31 43/124/31
f 45/125/32 46/126/32 47/127/32 48/128/32
f 41/129/33 42/130/33 46/131/33 45/132/33
f 44/133/34 43/134/34 47/135/34 48/136/34
f 41/137/35 45/138/35 43/139/35 47/140/35
f 46/141/36 42/142/36 48/143/36 44/144/36
f 50/145/37 49/146/37 52/147/37 51/148/37
f 53/149/38 54/150/38 55/151/38 56/152/38
f 49/153/39 50/154/39 54/155/39 53/156/39
f 52/157/40 51/158/40 55/159/40 56/160/40
f 49/161/41 53/162/41 51/163/41 55/164/41
f 54/165/42 50/166/42 56/167/42 52/168/42
f 58/169/43 57/170/43 60/171/43 59/172/43
f 61/173/44 62/174/44 63/175/44 64/176/44
f 57/177/45 58/178/45 62/179/45 61/180/45
f 60/181/46 59/182/46 63/183/46 64/184/46
f 57/185/47 61/186/47 59/187/47 63/188/47
f 62/189/48 58/190/48 64/191/48 60/192/48