# Made in Blockbench 4.12.4
mtllib ss3_carport_ad_lh.mtl

o cuboid_selection_selection_selection_selection_selection_selection_selection
v 1.1102230246251565e-16 0.49975625 1
v 1.0000000000000002 0.49975625 0.9999999999999999
v 1.0000000000000002 0.20625000000000007 0.9999999999999999
v 1.1102230246251565e-16 0.20625000000000007 1
v 0.9999999999999999 0.20625000000000007 -1.1622647289044608e-16
v 0.9999999999999999 0.4997556249999998 0.23087437499999985
v 0 0.4997556249999998 0.23087437500000008
v 0 0.20625000000000007 1.0581813203458523e-16
v 0 0.20625000000000007 -0.046874999999999896
v 0.9999999999999999 0.20625000000000007 -0.04687500000000012
v 0.9999999999999999 0.20625000000000007 0.12499999999999989
v 0 0.20625000000000007 0.1250000000000001
v 0.9999999999999999 0.14375000000000007 0.12499999999999989
v 0.9999999999999999 0.14375000000000007 -0.04687500000000012
v 0 0.14375000000000007 -0.046874999999999896
v 0 0.14375000000000007 0.1250000000000001
v 0 0.14375000000000007 -0.006249999999999983
v 0.9999999999999999 0.14375000000000007 -0.006250000000000205
v 0 0.14375000000000007 0.1250000000000001
v 0.9999999999999999 -0.000243749999999876 0.12499999999999989
v 0.9999999999999999 -0.000243749999999876 -0.006250000000000205
v 0 -0.000243749999999876 -0.006249999999999983
v 0 -0.000243749999999876 0.1250000000000001
v 1 0.5310062499999999 0.6249999999999999
v 0 0.5310062499999999 0.6250000000000001
v 0 0.4997562499999999 0.6250000000000001
v 1 0.4997562499999999 0.6249999999999999
v 1.1102230246251565e-16 0.4997562499999999 0.7500000000000001
v 1.1102230246251565e-16 0.5310062499999999 0.7500000000000001
v 1 0.5310062499999999 0.7499999999999999
v 1 0.4997562499999999 0.7499999999999999
vt 0.265625 0.8125
vt 0.265625 0.890625
vt 0.515625 0.890625
vt 0.515625 0.8125
vt 0.265625 1
vt 0.515625 1
vt 0.515625 0.90625
vt 0.265625 0.90625
vt 0 0.734375
vt 0.25 0.734375
vt 0.25 0.546875
vt 0 0.546875
vt 0 1
vt 0.25 1
vt 0.25 0.75
vt 0 0.75
vt 0.32334375 0.796875
vt 0.515625 0.796875
vt 0.515625 0.71875
vt 0.265625 0.71875
vt 0.265625 0.625
vt 0.265625 0.703125
vt 0.45790625 0.703125
vt 0.515625 0.625
vt 0.3125 0.359375
vt 0.265625 0.359375
vt 0.265625 0.609375
vt 0.3125 0.609375
vt 0.328125 0.359375
vt 0.328125 0.609375
vt 0.375 0.609375
vt 0.375 0.359375
vt 0.5 0.703125
vt 0.75 0.703125
vt 0.75 0.6875
vt 0.5 0.6875
vt 0.5 0.5
vt 0.5 0.515625
vt 0.75 0.515625
vt 0.75 0.5
vt 0.1875 0.515625
vt 0.1875 0.53125
vt 0.234375 0.53125
vt 0.234375 0.515625
vt 0.1875 0.5
vt 0.234375 0.5
vt 0.234375 0.484375
vt 0.1875 0.484375
vt 0.390625 0.359375
vt 0.390625 0.609375
vt 0.4375 0.609375
vt 0.4375 0.359375
vt 0.484375 0.359375
vt 0.453125 0.359375
vt 0.453125 0.609375
vt 0.484375 0.609375
vt 0 0.28125
vt 0 0.53125
vt 0.03125 0.53125
vt 0.03125 0.28125
vt 0.5 0.609375
vt 0.75 0.609375
vt 0.75 0.578125
vt 0.5 0.578125
vt 0.5 0.53125
vt 0.5 0.5625
vt 0.75 0.5625
vt 0.75 0.53125
vt 0.09375 0.5
vt 0.09375 0.53125
vt 0.125 0.53125
vt 0.125 0.5
vt 0.140625 0.53125
vt 0.171875 0.53125
vt 0.171875 0.5
vt 0.140625 0.5
vt 0.046875 0.28125
vt 0.046875 0.53125
vt 0.078125 0.53125
vt 0.078125 0.28125
vt 0.265625 0.3203125
vt 0.265625 0.328125
vt 0.578125 0.328125
vt 0.578125 0.3203125
vt 0.265625 0.34375
vt 0.578125 0.34375
vt 0.578125 0.3359375
vt 0.265625 0.3359375
vt 0.23828125 0.46875
vt 0.23828125 0.21875
vt 0.19921875 0.21875
vt 0.19921875 0.46875
vt 0.13671875 0.453125
vt 0.17578125 0.453125
vt 0.17578125 0.4453125
vt 0.13671875 0.4453125
vt 0.13671875 0.4765625
vt 0.13671875 0.484375
vt 0.17578125 0.484375
vt 0.17578125 0.4765625
vn 1.1102230246251565e-16 0 1
vn -1.7452180085759963e-16 0.6182566041922379 -0.7859763173103135
vn -9.021795244577161e-23 0.9999999999996698 -8.126110740338123e-7
vn 0 -1 0
vn 1 0 -2.255448810429125e-16
vn -1 0 1.44348723867464e-16
vn 0 1 0
vn 0 -1 0
vn -2.2204460492503136e-16 0 -1
vn 2.2204460492503136e-16 0 1
vn 1 0 -2.220446049250313e-16
vn -1 0 0
vn 0 -1 0
vn 0 1 0
vn 0 -1 0
vn -2.2204460492503136e-16 0 -1
vn 2.2204460492503136e-16 0 1
vn 1 0 -2.3790493384824768e-16
vn -1 0 0
vn 0 -1 0
vn -2.220446049250313e-16 0 -1
vn 2.220446049250313e-16 0 1
vn 0 1 0
vn -1 0 8.881784197001252e-16
vn 1 0 -2.220446049250313e-16
usemtl m_075ee0ae-bd15-576a-ef0c-736a16cc9bf3
f 3/1/1 2/2/1 1/3/1 4/4/1
f 7/5/2 6/6/2 5/7/2 8/8/2
f 1/9/3 2/10/3 6/11/3 7/12/3
f 5/13/4 3/14/4 4/15/4 8/16/4
f 6/17/5 2/18/5 3/19/5 5/20/5
f 4/21/6 1/22/6 7/23/6 8/24/6
f 11/25/7 10/26/7 9/27/7 12/28/7
f 15/29/8 14/30/8 13/31/8 16/32/8
f 9/33/9 10/34/9 14/35/9 15/36/9
f 13/37/10 11/38/10 12/39/10 16/40/10
f 14/41/11 10/42/11 11/43/11 13/44/11
f 12/45/12 9/46/12 15/47/12 16/48/12
f 15/49/13 14/50/13 13/51/13 16/52/13
f 13/53/14 18/54/14 17/55/14 19/56/14
f 22/57/15 21/58/15 20/59/15 23/60/15
f 17/61/16 18/62/16 21/63/16 22/64/16
f 20/65/17 13/66/17 19/67/17 23/68/17
f 21/69/18 18/70/18 13/71/18 20/72/18
f 19/73/19 17/74/19 22/75/19 23/76/19
f 22/77/20 21/78/20 20/79/20 23/80/20
usemtl m_65b2faa0-22fc-282f-1712-17589fc2e419
f 26/81/21 25/82/21 24/83/21 27/84/21
f 30/85/22 29/86/22 28/87/22 31/88/22
f 24/89/23 25/90/23 29/91/23 30/92/23
f 29/93/24 25/94/24 26/95/24 28/96/24
f 27/97/25 24/98/25 30/99/25 31/100/25