# Made in Blockbench 4.12.5
mtllib jy290_carport.mtl

o cube_selection_selection_selection_selection
v -1.1102230246251565e-16 -0.03091812500000002 0.10828312500000009
v -1.1102230246251565e-16 -0.18287500000000004 0.06250062500000014
v 2.220446049250313e-16 -0.03091812500000002 1.5000693750000003
v -1.1102230246251565e-16 0.02892499999999998 0.0888131250000001
v 0.0000012500000002857448 0.146580625 1.5000712500000002
v -1.1102230246251565e-16 -0.182874375 -0.0062493749999998904
v 1.0000950000000004 0.14658125 1.5000712499999997
v 1.0000000000000002 -0.030918750000000023 1.5000687499999998
v 1 -0.030918750000000023 0.10828312499999987
v 0.9999999999999999 -0.18287500000000004 -0.006250000000000089
v 1 0.028924374999999974 0.0888124999999999
v 1 -0.182875625 0.06249999999999989
v 0.9999999999999999 -0.22037437500000004 -0.006250000000000089
v -1.1102230246251565e-16 -0.22037437500000004 -0.0062493749999998904
v -1.1102230246251565e-16 -0.22037500000000002 0.06200062500000014
v 1 -0.220375625 0.06199999999999989
v 0.9999999999999999 -0.22037437500000004 -0.03750000000000009
v -1.1102230246251565e-16 -0.22037437500000004 -0.03749937499999989
v 0.9999999999999999 -0.18287500000000004 -0.03750000000000009
v -1.1102230246251565e-16 -0.182874375 -0.03749937499999989
vt 0 0.46875
vt 0.34375 0.46875
vt 0.34375 0.71875
vt 0 0.71875
vt 0.375 1
vt 0.375 0.9375
vt 0.625 0.9375
vt 0.625 1
vt 0.625 0.8687515625
vt 0.625 0.908428125
vt 0.375 0.908428125
vt 0.375 0.8687515625
vt 0.375 0.8687515625
vt 0.375 0.8593765625
vt 0.625 0.859375
vt 0.625 0.8687515625
vt 0.37037546875 0.34375
vt 0.38743703125 0.34375015625000005
vt 0.38743703125 0.59375078125
vt 0.37037546875 0.593750625
vt 0.38280078125 0.84375
vt 0.38280078125 0.796875
vt 0.63280078125 0.796875
vt 0.63282421875 0.84375
vt 0.37030390625 0.6988859375
vt 0.38749140625 0.6988859375
vt 0.39893671875 0.736875
vt 0.39406953125 0.7518359375
vt 0.38749140625 0.6988859375
vt 0.37030390625 0.6988859375
vt 0.37030390625 0.6895109374999999
vt 0.38736640625 0.6895109374999999
vt 0.71921171875 0.6424609375
vt 0.71434453125 0.6275
vt 0.72578984375 0.5895109375
vt 0.74297734375 0.5895109375
vt 0.40625 0.609375
vt 0.40625 0.59375
vt 0.65625 0.59375
vt 0.65625 0.609375
vt 0.4375 0.703125
vt 0.4375 0.71875
vt 0.421875 0.71875
vt 0.421875 0.703125
vt 0.36256296875 0.59375
vt 0.36256296875 0.34375
vt 0.37037546875 0.34375
vt 0.37037546875 0.59375
vt 0.36249140625 0.6988859375
vt 0.36249140625 0.6895109374999999
vt 0.37030390625 0.6895109374999999
vt 0.37030390625 0.6988859375
vt 0.421875 0.328125
vt 0.421875 0.578125
vt 0.40625 0.578125
vt 0.40625 0.328125
vt 0.00546875 0.7499765625
vt 0.35950625 0.7499765625
vt 0.35950828125 1
vt 0.00546921875 0.9999765625
vt 0.8684390625 0.5018359375
vt 0.515625 0.53125
vt 0.515625 0.48687499999999995
vt 0.863571875 0.48687499999999995
vt 0.4153140625 0.25
vt 0.0625 0.2205859375
vt 0.0673671875 0.20562499999999995
vt 0.4153140625 0.20562499999999995
vn -6.250000000039724e-7 -0.9999999999998047 1.3877787807902662e-22
vn -3.1427540970634835e-7 0.409478922511666 -0.9123195777898151
vn -1.8030067219796734e-7 -0.28848107585146787 0.9574855972157217
vn 6.166118594135233e-7 -0.01333214830614692 0.9999111229610175
vn -6.25011446757841e-7 -0.9999999998320849 -0.000018315018311249588
vn 6.249933982235149e-7 -0.000010563459072617614 0.9999999999440113
vn -1 0 2.220446049250313e-16
vn -1 0 2.220446049250313e-16
vn 1 0 -2.220446049250313e-16
vn -6.250000001982616e-7 0 -0.9999999999998048
vn 1 0 -2.220446049250313e-16
vn 0 -1 0
vn -1 0 2.220446049250313e-16
vn 6.250000000317281e-7 0.9999999999998048 -1.3877787808518962e-22
vn -6.227808580774113e-7 0.9965427900032294 -0.08308109106283816
vn 0.9999998565171163 -0.0005352108711621691 -0.00002269516330902339
vn -0.9999999999995889 2.8056420189015016e-7 8.623440476918686e-7
usemtl m_3e546dc6-acf3-d48d-be19-a92a9f7e30ba
f 9/1/1 8/2/1 3/3/1 1/4/1
f 11/5/2 10/6/2 6/7/2 4/8/2
f 12/9/3 9/10/3 1/11/3 2/12/3
f 2/13/4 15/14/4 16/15/4 12/16/4
f 13/17/5 16/18/5 15/19/5 14/20/5
f 5/21/6 3/22/6 8/23/6 7/24/6
f 6/25/7 2/26/7 1/27/7 4/28/7
f 2/29/8 6/30/8 14/31/8 15/32/8
f 11/33/9 9/34/9 12/35/9 10/36/9
f 19/37/10 17/38/10 18/39/10 20/40/10
f 17/41/11 19/42/11 10/43/11 13/44/11
f 18/45/12 17/46/12 13/47/12 14/48/12
f 20/49/13 18/50/13 14/51/13 6/52/13
f 19/53/14 20/54/14 6/55/14 10/56/14
f 4/57/15 5/58/15 7/59/15 11/60/15
f 11/61/16 7/62/16 8/63/16 9/64/16
f 5/65/17 4/66/17 1/67/17 3/68/17