# Made in Blockbench 4.12.5
mtllib ss8_carport_ad.mtl

o cube_selection_selection_selection_selection_selection_selection
v 0.75000125 0.5021624999999998 1.500223125
v 0.7501475 0.4863900000000001 0.1090374999999999
v 0.75 0.125 -0.015625
v 0.75000125 0.125 1.500223125
v 0.0001475000000000226 0.48647687500000014 0.10957812500000008
v 0.000001250000000008189 0.12508687500000004 -0.015084375000000039
v 0.000001250000000008189 0.5022493749999999 1.50076375
v 0.000001250000000008189 0.12508687500000004 1.50076375
v -0.000006249999999985434 0.00008687500000004178 1.50076375
v -0.000006249999999985434 0.00008687500000004178 -0.06195937500000004
v 0.7499925000000001 0 -0.0625
v 0.74999375 0 1.500223125
v 0.750005625 0.12180187500000006 -0.03817500000000007
v 0.000006875000000017284 0.1218881249999999 -0.03763437500000011
vt 0.0156265625 1
vt 0.40630609375 0.99971671875
vt 0.40630609375 0.81221671875
vt 0.015625 0.8125
vt 0.35156328125 0.640625
vt 0.35156328125 0.515084375
vt 0.53906328125 0.5150625
vt 0.53906328125 0.6406031249999999
vt 0.34375 0.421875
vt 0.734375 0.421875
vt 0.734375 0.453125
vt 0.35546875 0.453125
vt 0.5625 0.609375
vt 0.75 0.609375
vt 0.75 0.640625
vt 0.5625 0.640625
vt 0.429659375 0.828125
vt 0.820340625 0.828125
vt 0.808621875 0.859375
vt 0.429659375 0.859375
vt 0.35156171875 0.48383437500000004
vt 0.53906171875 0.4838125
vt 0.53906328125 0.5150625
vt 0.35156328125 0.515084375
vt 0.1875 0.45218046874999995
vt 0.1875 0.796875
vt 0 0.796719375
vt 0 0.45202484374999996
vt 0.6171653125 0.875
vt 0.6172096875 1
vt 0.4297096875 1
vt 0.4296653125 0.875
vt 0.015625 0.421875
vt 0 0.421875
vt 0 0.234375
vt 0.015625 0.234375
vt 0.328125 0.29593109375000004
vt 0.328125 0.640625
vt 0.203125 0.6392051562500001
vt 0.20667484375 0.25462078125
vt 0.59143890625 0.78178265625
vt 0.246745 0.78178265625
vt 0.20543609375 0.65979984375
vt 0.5900190625 0.65625
vn -0.00011583352561217366 -0.9999999932912973 0
vn 0.0007208331460606561 0 0.9999997401997541
vn -0.9999999982000002 0.00005999999989194899 0
vn -0.0006342664001602989 0.35112340432513134 -0.9363289767177261
vn 0.9999999982176326 -0.000059700042727429594 -7.998857748729317e-7
vn 0.0007208331410508676 -4.324998846226033e-8 0.9999997401997568
vn 0.00010765400910961719 0.9999357316221298 -0.011336711865902837
vn -0.0006250337949493165 0.37440793775111836 -0.9272638812558752
vn -0.000012622415741443037 -0.9900884157676828 0.1404454655847412
vn 0.9999999944742456 0 0.00010512615754771964
vn -0.9999999014459225 0.00043012504957458034 -0.00011000266979533776
usemtl m_a156d57c-f464-2bc0-b665-b7931000d993
f 9/1/1 10/2/1 11/3/1 12/4/1
f 7/5/2 8/6/2 4/7/2 1/8/2
f 10/9/3 9/10/3 8/11/3 6/12/3
f 11/13/4 10/14/4 6/15/4 3/16/4
f 12/17/5 11/18/5 3/19/5 4/20/5
f 9/21/6 12/22/6 4/23/6 8/24/6
f 5/25/7 7/26/7 1/27/7 2/28/7
f 14/29/8 5/30/8 2/31/8 13/32/8
f 6/33/9 14/34/9 13/35/9 3/36/9
f 2/37/10 1/38/10 4/39/10 13/40/10
f 7/41/11 5/42/11 14/43/11 8/44/11