# Made in Blockbench 4.12.4
mtllib ss8_carport_ad_lh.mtl

o cube_selection_selection_selection_selection_selection_selection
v 0.25000749999999994 0 -0.0625
v 1.00000625 0.00008687500000004178 -0.06195937500000004
v 1.00000625 0.00008687500000004178 1.50076375
v 0.25000625 0 1.500223125
v 0.24999875000000005 0.125 1.500223125
v 0.99999875 0.12508687500000004 1.50076375
v 0.99999875 0.6272493749999999 1.50076375
v 0.24999875000000005 0.6271624999999998 1.500223125
v 0.99999875 0.12508687500000004 -0.015084375000000039
v 0.25 0.125 -0.015625
v 0.9998525 0.6114768750000001 0.12207812500000004
v 0.24985250000000003 0.6113900000000001 0.12153750000000008
v 0.24999875000000005 0.61156875 0.12153562499999992
v 0.99999875 0.611655625 0.12207625000000011
v 0.999993125 0.1218881249999999 -0.03763437500000011
v 0.249994375 0.12180187500000006 -0.03817500000000007
vt 0.00771640625 0.8125
vt 0.00785234375 1
vt 0.39853359375 1
vt 0.39839765625 0.8125
vt 0.53906328125 0.5150625
vt 0.35156328125 0.515084375
vt 0.35156328125 0.640625
vt 0.53906328125 0.6406031249999999
vt 0.734375 0.453125
vt 0.734375 0.421875
vt 0.34375 0.421875
vt 0.35546875 0.453125
vt 0.75 0.640625
vt 0.75 0.609375
vt 0.5625 0.609375
vt 0.5625 0.640625
vt 0.808621875 0.859375
vt 0.820340625 0.828125
vt 0.429659375 0.828125
vt 0.429659375 0.859375
vt 0.53906328125 0.5150625
vt 0.53906171875 0.4838125
vt 0.35156171875 0.48383437500000004
vt 0.35156328125 0.515084375
vt 0 0.796719375
vt 0.1875 0.796875
vt 0.1875 0.45218046874999995
vt 0 0.45202484374999996
vt 0.4297096875 1
vt 0.6172096875 1
vt 0.6171653125 0.875
vt 0.4296653125 0.875
vt 0 0.234375
vt 0 0.421875
vt 0.015625 0.421875
vt 0.015625 0.234375
vt 0.203125 0.6392051562500001
vt 0.328125 0.640625
vt 0.328125 0.29593109375000004
vt 0.20667484375 0.25462078125
vt 0.20543609375 0.65979984375
vt 0.246745 0.78178265625
vt 0.59143890625 0.78178265625
vt 0.5900190625 0.65625
vn 0.00011583352561217366 -0.9999999932912973 0
vn -0.0007208331460606045 0 0.999999740199754
vn 0.9999999982000002 0.00005999999989194899 0
vn 0.0006342664001602988 0.35112340432513134 -0.9363289767177261
vn -0.9999999982176326 -0.000059700042726992166 -7.998857748551706e-7
vn -0.000720833141050816 -4.3249988462692075e-8 0.9999997401997568
vn -0.00010757979196102162 0.9999345611752108 -0.011439483988665787
vn 0.0006494045462705908 0.31002725053168984 -0.950727448957637
vn 0.000012622415741442639 -0.9900884157676828 0.14044546558474122
vn -1 0 0
vn 0.9999999999335493 -0.000011527558694458176 1.30383330806804e-7
usemtl m_1404baa2-50ed-5c2e-9f15-c6914da3d00e
f 1/1/1 2/2/1 3/3/1 4/4/1
f 5/5/2 6/6/2 7/7/2 8/8/2
f 6/9/3 3/10/3 2/11/3 9/12/3
f 9/13/4 2/14/4 1/15/4 10/16/4
f 10/17/5 1/18/5 4/19/5 5/20/5
f 5/21/6 4/22/6 3/23/6 6/24/6
f 8/25/7 7/26/7 11/27/7 12/28/7
f 13/29/8 14/30/8 15/31/8 16/32/8
f 16/33/9 15/34/9 9/35/9 10/36/9
f 5/37/10 8/38/10 13/39/10 16/40/10
f 15/41/11 14/42/11 7/43/11 6/44/11