# Made in Blockbench 4.12.4
mtllib ss8_carport_link_lh.mtl

o cube_selection_selection_selection_selection_selection_selection
v 0.000007499999999716067 0 -0.0625
v 1.0000062500000002 0.00008687500000004178 -0.06195937500000004
v 1.0000062500000002 0.00008687500000004178 1.50076375
v 0.0000062500000002074785 0 1.500223125
v -0.000001250000000396767 0.125 1.500223125
v 0.9999987499999996 0.12508687500000004 1.50076375
v 0.9999987499999996 0.6272493749999999 1.50076375
v -0.000001250000000396767 0.6271624999999998 1.500223125
v 0.9999987499999996 0.12508687500000004 -0.015084375000000039
v 0 0.125 -0.015625
v 0.9999987499999996 0.611655625 0.12207625000000011
v -0.00014749999999974506 0.6113900000000001 0.12153750000000008
v -0.000001250000000396767 0.61156875 0.12153562499999992
v 0.9999931249999996 0.1218881249999999 -0.03763437500000011
v -0.000005625000000009095 0.12180187500000006 -0.03817500000000007
vt 0.00771640625 0.75
vt 0.00785234375 1
vt 0.39853359375 1
vt 0.39839765625 0.75
vt 0.67968828125 0.8744375
vt 0.42968828125 0.874459375
vt 0.42968828125 1
vt 0.67968828125 0.999978125
vt 0.796875 0.4375
vt 0.796875 0.40625
vt 0.40625 0.40625
vt 0.41796875 0.4375
vt 0.65625 0.390625
vt 0.65625 0.359375
vt 0.40625 0.359375
vt 0.40625 0.390625
vt 0.808621875 0.8125
vt 0.820340625 0.78125
vt 0.429659375 0.78125
vt 0.429659375 0.8125
vt 0.67968828125 0.8744375
vt 0.67968671875 0.8431875
vt 0.42968671875 0.843209375
vt 0.42968828125 0.874459375
vt 0.0000375 0.7342396875
vt 0.25 0.734375
vt 0.25 0.3896803125
vt 0 0.3895453125
vt 0.4140790625 0.578125
vt 0.6640790625 0.578125
vt 0.6640459375 0.453125
vt 0.4140459375 0.453125
vt 0 0.109375
vt 0 0.359375
vt 0.015625 0.359375
vt 0.015625 0.109375
vt 0.265625 0.5767051562500001
vt 0.390625 0.578125
vt 0.390625 0.23343109375000004
vt 0.26917484375 0.19212078124999998
vt 0.26793609375 0.5973014062499999
vt 0.309245 0.71928265625
vt 0.65393890625 0.71928265625
vt 0.6525190625 0.59375
vn 0.0000868751082660919 -0.9999999962263578 0
vn -0.0005406249209942872 0 0.9999998538623369
vn 0.9999999982000002 0.00005999999989683398 0
vn 0.00047569964618983824 0.35112342688360526 -0.9363290622443373
vn -0.9999999982176326 -0.00005970004272532238 -7.998857745709941e-7
vn -0.0005406249181762803 -3.2437495093190185e-8 0.9999998538623379
vn -0.00008075505419141925 0.9999360383092786 -0.011309852738481466
vn 0.00048705345419135904 0.3100272808179092 -0.9507275361151513
vn 0.000009466807435300462 -0.9900884156927336 0.14044546636126243
vn -1 0 0
vn 0.9999999999335493 -0.000011527558694458176 1.30383330806804e-7
usemtl m_48fc3746-0fb3-129d-4298-c3fcb99b9b47
f 1/1/1 2/2/1 3/3/1 4/4/1
f 5/5/2 6/6/2 7/7/2 8/8/2
f 6/9/3 3/10/3 2/11/3 9/12/3
f 9/13/4 2/14/4 1/15/4 10/16/4
f 10/17/5 1/18/5 4/19/5 5/20/5
f 5/21/6 4/22/6 3/23/6 6/24/6
f 8/25/7 7/26/7 11/27/7 12/28/7
f 13/29/8 11/30/8 14/31/8 15/32/8
f 15/33/9 14/34/9 9/35/9 10/36/9
f 5/37/10 8/38/10 13/39/10 15/40/10
f 14/41/11 11/42/11 7/43/11 6/44/11