# Made in Blockbench 4.12.5
mtllib ss8_carport_lh.mtl

o cube_selection_selection_selection_selection_selection_selection
v -0.0000012499999999526779 0.5021624999999998 1.500223125
v -0.00014750000000018915 0.4863900000000001 0.1090374999999999
v 0 0.125 -0.015625
v -0.0000012499999999526779 0.125 1.500223125
v 0.99999875 0.12508687500000004 -0.015084375000000039
v 0.99999875 0.5022493749999999 1.50076375
v 0.99999875 0.12508687500000004 1.50076375
v 1.00000625 0.00008687500000004178 1.50076375
v 1.00000625 0.00008687500000004178 -0.06195937500000004
v 0.000007500000000160156 0 -0.0625
v 0.0000062500000002074785 0 1.500223125
v -0.000005625000000009095 0.12180187500000006 -0.03817500000000007
v 0.99999875 0.48665562500000004 0.10957624999999993
v 0.999993125 0.1218881249999999 -0.03763437500000011
vt 0 0.75
vt 0.0001359375 1
vt 0.390815625 1
vt 0.39068125 0.75
vt 0.67968828125 0.8744375
vt 0.42968828125 0.874459375
vt 0.42968828125 1
vt 0.67968828125 0.999978125
vt 0.796875 0.4375
vt 0.796875 0.40625
vt 0.40625 0.40625
vt 0.41796875 0.4375
vt 0.65625 0.390625
vt 0.65625 0.359375
vt 0.40625 0.359375
vt 0.40625 0.390625
vt 0.808621875 0.8125
vt 0.820340625 0.78125
vt 0.429659375 0.78125
vt 0.429659375 0.8125
vt 0.67968828125 0.8744375
vt 0.67968671875 0.8431875
vt 0.42968671875 0.843209375
vt 0.42968828125 0.874459375
vt 0.0000375 0.7342396875
vt 0.25 0.734375
vt 0.25 0.3896803125
vt 0 0.3895453125
vt 0.4140790625 0.578125
vt 0.6640790625 0.578125
vt 0.6640459375 0.453125
vt 0.4140459375 0.453125
vt 0 0.109375
vt 0 0.359375
vt 0.015625 0.359375
vt 0.015625 0.109375
vt 0.265625 0.5767051562500001
vt 0.390625 0.578125
vt 0.390625 0.23343109375000004
vt 0.26917484375 0.19212078124999998
vt 0.26793609375 0.5973014062499999
vt 0.309245 0.71928265625
vt 0.65393890625 0.71928265625
vt 0.6525190625 0.59375
vn 0.00008687510826609197 -0.9999999962263578 0
vn -0.0005406249209943258 0 0.9999998538623368
vn 0.9999999982000002 0.000059999999891504907 0
vn 0.0004756996461898386 0.3511234268836053 -0.9363290622443374
vn -0.9999999982176326 -0.00005970004272876852 -7.998857748551706e-7
vn -0.0005406249181763191 -3.243749509127183e-8 0.9999998538623379
vn -0.00008081008522880991 0.9999371823830684 -0.01120824506961558
vn 0.00040013113735518947 0.37424589850752404 -0.9273294168446126
vn 0.000009466807435300457 -0.9900884156927335 0.1404454663612624
vn -0.9999999944742456 0 0.00010512615754787927
vn 0.9999999998800018 -0.00001549085676972073 1.7363622642730073e-7
usemtl m_fcbcb310-cbfb-dd83-3db0-909ffcd954c2
f 10/1/1 9/2/1 8/3/1 11/4/1
f 4/5/2 7/6/2 6/7/2 1/8/2
f 7/9/3 8/10/3 9/11/3 5/12/3
f 5/13/4 9/14/4 10/15/4 3/16/4
f 3/17/5 10/18/5 11/19/5 4/20/5
f 4/21/6 11/22/6 8/23/6 7/24/6
f 1/25/7 6/26/7 13/27/7 2/28/7
f 2/29/8 13/30/8 14/31/8 12/32/8
f 12/33/9 14/34/9 5/35/9 3/36/9
f 4/37/10 1/38/10 2/39/10 12/40/10
f 14/41/11 13/42/11 6/43/11 7/44/11