# Made in Blockbench 4.12.4
mtllib cw2_top.mtl

o top
v 0.0015624999999999667 0.8125 0
v 0.9984375 0.8125 0
v 0.0015624999999999667 0.4375 0
v 0.9984375 0.4375 0
v 0.0015624999999999667 0.8125 -0.9312499999999999
v 0.9984375 0.8125 -0.9312499999999999
v 0.0015624999999999667 0.4375 -0.9312499999999999
v 0.9984375 0.4375 -0.9312499999999999
v 0.24999999999999994 0.5 1.39375
v 0.75 0.5 1.39375
v 0.24999999999999994 0.3125 1.39375
v 0.75 0.3125 1.39375
v 0.24999999999999994 0.5 1.14375
v 0.75 0.5 1.14375
v 0.24999999999999994 0.3125 1.14375
v 0.75 0.3125 1.14375
v 0.0015624999999999667 0.8125 1.93125
v 0.9984375 0.8125 1.93125
v 0.0015624999999999667 0.4375 1.93125
v 0.9984375 0.4375 1.93125
v 0.0015624999999999667 0.8125 1
v 0.9984375 0.8125 1
v 0.0015624999999999667 0.4375 1
v 0.9984375 0.4375 1
v 0.006249999999999978 0.5557 1.2636631249999999
v 0.996875 0.5557 1.2636631249999999
v 0.006249999999999978 0.440215 1.3114987500000002
v 0.996875 0.440215 1.3114987500000002
v 0.006249999999999978 0.426544375 0.9518537499999999
v 0.996875 0.426544375 0.9518537499999999
v 0.006249999999999978 0.311059375 0.999689375
v 0.996875 0.311059375 0.999689375
v 0 1 1
v 1 1 1
v 0 0.3125 1
v 1 0.3125 1
v 0 1 0
v 1 1 0
v 0 0.3125 0
v 1 0.3125 0
v 0.24999999999999994 0.5 -0.14375000000000004
v 0.75 0.5 -0.14375000000000004
v 0.24999999999999994 0.3125 -0.14375000000000004
v 0.75 0.3125 -0.14375000000000004
v 0.24999999999999994 0.5 -0.39375000000000004
v 0.75 0.5 -0.39375000000000004
v 0.24999999999999994 0.3125 -0.39375000000000004
v 0.75 0.3125 -0.39375000000000004
v 0.006249999999999978 0.426544375 0.04814625
v 0.996875 0.426544375 0.04814625
v 0.006249999999999978 0.311059375 0.0003106250000000088
v 0.996875 0.311059375 0.0003106250000000088
v 0.006249999999999978 0.5557 -0.263663125
v 0.996875 0.5557 -0.263663125
v 0.006249999999999978 0.440215 -0.31149875000000005
v 0.996875 0.440215 -0.31149875000000005
v 0.37499999999999994 0.375 0.625
v 0.625 0.375 0.625
v 0.37499999999999994 -0.25 0.625
v 0.625 -0.25 0.625
v 0.37499999999999994 0.375 0.375
v 0.625 0.375 0.375
v 0.37499999999999994 -0.25 0.375
v 0.625 -0.25 0.375
vt 0.75 0.21875
vt 0.75 0.3125
vt 0.5 0.3125
vt 0.5 0.21875
vt 0.5 0.203125
vt 0.5 0.296875
vt 0.25 0.296875
vt 0.25 0.203125
vt 0.25 0.765625
vt 0.5 0.765625
vt 0.5 1
vt 0.25 1
vt 0.5 0.53125
vt 0.25 0.53125
vt 0.25 0.765625
vt 0.5 0.765625
vt 0.984375 0.8125
vt 0.984375 0.90625
vt 0.75 0.90625
vt 0.75 0.8125
vt 0.984375 0.71875
vt 0.984375 0.8125
vt 0.75 0.8125
vt 0.75 0.71875
vt 0.234375 0.296875
vt 0.234375 0.34375
vt 0.109375 0.34375
vt 0.109375 0.296875
vt 0.4453125 0.4296875
vt 0.4453125 0.4765625
vt 0.3203125 0.4765625
vt 0.3203125 0.4296875
vt 0.4609375 0.703125
vt 0.3359375 0.703125
vt 0.3359375 0.640625
vt 0.4609375 0.640625
vt 0.3203125 0.8125
vt 0.4453125 0.8125
vt 0.4453125 0.875
vt 0.3203125 0.875
vt 0.453125 0.34375
vt 0.453125 0.390625
vt 0.390625 0.390625
vt 0.390625 0.34375
vt 0.171875 0.5625
vt 0.171875 0.609375
vt 0.109375 0.609375
vt 0.109375 0.5625
vt 0.25 0.171875
vt 0.25 0.265625
vt 0 0.265625
vt 0 0.171875
vt 1 0.90625
vt 1 1
vt 0.75 1
vt 0.75 0.90625
vt 0.25 0.296875
vt 0.5 0.296875
vt 0.5 0.53125
vt 0.25 0.53125
vt 0.5 0.7578125
vt 0.25 0.7578125
vt 0.25 0.5234375
vt 0.5 0.5234375
vt 0.984375 0.625
vt 0.984375 0.71875
vt 0.75 0.71875
vt 0.75 0.625
vt 0.984375 0.53125
vt 0.984375 0.625
vt 0.75 0.625
vt 0.75 0.53125
vt 0.5 0.140625
vt 0.5 0.171875
vt 0.25 0.171875
vt 0.25 0.140625
vt 1 0.125
vt 1 0.15625
vt 0.75 0.15625
vt 0.75 0.125
vt 0.75 0.2578125
vt 1 0.2578125
vt 1 0.34375
vt 0.75 0.34375
vt 1 0.1640625
vt 0.75 0.1640625
vt 0.75 0.25
vt 1 0.25
vt 0.3984375 0.109375
vt 0.3984375 0.140625
vt 0.3125 0.140625
vt 0.3125 0.109375
vt 0.4921875 0.109375
vt 0.4921875 0.140625
vt 0.40625 0.140625
vt 0.40625 0.109375
vt 0.75 0.828125
vt 0.75 1
vt 0.5 1
vt 0.5 0.828125
vt 0.75 0.484375
vt 0.75 0.65625
vt 0.5 0.65625
vt 0.5 0.484375
vt 0 0.75
vt 0.25 0.75
vt 0.25 1
vt 0 1
vt 0.25 0.5
vt 0 0.5
vt 0 0.75
vt 0.25 0.75
vt 0.75 0.65625
vt 0.75 0.828125
vt 0.5 0.828125
vt 0.5 0.65625
vt 0.75 0.3125
vt 0.75 0.484375
vt 0.5 0.484375
vt 0.5 0.3125
vt 0.3203125 0.4296875
vt 0.3203125 0.4765625
vt 0.4453125 0.4765625
vt 0.4453125 0.4296875
vt 0.109375 0.296875
vt 0.109375 0.34375
vt 0.234375 0.34375
vt 0.234375 0.296875
vt 0.4609375 0.640625
vt 0.3359375 0.640625
vt 0.3359375 0.703125
vt 0.4609375 0.703125
vt 0.3203125 0.875
vt 0.4453125 0.875
vt 0.4453125 0.8125
vt 0.3203125 0.8125
vt 0.390625 0.34375
vt 0.390625 0.390625
vt 0.453125 0.390625
vt 0.453125 0.34375
vt 0.109375 0.5625
vt 0.109375 0.609375
vt 0.171875 0.609375
vt 0.171875 0.5625
vt 0.5 0.171875
vt 0.5 0.203125
vt 0.25 0.203125
vt 0.25 0.171875
vt 0.25 0.140625
vt 0.25 0.171875
vt 0 0.171875
vt 0 0.140625
vt 0.75 0.4453125
vt 1 0.4453125
vt 1 0.53125
vt 0.75 0.53125
vt 1 0.3515625
vt 0.75 0.3515625
vt 0.75 0.4375
vt 1 0.4375
vt 0.2109375 0.109375
vt 0.2109375 0.140625
vt 0.125 0.140625
vt 0.125 0.109375
vt 0.3046875 0.109375
vt 0.3046875 0.140625
vt 0.21875 0.140625
vt 0.21875 0.109375
vt 0.5625 0.0625
vt 0.5625 0.21875
vt 0.5 0.21875
vt 0.5 0.0625
vt 0.6875 0.0625
vt 0.6875 0.21875
vt 0.625 0.21875
vt 0.625 0.0625
vt 0 0.078125
vt 0.0625 0.078125
vt 0.0625 0.140625
vt 0 0.140625
vt 0.125 0.078125
vt 0.0625 0.078125
vt 0.0625 0.140625
vt 0.125 0.140625
vt 0.625 0.0625
vt 0.625 0.21875
vt 0.5625 0.21875
vt 0.5625 0.0625
vt 0.75 0.0625
vt 0.75 0.21875
vt 0.6875 0.21875
vt 0.6875 0.0625
vn 0 0 1
vn 0 0 -1
vn 0 1 0
vn 0 -1 0
vn -1 0 0
vn 1 0 0
vn 0 0 1
vn 0 0 -1
vn 0 1 0
vn 0 -1 0
vn -1 0 0
vn 1 0 0
vn 0 0 1
vn 0 0 -1
vn 0 1 0
vn 0 -1 0
vn -1 0 0
vn 1 0 0
vn 0 0.3826846051414449 0.9238790467305429
vn 0 -0.3826846051414446 -0.9238790467305431
vn 0 0.9238795817469418 -0.38268331349968193
vn 0 -0.9238795817469418 0.3826833134996819
vn -1 0 0
vn 1 0 0
vn 0 0 1
vn 0 0 -1
vn 0 1 0
vn 0 -1 0
vn -1 0 0
vn 1 0 0
vn 0 0 1
vn 0 0 -1
vn 0 1 0
vn 0 -1 0
vn -1 0 0
vn 1 0 0
vn 0 -0.3826846051414446 0.9238790467305431
vn 0 0.3826846051414449 -0.9238790467305429
vn 0 0.9238795817469418 0.38268331349968193
vn 0 -0.9238795817469418 -0.3826833134996819
vn -1 0 0
vn 1 0 0
vn 0 0 1
vn 0 0 -1
vn 0 1 0
vn 0 -1 0
vn -1 0 0
vn 1 0 0
usemtl m_4cb3c2b7-7a3f-74ed-e695-9bc64187eb48
f 4/1/1 2/2/1 1/3/1 3/4/1
f 7/5/2 5/6/2 6/7/2 8/8/2
f 1/9/3 2/10/3 6/11/3 5/12/3
f 4/13/4 3/14/4 7/15/4 8/16/4
f 3/17/5 1/18/5 5/19/5 7/20/5
f 8/21/6 6/22/6 2/23/6 4/24/6
f 12/25/7 10/26/7 9/27/7 11/28/7
f 15/29/8 13/30/8 14/31/8 16/32/8
f 9/33/9 10/34/9 14/35/9 13/36/9
f 12/37/10 11/38/10 15/39/10 16/40/10
f 11/41/11 9/42/11 13/43/11 15/44/11
f 16/45/12 14/46/12 10/47/12 12/48/12
f 20/49/13 18/50/13 17/51/13 19/52/13
f 23/53/14 21/54/14 22/55/14 24/56/14
f 17/57/15 18/58/15 22/59/15 21/60/15
f 20/61/16 19/62/16 23/63/16 24/64/16
f 19/65/17 17/66/17 21/67/17 23/68/17
f 24/69/18 22/70/18 18/71/18 20/72/18
f 28/73/19 26/74/19 25/75/19 27/76/19
f 31/77/20 29/78/20 30/79/20 32/80/20
f 25/81/21 26/82/21 30/83/21 29/84/21
f 28/85/22 27/86/22 31/87/22 32/88/22
f 27/89/23 25/90/23 29/91/23 31/92/23
f 32/93/24 30/94/24 26/95/24 28/96/24
f 36/97/25 34/98/25 33/99/25 35/100/25
f 39/101/26 37/102/26 38/103/26 40/104/26
f 33/105/27 34/106/27 38/107/27 37/108/27
f 36/109/28 35/110/28 39/111/28 40/112/28
f 35/113/29 33/114/29 37/115/29 39/116/29
f 40/117/30 38/118/30 34/119/30 36/120/30
f 44/121/31 42/122/31 41/123/31 43/124/31
f 47/125/32 45/126/32 46/127/32 48/128/32
f 41/129/33 42/130/33 46/131/33 45/132/33
f 44/133/34 43/134/34 47/135/34 48/136/34
f 43/137/35 41/138/35 45/139/35 47/140/35
f 48/141/36 46/142/36 42/143/36 44/144/36
f 52/145/37 50/146/37 49/147/37 51/148/37
f 55/149/38 53/150/38 54/151/38 56/152/38
f 49/153/39 50/154/39 54/155/39 53/156/39
f 52/157/40 51/158/40 55/159/40 56/160/40
f 51/161/41 49/162/41 53/163/41 55/164/41
f 56/165/42 54/166/42 50/167/42 52/168/42
f 60/169/43 58/170/43 57/171/43 59/172/43
f 63/173/44 61/174/44 62/175/44 64/176/44
f 57/177/45 58/178/45 62/179/45 61/180/45
f 60/181/46 59/182/46 63/183/46 64/184/46
f 59/185/47 57/186/47 61/187/47 63/188/47
f 64/189/48 62/190/48 58/191/48 60/192/48