# Made in Blockbench 4.12.5
mtllib jy290_cowcatcher.mtl

o cuboid_selection_selection_selection_selection_selection_selection_selection_selection_selection_selection_selection_selection
v 1.7124999999999986 -0.4206875000000001 0.5499999999999998
v 0.5433031249999986 -0.4206875000000001 0.3937499999999998
v 0.7718749999999985 0.0324374999999999 0.6124999999999998
v 1.9269656249999987 0.0324374999999999 0.6124999999999998
v 1.7124999999999986 -0.4206875000000001 0.5499999999999998
v 0.7718749999999985 0.0324374999999999 0.6124999999999998
v -1.0062500000000014 0.15625 0.578125
v -0.9437500000000014 0.03125 0.578125
v 2.0062499999999988 0.15625 0.578125
v 1.9437499999999988 0.03125 0.578125
v -1.0062500000000014 0.15625 0.5776250000000003
v -0.9437500000000014 0.03125 0.5776250000000003
v -0.9437500000000014 0.15625 0.5776250000000003
v -0.8812500000000014 0.03125 0.5776250000000003
v 2.0062499999999988 0.15625 0.5776250000000003
v 1.9437499999999988 0.03125 0.5776250000000003
v 1.9437499999999988 0.15625 0.5776250000000003
v 1.8812499999999988 0.03125 0.5776250000000003
v -0.9239656250000012 0.0324374999999999 0.6109999999999998
v -0.7095000000000014 -0.4206875000000001 0.5484999999999998
v -0.6470000000000014 -0.4206875000000001 0.5484999999999998
v -0.8614656250000012 0.0324374999999999 0.6109999999999998
v 1.9442499999999987 0.03125 1.2281250000000004
v 1.9442499999999987 0.03125 1.1656250000000004
v -0.9442500000000014 0.03125 1.2281250000000004
v -0.9442500000000014 0.03125 1.1656250000000004
v 2.006749999999999 0.4375 1.640625
v 2.0067499999999985 0.15625 1.359375
v 2.006749999999999 0.4375 1.578125
v 2.0067499999999985 0.15625 1.296875
v -1.0067500000000011 0.4375 1.640625
v -1.0067500000000014 0.15625 1.359375
v -1.0067500000000011 0.4375 1.578125
v -1.0067500000000014 0.15625 1.296875
v -1.0062500000000014 0.15625 1.359375
v -1.0062500000000014 0.15625 0.578125
v 0.39143812499999847 0.0949374999999999 0.18842499999999962
v 0.23997624999999873 0.4074374999999999 1.1259249999999996
v 0.3914381249999986 0.3824375 0.6884249999999996
v 0.39143812499999847 0.3824375 0.18842499999999962
v 0.3914381249999986 0.0949374999999999 0.6884249999999996
v 0.6186312499999986 0.3824375 0.6884249999999996
v 0.6186312499999985 0.3824375 0.18842499999999962
v 0.6186312499999986 0.0949374999999999 0.6884249999999996
v 0.6186312499999985 0.0949374999999999 0.18842499999999962
v 0.30909187499999846 0.45743749999999994 0.23842500000000033
v 0.30909187499999846 0.45743749999999994 -0.011574999999999669
v 0.30909187499999846 0.01993749999999994 0.23842500000000033
v 0.30909187499999846 0.01993749999999994 -0.011574999999999669
v 0.7009768749999985 0.45743749999999994 0.23842500000000033
v 0.7009768749999985 0.45743749999999994 -0.011574999999999669
v 0.7009768749999985 0.01993749999999994 0.23842500000000033
v 0.7009768749999985 0.01993749999999994 -0.011574999999999669
v 0.23997624999999856 0.4074374999999999 0.4540499999999996
v 0.23997624999999873 0.0636874999999999 1.1259249999999996
v 0.23997624999999856 0.0636874999999999 0.4540499999999996
v 0.7700924999999987 0.4074374999999999 1.1259249999999996
v 0.7700924999999985 0.4074374999999999 0.4540499999999996
v 0.7700924999999987 0.0636874999999999 1.1259249999999996
v 0.7700924999999985 0.0636874999999999 0.4540499999999996
v 1.7124999999999986 -0.4206875000000001 0.6440000000000001
v 1.9269656249999987 0.0324374999999999 1.0815000000000001
v -0.9269656250000013 0.0324374999999999 0.6124999999999998
v 1.9269656249999987 0.0324374999999999 0.6124999999999998
v -0.7125000000000012 -0.4206875000000001 0.6440000000000001
v -0.9269656250000013 0.0324374999999999 1.0815000000000001
v -0.7125000000000012 -0.4206875000000001 0.5499999999999998
v 1.7124999999999986 -0.4206875000000001 0.5499999999999998
v 0.45669687499999856 -0.4206875000000001 0.3937499999999998
v 0.5433031249999986 -0.4206875000000001 0.3937499999999998
v -1.0062500000000012 0.4375 1.640625
v -1.0062500000000012 0.6875 1.640625
v 2.1249999999999987 0.71875 1.015625
v 2.1249999999999982 0.71875 0.453125
v 2.1249999999999987 0.671875 1.015625
v 2.1249999999999982 0.671875 0.453125
v -1.1250000000000013 0.71875 1.015625
v -1.1250000000000016 0.71875 0.453125
v -1.1250000000000013 0.671875 1.015625
v -1.1250000000000016 0.671875 0.453125
v -1.0625000000000016 0.71875 0.390625
v 2.0624999999999982 0.71875 0.390625
v -1.0625000000000016 0.671875 0.390625
v 2.0624999999999982 0.671875 0.390625
v 2.0062499999999988 0.6875 0.6887499999999998
v 2.0062499999999988 0.6875 0.6262499999999998
v 0.4967999999999986 0.6875 0.6887499999999998
v -1.0062500000000014 0.6875 0.6887499999999998
v -1.0062500000000014 0.6875 0.6262499999999998
v 0.4999999999999986 0.6875 0.6887499999999998
v 0.4967999999999986 0.6875 0.6106249999999998
v -1.0062500000000014 0.6875 0.6887499999999998
v -1.0062500000000014 0.6875 0.6262499999999998
v 0.5000749999999986 0.6875 0.6887499999999998
v 0.5000749999999986 0.6875 0.6106249999999998
v 1.9999999999999987 0.6875 0.671875
v -1.0000000000000013 0.6875 0.671875
v 2.0062499999999988 0.6875 1.640625
v -0.9437500000000014 0.03125 1.2281250000000004
v -0.9437500000000014 0.03125 0.578125
v -0.9269656250000013 0.0324374999999999 0.6124999999999998
v -0.7125000000000012 -0.4206875000000001 0.6440000000000001
v -0.9269656250000013 0.0324374999999999 1.0815000000000001
v -0.7125000000000012 -0.4206875000000001 0.5499999999999998
v -1.0062500000000014 0.6875 0.578125
v -1.0062500000000014 0.4375 0.578125
v 2.0062499999999988 0.15625 1.359375
v 2.0062499999999988 0.15625 0.578125
v 1.9437499999999988 0.03125 1.2281250000000004
v 1.9437499999999988 0.03125 0.578125
v 1.9269656249999987 0.0324374999999999 0.6124999999999998
v 1.7124999999999986 -0.4206875000000001 0.6440000000000001
v 1.9269656249999987 0.0324374999999999 1.0815000000000001
v 1.7124999999999986 -0.4206875000000001 0.5499999999999998
v 2.0062499999999988 0.6875 0.578125
v 0.7718749999999985 0.0324374999999999 0.6124999999999998
v 0.22812499999999858 0.0324374999999999 0.6124999999999998
v 2.0062499999999988 0.4375 1.640625
v 2.0062499999999988 0.4375 0.578125
v 1.9239656249999986 0.0324374999999999 0.6109999999999998
v 1.7094999999999987 -0.4206875000000001 0.5484999999999998
v 1.6469999999999987 -0.4206875000000001 0.5484999999999998
v 1.8614656249999986 0.0324374999999999 0.6109999999999998
v -0.7125000000000012 -0.4206875000000001 0.5499999999999998
v 0.45669687499999856 -0.4206875000000001 0.3937499999999998
v 0.22812499999999858 0.0324374999999999 0.6124999999999998
v -0.9269656250000013 0.0324374999999999 0.6124999999999998
v -0.7125000000000012 -0.4206875000000001 0.5499999999999998
v 0.22812499999999858 0.0324374999999999 0.6124999999999998
v -0.43750000000000144 -0.2749999999999999 0.65625
v -0.43750000000000144 -0.2749999999999999 0.40625
v -0.43750000000000144 -0.3062499999999999 0.65625
v -0.43750000000000144 -0.3062499999999999 0.40625
v -0.6875000000000013 -0.2749999999999999 0.65625
v -0.6875000000000016 -0.2749999999999999 0.40625
v -0.6875000000000013 -0.3062499999999999 0.65625
v -0.6875000000000016 -0.3062499999999999 0.40625
v 1.6874999999999987 -0.2749999999999999 0.65625
v 1.6874999999999984 -0.2749999999999999 0.40625
v 1.6874999999999987 -0.3062499999999999 0.65625
v 1.6874999999999984 -0.3062499999999999 0.40625
v 1.4374999999999987 -0.2749999999999999 0.65625
v 1.4374999999999987 -0.2749999999999999 0.40625
v 1.4374999999999987 -0.3062499999999999 0.65625
v 1.4374999999999987 -0.3062499999999999 0.40625
v -0.03125000000000144 0.296875 0.625
v 0.06249999999999856 0.296875 0.625
v -0.03125000000000144 0.203125 0.625
v 0.06249999999999856 0.203125 0.625
v -0.03125000000000144 0.296875 0.5
v 0.06249999999999856 0.296875 0.5
v -0.03125000000000144 0.203125 0.5
v 0.06249999999999856 0.203125 0.5
v 0.03136624999999854 0.27057437500000003 0.5092443749999997
v -0.008263125000001481 0.24013624999999994 0.510974375
v 0.25623499999999855 0.02614062500000003 0.40073437499999986
v 0.21660499999999855 -0.004297500000000065 0.4024650000000003
v 0.030073749999998567 0.27057437500000003 0.47963500000000003
v -0.009556250000001487 0.24013624999999994 0.4813656249999996
v 0.25494187499999854 0.02614062500000003 0.37112562500000035
v 0.2153118749999985 -0.004297500000000065 0.3728562499999999
v 0.5296331249999985 -0.11470500000000006 0.3797487500000001
v 0.5283406249999986 -0.11470500000000006 0.3501399999999997
v 0.5692631249999985 -0.08426687499999996 0.37801874999999985
v 0.5679699999999985 -0.08426687499999996 0.34840937500000013
vt 0.98350046875 0.911248203125
vt 0.924675546875 0.880621640625
vt 0.99976734375 0.880621640625
vt 0.401112734375 0.880697734375
vt 0.460194453125 0.91133328125
vt 0.387642109375 0.91133328125
vt 0.140625 0.572265625
vt 0.3203125 0.572265625
vt 0.32421875 0.580078125
vt 0.13671875 0.580078125
vt 0.68359375 0.40625
vt 0.6796875 0.40625
vt 0.68359375 0.3984375
vt 0.6875 0.3984375
vt 0.68359375 0.3984375
vt 0.6796875 0.40625
vt 0.68359375 0.40625
vt 0.6875 0.3984375
vt 0.07421875 1
vt 0.078125 0.9686679687499999
vt 0.07421875 0.9686679687499999
vt 0.0703125 1
vt 0.75 0.426171875
vt 0.74609375 0.4375
vt 0.75 0.4375
vt 0.75390625 0.426171875
vt 0.75 0.4375
vt 0.74609375 0.4375
vt 0.75 0.426171875
vt 0.75390625 0.426171875
vt 0.79296875 0.197797265625
vt 0.79296875 0.22265625
vt 0.796875 0.22265625
vt 0.796875 0.197797265625
vt 0.796875 0.22265625
vt 0.79296875 0.22265625
vt 0.79296875 0.197797265625
vt 0.796875 0.197797265625
vt 0.189453125 0.478515625
vt 0.20703125 0.49609375
vt 0.140625 0.49609375
vt 0.140625 0.478515625
vt 0.15625 0.97265625
vt 0.140625 0.97265625
vt 0.140625 0.953125
vt 0.15625 0.953125
vt 0.48828125 0.44140625
vt 0.47265625 0.44140625
vt 0.47265625 0.421875
vt 0.48828125 0.421875
vt 0.3828125 0.41015625
vt 0.3828125 0.42578125
vt 0.3671875 0.42578125
vt 0.3671875 0.41015625
vt 0.52734375 0.42578125
vt 0.52734375 0.41015625
vt 0.54296875 0.41015625
vt 0.54296875 0.42578125
vt 0.109375 0.859375
vt 0.09375 0.859375
vt 0.09375 0.83203125
vt 0.109375 0.83203125
vt 0.5703125 0.734375
vt 0.5546875 0.734375
vt 0.5546875 0.70703125
vt 0.5703125 0.70703125
vt 0.11328125 0.95703125
vt 0.11328125 0.98046875
vt 0.09765625 0.98046875
vt 0.09765625 0.95703125
vt 0.55859375 0.84765625
vt 0.55859375 0.82421875
vt 0.57421875 0.82421875
vt 0.57421875 0.84765625
vt 0.18359375 0.84765625
vt 0.16015625 0.84765625
vt 0.16015625 0.8203125
vt 0.18359375 0.8203125
vt 0.515625 0.453125
vt 0.4921875 0.453125
vt 0.4921875 0.42578125
vt 0.515625 0.42578125
vt 0.57421875 0.47265625
vt 0.53125 0.47265625
vt 0.53125 0.44921875
vt 0.57421875 0.44921875
vt 0.171875 0.46484375
vt 0.12890625 0.46484375
vt 0.12890625 0.44140625
vt 0.171875 0.44140625
vt 0.078125 0.44921875
vt 0.078125 0.48046875
vt 0.03515625 0.48046875
vt 0.03515625 0.44921875
vt 0.08203125 0.48046875
vt 0.08203125 0.44921875
vt 0.125 0.44921875
vt 0.125 0.48046875
vt 0.16796875 0.6328125
vt 0.13671875 0.6328125
vt 0.13671875 0.609375
vt 0.16796875 0.609375
vt 0.3984375 0.453125
vt 0.3671875 0.453125
vt 0.3671875 0.4296875
vt 0.3984375 0.4296875
vt 0.14453125 0.4375
vt 0.12890625 0.4375
vt 0.12890625 0.41796875
vt 0.14453125 0.41796875
vt 0.371751953125 0.95703125
vt 0.38515625 0.91796875
vt 0.53671875 0.91796875
vt 0.550123046875 0.95703125
vt 0.2988203125 0.565625
vt 0.2988203125 0.4140625
vt 0.3046953125 0.4140625
vt 0.3046953125 0.565625
vt 0.3046953125 0.4140625
vt 0.3144609375 0.487137109375
vt 0.3144609375 0.49255039062499995
vt 0.3046953125 0.565625
vt 0 0.6328125
vt 0 0.453125
vt 0.03125 0.453125
vt 0.03125 0.6328125
vt 0.171875 0.6015625
vt 0.171875 0.60546875
vt 0.13671875 0.60546875
vt 0.13671875 0.6015625
vt 0.4921875 0.56640625
vt 0.4921875 0.5703125
vt 0.45703125 0.5703125
vt 0.45703125 0.56640625
vt 0.53125 0.6328125
vt 0.53125 0.66796875
vt 0.328125 0.66796875
vt 0.328125 0.6328125
vt 0.56640625 0.96484375
vt 0.56640625 1
vt 0.36328125 1
vt 0.36328125 0.96484375
vt 0.72265625 0.59375
vt 0.72265625 0.59765625
vt 0.51953125 0.59765625
vt 0.51953125 0.59375
vt 0.73046875 0.63671875
vt 0.73046875 0.640625
vt 0.53515625 0.640625
vt 0.53515625 0.63671875
vt 0.09375 0.80859375
vt 0.09375 0.8046875
vt 0.09765625 0.8046875
vt 0.09765625 0.80859375
vt 0.52734375 0.671875
vt 0.33203125 0.671875
vt 0.328125 0.66796875
vt 0.53125 0.66796875
vt 0.1171875 0.80078125
vt 0.1171875 0.8046875
vt 0.11328125 0.8046875
vt 0.11328125 0.80078125
vt 0.3671875 0.9609375
vt 0.5625 0.9609375
vt 0.56640625 0.96484375
vt 0.36328125 0.96484375
vt 0.6484375 0.8681640625
vt 0.6484375 0.8720703125
vt 0.5546875 0.8720703125
vt 0.5546875 0.8671875
vt 0.1899423046875 0.3671875
vt 0.1889637109375 0.46132304687500003
vt 0.1850576953125 0.461282421875
vt 0.1850576953125 0.36733671874999996
vt 0.6484375 0.7431640625
vt 0.5546875 0.7431640625
vt 0.5546875 0.7392578125
vt 0.6484375 0.73828125
vt 0.6875 0.7734375
vt 0.6875 0.78125
vt 0.5 0.78125
vt 0.5 0.7734375
vt 0.6171875 0.75
vt 0.6171875 0.765625
vt 0.4296875 0.765625
vt 0.4296875 0.75
vt 0.29296875 0.56640625
vt 0.10546875 0.56640625
vt 0.10546875 0.55078125
vt 0.29296875 0.55078125
vt 0.55078125 0.703125
vt 0.55078125 0.7421875
vt 0.37109375 0.7421875
vt 0.37109375 0.703125
vt 0.515625 0.601171875
vt 0.515625 0.626030859375
vt 0.328125 0.626030859375
vt 0.328125 0.601171875
vt 0.32421875 0.59765625
vt 0.13671875 0.59765625
vt 0.13671875 0.580078125
vt 0.32421875 0.580078125
vt 0.33203125 0.58984375
vt 0.51171875 0.58984375
vt 0.515625 0.601171875
vt 0.328125 0.601171875
vt 0.140625 0.46978125000000004
vt 0.18125 0.46978125000000004
vt 0.189453125 0.478515625
vt 0.140625 0.478515625
vt 0.1597008984375 1
vt 0.1335255078125 0.9823413671875
vt 0.1373884375 0.9765625
vt 0.1789744921875 0.9765625
vt 0.8984375 0.34765625
vt 0.8984375 0.36328125
vt 0.83203125 0.36328125
vt 0.83203125 0.34765625
vt 0.140625 0.49609375
vt 0.20703125 0.49609375
vt 0.189453125 0.478515625
vt 0.140625 0.478515625
vt 0.189453125 0.478515625
vt 0.18125 0.46978125000000004
vt 0.140625 0.46978125000000004
vt 0.140625 0.478515625
vt 0.1373884375 0.9765625
vt 0.1335255078125 0.9823413671875
vt 0.1597008984375 1
vt 0.1789744921875 0.9765625
vt 0.83203125 0.36328125
vt 0.8984375 0.36328125
vt 0.8984375 0.34765625
vt 0.83203125 0.34765625
vt 0.49921875 0.91128125
vt 0.46953125 0.91128125
vt 0.4820105859375 0.8806535156249999
vt 0.4867394140625 0.8806535156249999
vt 0.82421875 0.41796875
vt 0.82421875 0.60546875
vt 0.7578125 0.60546875
vt 0.7578125 0.41796875
vt 0.07421875 0.9686679687499999
vt 0.078125 0.9686679687499999
vt 0.07421875 1
vt 0.0703125 1
vt 0.924675546875 0.880621640625
vt 0.98350046875 0.911248203125
vt 0.99976734375 0.880621640625
vt 0.460194453125 0.91133328125
vt 0.401112734375 0.880697734375
vt 0.387642109375 0.91133328125
vt 0.6875 0.302734375
vt 0.6875 0.3046875
vt 0.671875 0.3046875
vt 0.671875 0.302734375
vt 0.98828125 0.173828125
vt 0.98828125 0.17578125
vt 0.97265625 0.17578125
vt 0.97265625 0.173828125
vt 0.68359375 0.8359375
vt 0.68359375 0.8515625
vt 0.66796875 0.8515625
vt 0.66796875 0.8359375
vt 0.9375 0.77734375
vt 0.9375 0.79296875
vt 0.921875 0.79296875
vt 0.921875 0.77734375
vt 0.1640625 0.099609375
vt 0.1640625 0.1015625
vt 0.1484375 0.1015625
vt 0.1484375 0.099609375
vt 0.69921875 0.705078125
vt 0.69921875 0.70703125
vt 0.68359375 0.70703125
vt 0.68359375 0.705078125
vt 0.97265625 0.173828125
vt 0.97265625 0.17578125
vt 0.98828125 0.17578125
vt 0.98828125 0.173828125
vt 0.671875 0.302734375
vt 0.671875 0.3046875
vt 0.6875 0.3046875
vt 0.6875 0.302734375
vt 0.66796875 0.8359375
vt 0.66796875 0.8515625
vt 0.68359375 0.8515625
vt 0.68359375 0.8359375
vt 0.921875 0.77734375
vt 0.921875 0.79296875
vt 0.9375 0.79296875
vt 0.9375 0.77734375
vt 0.1484375 0.099609375
vt 0.1484375 0.1015625
vt 0.1640625 0.1015625
vt 0.1640625 0.099609375
vt 0.68359375 0.705078125
vt 0.68359375 0.70703125
vt 0.69921875 0.70703125
vt 0.69921875 0.705078125
vt 0.638856640625 0.3984375
vt 0.638856640625 0.404296875
vt 0.632997265625 0.404296875
vt 0.632997265625 0.3984375
vt 0.617372265625 0.390625
vt 0.623231640625 0.390625
vt 0.623231640625 0.3984375
vt 0.617372265625 0.3984375
vt 0.638856640625 0.421875
vt 0.632997265625 0.421875
vt 0.632997265625 0.4140625
vt 0.638856640625 0.4140625
vt 0.640809765625 0.416015625
vt 0.640809765625 0.421875
vt 0.632997265625 0.421875
vt 0.632997265625 0.416015625
vt 0.640809765625 0.416015625
vt 0.640809765625 0.421875
vt 0.632997265625 0.421875
vt 0.632997265625 0.416015625
vt 0.945497265625 0.2890625
vt 0.941591015625 0.2890625
vt 0.941591015625 0.28515625
vt 0.945497265625 0.28515625
vt 0.7679705078125 0.317701171875
vt 0.7661181640625 0.317701171875
vt 0.7602966796875 0.29080039062499996
vt 0.7621490234375 0.29080039062499996
vt 0.968934765625 0.65234375
vt 0.968934765625 0.6484375
vt 0.972841015625 0.6484375
vt 0.972841015625 0.65234375
vt 0.988466015625 0.528840390625
vt 0.992372265625 0.52734375
vt 0.992372265625 0.5518998046875
vt 0.988466015625 0.5533964453125
vt 0.871278515625 0.20591281250000004
vt 0.875184765625 0.20498703124999995
vt 0.875184765625 0.22954296875000002
vt 0.871278515625 0.23046875
vt 0.9422365625 0.58203125
vt 0.943733203125 0.578125
vt 0.96828921875 0.578125
vt 0.966792578125 0.58203125
vt 0.991733984375 0.6415593749999999
vt 0.988608984375 0.6415593749999999
vt 0.996875 0.6153066406250001
vt 1 0.6153066406250001
vt 0.84877203125 0.29296875
vt 0.8496978125 0.2890625
vt 0.87425375 0.2890625
vt 0.87332796875 0.29296875
vt 0.9569076171875 0.83203125
vt 0.9550552734375 0.83203125
vt 0.9608767578125 0.80513046875
vt 0.9627291015625 0.80513046875
vt 0.890666796875 0.22265625
vt 0.887541796875 0.22265625
vt 0.87927578125 0.19640351562500002
vt 0.88240078125 0.19640351562500002
vn 0.12248728367422938 0.38068811238782085 -0.9165551955145457
vn -2.1996207727325576e-16 0.13663739713703102 -0.9906211292434749
vn -2.220446049250313e-16 0 -1
vn -2.220446049250313e-16 0 -1
vn -2.220446049250313e-16 0 -1
vn -2.1996207727325579e-16 0.13663739713703105 -0.990621129243475
vn 0.8944271909999161 -0.44721359549995804 -1.9860273225978188e-16
vn -0.8944271909999161 -0.44721359549995804 1.9860273225978188e-16
vn 1 0 -2.220446049250313e-16
vn -1 0 2.220446049250313e-16
vn -1 0 2.220446049250313e-16
vn -1 0 2.220446049250313e-16
vn 1 0 -2.220446049250313e-16
vn 0 1 0
vn 0 -1 0
vn -1 0 2.220446049250313e-16
vn 1 0 -2.220446049250313e-16
vn 0 1 0
vn 0 -1 0
vn 2.220446049250313e-16 0 1
vn -2.220446049250313e-16 0 -1
vn -1 0 2.220446049250313e-16
vn 1 0 -2.220446049250313e-16
vn 0 1 0
vn 0 -1 0
vn -2.220446049250313e-16 0 -1
vn 2.220446049250313e-16 0 1
vn 2.220446049250313e-16 0 1
vn 1.5973921310528306e-16 -0.6945945136995675 0.7194014606174091
vn 0 -1 0
vn 0 -1 0
vn 0 1 0
vn 1 0 -2.220446049250313e-16
vn -1 0 2.220446049250313e-16
vn 0 1 0
vn 0 -1 0
vn 2.220446049250313e-16 0 1
vn -2.220446049250313e-16 0 -1
vn -0.7071067811865477 0 -0.7071067811865475
vn 0 1 0
vn 0.7071067811865475 0 -0.7071067811865477
vn 0 -1 0
vn 0 -1 0
vn 0 -1 0
vn 0 -1 0
vn 0 1 0
vn -2.220446049250313e-16 0 -1
vn 2.220446049250313e-16 0 1
vn 0 -1 0
vn 1.5700924586837752e-16 -0.7071067811865476 0.7071067811865476
vn -2.220446049250313e-16 0 -1
vn 1.5313421029312527e-16 -0.7241379310344819 0.6896551724137941
vn -0.8944271909999161 -0.44721359549995804 1.9860273225978188e-16
vn -0.9038709430277108 -0.42780523413137106 2.0069966644780352e-16
vn -1 0 2.220446049250313e-16
vn 1 0 -2.220446049250313e-16
vn 0.8944271909999161 -0.44721359549995804 -1.9860273225978188e-16
vn 0.9038709430277106 -0.4278052341313709 -2.006996664478035e-16
vn 1 0 -2.220446049250313e-16
vn -1.999626323111633e-16 0.43474906583117584 -0.9005516363645786
vn 0 1 0
vn -2.1996207727325579e-16 0.13663739713703105 -0.990621129243475
vn -0.1224872836742298 0.38068811238782085 -0.9165551955145457
vn -2.1996207727325576e-16 0.13663739713703102 -0.9906211292434749
vn 1 0 -2.220446049250313e-16
vn -1 0 2.220446049250313e-16
vn 0 1 0
vn 0 -1 0
vn 2.220446049250313e-16 0 1
vn -2.220446049250313e-16 0 -1
vn 1 0 -2.220446049250313e-16
vn -1 0 2.220446049250313e-16
vn 0 1 0
vn 0 -1 0
vn 2.220446049250313e-16 0 1
vn -2.220446049250313e-16 0 -1
vn -2.220446049250313e-16 0 -1
vn 0 1 0
vn 0 -1 0
vn -1 0 2.220446049250313e-16
vn 1 0 -2.220446049250313e-16
vn -0.608187653728168 0.7933487549015444 0.026561832557174286
vn -0.7284975950897904 -0.6843091276634399 0.03181621826826467
vn 0.6081821875548372 -0.7933533829883718 -0.026548755939194202
vn 0.06331975587472688 -0.025737714848758482 0.9976613546441142
vn 0.3316546271971022 0.9432896763396029 -0.014484293903341642
vn -0.06332629550972471 0.02572444775765829 -0.9976612817407413
vn 0.21422558073550574 -0.22488855635790336 0.9505432855887173
vn -0.3316550902966582 -0.9432896159853678 0.01447761908923634
vn 0.7285005495029809 0.6843067224541681 -0.031800298393079816
vn -0.21423237450797622 0.22488228530306226 -0.9505432380852259
usemtl m_1964665e-2559-dfac-dfad-3e245265c8bf
f 3/1/1 1/2/1 2/3/1
f 5/4/2 6/5/2 4/6/2
f 10/7/3 8/8/3 7/9/3 9/10/3
f 11/11/4 13/12/4 14/13/4 12/14/4
f 18/15/5 17/16/5 15/17/5 16/18/5
f 22/19/6 21/20/6 20/21/6 19/22/6
f 24/23/7 30/24/7 28/25/7 23/26/7
f 32/27/8 34/28/8 26/29/8 25/30/8
f 30/31/9 29/32/9 27/33/9 28/34/9
f 31/35/10 33/36/10 34/37/10 32/38/10
f 35/39/11 71/40/11 106/41/11 36/42/11
f 39/43/12 40/44/12 37/45/12 41/46/12
f 43/47/13 42/48/13 44/49/13 45/50/13
f 43/51/14 40/52/14 39/53/14 42/54/14
f 44/55/15 41/56/15 37/57/15 45/58/15
f 46/59/16 47/60/16 49/61/16 48/62/16
f 51/63/17 50/64/17 52/65/17 53/66/17
f 51/67/18 47/68/18 46/69/18 50/70/18
f 52/71/19 48/72/19 49/73/19 53/74/19
f 50/75/20 46/76/20 48/77/20 52/78/20
f 47/79/21 51/80/21 53/81/21 49/82/21
f 38/83/22 54/84/22 56/85/22 55/86/22
f 58/87/23 57/88/23 59/89/23 60/90/23
f 58/91/24 54/92/24 38/93/24 57/94/24
f 59/95/25 55/96/25 56/97/25 60/98/25
f 54/99/26 58/100/26 60/101/26 56/102/26
f 57/103/27 38/104/27 55/105/27 59/106/27
f 42/107/28 39/108/28 41/109/28 44/110/28
f 66/111/29 65/112/29 61/113/29 62/114/29
f 61/115/30 65/116/30 67/117/30 68/118/30
f 67/119/31 69/120/31 70/121/31 68/122/31
f 66/123/32 62/124/32 64/125/32 63/126/32
f 76/127/33 74/128/33 73/129/33 75/130/33
f 79/131/34 77/132/34 78/133/34 80/134/34
f 73/135/35 74/136/35 78/137/35 77/138/35
f 76/139/36 75/140/36 79/141/36 80/142/36
f 75/143/37 73/144/37 77/145/37 79/146/37
f 83/147/38 81/148/38 82/149/38 84/150/38
f 81/151/39 83/152/39 80/153/39 78/154/39
f 82/155/40 81/156/40 78/157/40 74/158/40
f 84/159/41 82/160/41 74/161/41 76/162/41
f 83/163/42 84/164/42 76/165/42 80/166/42
f 86/167/43 85/168/43 87/169/43 91/170/43
f 90/171/44 88/172/44 89/173/44 91/174/44
f 94/175/45 92/176/45 93/177/45 95/178/45
f 96/179/46 115/180/46 105/181/46 97/182/46
f 106/183/47 105/184/47 115/185/47 119/186/47
f 98/187/48 72/188/48 71/189/48 118/190/48
f 110/191/49 109/192/49 99/193/49 100/194/49
f 107/195/50 118/196/50 71/197/50 35/198/50
f 106/199/51 119/200/51 108/201/51 36/202/51
f 99/203/52 109/204/52 107/205/52 35/206/52
f 100/207/53 99/208/53 35/209/53 36/210/53
f 101/211/54 104/212/54 102/213/54 103/214/54
f 71/215/55 72/216/55 105/217/55 106/218/55
f 119/219/56 118/220/56 107/221/56 108/222/56
f 107/223/57 109/224/57 110/225/57 108/226/57
f 112/227/58 114/228/58 111/229/58 113/230/58
f 115/231/59 98/232/59 118/233/59 119/234/59
f 117/235/60 116/236/60 70/237/60 69/238/60
f 115/239/61 105/240/61 72/241/61 98/242/61
f 121/243/62 122/244/62 123/245/62 120/246/62
f 124/247/63 126/248/63 125/249/63
f 129/250/64 128/251/64 127/252/64
f 133/253/65 131/254/65 130/255/65 132/256/65
f 136/257/66 134/258/66 135/259/66 137/260/66
f 130/261/67 131/262/67 135/263/67 134/264/67
f 133/265/68 132/266/68 136/267/68 137/268/68
f 132/269/69 130/270/69 134/271/69 136/272/69
f 137/273/70 135/274/70 131/275/70 133/276/70
f 141/277/71 139/278/71 138/279/71 140/280/71
f 144/281/72 142/282/72 143/283/72 145/284/72
f 138/285/73 139/286/73 143/287/73 142/288/73
f 141/289/74 140/290/74 144/291/74 145/292/74
f 140/293/75 138/294/75 142/295/75 144/296/75
f 145/297/76 143/298/76 139/299/76 141/300/76
f 152/301/77 150/302/77 151/303/77 153/304/77
f 146/305/78 147/306/78 151/307/78 150/308/78
f 149/309/79 148/310/79 152/311/79 153/312/79
f 148/313/80 146/314/80 150/315/80 152/316/80
f 153/317/81 151/318/81 147/319/81 149/320/81
f 159/321/82 155/322/82 154/323/82 158/324/82
f 155/325/83 159/326/83 161/327/83 157/328/83
f 164/329/84 162/330/84 163/331/84 165/332/84
f 162/333/85 164/334/85 156/335/85 157/336/85
f 164/337/86 165/338/86 160/339/86 156/340/86
f 165/341/87 163/342/87 161/343/87 160/344/87
f 154/345/88 155/346/88 157/347/88 156/348/88
f 163/349/89 162/350/89 157/351/89 161/352/89
f 158/353/90 154/354/90 156/355/90 160/356/90
f 159/357/91 158/358/91 160/359/91 161/360/91