# Made in Blockbench 4.12.1
mtllib hxd3d_carport.mtl

o cylinder_selection_selection
v 0.9687500498247417 0.03980616265848025 -0.012746459993237869
v 0.03125004982474611 0.03980616265847958 -0.012746459993237647
v 0.03125004982474611 0.4599169259255551 0.24849865170346552
v 0.9674907293150214 0.45991692592555533 0.24849865170346597
v 0.9687500498247417 0.023303885102049504 0.013791010410900695
v 0.03125004982474611 0.023303885102048838 0.013791010410900917
v 0.03125004982474611 0.4434146483691239 0.2750361221076041
v 0.9674907293150214 0.4434146483691246 0.27503612210760453
v 1.053671461193062e-8 0.4997231315317654 0.3042520680381071
v 1.0000000105367146 0.4997231315317656 0.30425206803810756
v 1.053671461193062e-8 -4.294772748547615e-8 -0.006499876327883625
v 1.0000000105367146 -4.294772737445385e-8 -0.006499876327883403
v 1.0000000105367146 -4.2947727263431545e-8 1.000000147513974
v 1.0000000105367146 0.49999995705227285 1.0000001475139746
v 1.053671461193062e-8 -4.294772737445385e-8 1.0000001475139735
v 1.053671461193062e-8 0.4999999570522726 1.0000001475139741
vt 0.234375 0.42319687500000014
vt 0 0.42319687500000014
vt 0 0.5468750000000001
vt 0.2340609375 0.5468750000000001
vt 0.25 0.546875
vt 0.25 0.421875
vt 0.234375 0.421875
vt 0.234375 0.546875
vt 0.484375 0.703125
vt 0.703125 0.703125
vt 0.703125 0.6875
vt 0.484375 0.6875
vt 0.53125 1
vt 0.65625 1
vt 0.65625 0.984375
vt 0.53125 0.984375
vt 0.515625 0.671875
vt 0.734375 0.671875
vt 0.734375 0.65625
vt 0.515625 0.65625
vt 0.265625 0.859375
vt 0.265625 1
vt 0.515625 1
vt 0.515625 0.859375
vt 0.515625 0.4375
vt 0.265625 0.4375
vt 0.265625 0.5625
vt 0.515625 0.5625
vt 0 0.5625
vt 0 0.734375
vt 0.25 0.734375
vt 0.25 0.5625
vt 0.52421875 0.578125
vt 0.27265625 0.578125
vt 0.27265625 0.703125
vt 0.44653125 0.70305625
vt 0 1
vt 0.25 1
vt 0.25 0.75
vt 0 0.75
vt 0.2726315473971782 0.718849477322806
vt 0.3503684390109819 0.84375
vt 0.5242434526028218 0.84375
vt 0.5241940277324941 0.7187500097712716
vn -4.81377236774462e-16 0.5280728818057752 -0.8491990529324347
vn -1 -1.2246467991473535e-16 -2.7755575615628914e-16
vn -3.758075747423265e-16 0.8491990529324243 0.5280728818057918
vn 0.9999967600983105 0.0021616733248299427 0.0013442326133359839
vn 4.026824703208318e-16 -0.8491990529324306 -0.5280728818057815
vn 3.5969433134226196e-16 0.5280728818057691 -0.8491990529324384
vn -4.996003610813202e-16 -1.2098029496354525e-15 1
vn -1.2227631955392426e-16 0.9999999208450334 -0.00039788180055562683
vn -1 -1.2246467991473535e-16 -2.7755575615628914e-16
vn 1.2246467991473535e-16 -1 1.2246467991473535e-16
vn 1 1.2246467991473535e-16 2.7755575615628914e-16
usemtl m_b2c94064-809f-6990-1cb9-7245f5b61d9e
f 1/1/1 2/2/1 3/3/1 4/4/1
f 3/5/2 2/6/2 6/7/2 7/8/2
f 4/9/3 3/10/3 7/11/3 8/12/3
f 1/13/4 4/14/4 8/15/4 5/16/4
f 2/17/5 1/18/5 5/19/5 6/20/5
f 11/21/6 9/22/6 10/23/6 12/24/6
f 15/25/7 13/26/7 14/27/7 16/28/7
f 9/29/8 16/30/8 14/31/8 10/32/8
f 11/33/9 15/34/9 16/35/9 9/36/9
f 11/37/10 12/38/10 13/39/10 15/40/10
f 12/41/11 10/42/11 14/43/11 13/44/11