# Made in Blockbench 4.12.3
mtllib sw220k_top_a.mtl

o cube
v 0.9937500000000001 0.433379375 1.3858506096584844
v 0.9937500000000001 0.433379375 1.0123313994130203
v 0.9937500000000001 0.308379375 1.3858506096584844
v 0.9937500000000001 0.308379375 1.0123313994130203
v 0.003124999999999989 0.433379375 1.3858506096584844
v 0.003124999999999989 0.433379375 1.0123313994130203
v 0.003124999999999989 0.308379375 1.3858506096584844
v 0.003124999999999989 0.308379375 1.0123313994130203
v 0.6546875 0.6875 0.009138207043756674
v 0.6546875 0.6875 -1.0839981323372463
v 0.6546875 0.3125 0.009138207043756674
v 0.6546875 0.3125 -1.0839981323372463
v -0.24843749999999998 0.6875 0.009138207043756674
v -0.24843749999999998 0.6875 -1.0839981323372463
v -0.24843749999999998 0.3125 0.009138207043756674
v -0.24843749999999998 0.3125 -1.0839981323372463
v 0.9937500000000001 0.433379375 -0.012331399413020305
v 0.9937500000000001 0.433379375 -0.3858506096584844
v 0.9937500000000001 0.308379375 -0.012331399413020305
v 0.9937500000000001 0.308379375 -0.3858506096584844
v 0.003124999999999989 0.433379375 -0.012331399413020305
v 0.003124999999999989 0.433379375 -0.3858506096584844
v 0.003124999999999989 0.308379375 -0.012331399413020305
v 0.003124999999999989 0.308379375 -0.3858506096584844
v 1 1 1
v 1 1 0
v 1 0.3125 1
v 1 0.3125 0
v 0 1 1
v 0 1 0
v 0 0.3125 1
v 0 0.3125 0
v 0.6546875 0.6875 2.0839981323372463
v 0.6546875 0.6875 0.9908617929562433
v 0.6546875 0.3125 2.0839981323372463
v 0.6546875 0.3125 0.9908617929562433
v -0.24843749999999998 0.6875 2.0839981323372463
v -0.24843749999999998 0.6875 0.9908617929562433
v -0.24843749999999998 0.3125 2.0839981323372463
v -0.24843749999999998 0.3125 0.9908617929562433
v 1.5359375000000002 0.6875 0.009138207043756674
v 1.5359375000000002 0.6875 -1.0839981323372463
v 1.5359375000000002 0.3125 0.009138207043756674
v 1.5359375000000002 0.3125 -1.0839981323372463
v 0.6578125000000001 0.6875 0.009138207043756674
v 0.6578125000000001 0.6875 -1.0839981323372463
v 0.6578125000000001 0.3125 0.009138207043756674
v 0.6578125000000001 0.3125 -1.0839981323372463
v 1.5359375000000002 0.6875 2.0839981323372463
v 1.5359375000000002 0.6875 0.9908617929562433
v 1.5359375000000002 0.3125 2.0839981323372463
v 1.5359375000000002 0.3125 0.9908617929562433
v 0.6578125000000001 0.6875 2.0839981323372463
v 0.6578125000000001 0.6875 0.9908617929562433
v 0.6578125000000001 0.3125 2.0839981323372463
v 0.6578125000000001 0.3125 0.9908617929562433
v 0.625 0.375 0.6383404482390609
v 0.625 0.375 0.3616595517609391
v 0.625 -0.25 0.6383404482390609
v 0.625 -0.25 0.3616595517609391
v 0.375 0.375 0.6383404482390609
v 0.375 0.375 0.3616595517609391
v 0.375 -0.25 0.6383404482390609
v 0.375 -0.25 0.3616595517609391
v 1.3234375 -0.04375000000000001 2.085727387940235
v 1.3234375 -0.04375000000000001 1.9543039621131268
v 1.3234375 -0.16249999999999998 2.085727387940235
v 1.3234375 -0.16249999999999998 1.9543039621131268
v 0.4859375 -0.04375000000000001 2.085727387940235
v 0.4859375 -0.04375000000000001 1.9543039621131268
v 0.4859375 -0.16249999999999998 2.085727387940235
v 0.4859375 -0.16249999999999998 1.9543039621131268
v 0.5734375 0.09375 2.113395477588047
v 0.5734375 0.09375 1.629203908751334
v 0.5734375 -0.11875000000000002 2.113395477588047
v 0.5734375 -0.11875000000000002 1.629203908751334
v 0.4359375 0.09375 2.113395477588047
v 0.4359375 0.09375 1.629203908751334
v 0.4359375 -0.11875000000000002 2.113395477588047
v 0.4359375 -0.11875000000000002 1.629203908751334
v 1.4375 0.4 2.1185832443970116
v 1.4375 0.4 1.9249066168623266
v 1.4375 -0.125 2.1185832443970116
v 1.4375 -0.125 1.9249066168623266
v 1.3125 0.4 2.1185832443970116
v 1.3125 0.4 1.9249066168623266
v 1.3125 -0.125 2.1185832443970116
v 1.3125 -0.125 1.9249066168623266
v 1.3125 0.396875 2.1185832443970116
v 1.3125 0.396875 1.9249066168623266
v 1.3125 0.125 2.1185832443970116
v 1.3125 0.125 1.9249066168623266
v 1.25 0.396875 2.1185832443970116
v 1.25 0.396875 1.9249066168623266
v 1.25 0.125 2.1185832443970116
v 1.25 0.125 1.9249066168623266
v 1.2494408330571098 0.37361158396412075 2.1168539887940234
v 1.2494408330571098 0.37361158396412075 1.9249066168623266
v 1.4359990063350911 -0.07677968813513159 2.1168539887940234
v 1.4359990063350911 -0.07677968813513159 1.9249066168623266
v 1.1512786327277857 0.33295146927533004 2.1168539887940234
v 1.1512786327277857 0.33295146927533004 1.9249066168623266
v 1.337836806005767 -0.1174398028239223 2.1168539887940234
v 1.337836806005767 -0.1174398028239223 1.9249066168623266
v 1.3234375 -0.04375000000000001 -0.9543039621131268
v 1.3234375 -0.04375000000000001 -1.085727387940235
v 1.3234375 -0.16249999999999998 -0.9543039621131268
v 1.3234375 -0.16249999999999998 -1.085727387940235
v 0.4859375 -0.04375000000000001 -0.9543039621131268
v 0.4859375 -0.04375000000000001 -1.085727387940235
v 0.4859375 -0.16249999999999998 -0.9543039621131268
v 0.4859375 -0.16249999999999998 -1.085727387940235
v 0.5734375 0.09375 -0.6292039087513339
v 0.5734375 0.09375 -1.113395477588047
v 0.5734375 -0.11875000000000002 -0.6292039087513339
v 0.5734375 -0.11875000000000002 -1.113395477588047
v 0.4359375 0.09375 -0.6292039087513339
v 0.4359375 0.09375 -1.113395477588047
v 0.4359375 -0.11875000000000002 -0.6292039087513339
v 0.4359375 -0.11875000000000002 -1.113395477588047
v 1.4375 0.4 -0.9249066168623266
v 1.4375 0.4 -1.1185832443970116
v 1.4375 -0.125 -0.9249066168623266
v 1.4375 -0.125 -1.1185832443970116
v 1.3125 0.4 -0.9249066168623266
v 1.3125 0.4 -1.1185832443970116
v 1.3125 -0.125 -0.9249066168623266
v 1.3125 -0.125 -1.1185832443970116
v 1.3125 0.396875 -0.9249066168623266
v 1.3125 0.396875 -1.1185832443970116
v 1.3125 0.125 -0.9249066168623266
v 1.3125 0.125 -1.1185832443970116
v 1.25 0.396875 -0.9249066168623266
v 1.25 0.396875 -1.1185832443970116
v 1.25 0.125 -0.9249066168623266
v 1.25 0.125 -1.1185832443970116
v 1.4359375 0.6625 -0.9249066168623266
v 1.4359375 0.6625 -1.1203125000000003
v 1.4359375 0.30937500000000007 -0.9249066168623266
v 1.4359375 0.30937500000000007 -1.1203125000000003
v 0.375 0.6625 -0.9249066168623266
v 0.375 0.6625 -1.1203125000000003
v 0.375 0.30937500000000007 -0.9249066168623266
v 0.375 0.30937500000000007 -1.1203125000000003
v 1.4359375 0.6625 2.1203125000000003
v 1.4359375 0.6625 1.9249066168623266
v 1.4359375 0.30937500000000007 2.1203125000000003
v 1.4359375 0.30937500000000007 1.9249066168623266
v 0.375 0.6625 2.1203125000000003
v 0.375 0.6625 1.9249066168623266
v 0.375 0.30937500000000007 2.1203125000000003
v 0.375 0.30937500000000007 1.9249066168623266
v 1.337836806005767 -0.1174398028239223 -0.9249066168623266
v 1.2494408330571098 0.37361158396412075 -0.9249066168623266
v 1.2494408330571098 0.37361158396412075 -1.1168539887940234
v 1.4359990063350911 -0.07677968813513159 -0.9249066168623266
v 1.4359990063350911 -0.07677968813513159 -1.1168539887940234
v 1.1512786327277857 0.33295146927533004 -0.9249066168623266
v 1.1512786327277857 0.33295146927533004 -1.1168539887940234
v 1.337836806005767 -0.1174398028239223 -1.1168539887940234
vt 0.44921875 0.921875
vt 0.44921875 0.9375
vt 0.40625 0.9375
vt 0.40625 0.921875
vt 0.44921875 0.90625
vt 0.44921875 0.921875
vt 0.40625 0.921875
vt 0.40625 0.90625
vt 0.125 0.6796875
vt 0.125 0.63671875
vt 0.25 0.63671875
vt 0.25 0.6796875
vt 0 0.62109375
vt 0 0.6640625
vt 0.125 0.6640625
vt 0.125 0.62109375
vt 0.5 0.75
vt 0.5 0.765625
vt 0.375 0.765625
vt 0.375 0.75
vt 0.4921875 0.640625
vt 0.4921875 0.65625
vt 0.3671875 0.65625
vt 0.3671875 0.640625
vt 0.25 0.6875
vt 0.25 0.734375
vt 0.3671875 0.734375
vt 0.3671875 0.6875
vt 0.25 0.640625
vt 0.25 0.6875
vt 0.3671875 0.6875
vt 0.3671875 0.640625
vt 0.125 0.8828125
vt 0.125 1
vt 0.25 1
vt 0.25 0.8828125
vt 0.125 0.8828125
vt 0.125 0.765625
vt 0.25 0.765625
vt 0.25 0.8828125
vt 0.25 0.78125
vt 0.25 0.828125
vt 0.375 0.828125
vt 0.375 0.78125
vt 0.25 0.734375
vt 0.25 0.78125
vt 0.375 0.78125
vt 0.375 0.734375
vt 0.40625 0.921875
vt 0.40625 0.9375
vt 0.44921875 0.9375
vt 0.44921875 0.921875
vt 0.40625 0.90625
vt 0.40625 0.921875
vt 0.44921875 0.921875
vt 0.44921875 0.90625
vt 0.125 0.63671875
vt 0.125 0.6796875
vt 0.25 0.6796875
vt 0.25 0.63671875
vt 0 0.6640625
vt 0 0.62109375
vt 0.125 0.62109375
vt 0.125 0.6640625
vt 0.3671875 0.640625
vt 0.3671875 0.65625
vt 0.4921875 0.65625
vt 0.4921875 0.640625
vt 0.375 0.75
vt 0.375 0.765625
vt 0.5 0.765625
vt 0.5 0.75
vt 0.125 0.6640625
vt 0.125 0.75
vt 0 0.75
vt 0 0.6640625
vt 0.375 0.828125
vt 0.375 0.9140625
vt 0.25 0.9140625
vt 0.25 0.828125
vt 0 1
vt 0 0.875
vt 0.125 0.875
vt 0.125 1
vt 0 0.75
vt 0 0.875
vt 0.125 0.875
vt 0.125 0.75
vt 0.375 0.9140625
vt 0.375 1
vt 0.25 1
vt 0.25 0.9140625
vt 0.25 0.6796875
vt 0.25 0.765625
vt 0.125 0.765625
vt 0.125 0.6796875
vt 0.3671875 0.6875
vt 0.3671875 0.734375
vt 0.25 0.734375
vt 0.25 0.6875
vt 0.3671875 0.640625
vt 0.3671875 0.6875
vt 0.25 0.6875
vt 0.25 0.640625
vt 0.125 1
vt 0.125 0.8828125
vt 0.25 0.8828125
vt 0.25 1
vt 0.125 0.765625
vt 0.125 0.8828125
vt 0.25 0.8828125
vt 0.25 0.765625
vt 0.375 0.734375
vt 0.375 0.78125
vt 0.25 0.78125
vt 0.25 0.734375
vt 0.375 0.78125
vt 0.375 0.828125
vt 0.25 0.828125
vt 0.25 0.78125
vt 0.25 0.6875
vt 0.25 0.734375
vt 0.3671875 0.734375
vt 0.3671875 0.6875
vt 0.25 0.640625
vt 0.25 0.6875
vt 0.3671875 0.6875
vt 0.3671875 0.640625
vt 0.125 0.8828125
vt 0.125 1
vt 0.25 1
vt 0.25 0.8828125
vt 0.125 0.8828125
vt 0.125 0.765625
vt 0.25 0.765625
vt 0.25 0.8828125
vt 0.25 0.78125
vt 0.25 0.828125
vt 0.375 0.828125
vt 0.375 0.78125
vt 0.25 0.734375
vt 0.25 0.78125
vt 0.375 0.78125
vt 0.375 0.734375
vt 0.3671875 0.6875
vt 0.3671875 0.734375
vt 0.25 0.734375
vt 0.25 0.6875
vt 0.3671875 0.640625
vt 0.3671875 0.6875
vt 0.25 0.6875
vt 0.25 0.640625
vt 0.125 1
vt 0.125 0.8828125
vt 0.25 0.8828125
vt 0.25 1
vt 0.125 0.765625
vt 0.125 0.8828125
vt 0.25 0.8828125
vt 0.25 0.765625
vt 0.375 0.734375
vt 0.375 0.78125
vt 0.25 0.78125
vt 0.25 0.734375
vt 0.375 0.78125
vt 0.375 0.828125
vt 0.25 0.828125
vt 0.25 0.78125
vt 0.40625 0.921875
vt 0.40625 1
vt 0.375 1
vt 0.375 0.921875
vt 0.40625 0.765625
vt 0.40625 0.84375
vt 0.375 0.84375
vt 0.375 0.765625
vt 0.21875 0.609375
vt 0.21875 0.578125
vt 0.25 0.578125
vt 0.25 0.609375
vt 0 0.5703125
vt 0 0.6015625
vt 0.03125 0.6015625
vt 0.03125 0.5703125
vt 0.40625 0.84375
vt 0.40625 0.921875
vt 0.375 0.921875
vt 0.375 0.84375
vt 0.3984375 0.65625
vt 0.3984375 0.734375
vt 0.3671875 0.734375
vt 0.3671875 0.65625
vt 0.3203125 0.5703125
vt 0.3203125 0.5859375
vt 0.3046875 0.5859375
vt 0.3046875 0.5703125
vt 0.3359375 0.5703125
vt 0.3359375 0.5859375
vt 0.3203125 0.5859375
vt 0.3203125 0.5703125
vt 0.375 0.625
vt 0.375 0.609375
vt 0.48046875 0.609375
vt 0.48046875 0.625
vt 0 0.6015625
vt 0 0.6171875
vt 0.10546875 0.6171875
vt 0.10546875 0.6015625
vt 0.48046875 0.625
vt 0.48046875 0.640625
vt 0.375 0.640625
vt 0.375 0.625
vt 0.48046875 0.734375
vt 0.48046875 0.75
vt 0.375 0.75
vt 0.375 0.734375
vt 0.3515625 0.58984375
vt 0.3515625 0.6171875
vt 0.296875 0.6171875
vt 0.296875 0.58984375
vt 0.1640625 0.58203125
vt 0.1640625 0.609375
vt 0.109375 0.609375
vt 0.109375 0.58203125
vt 0.1875 0.6171875
vt 0.1875 0.5625
vt 0.203125 0.5625
vt 0.203125 0.6171875
vt 0.26171875 0.57421875
vt 0.26171875 0.62890625
vt 0.27734375 0.62890625
vt 0.27734375 0.57421875
vt 0.421875 0.84765625
vt 0.421875 0.875
vt 0.40625 0.875
vt 0.40625 0.84765625
vt 0.421875 0.87890625
vt 0.421875 0.90625
vt 0.40625 0.90625
vt 0.40625 0.87890625
vt 0.2734375 0.55078125
vt 0.2734375 0.6171875
vt 0.25 0.6171875
vt 0.25 0.55078125
vt 0.296875 0.55078125
vt 0.296875 0.6171875
vt 0.2734375 0.6171875
vt 0.2734375 0.55078125
vt 0.40625 0.84375
vt 0.40625 0.8203125
vt 0.421875 0.8203125
vt 0.421875 0.84375
vt 0.40625 0.796875
vt 0.40625 0.8203125
vt 0.421875 0.8203125
vt 0.421875 0.796875
vt 0.21875 0.54296875
vt 0.21875 0.609375
vt 0.203125 0.609375
vt 0.203125 0.54296875
vt 0.203125 0.54296875
vt 0.203125 0.609375
vt 0.1875 0.609375
vt 0.1875 0.54296875
vt 0.0859375 0.56640625
vt 0.0859375 0.6015625
vt 0.0625 0.6015625
vt 0.0625 0.56640625
vt 0.109375 0.56640625
vt 0.109375 0.6015625
vt 0.0859375 0.6015625
vt 0.0859375 0.56640625
vt 0.3359375 0.5859375
vt 0.3359375 0.5625
vt 0.34375 0.5625
vt 0.34375 0.5859375
vt 0.34375 0.5625
vt 0.34375 0.5859375
vt 0.3515625 0.5859375
vt 0.3515625 0.5625
vt 0.421875 0.66796875
vt 0.421875 0.703125
vt 0.4140625 0.703125
vt 0.4140625 0.66796875
vt 0.3046875 0.55078125
vt 0.3046875 0.5859375
vt 0.296875 0.5859375
vt 0.296875 0.55078125
vt 0.375 0.5546875
vt 0.375 0.6171875
vt 0.3515625 0.6171875
vt 0.3515625 0.5546875
vt 0.1875 0.546875
vt 0.1875 0.609375
vt 0.1640625 0.609375
vt 0.1640625 0.546875
vt 0.40625 0.796875
vt 0.40625 0.7734375
vt 0.41796875 0.7734375
vt 0.41796875 0.796875
vt 0.375 0.5703125
vt 0.375 0.59375
vt 0.38671875 0.59375
vt 0.38671875 0.5703125
vt 0.41796875 0.9375
vt 0.41796875 1
vt 0.40625 1
vt 0.40625 0.9375
vt 0.41015625 0.65625
vt 0.41015625 0.71875
vt 0.3984375 0.71875
vt 0.3984375 0.65625
vt 0.3046875 0.5703125
vt 0.3046875 0.5859375
vt 0.3203125 0.5859375
vt 0.3203125 0.5703125
vt 0.3203125 0.5703125
vt 0.3203125 0.5859375
vt 0.3359375 0.5859375
vt 0.3359375 0.5703125
vt 0.375 0.609375
vt 0.375 0.625
vt 0.48046875 0.625
vt 0.48046875 0.609375
vt 0 0.6171875
vt 0 0.6015625
vt 0.10546875 0.6015625
vt 0.10546875 0.6171875
vt 0.375 0.734375
vt 0.375 0.75
vt 0.48046875 0.75
vt 0.48046875 0.734375
vt 0.375 0.625
vt 0.375 0.640625
vt 0.48046875 0.640625
vt 0.48046875 0.625
vt 0.296875 0.58984375
vt 0.296875 0.6171875
vt 0.3515625 0.6171875
vt 0.3515625 0.58984375
vt 0.109375 0.58203125
vt 0.109375 0.609375
vt 0.1640625 0.609375
vt 0.1640625 0.58203125
vt 0.1875 0.5625
vt 0.1875 0.6171875
vt 0.203125 0.6171875
vt 0.203125 0.5625
vt 0.26171875 0.62890625
vt 0.26171875 0.57421875
vt 0.27734375 0.57421875
vt 0.27734375 0.62890625
vt 0.40625 0.87890625
vt 0.40625 0.90625
vt 0.421875 0.90625
vt 0.421875 0.87890625
vt 0.40625 0.84765625
vt 0.40625 0.875
vt 0.421875 0.875
vt 0.421875 0.84765625
vt 0.25 0.55078125
vt 0.25 0.6171875
vt 0.2734375 0.6171875
vt 0.2734375 0.55078125
vt 0.2734375 0.55078125
vt 0.2734375 0.6171875
vt 0.296875 0.6171875
vt 0.296875 0.55078125
vt 0.40625 0.8203125
vt 0.40625 0.84375
vt 0.421875 0.84375
vt 0.421875 0.8203125
vt 0.40625 0.8203125
vt 0.40625 0.796875
vt 0.421875 0.796875
vt 0.421875 0.8203125
vt 0.1875 0.54296875
vt 0.1875 0.609375
vt 0.203125 0.609375
vt 0.203125 0.54296875
vt 0.203125 0.54296875
vt 0.203125 0.609375
vt 0.21875 0.609375
vt 0.21875 0.54296875
vt 0.0625 0.56640625
vt 0.0625 0.6015625
vt 0.0859375 0.6015625
vt 0.0859375 0.56640625
vt 0.0859375 0.56640625
vt 0.0859375 0.6015625
vt 0.109375 0.6015625
vt 0.109375 0.56640625
vt 0.3359375 0.5625
vt 0.3359375 0.5859375
vt 0.34375 0.5859375
vt 0.34375 0.5625
vt 0.34375 0.5859375
vt 0.34375 0.5625
vt 0.3515625 0.5625
vt 0.3515625 0.5859375
vt 0.296875 0.55078125
vt 0.296875 0.5859375
vt 0.3046875 0.5859375
vt 0.3046875 0.55078125
vt 0.4140625 0.66796875
vt 0.4140625 0.703125
vt 0.421875 0.703125
vt 0.421875 0.66796875
vt 0.390625 0.58203125
vt 0.390625 0.59375
vt 0.4140625 0.59375
vt 0.4140625 0.58203125
vt 0.4140625 0.70703125
vt 0.4140625 0.71875
vt 0.4375 0.71875
vt 0.4375 0.70703125
vt 0.25 0.6171875
vt 0.25 0.640625
vt 0.375 0.640625
vt 0.375 0.6171875
vt 0.125 0.6328125
vt 0.125 0.609375
vt 0.25 0.609375
vt 0.25 0.6328125
vt 0.375 0.59765625
vt 0.375 0.609375
vt 0.5 0.609375
vt 0.5 0.59765625
vt 0.3984375 0.72578125
vt 0.3984375 0.734375
vt 0.5234375 0.734375
vt 0.5234375 0.72578125
vt 0.4140625 0.58203125
vt 0.4140625 0.59375
vt 0.390625 0.59375
vt 0.390625 0.58203125
vt 0.4375 0.70703125
vt 0.4375 0.71875
vt 0.4140625 0.71875
vt 0.4140625 0.70703125
vt 0.25 0.640625
vt 0.25 0.6171875
vt 0.375 0.6171875
vt 0.375 0.640625
vt 0.125 0.609375
vt 0.125 0.6328125
vt 0.25 0.6328125
vt 0.25 0.609375
vt 0.5234375 0.72578125
vt 0.5234375 0.734375
vt 0.3984375 0.734375
vt 0.3984375 0.72578125
vt 0.5 0.59765625
vt 0.5 0.609375
vt 0.375 0.609375
vt 0.375 0.59765625
vt 0.3515625 0.5546875
vt 0.3515625 0.6171875
vt 0.375 0.6171875
vt 0.375 0.5546875
vt 0.1640625 0.546875
vt 0.1640625 0.609375
vt 0.1875 0.609375
vt 0.1875 0.546875
vt 0.40625 0.7734375
vt 0.40625 0.796875
vt 0.41796875 0.796875
vt 0.41796875 0.7734375
vt 0.375 0.59375
vt 0.375 0.5703125
vt 0.38671875 0.5703125
vt 0.38671875 0.59375
vt 0.3984375 0.65625
vt 0.3984375 0.71875
vt 0.41015625 0.71875
vt 0.41015625 0.65625
vt 0.40625 0.9375
vt 0.40625 1
vt 0.41796875 1
vt 0.41796875 0.9375
vn 1 0 0
vn -1 0 0
vn 0 1 0
vn 0 -1 0
vn 0 0 1
vn 0 0 -1
vn 1 0 0
vn -1 0 0
vn 0 1 0
vn 0 -1 0
vn 0 0 1
vn 0 0 -1
vn 1 0 0
vn -1 0 0
vn 0 1 0
vn 0 -1 0
vn 0 0 1
vn 0 0 -1
vn 1 0 0
vn -1 0 0
vn 0 1 0
vn 0 -1 0
vn 0 0 1
vn 0 0 -1
vn 1 0 0
vn -1 0 0
vn 0 1 0
vn 0 -1 0
vn 0 0 1
vn 0 0 -1
vn 1 0 0
vn -1 0 0
vn 0 1 0
vn 0 -1 0
vn 0 0 1
vn 0 0 -1
vn 1 0 0
vn -1 0 0
vn 0 1 0
vn 0 -1 0
vn 0 0 1
vn 0 0 -1
vn 1 0 0
vn -1 0 0
vn 0 1 0
vn 0 -1 0
vn 0 0 1
vn 0 0 -1
vn 1 0 0
vn -1 0 0
vn 0 1 0
vn 0 -1 0
vn 0 0 1
vn 0 0 -1
vn 1 0 0
vn -1 0 0
vn 0 1 0
vn 0 -1 0
vn 0 0 1
vn 0 0 -1
vn 1 0 0
vn -1 0 0
vn 0 1 0
vn 0 -1 0
vn 0 0 1
vn 0 0 -1
vn 1 0 0
vn -1 0 0
vn 0 1 0
vn 0 -1 0
vn 0 0 1
vn 0 0 -1
vn 0.9238795325112868 0.3826834323650896 0
vn -0.9238795325112868 -0.38268343236508984 0
vn -0.3826834323650892 0.923879532511287 0
vn 0.3826834323650896 -0.9238795325112868 0
vn 0 0 1
vn 0 0 -1
vn 1 0 0
vn -1 0 0
vn 0 1 0
vn 0 -1 0
vn 0 0 1
vn 0 0 -1
vn 1 0 0
vn -1 0 0
vn 0 1 0
vn 0 -1 0
vn 0 0 1
vn 0 0 -1
vn 1 0 0
vn -1 0 0
vn 0 1 0
vn 0 -1 0
vn 0 0 1
vn 0 0 -1
vn 1 0 0
vn -1 0 0
vn 0 1 0
vn 0 -1 0
vn 0 0 1
vn 0 0 -1
vn 1 0 0
vn -1 0 0
vn 0 1 0
vn 0 -1 0
vn 0 0 1
vn 0 0 -1
vn 1 0 0
vn -1 0 0
vn 0 1 0
vn 0 -1 0
vn 0 0 1
vn 0 0 -1
vn 0.9238795325112868 0.3826834323650896 0
vn -0.9238795325112868 -0.38268343236508984 0
vn -0.3826834323650892 0.923879532511287 0
vn 0.3826834323650896 -0.9238795325112868 0
vn 0 0 1
vn 0 0 -1
usemtl m_eb68c933-9092-5a24-2411-68ddf27ca93b
f 4/1/1 2/2/1 1/3/1 3/4/1
f 7/5/2 5/6/2 6/7/2 8/8/2
f 1/9/3 2/10/3 6/11/3 5/12/3
f 4/13/4 3/14/4 7/15/4 8/16/4
f 3/17/5 1/18/5 5/19/5 7/20/5
f 8/21/6 6/22/6 2/23/6 4/24/6
f 12/25/7 10/26/7 9/27/7 11/28/7
f 15/29/8 13/30/8 14/31/8 16/32/8
f 9/33/9 10/34/9 14/35/9 13/36/9
f 12/37/10 11/38/10 15/39/10 16/40/10
f 11/41/11 9/42/11 13/43/11 15/44/11
f 16/45/12 14/46/12 10/47/12 12/48/12
f 20/49/13 18/50/13 17/51/13 19/52/13
f 23/53/14 21/54/14 22/55/14 24/56/14
f 17/57/15 18/58/15 22/59/15 21/60/15
f 20/61/16 19/62/16 23/63/16 24/64/16
f 19/65/17 17/66/17 21/67/17 23/68/17
f 24/69/18 22/70/18 18/71/18 20/72/18
f 28/73/19 26/74/19 25/75/19 27/76/19
f 31/77/20 29/78/20 30/79/20 32/80/20
f 25/81/21 26/82/21 30/83/21 29/84/21
f 28/85/22 27/86/22 31/87/22 32/88/22
f 27/89/23 25/90/23 29/91/23 31/92/23
f 32/93/24 30/94/24 26/95/24 28/96/24
f 36/97/25 34/98/25 33/99/25 35/100/25
f 39/101/26 37/102/26 38/103/26 40/104/26
f 33/105/27 34/106/27 38/107/27 37/108/27
f 36/109/28 35/110/28 39/111/28 40/112/28
f 35/113/29 33/114/29 37/115/29 39/116/29
f 40/117/30 38/118/30 34/119/30 36/120/30
f 44/121/31 42/122/31 41/123/31 43/124/31
f 47/125/32 45/126/32 46/127/32 48/128/32
f 41/129/33 42/130/33 46/131/33 45/132/33
f 44/133/34 43/134/34 47/135/34 48/136/34
f 43/137/35 41/138/35 45/139/35 47/140/35
f 48/141/36 46/142/36 42/143/36 44/144/36
f 52/145/37 50/146/37 49/147/37 51/148/37
f 55/149/38 53/150/38 54/151/38 56/152/38
f 49/153/39 50/154/39 54/155/39 53/156/39
f 52/157/40 51/158/40 55/159/40 56/160/40
f 51/161/41 49/162/41 53/163/41 55/164/41
f 56/165/42 54/166/42 50/167/42 52/168/42
f 60/169/43 58/170/43 57/171/43 59/172/43
f 63/173/44 61/174/44 62/175/44 64/176/44
f 57/177/45 58/178/45 62/179/45 61/180/45
f 60/181/46 59/182/46 63/183/46 64/184/46
f 59/185/47 57/186/47 61/187/47 63/188/47
f 64/189/48 62/190/48 58/191/48 60/192/48
f 68/193/49 66/194/49 65/195/49 67/196/49
f 71/197/50 69/198/50 70/199/50 72/200/50
f 65/201/51 66/202/51 70/203/51 69/204/51
f 68/205/52 67/206/52 71/207/52 72/208/52
f 67/209/53 65/210/53 69/211/53 71/212/53
f 72/213/54 70/214/54 66/215/54 68/216/54
f 76/217/55 74/218/55 73/219/55 75/220/55
f 79/221/56 77/222/56 78/223/56 80/224/56
f 73/225/57 74/226/57 78/227/57 77/228/57
f 76/229/58 75/230/58 79/231/58 80/232/58
f 75/233/59 73/234/59 77/235/59 79/236/59
f 80/237/60 78/238/60 74/239/60 76/240/60
f 84/241/61 82/242/61 81/243/61 83/244/61
f 87/245/62 85/246/62 86/247/62 88/248/62
f 81/249/63 82/250/63 86/251/63 85/252/63
f 84/253/64 83/254/64 87/255/64 88/256/64
f 83/257/65 81/258/65 85/259/65 87/260/65
f 88/261/66 86/262/66 82/263/66 84/264/66
f 92/265/67 90/266/67 89/267/67 91/268/67
f 95/269/68 93/270/68 94/271/68 96/272/68
f 89/273/69 90/274/69 94/275/69 93/276/69
f 92/277/70 91/278/70 95/279/70 96/280/70
f 91/281/71 89/282/71 93/283/71 95/284/71
f 96/285/72 94/286/72 90/287/72 92/288/72
f 100/289/73 98/290/73 97/291/73 99/292/73
f 103/293/74 101/294/74 102/295/74 104/296/74
f 97/297/75 98/298/75 102/299/75 101/300/75
f 100/301/76 99/302/76 103/303/76 104/304/76
f 99/305/77 97/306/77 101/307/77 103/308/77
f 104/309/78 102/310/78 98/311/78 100/312/78
f 108/313/79 106/314/79 105/315/79 107/316/79
f 111/317/80 109/318/80 110/319/80 112/320/80
f 105/321/81 106/322/81 110/323/81 109/324/81
f 108/325/82 107/326/82 111/327/82 112/328/82
f 107/329/83 105/330/83 109/331/83 111/332/83
f 112/333/84 110/334/84 106/335/84 108/336/84
f 116/337/85 114/338/85 113/339/85 115/340/85
f 119/341/86 117/342/86 118/343/86 120/344/86
f 113/345/87 114/346/87 118/347/87 117/348/87
f 116/349/88 115/350/88 119/351/88 120/352/88
f 115/353/89 113/354/89 117/355/89 119/356/89
f 120/357/90 118/358/90 114/359/90 116/360/90
f 124/361/91 122/362/91 121/363/91 123/364/91
f 127/365/92 125/366/92 126/367/92 128/368/92
f 121/369/93 122/370/93 126/371/93 125/372/93
f 124/373/94 123/374/94 127/375/94 128/376/94
f 123/377/95 121/378/95 125/379/95 127/380/95
f 128/381/96 126/382/96 122/383/96 124/384/96
f 132/385/97 130/386/97 129/387/97 131/388/97
f 135/389/98 133/390/98 134/391/98 136/392/98
f 129/393/99 130/394/99 134/395/99 133/396/99
f 132/397/100 131/398/100 135/399/100 136/400/100
f 131/401/101 129/402/101 133/403/101 135/404/101
f 136/405/102 134/406/102 130/407/102 132/408/102
f 140/409/103 138/410/103 137/411/103 139/412/103
f 143/413/104 141/414/104 142/415/104 144/416/104
f 137/417/105 138/418/105 142/419/105 141/420/105
f 140/421/106 139/422/106 143/423/106 144/424/106
f 139/425/107 137/426/107 141/427/107 143/428/107
f 144/429/108 142/430/108 138/431/108 140/432/108
f 148/433/109 146/434/109 145/435/109 147/436/109
f 151/437/110 149/438/110 150/439/110 152/440/110
f 145/441/111 146/442/111 150/443/111 149/444/111
f 148/445/112 147/446/112 151/447/112 152/448/112
f 147/449/113 145/450/113 149/451/113 151/452/113
f 152/453/114 150/454/114 146/455/114 148/456/114
f 157/457/115 155/458/115 154/459/115 156/460/115
f 153/461/116 158/462/116 159/463/116 160/464/116
f 154/465/117 155/466/117 159/467/117 158/468/117
f 157/469/118 156/470/118 153/471/118 160/472/118
f 156/473/119 154/474/119 158/475/119 153/476/119
f 160/477/120 159/478/120 155/479/120 157/480/120