# Made in Blockbench 4.12.6
mtllib sw220k_top_a.mtl

o top_selection
v -0.25625 0.421875 1.85625
v -0.25625 0.421875 2.03125
v -0.25625 -0.1 1.85625
v -0.25625 -0.1 2.03125
v -0.375 0.421875 1.85625
v -0.375 0.421875 2.03125
v -0.375 -0.1 1.85625
v -0.375 -0.1 2.03125
v -0.13437500000000002 0.421875 1.85625
v -0.13437500000000002 0.421875 2.03125
v -0.13437500000000002 0.35825 1.85625
v -0.13437500000000002 0.35825 2.03125
v -0.25625 0.421875 1.85625
v -0.25625 0.421875 2.03125
v -0.25625 0.35825 1.85625
v -0.25625 0.35825 2.03125
v -0.13460625000000004 0.358296875 1.859375
v -0.13460625000000004 0.358296875 2.028125
v -0.25419499999999995 0.069584375 1.859375
v -0.25419499999999995 0.069584375 2.028125
v -0.255865625 0.40852375 1.859375
v -0.255865625 0.40852375 2.028125
v -0.375454375 0.119811875 1.859375
v -0.375454375 0.119811875 2.028125
v 0.50625 0.05625 1.88125
v 0.50625 0.05625 2
v 0.50625 -0.0625 1.88125
v 0.50625 -0.0625 2
v -0.32499999999999996 0.05625 1.88125
v -0.32499999999999996 0.05625 2
v -0.32499999999999996 -0.0625 1.88125
v -0.32499999999999996 -0.0625 2
v -0.25625 0.484375 1.90625
v -0.375 0.484375 1.90625
v -0.25625 0.484375 1.73125
v -0.375 0.484375 1.73125
v -0.13437500000000002 0.484375 1.90625
v -0.25625 0.484375 1.90625
v -0.13437500000000002 0.484375 1.73125
v -0.25625 0.484375 1.73125
v 0.5625 0.4625 0.5625
v 0.5625 0.4625 0.4375
v 0.5625 -0.1625 0.5625
v 0.5625 -0.1625 0.4375
v 0.4375 0.4625 0.5625
v 0.4375 0.4625 0.4375
v 0.4375 -0.1625 0.5625
v 0.4375 -0.1625 0.4375
v 1.3671875 0.803125 1.93125
v 1.3671875 0.803125 1
v 1.3671875 0.428125 1.93125
v 1.3671875 0.428125 1
v -0.3734375 0.803125 1.93125
v -0.3734375 0.803125 1
v -0.3734375 0.428125 1.93125
v -0.3734375 0.428125 1
v 1.3671875 0.803125 0
v 1.3671875 0.803125 -0.9312499999999999
v 1.3671875 0.428125 0
v 1.3671875 0.428125 -0.9312499999999999
v -0.3734375 0.803125 0
v -0.3734375 0.803125 -0.9312499999999999
v -0.3734375 0.428125 0
v -0.3734375 0.428125 -0.9312499999999999
v 1 1 1
v 1 1 0
v 1 0.3125 1
v 1 0.3125 0
v 0 1 1
v 0 1 0
v 0 0.3125 1
v 0 0.3125 0
v -0.25625 0.421875 -0.85625
v -0.25625 0.421875 -1.03125
v -0.25625 -0.1 -0.85625
v -0.25625 -0.1 -1.03125
v -0.375 0.421875 -0.85625
v -0.375 0.421875 -1.03125
v -0.375 -0.1 -0.85625
v -0.375 -0.1 -1.03125
v -0.13437500000000002 0.421875 -0.85625
v -0.13437500000000002 0.421875 -1.03125
v -0.13437500000000002 0.35825 -0.85625
v -0.13437500000000002 0.35825 -1.03125
v -0.25625 0.421875 -0.85625
v -0.25625 0.421875 -1.03125
v -0.25625 0.35825 -0.85625
v -0.25625 0.35825 -1.03125
v -0.13460625000000004 0.358296875 -0.859375
v -0.13460625000000004 0.358296875 -1.028125
v -0.25419499999999995 0.069584375 -0.859375
v -0.25419499999999995 0.069584375 -1.028125
v -0.255865625 0.40852375 -0.859375
v -0.255865625 0.40852375 -1.028125
v -0.375454375 0.119811875 -0.859375
v -0.375454375 0.119811875 -1.028125
v 0.50625 0.05625 -0.8812500000000001
v 0.50625 0.05625 -1
v 0.50625 -0.0625 -0.8812500000000001
v 0.50625 -0.0625 -1
v -0.32499999999999996 0.05625 -0.8812500000000001
v -0.32499999999999996 0.05625 -1
v -0.32499999999999996 -0.0625 -0.8812500000000001
v -0.32499999999999996 -0.0625 -1
v -0.25625 0.484375 -0.90625
v -0.375 0.484375 -0.90625
v -0.25625 0.484375 -0.73125
v -0.375 0.484375 -0.73125
v -0.13437500000000002 0.484375 -0.90625
v -0.25625 0.484375 -0.90625
v -0.13437500000000002 0.484375 -0.73125
v -0.25625 0.484375 -0.73125
vt 0.3984375 0.703125
vt 0.375 0.703125
vt 0.375 0.62890625
vt 0.3984375 0.62890625
vt 0.3984375 0.625
vt 0.375 0.625
vt 0.375 0.55078125
vt 0.3984375 0.55078125
vt 0.1484375 0.5859375
vt 0.1328125 0.5859375
vt 0.1328125 0.5625
vt 0.1484375 0.5625
vt 0.1640625 0.5625
vt 0.1484375 0.5625
vt 0.1484375 0.5859375
vt 0.1640625 0.5859375
vt 0.046875 0.59375
vt 0.03125 0.59375
vt 0.03125 0.51953125
vt 0.046875 0.51953125
vt 0.0625 0.59375
vt 0.046875 0.59375
vt 0.046875 0.51953125
vt 0.0625 0.51953125
vt 0.078125 0.7265625
vt 0.1015625 0.7265625
vt 0.1015625 0.69140625
vt 0.078125 0.69140625
vt 0.40625 0.859375
vt 0.4296875 0.859375
vt 0.4296875 0.82421875
vt 0.40625 0.82421875
vt 0.421875 0.71875
vt 0.40625 0.71875
vt 0.40625 0.7421875
vt 0.421875 0.7421875
vt 0.1328125 0.5859375
vt 0.1171875 0.5859375
vt 0.1171875 0.5625
vt 0.1328125 0.5625
vt 0.40625 0.8203125
vt 0.421875 0.8203125
vt 0.421875 0.78515625
vt 0.40625 0.78515625
vt 0.40625 0.758203125
vt 0.421875 0.758203125
vt 0.421875 0.7484375
vt 0.40625 0.7484375
vt 0.396875 0.6796875
vt 0.41796875 0.6796875
vt 0.41796875 0.640625
vt 0.396875 0.640625
vt 0.3984375 0.625
vt 0.41796875 0.625
vt 0.41796875 0.55078125
vt 0.3984375 0.55078125
vt 0.1796875 0.56640625
vt 0.1640625 0.56640625
vt 0.1640625 0.5859375
vt 0.1796875 0.5859375
vt 0.1953125 0.5859375
vt 0.1796875 0.5859375
vt 0.1796875 0.56640625
vt 0.1953125 0.56640625
vt 0 0.59375
vt 0.015625 0.59375
vt 0.015625 0.51953125
vt 0 0.51953125
vt 0.01640625 0.564062109375
vt 0.032813046875 0.5640625
vt 0.032813046875 0.525
vt 0.0164065625 0.525000390625
vt 0.125 0.765625
vt 0.140625 0.765625
vt 0.140625 0.75
vt 0.125 0.75
vt 0.140625 0.765625
vt 0.15625 0.765625
vt 0.15625 0.75
vt 0.140625 0.75
vt 0.23046875 0.5859375
vt 0.125 0.5859375
vt 0.125 0.6015625
vt 0.23046875 0.6015625
vt 0.33984375 0.6015625
vt 0.234375 0.6015625
vt 0.234375 0.5859375
vt 0.33984375 0.5859375
vt 0.125 0.6171875
vt 0.23046875 0.6171875
vt 0.23046875 0.6015625
vt 0.125 0.6015625
vt 0.234375 0.6171875
vt 0.33984375 0.6171875
vt 0.33984375 0.6015625
vt 0.234375 0.6015625
vt 0.0546875 0.78125
vt 0.0546875 0.7890625
vt 0.0765625 0.7890625
vt 0.0765625 0.78125
vt 0.0546875 0.69140625
vt 0.0546875 0.69921875
vt 0.06953125 0.69921875
vt 0.06953125 0.69140625
vt 0.296875 0.77734375
vt 0.296875 0.78515625
vt 0.31875 0.78515625
vt 0.31875 0.77734375
vt 0.0625 0.78125
vt 0.0625 0.7890625
vt 0.07734375 0.7890625
vt 0.07734375 0.78125
vt 0.3046875 0.78515625
vt 0.3046875 0.79296875
vt 0.3265625 0.79296875
vt 0.3265625 0.78515625
vt 0.31640625 0.76953125
vt 0.31640625 0.77734375
vt 0.331640625 0.77734375
vt 0.331640625 0.76953125
vt 0.203125 0.859375
vt 0.203125 0.8671875
vt 0.225 0.8671875
vt 0.225 0.859375
vt 0.203125 0.8671875
vt 0.203125 0.875
vt 0.218359375 0.875
vt 0.218359375 0.8671875
vt 0.375 0.5859375
vt 0.375 0.6640625
vt 0.34375 0.6640625
vt 0.34375 0.5859375
vt 0.40625 0.703125
vt 0.40625 0.78125
vt 0.375 0.78125
vt 0.375 0.703125
vt 0.34375 0.78125
vt 0.34375 0.75
vt 0.375 0.75
vt 0.375 0.78125
vt 0.0625 0.5625
vt 0.0625 0.59375
vt 0.09375 0.59375
vt 0.09375 0.5625
vt 0.40625 0.78125
vt 0.40625 0.859375
vt 0.375 0.859375
vt 0.375 0.78125
vt 0.375 0.78125
vt 0.375 0.859375
vt 0.34375 0.859375
vt 0.34375 0.78125
vt 0.4609375 0.90625
vt 0.4609375 0.953125
vt 0.34375 0.953125
vt 0.34375 0.90625
vt 0.4609375 0.859375
vt 0.4609375 0.90625
vt 0.34375 0.90625
vt 0.34375 0.859375
vt 0 1
vt 0 0.8828125
vt 0.21875 0.8828125
vt 0.21875 1
vt 0 0.765625
vt 0 0.8828125
vt 0.21875 0.8828125
vt 0.21875 0.765625
vt 0.5625 0.953125
vt 0.5625 1
vt 0.34375 1
vt 0.34375 0.953125
vt 0.34375 0.6171875
vt 0.34375 0.6640625
vt 0.125 0.6640625
vt 0.125 0.6171875
vt 0.4609375 0.90625
vt 0.4609375 0.953125
vt 0.34375 0.953125
vt 0.34375 0.90625
vt 0.4609375 0.859375
vt 0.4609375 0.90625
vt 0.34375 0.90625
vt 0.34375 0.859375
vt 0 1
vt 0 0.8828125
vt 0.21875 0.8828125
vt 0.21875 1
vt 0 0.765625
vt 0 0.8828125
vt 0.21875 0.8828125
vt 0.21875 0.765625
vt 0.34375 0.6171875
vt 0.34375 0.6640625
vt 0.125 0.6640625
vt 0.125 0.6171875
vt 0.5625 0.953125
vt 0.5625 1
vt 0.34375 1
vt 0.34375 0.953125
vt 0.25 0.6640625
vt 0.25 0.75
vt 0.125 0.75
vt 0.125 0.6640625
vt 0.125 0.59375
vt 0.125 0.6796875
vt 0 0.6796875
vt 0 0.59375
vt 0.21875 1
vt 0.21875 0.875
vt 0.34375 0.875
vt 0.34375 1
vt 0.21875 0.75
vt 0.21875 0.875
vt 0.34375 0.875
vt 0.34375 0.75
vt 0.375 0.6640625
vt 0.375 0.75
vt 0.25 0.75
vt 0.25 0.6640625
vt 0.125 0.6796875
vt 0.125 0.765625
vt 0 0.765625
vt 0 0.6796875
vt 0.375 0.62890625
vt 0.375 0.703125
vt 0.3984375 0.703125
vt 0.3984375 0.62890625
vt 0.375 0.55078125
vt 0.375 0.625
vt 0.3984375 0.625
vt 0.3984375 0.55078125
vt 0.1328125 0.5625
vt 0.1328125 0.5859375
vt 0.1484375 0.5859375
vt 0.1484375 0.5625
vt 0.1484375 0.5859375
vt 0.1484375 0.5625
vt 0.1640625 0.5625
vt 0.1640625 0.5859375
vt 0.03125 0.51953125
vt 0.03125 0.59375
vt 0.046875 0.59375
vt 0.046875 0.51953125
vt 0.046875 0.51953125
vt 0.046875 0.59375
vt 0.0625 0.59375
vt 0.0625 0.51953125
vt 0.1015625 0.69140625
vt 0.1015625 0.7265625
vt 0.078125 0.7265625
vt 0.078125 0.69140625
vt 0.4296875 0.82421875
vt 0.4296875 0.859375
vt 0.40625 0.859375
vt 0.40625 0.82421875
vt 0.40625 0.7421875
vt 0.40625 0.71875
vt 0.421875 0.71875
vt 0.421875 0.7421875
vt 0.1171875 0.5625
vt 0.1171875 0.5859375
vt 0.1328125 0.5859375
vt 0.1328125 0.5625
vt 0.421875 0.78515625
vt 0.421875 0.8203125
vt 0.40625 0.8203125
vt 0.40625 0.78515625
vt 0.421875 0.7484375
vt 0.421875 0.758203125
vt 0.40625 0.758203125
vt 0.40625 0.7484375
vt 0.41796875 0.640625
vt 0.41796875 0.6796875
vt 0.396875 0.6796875
vt 0.396875 0.640625
vt 0.41796875 0.55078125
vt 0.41796875 0.625
vt 0.3984375 0.625
vt 0.3984375 0.55078125
vt 0.1640625 0.5859375
vt 0.1640625 0.56640625
vt 0.1796875 0.56640625
vt 0.1796875 0.5859375
vt 0.1796875 0.56640625
vt 0.1796875 0.5859375
vt 0.1953125 0.5859375
vt 0.1953125 0.56640625
vt 0.015625 0.51953125
vt 0.015625 0.59375
vt 0 0.59375
vt 0 0.51953125
vt 0.032813046875 0.525
vt 0.032813046875 0.5640625
vt 0.01640625 0.564062109375
vt 0.0164065625 0.525000390625
vt 0.140625 0.75
vt 0.140625 0.765625
vt 0.125 0.765625
vt 0.125 0.75
vt 0.15625 0.75
vt 0.15625 0.765625
vt 0.140625 0.765625
vt 0.140625 0.75
vt 0.125 0.6015625
vt 0.125 0.5859375
vt 0.23046875 0.5859375
vt 0.23046875 0.6015625
vt 0.234375 0.5859375
vt 0.234375 0.6015625
vt 0.33984375 0.6015625
vt 0.33984375 0.5859375
vt 0.23046875 0.6015625
vt 0.23046875 0.6171875
vt 0.125 0.6171875
vt 0.125 0.6015625
vt 0.33984375 0.6015625
vt 0.33984375 0.6171875
vt 0.234375 0.6171875
vt 0.234375 0.6015625
vt 0.0765625 0.7890625
vt 0.0546875 0.7890625
vt 0.0546875 0.78125
vt 0.0765625 0.78125
vt 0.06953125 0.69921875
vt 0.0546875 0.69921875
vt 0.0546875 0.69140625
vt 0.06953125 0.69140625
vt 0.31875 0.78515625
vt 0.296875 0.78515625
vt 0.296875 0.77734375
vt 0.31875 0.77734375
vt 0.07734375 0.7890625
vt 0.0625 0.7890625
vt 0.0625 0.78125
vt 0.07734375 0.78125
vt 0.3265625 0.79296875
vt 0.3046875 0.79296875
vt 0.3046875 0.78515625
vt 0.3265625 0.78515625
vt 0.331640625 0.77734375
vt 0.31640625 0.77734375
vt 0.31640625 0.76953125
vt 0.331640625 0.76953125
vt 0.225 0.8671875
vt 0.203125 0.8671875
vt 0.203125 0.859375
vt 0.225 0.859375
vt 0.218359375 0.875
vt 0.203125 0.875
vt 0.203125 0.8671875
vt 0.218359375 0.8671875
vn 1 0 0
vn -1 0 0
vn 0 1 0
vn 0 -1 0
vn 0 0 -1
vn 0 0 1
vn 1 0 0
vn -1 0 0
vn 0 1 0
vn 0 -1 0
vn 0 0 -1
vn 0 0 1
vn 0.9238794002842076 -0.38268375158934215 0
vn -0.9238791073898781 0.3826844586973477 0
vn 0.38268081356589895 0.9238806172490803 0
vn -0.38268487810281365 -0.9238789336657887 0
vn 0 0 -1
vn 0 0 1
vn 1 0 0
vn -1 0 0
vn 0 1 0
vn 0 -1 0
vn 0 0 -1
vn 0 0 1
vn 1 0 0
vn 0 0.8944271909999161 0.44721359549995804
vn -1 0 0
vn 0 -0.8944271909999161 -0.44721359549995804
vn 1 0 0
vn 0 0.894427190999916 0.447213595499958
vn -1 0 0
vn 0 -0.894427190999916 -0.447213595499958
vn 1 0 0
vn -1 0 0
vn 0 1 0
vn 0 -1 0
vn 0 0 1
vn 0 0 -1
vn 1 0 0
vn -1 0 0
vn 0 1 0
vn 0 -1 0
vn 0 0 1
vn 0 0 -1
vn 1 0 0
vn -1 0 0
vn 0 1 0
vn 0 -1 0
vn 0 0 1
vn 0 0 -1
vn 1 0 0
vn -1 0 0
vn 0 1 0
vn 0 -1 0
vn 0 0 1
vn 0 0 -1
vn 1 0 0
vn -1 0 0
vn 0 1 0
vn 0 -1 0
vn 0 0 1
vn 0 0 -1
vn 1 0 0
vn -1 0 0
vn 0 1 0
vn 0 -1 0
vn 0 0 1
vn 0 0 -1
vn 0.9238794002842076 -0.38268375158934215 0
vn -0.9238791073898781 0.3826844586973477 0
vn 0.38268081356589895 0.9238806172490803 0
vn -0.38268487810281365 -0.9238789336657887 0
vn 0 0 1
vn 0 0 -1
vn 1 0 0
vn -1 0 0
vn 0 1 0
vn 0 -1 0
vn 0 0 1
vn 0 0 -1
vn 1 0 0
vn 0 0.8944271909999161 -0.44721359549995804
vn -1 0 0
vn 0 -0.8944271909999161 0.44721359549995804
vn 1 0 0
vn 0 0.894427190999916 -0.447213595499958
vn -1 0 0
vn 0 -0.894427190999916 0.447213595499958
usemtl m_6d786b78-31f3-ea18-2abd-14071991423f
f 1/1/1 2/2/1 4/3/1 3/4/1
f 6/5/2 5/6/2 7/7/2 8/8/2
f 34/9/3 33/10/3 35/11/3 36/12/3
f 7/13/4 3/14/4 4/15/4 8/16/4
f 5/17/5 1/18/5 3/19/5 7/20/5
f 2/21/6 6/22/6 8/23/6 4/24/6
f 9/25/7 10/26/7 12/27/7 11/28/7
f 14/29/8 13/30/8 15/31/8 16/32/8
f 38/33/9 37/34/9 39/35/9 40/36/9
f 15/37/10 11/38/10 12/39/10 16/40/10
f 13/41/11 9/42/11 11/43/11 15/44/11
f 10/45/12 14/46/12 16/47/12 12/48/12
f 17/49/13 18/50/13 20/51/13 19/52/13
f 22/53/14 21/54/14 23/55/14 24/56/14
f 22/57/15 18/58/15 17/59/15 21/60/15
f 23/61/16 19/62/16 20/63/16 24/64/16
f 21/65/17 17/66/17 19/67/17 23/68/17
f 18/69/18 22/70/18 24/71/18 20/72/18
f 25/73/19 26/74/19 28/75/19 27/76/19
f 30/77/20 29/78/20 31/79/20 32/80/20
f 30/81/21 26/82/21 25/83/21 29/84/21
f 31/85/22 27/86/22 28/87/22 32/88/22
f 29/89/23 25/90/23 27/91/23 31/92/23
f 26/93/24 30/94/24 32/95/24 28/96/24
f 1/97/25 35/98/25 33/99/25 2/100/25
f 2/101/26 33/102/26 34/103/26 6/104/26
f 6/105/27 34/106/27 36/107/27 5/108/27
f 5/109/28 36/110/28 35/111/28 1/112/28
f 9/113/29 39/114/29 37/115/29 10/116/29
f 10/117/30 37/118/30 38/119/30 14/120/30
f 14/121/31 38/122/31 40/123/31 13/124/31
f 13/125/32 40/126/32 39/127/32 9/128/32
f 44/129/33 42/130/33 41/131/33 43/132/33
f 47/133/34 45/134/34 46/135/34 48/136/34
f 41/137/35 42/138/35 46/139/35 45/140/35
f 44/141/36 43/142/36 47/143/36 48/144/36
f 43/145/37 41/146/37 45/147/37 47/148/37
f 48/149/38 46/150/38 42/151/38 44/152/38
f 52/153/39 50/154/39 49/155/39 51/156/39
f 55/157/40 53/158/40 54/159/40 56/160/40
f 49/161/41 50/162/41 54/163/41 53/164/41
f 52/165/42 51/166/42 55/167/42 56/168/42
f 51/169/43 49/170/43 53/171/43 55/172/43
f 56/173/44 54/174/44 50/175/44 52/176/44
f 60/177/45 58/178/45 57/179/45 59/180/45
f 63/181/46 61/182/46 62/183/46 64/184/46
f 57/185/47 58/186/47 62/187/47 61/188/47
f 60/189/48 59/190/48 63/191/48 64/192/48
f 59/193/49 57/194/49 61/195/49 63/196/49
f 64/197/50 62/198/50 58/199/50 60/200/50
f 68/201/51 66/202/51 65/203/51 67/204/51
f 71/205/52 69/206/52 70/207/52 72/208/52
f 65/209/53 66/210/53 70/211/53 69/212/53
f 68/213/54 67/214/54 71/215/54 72/216/54
f 67/217/55 65/218/55 69/219/55 71/220/55
f 72/221/56 70/222/56 66/223/56 68/224/56
f 76/225/57 74/226/57 73/227/57 75/228/57
f 79/229/58 77/230/58 78/231/58 80/232/58
f 107/233/59 105/234/59 106/235/59 108/236/59
f 76/237/60 75/238/60 79/239/60 80/240/60
f 75/241/61 73/242/61 77/243/61 79/244/61
f 80/245/62 78/246/62 74/247/62 76/248/62
f 84/249/63 82/250/63 81/251/63 83/252/63
f 87/253/64 85/254/64 86/255/64 88/256/64
f 111/257/65 109/258/65 110/259/65 112/260/65
f 84/261/66 83/262/66 87/263/66 88/264/66
f 83/265/67 81/266/67 85/267/67 87/268/67
f 88/269/68 86/270/68 82/271/68 84/272/68
f 92/273/69 90/274/69 89/275/69 91/276/69
f 95/277/70 93/278/70 94/279/70 96/280/70
f 89/281/71 90/282/71 94/283/71 93/284/71
f 92/285/72 91/286/72 95/287/72 96/288/72
f 91/289/73 89/290/73 93/291/73 95/292/73
f 96/293/74 94/294/74 90/295/74 92/296/74
f 100/297/75 98/298/75 97/299/75 99/300/75
f 103/301/76 101/302/76 102/303/76 104/304/76
f 97/305/77 98/306/77 102/307/77 101/308/77
f 100/309/78 99/310/78 103/311/78 104/312/78
f 99/313/79 97/314/79 101/315/79 103/316/79
f 104/317/80 102/318/80 98/319/80 100/320/80
f 105/321/81 107/322/81 73/323/81 74/324/81
f 106/325/82 105/326/82 74/327/82 78/328/82
f 108/329/83 106/330/83 78/331/83 77/332/83
f 107/333/84 108/334/84 77/335/84 73/336/84
f 109/337/85 111/338/85 81/339/85 82/340/85
f 110/341/86 109/342/86 82/343/86 86/344/86
f 112/345/87 110/346/87 86/347/87 85/348/87
f 111/349/88 112/350/88 85/351/88 81/352/88
