# Made in Blockbench 4.12.3
mtllib hxd3d_panto_bow_head.mtl

o second_selection.001
v 0.03125 0.11371999999999982 0.04176099999999999
v 0.03125 0.11371999999999982 -0.036314999999999986
v 0.03125 0.055684999999999985 -0.036314999999999986
v 0.03125 0.055684999999999985 0.04176099999999999
v 0.5 0.11371999999999982 0.04176099999999999
v 0.5 0.11371999999999982 -0.036314999999999986
v 0.5 0.055684999999999985 -0.036314999999999986
v 0.5 0.055684999999999985 0.04176099999999999
v 0.140625 0.055684999999999985 -0.036314999999999986
v 0.140625 0.055684999999999985 0.04176099999999999
v 0.140625 -0.0313690000000002 0.04176099999999999
v 0.140625 -0.0313690000000002 -0.036314999999999986
v 0.078125 0.055684999999999985 0.04176099999999999
v 0.078125 0.055684999999999985 -0.036314999999999986
v 0.078125 -0.0313690000000002 -0.036314999999999986
v 0.078125 -0.0313690000000002 0.04176099999999999
v 1.21875 0.1717559999999998 0.08079900000000001
v 1.21875 0.1717559999999998 0.158875
v 1.21875 0.11371999999999982 0.158875
v 1.21875 0.11371999999999982 0.08079900000000001
v -0.21875 0.1717559999999998 0.158875
v -0.21875 0.1717559999999998 0.08079900000000001
v -0.21875 0.11371999999999982 0.08079900000000001
v -0.21875 0.11371999999999982 0.158875
v 1.21875 0.1717559999999998 -0.153428
v 1.21875 0.1717559999999998 -0.07535199999999997
v 1.21875 0.11371999999999982 -0.07535199999999997
v 1.21875 0.11371999999999982 -0.153428
v -0.21875 0.1717559999999998 -0.07535199999999997
v -0.21875 0.1717559999999998 -0.153428
v -0.21875 0.11371999999999982 -0.153428
v -0.21875 0.11371999999999982 -0.07535199999999997
v -0.21860100000000005 0.16885400000000006 -0.15392099999999997
v -0.192187 0.16885400000000006 -0.08316000000000001
v -0.192187 0.116622 -0.08316000000000001
v -0.21860100000000005 0.116622 -0.15392099999999997
v -0.376281 0.16885400000000006 0.02407799999999999
v -0.402695 0.16885400000000006 -0.046682999999999975
v -0.402695 0.116622 -0.046682999999999975
v -0.376281 0.116622 0.02407799999999999
v -0.192187 0.16885400000000006 0.08860699999999999
v -0.21860100000000005 0.16885400000000006 0.159368
v -0.21860100000000005 0.116622 0.159368
v -0.192187 0.116622 0.08860699999999999
v -0.402695 0.16885400000000006 0.05213000000000001
v -0.376281 0.16885400000000006 -0.01863100000000001
v -0.376281 0.116622 -0.01863100000000001
v -0.402695 0.116622 0.05213000000000001
v 1.402695 0.16885400000000006 -0.046682999999999975
v 1.376281 0.16885400000000006 0.02407799999999999
v 1.376281 0.116622 0.02407799999999999
v 1.402695 0.116622 -0.046682999999999975
v 1.192187 0.16885400000000006 -0.08316000000000001
v 1.218601 0.16885400000000006 -0.15392099999999997
v 1.218601 0.116622 -0.15392099999999997
v 1.192187 0.116622 -0.08316000000000001
v 1.376281 0.16885400000000006 -0.01863100000000001
v 1.402695 0.16885400000000006 0.05213000000000001
v 1.402695 0.116622 0.05213000000000001
v 1.376281 0.116622 -0.01863100000000001
v 1.218601 0.16885400000000006 0.159368
v 1.192187 0.16885400000000006 0.08860699999999999
v 1.192187 0.116622 0.08860699999999999
v 1.218601 0.116622 0.159368
v 1.34375 0.1717559999999998 0.04176099999999999
v 1.34375 0.1717559999999998 -0.036314999999999986
v 1.34375 0.11371999999999982 -0.036314999999999986
v 1.34375 0.11371999999999982 0.04176099999999999
v 1.421875 0.1717559999999998 0.04176099999999999
v 1.421875 0.1717559999999998 -0.036314999999999986
v 1.421875 0.11371999999999982 -0.036314999999999986
v 1.421875 0.11371999999999982 0.04176099999999999
v 0.28125 0.11371999999999982 -0.11438999999999999
v 0.34375 0.11371999999999982 -0.11438999999999999
v 0.34375 0.11371999999999982 0.11983700000000003
v 0.28125 0.11371999999999982 0.11983700000000003
v 0.03125 0.11371999999999982 -0.11438999999999999
v 0.09375 0.11371999999999982 -0.11438999999999999
v 0.09375 0.11371999999999982 0.11983700000000003
v 0.03125 0.11371999999999982 0.11983700000000003
v -0.1875 0.14273800000000003 0.08079900000000001
v -0.125 0.14273800000000003 0.08079900000000001
v -0.125 0.14273800000000003 -0.07535199999999997
v -0.1875 0.14273800000000003 -0.07535199999999997
v 1.125 0.14273800000000003 -0.07535199999999997
v 1.1875 0.14273800000000003 -0.07535199999999997
v 1.1875 0.14273800000000003 0.08079900000000001
v 1.125 0.14273800000000003 0.08079900000000001
v 0.65625 0.11371999999999982 -0.11438999999999999
v 0.71875 0.11371999999999982 -0.11438999999999999
v 0.71875 0.11371999999999982 0.11983700000000003
v 0.65625 0.11371999999999982 0.11983700000000003
v 0.90625 0.11371999999999982 -0.11438999999999999
v 0.96875 0.11371999999999982 -0.11438999999999999
v 0.96875 0.11371999999999982 0.11983700000000003
v 0.90625 0.11371999999999982 0.11983700000000003
v 1.4954239999999999 0.07628600000000008 -0.03886899999999999
v 1.4954239999999999 0.07628600000000008 0.03920699999999999
v 1.4858259999999999 0.035248999999999864 0.03920699999999999
v 1.4858259999999999 0.035248999999999864 -0.03886899999999999
v -0.34375 0.11371999999999982 -0.036314999999999986
v -0.34375 0.1717559999999998 -0.036314999999999986
v -0.34375 0.1717559999999998 0.04176099999999999
v -0.34375 0.11371999999999982 0.04176099999999999
v -0.421875 0.1717559999999998 -0.036314999999999986
v -0.421875 0.1717559999999998 0.04176099999999999
v -0.421875 0.11371999999999982 0.04176099999999999
v -0.421875 0.11371999999999982 -0.036314999999999986
v -0.485826 0.035248999999999864 0.03920699999999999
v -0.495424 0.07628600000000008 0.03920699999999999
v -0.495424 0.07628600000000008 -0.03886899999999999
v -0.485826 0.035248999999999864 -0.03886899999999999
v 0.96875 0.055684999999999985 -0.036314999999999986
v 0.96875 0.11371999999999982 -0.036314999999999986
v 0.96875 0.11371999999999982 0.04176099999999999
v 0.96875 0.055684999999999985 0.04176099999999999
v 0.5 0.11371999999999982 -0.036314999999999986
v 0.5 0.11371999999999982 0.04176099999999999
v 0.5 0.055684999999999985 0.04176099999999999
v 0.5 0.055684999999999985 -0.036314999999999986
v 0.859375 -0.0313690000000002 0.04176099999999999
v 0.859375 0.055684999999999985 0.04176099999999999
v 0.859375 0.055684999999999985 -0.036314999999999986
v 0.859375 -0.0313690000000002 -0.036314999999999986
v 0.921875 -0.0313690000000002 -0.036314999999999986
v 0.921875 0.055684999999999985 -0.036314999999999986
v 0.921875 0.055684999999999985 0.04176099999999999
v 0.921875 -0.0313690000000002 0.04176099999999999
vt 0.078125 0.640625
vt 0.070312 0.640625
vt 0.070312 0.632812
vt 0.078125 0.632812
vt 0.179688 0.765625
vt 0.238281 0.765625
vt 0.238281 0.773438
vt 0.179688 0.773438
vt 0.234375 0.992188
vt 0.292969 0.992188
vt 0.292969 1
vt 0.234375 1
vt 0.296875 0.757812
vt 0.238281 0.757812
vt 0.238281 0.75
vt 0.296875 0.75
vt 0.179688 0.734375
vt 0.238281 0.734375
vt 0.238281 0.742188
vt 0.179688 0.742188
vt 0.460938 0.546875
vt 0.453125 0.546875
vt 0.453125 0.539062
vt 0.460938 0.539062
vt 0.46875 1
vt 0.460938 1
vt 0.460938 0.992188
vt 0.46875 0.992188
vt 0.023438 0.53125
vt 0.03125 0.53125
vt 0.03125 0.539062
vt 0.023438 0.539062
vt 0.460938 0.960938
vt 0.46875 0.960938
vt 0.46875 0.96875
vt 0.460938 0.96875
vt 0.46875 0.9375
vt 0.460938 0.9375
vt 0.460938 0.929688
vt 0.46875 0.929688
vt 0.46875 0.921875
vt 0.460938 0.921875
vt 0.460938 0.914062
vt 0.46875 0.914062
vt 0.25 0.546875
vt 0.242188 0.546875
vt 0.242188 0.539062
vt 0.25 0.539062
vt 0.382812 0.546875
vt 0.375 0.546875
vt 0.375 0.539062
vt 0.382812 0.539062
vt 0.195312 0.96875
vt 0.375 0.96875
vt 0.375 0.976562
vt 0.195312 0.976562
vt 0.195312 0.953125
vt 0.375 0.953125
vt 0.375 0.960938
vt 0.195312 0.960938
vt 0.375 0.945312
vt 0.195312 0.945312
vt 0.195312 0.9375
vt 0.375 0.9375
vt 0.375 0.867188
vt 0.195312 0.867188
vt 0.195312 0.859375
vt 0.375 0.859375
vt 0.460938 0.617188
vt 0.453125 0.617188
vt 0.453125 0.609375
vt 0.460938 0.609375
vt 0.398438 0.546875
vt 0.390625 0.546875
vt 0.390625 0.539062
vt 0.398438 0.539062
vt 0.195312 0.84375
vt 0.375 0.84375
vt 0.375 0.851562
vt 0.195312 0.851562
vt 0.195312 0.828125
vt 0.375 0.828125
vt 0.375 0.835938
vt 0.195312 0.835938
vt 0.375 0.820312
vt 0.195312 0.820312
vt 0.195312 0.8125
vt 0.375 0.8125
vt 0.375 0.804688
vt 0.195312 0.804688
vt 0.195312 0.796875
vt 0.375 0.796875
vt 0.484375 0.570312
vt 0.476562 0.570312
vt 0.476562 0.5625
vt 0.484375 0.5625
vt 0.484375 0.710938
vt 0.476562 0.710938
vt 0.476562 0.703125
vt 0.484375 0.703125
vt 0.399947 0.648438
vt 0.426579 0.648438
vt 0.428178 0.65625
vt 0.401546 0.65625
vt 0.375 0.596944
vt 0.375 0.570312
vt 0.382812 0.571912
vt 0.382812 0.598543
vt 0.4375 0.710938
vt 0.414062 0.710938
vt 0.414062 0.703125
vt 0.4375 0.703125
vt 0.164062 0.578125
vt 0.140625 0.578125
vt 0.140625 0.570312
vt 0.164062 0.570312
vt 0.484375 0.539062
vt 0.476562 0.539062
vt 0.476562 0.53125
vt 0.484375 0.53125
vt 0.328125 0.523438
vt 0.320312 0.523438
vt 0.320312 0.515625
vt 0.328125 0.515625
vt 0.320312 0.599963
vt 0.320312 0.573332
vt 0.328125 0.574931
vt 0.328125 0.601562
vt 0.399947 0.953125
vt 0.426578 0.953125
vt 0.428178 0.960938
vt 0.401547 0.960938
vt 0.195312 0.578125
vt 0.171875 0.578125
vt 0.171875 0.570312
vt 0.195312 0.570312
vt 0.4375 0.679688
vt 0.414062 0.679688
vt 0.414062 0.671875
vt 0.4375 0.671875
vt 0.484375 0.671875
vt 0.476562 0.671875
vt 0.476562 0.664062
vt 0.484375 0.664062
vt 0.484375 0.523438
vt 0.476562 0.523438
vt 0.476562 0.515625
vt 0.484375 0.515625
vt 0.390625 0.599963
vt 0.390625 0.573332
vt 0.398438 0.574931
vt 0.398438 0.601562
vt 0.337447 0.59375
vt 0.364079 0.59375
vt 0.365678 0.601562
vt 0.339046 0.601562
vt 0.359375 0.585938
vt 0.335938 0.585938
vt 0.335938 0.578125
vt 0.359375 0.578125
vt 0.265625 0.578125
vt 0.242188 0.578125
vt 0.242188 0.570312
vt 0.265625 0.570312
vt 0.484375 0.65625
vt 0.476562 0.65625
vt 0.476562 0.648438
vt 0.484375 0.648438
vt 0.484375 0.640625
vt 0.476562 0.640625
vt 0.476562 0.632812
vt 0.484375 0.632812
vt 0.399947 0.765625
vt 0.426578 0.765625
vt 0.428178 0.773438
vt 0.401547 0.773438
vt 0.226562 0.596944
vt 0.226562 0.570312
vt 0.234375 0.571912
vt 0.234375 0.598543
vt 0.445312 0.984375
vt 0.421875 0.984375
vt 0.421875 0.976562
vt 0.445312 0.976562
vt 0.445312 0.945312
vt 0.421875 0.945312
vt 0.421875 0.9375
vt 0.445312 0.9375
vt 0.460938 0.601562
vt 0.453125 0.601562
vt 0.453125 0.59375
vt 0.460938 0.59375
vt 0.460938 0.578125
vt 0.460938 0.585938
vt 0.453125 0.585938
vt 0.453125 0.578125
vt 0.445312 0.539062
vt 0.445312 0.546875
vt 0.4375 0.546875
vt 0.4375 0.539062
vt 0.386436 0.789062
vt 0.386436 0.781808
vt 0.396201 0.781808
vt 0.396201 0.789062
vt 0.301065 0.617745
vt 0.301065 0.625
vt 0.291299 0.625
vt 0.291299 0.617745
vt 0.054688 0.742188
vt 0.0625 0.742188
vt 0.0625 0.773438
vt 0.054688 0.773438
vt 0.164062 0.59375
vt 0.171875 0.59375
vt 0.171875 0.625
vt 0.164062 0.625
vt 0.03125 0.5625
vt 0.039062 0.5625
vt 0.039062 0.578125
vt 0.03125 0.578125
vt 0.421875 0.5625
vt 0.429688 0.5625
vt 0.429688 0.578125
vt 0.421875 0.578125
vt 0.382812 0.953125
vt 0.390625 0.953125
vt 0.390625 0.984375
vt 0.382812 0.984375
vt 0.03125 0.585938
vt 0.039062 0.585938
vt 0.039062 0.617188
vt 0.03125 0.617188
vt 0.484375 0.765625
vt 0.476562 0.765625
vt 0.476562 0.757812
vt 0.484375 0.757812
vt 0.28597 0.578125
vt 0.276211 0.578125
vt 0.27653 0.5625
vt 0.286289 0.5625
vt 0.386436 0.781808
vt 0.386436 0.789062
vt 0.377236 0.777129
vt 0.378436 0.771999
vt 0.287702 0.546875
vt 0.287456 0.554688
vt 0.274798 0.554688
vt 0.275044 0.546875
vt 0.301065 0.625
vt 0.301065 0.617745
vt 0.309065 0.607937
vt 0.310263 0.613066
vt 0.46875 0.78125
vt 0.46875 0.789062
vt 0.460938 0.789062
vt 0.460938 0.78125
vt 0.46875 0.773438
vt 0.460938 0.773438
vt 0.460938 0.765625
vt 0.46875 0.765625
vt 0.265625 0.539062
vt 0.257812 0.539062
vt 0.257812 0.53125
vt 0.265625 0.53125
vt 0.228799 0.617745
vt 0.238564 0.617745
vt 0.238564 0.625
vt 0.228799 0.625
vt 0.279013 0.625
vt 0.269248 0.625
vt 0.269248 0.617745
vt 0.279013 0.617745
vt 0.257812 0.515625
vt 0.257812 0.523438
vt 0.25 0.523438
vt 0.25 0.515625
vt 0.02382 0.546875
vt 0.038887 0.546875
vt 0.03868 0.554688
vt 0.023613 0.554688
vt 0.247764 0.613066
vt 0.238564 0.625
vt 0.238564 0.617745
vt 0.246564 0.607937
vt 0.453125 0.726562
vt 0.453125 0.73922
vt 0.445312 0.739467
vt 0.445312 0.726809
vt 0.261248 0.607937
vt 0.269248 0.617745
vt 0.269248 0.625
vt 0.260049 0.613066
vt 0.070312 0.632812
vt 0.070312 0.640625
vt 0.078125 0.640625
vt 0.078125 0.632812
vt 0.238281 0.773438
vt 0.238281 0.765625
vt 0.179688 0.765625
vt 0.179688 0.773438
vt 0.292969 1
vt 0.292969 0.992188
vt 0.234375 0.992188
vt 0.234375 1
vt 0.238281 0.75
vt 0.238281 0.757812
vt 0.296875 0.757812
vt 0.296875 0.75
vt 0.238281 0.742188
vt 0.238281 0.734375
vt 0.179688 0.734375
vt 0.179688 0.742188
vt 0.453125 0.539062
vt 0.453125 0.546875
vt 0.460938 0.546875
vt 0.460938 0.539062
vt 0.460938 0.992188
vt 0.460938 1
vt 0.46875 1
vt 0.46875 0.992188
vt 0.03125 0.539062
vt 0.03125 0.53125
vt 0.023438 0.53125
vt 0.023438 0.539062
vt 0.46875 0.96875
vt 0.46875 0.960938
vt 0.460938 0.960938
vt 0.460938 0.96875
vt 0.460938 0.929688
vt 0.460938 0.9375
vt 0.46875 0.9375
vt 0.46875 0.929688
vt 0.460938 0.914062
vt 0.460938 0.921875
vt 0.46875 0.921875
vt 0.46875 0.914062
vn -1 0 0
vn 0 1 0
vn 0 -1 0
vn 0 0 -1
vn 0 0 1
vn 1 0 0
vn -1 0 0
vn 0 1 0
vn 0 -1 0
vn 0 0 -1
vn 0 0 1
vn 1 0 0
vn -1 0 0
vn 0 1 0
vn 0 -1 0
vn 0 0 -1
vn 0 0 1
vn 1 0 0
vn -1 0 0
vn 0 1 0
vn 0 -1 0
vn 0 0 -1
vn 0 0 1
vn 0.9368564372322777 0 -0.34971419190024794
vn -0.9368564372322777 0 0.34971419190024794
vn 0 1 0
vn 0 -1 0
vn -0.5033450410499958 0 -0.8640855106124499
vn 0.5033450410499958 0 0.8640855106124499
vn 0.9368564372322777 0 0.3497141919002476
vn -0.9368564372322777 0 -0.3497141919002476
vn 0 1 0
vn 0 -1 0
vn 0.5033450410499958 0 -0.8640855106124499
vn -0.5033450410499958 0 0.8640855106124499
vn 0.9368564372322777 0 0.34971419190024794
vn -0.9368564372322777 0 -0.34971419190024794
vn 0 1 0
vn 0 -1 0
vn 0.5033450410499958 0 -0.8640855106124499
vn -0.5033450410499958 0 0.8640855106124499
vn 0.9368564372322777 0 -0.3497141919002476
vn -0.9368564372322777 0 0.3497141919002476
vn 0 1 0
vn 0 -1 0
vn -0.5033450410499958 0 -0.8640855106124499
vn 0.5033450410499958 0 0.8640855106124499
vn -1 0 0
vn 0 1 0
vn 0 -1 0
vn 0 0 -1
vn 0 0 1
vn 0 -1 0
vn 0 -1 0
vn 0 1 0
vn 0 -1 0
vn 0 -1 0
vn 0 -1 0
vn 0.9737218861988028 -0.22774039680620065 0
vn 0.7921805163929831 0.610286841941842 0
vn -0.03470423171833978 0 -0.9993976267236379
vn -0.7751785452839403 -0.6317422124027128 0
vn 0.039905016056803556 0 0.9992034776228046
vn 1 0 0
vn 0 1 0
vn 0 -1 0
vn 0 0 -1
vn 0 0 1
vn -0.9737218861988028 -0.22774039680620065 0
vn -0.7921805163929831 0.610286841941842 0
vn 0.03470423171833978 0 -0.9993976267236379
vn 0.7751785452839403 -0.6317422124027128 0
vn -0.03990501605680356 0 0.9992034776228046
vn 1 0 0
vn 0 1 0
vn 0 -1 0
vn 0 0 -1
vn 0 0 1
vn -1 0 0
vn 1 0 0
vn 0 1 0
vn 0 -1 0
vn 0 0 -1
vn 0 0 1
usemtl m_522501b2-59ce-0856-395a-e48381b69e7c
f 1/1/1 2/2/1 3/3/1 4/4/1
f 1/5/2 5/6/2 6/7/2 2/8/2
f 3/9/3 7/10/3 8/11/3 4/12/3
f 2/13/4 6/14/4 7/15/4 3/16/4
f 4/17/5 8/18/5 5/19/5 1/20/5
f 9/21/6 10/22/6 11/23/6 12/24/6
f 13/25/7 14/26/7 15/27/7 16/28/7
f 13/29/8 10/30/8 9/31/8 14/32/8
f 15/33/9 12/34/9 11/35/9 16/36/9
f 14/37/10 9/38/10 12/39/10 15/40/10
f 10/41/11 13/42/11 16/43/11 11/44/11
f 17/45/12 18/46/12 19/47/12 20/48/12
f 21/49/13 22/50/13 23/51/13 24/52/13
f 21/53/14 18/54/14 17/55/14 22/56/14
f 23/57/15 20/58/15 19/59/15 24/60/15
f 22/61/16 17/62/16 20/63/16 23/64/16
f 18/65/17 21/66/17 24/67/17 19/68/17
f 25/69/18 26/70/18 27/71/18 28/72/18
f 29/73/19 30/74/19 31/75/19 32/76/19
f 29/77/20 26/78/20 25/79/20 30/80/20
f 31/81/21 28/82/21 27/83/21 32/84/21
f 30/85/22 25/86/22 28/87/22 31/88/22
f 26/89/23 29/90/23 32/91/23 27/92/23
f 33/93/24 34/94/24 35/95/24 36/96/24
f 37/97/25 38/98/25 39/99/25 40/100/25
f 37/101/26 34/102/26 33/103/26 38/104/26
f 39/105/27 36/106/27 35/107/27 40/108/27
f 38/109/28 33/110/28 36/111/28 39/112/28
f 34/113/29 37/114/29 40/115/29 35/116/29
f 41/117/30 42/118/30 43/119/30 44/120/30
f 45/121/31 46/122/31 47/123/31 48/124/31
f 45/125/32 42/126/32 41/127/32 46/128/32
f 47/129/33 44/130/33 43/131/33 48/132/33
f 46/133/34 41/134/34 44/135/34 47/136/34
f 42/137/35 45/138/35 48/139/35 43/140/35
f 49/141/36 50/142/36 51/143/36 52/144/36
f 53/145/37 54/146/37 55/147/37 56/148/37
f 53/149/38 50/150/38 49/151/38 54/152/38
f 55/153/39 52/154/39 51/155/39 56/156/39
f 54/157/40 49/158/40 52/159/40 55/160/40
f 50/161/41 53/162/41 56/163/41 51/164/41
f 57/165/42 58/166/42 59/167/42 60/168/42
f 61/169/43 62/170/43 63/171/43 64/172/43
f 61/173/44 58/174/44 57/175/44 62/176/44
f 63/177/45 60/178/45 59/179/45 64/180/45
f 62/181/46 57/182/46 60/183/46 63/184/46
f 58/185/47 61/186/47 64/187/47 59/188/47
f 65/189/48 66/190/48 67/191/48 68/192/48
f 69/193/49 70/194/49 66/195/49 65/196/49
f 71/197/50 72/198/50 68/199/50 67/200/50
f 70/201/51 71/202/51 67/203/51 66/204/51
f 72/205/52 69/206/52 65/207/52 68/208/52
f 73/209/53 74/210/53 75/211/53 76/212/53
f 77/213/54 78/214/54 79/215/54 80/216/54
f 81/217/55 82/218/55 83/219/55 84/220/55
f 85/221/56 86/222/56 87/223/56 88/224/56
f 89/225/57 90/226/57 91/227/57 92/228/57
f 93/229/58 94/230/58 95/231/58 96/232/58
f 97/233/59 98/234/59 99/235/59 100/236/59
f 70/237/60 69/238/60 98/239/60 97/240/60
f 71/241/61 70/242/61 97/243/61 100/244/61
f 72/245/62 71/246/62 100/247/62 99/248/62
f 69/249/63 72/250/63 99/251/63 98/252/63
f 101/253/64 102/254/64 103/255/64 104/256/64
f 102/257/65 105/258/65 106/259/65 103/260/65
f 104/261/66 107/262/66 108/263/66 101/264/66
f 101/265/67 108/266/67 105/267/67 102/268/67
f 103/269/68 106/270/68 107/271/68 104/272/68
f 109/273/69 110/274/69 111/275/69 112/276/69
f 110/277/70 106/278/70 105/279/70 111/280/70
f 111/281/71 105/282/71 108/283/71 112/284/71
f 112/285/72 108/286/72 107/287/72 109/288/72
f 109/289/73 107/290/73 106/291/73 110/292/73
f 113/293/74 114/294/74 115/295/74 116/296/74
f 117/297/75 118/298/75 115/299/75 114/300/75
f 119/301/76 120/302/76 113/303/76 116/304/76
f 120/305/77 117/306/77 114/307/77 113/308/77
f 118/309/78 119/310/78 116/311/78 115/312/78
f 121/313/79 122/314/79 123/315/79 124/316/79
f 125/317/80 126/318/80 127/319/80 128/320/80
f 123/321/81 122/322/81 127/323/81 126/324/81
f 121/325/82 124/326/82 125/327/82 128/328/82
f 124/329/83 123/330/83 126/331/83 125/332/83
f 128/333/84 127/334/84 122/335/84 121/336/84