# Made in Blockbench 4.12.3
mtllib hxd3d_panto_pull_rod.mtl

o cube
v 0.5 0.04431125896038507 -0.010145391582453613
v 0.5 0.04431125896038507 -0.010145391582453613
v 0.5 0.04371647243749999 1.2263877825755525
v 0.5 0.04371647243749999 1.2263877825755525
v 0.5 -0.018102803712090568 -0.006874578261765982
v 0.5 -0.018697590234975636 1.2296585958962403
v 0.5 -0.018102803712090568 -0.006874578261765982
v 0.5 -0.018697590234975636 1.2296585958962403
v 0.5 0.04371647243749999 1.2263877825755525
v 0.5 -0.018697590234975636 1.2296585958962403
v 0.5 -0.018697590234975636 1.2296585958962403
v 0.5 0.04371647243749999 1.2263877825755525
vt 0 0.875
vt 0 0.875
vt 0 1
vt 0 1
vt 0 0.875
vt 0.007811875 0.875
vt 0.007811875 1
vt 0 1
vt 0 0.875
vt 0 0.875
vt 0 1
vt 0 1
vt 0 0.875
vt 0.007811875 0.875
vt 0.007811875 1
vt 0 1
vt 0 0.992188125
vt 0 0.992188125
vt 0 1
vt 0 1
vt 0 0.992188125
vt 0 0.992188125
vt 0 1
vt 0 1
vt 0.007811875 1
vt 0 1
vt 0 1
vt 0.007811875 1
vt 0.007811875 1
vt 0 1
vt 0 1
vt 0.007811875 1
vn 0 0 0
vn 1 0 0
vn 0 0 0
vn -1 0 0
vn 0 0 0
vn 0 0 0
vn 0 0 0
vn 0 0 0
usemtl m_522501b2-59ce-0856-395a-e48381b69e7c
f 1/1/1 2/2/1 3/3/1 4/4/1
f 5/5/2 1/6/2 4/7/2 6/8/2
f 7/9/3 5/10/3 6/11/3 8/12/3
f 2/13/4 7/14/4 8/15/4 3/16/4
f 8/17/5 6/18/5 4/19/5 3/20/5
f 2/21/6 1/22/6 5/23/6 7/24/6
f 8/25/7 3/26/7 9/27/7 10/28/7
f 4/29/8 6/30/8 11/31/8 12/32/8